<svg width="68" height="68" viewBox="0 0 68 68" fill="none" xmlns="http://www.w3.org/2000/svg">
<rect width="68" height="68" rx="6" fill="#191F33"/>
<path d="M35.1819 22.4371C37.0207 20.0124 39.577 20.0006 39.577 20.0006C39.577 20.0006 39.9572 22.2802 38.1305 24.4763C36.18 26.8211 33.963 26.4374 33.963 26.4374C33.963 26.4374 33.5467 24.5933 35.1819 22.4371ZM34.1969 28.0343C35.1429 28.0343 36.8985 26.7334 39.1837 26.7334C43.1174 26.7334 44.6648 29.5337 44.6648 29.5337C44.6648 29.5337 41.6382 31.0819 41.6382 34.8385C41.6382 39.0762 45.4086 40.5366 45.4086 40.5366C45.4086 40.5366 42.773 47.9584 39.213 47.9584C37.578 47.9584 36.3068 46.856 34.584 46.856C32.8283 46.856 31.0861 47.9995 29.9514 47.9995C26.7006 47.9996 22.5938 40.9593 22.5938 35.3001C22.5938 29.7322 26.0699 26.8114 29.3305 26.8114C31.4501 26.8114 33.0949 28.0343 34.1969 28.0343Z" fill="white"/>
</svg>
