<svg width="40" height="40" viewBox="0 0 40 40" fill="none" xmlns="http://www.w3.org/2000/svg">
<g clip-path="url(#clip0_5201_14079)">
<path opacity="0.2" d="M13.75 25C18.2373 25 21.875 21.3623 21.875 16.875C21.875 12.3877 18.2373 8.75 13.75 8.75C9.26269 8.75 5.625 12.3877 5.625 16.875C5.625 21.3623 9.26269 25 13.75 25Z" fill="#0A65CC"/>
<path d="M13.75 25C18.2373 25 21.875 21.3623 21.875 16.875C21.875 12.3877 18.2373 8.75 13.75 8.75C9.26269 8.75 5.625 12.3877 5.625 16.875C5.625 21.3623 9.26269 25 13.75 25Z" stroke="#0A65CC" stroke-width="2" stroke-miterlimit="10"/>
<path d="M24.2852 9.05262C25.4027 8.73776 26.5747 8.66603 27.7223 8.84227C28.8699 9.01851 29.9664 9.43862 30.9379 10.0743C31.9095 10.71 32.7335 11.5465 33.3546 12.5275C33.9756 13.5085 34.3792 14.6112 34.5382 15.7613C34.6972 16.9114 34.6079 18.0822 34.2763 19.1949C33.9447 20.3075 33.3785 21.3362 32.6159 22.2117C31.8532 23.0871 30.9118 23.789 29.8551 24.2699C28.7984 24.7509 27.6508 24.9998 26.4898 25" stroke="#0A65CC" stroke-width="2" stroke-linecap="round" stroke-linejoin="round"/>
<path d="M2.5 30.8432C3.76896 29.0382 5.45358 27.565 7.41164 26.548C9.3697 25.531 11.5437 25.0001 13.7501 25C15.9566 24.9999 18.1306 25.5307 20.0887 26.5476C22.0469 27.5644 23.7316 29.0375 25.0007 30.8424" stroke="#0A65CC" stroke-width="2" stroke-linecap="round" stroke-linejoin="round"/>
<path d="M26.4883 25C28.6949 24.9984 30.8694 25.5285 32.8277 26.5455C34.786 27.5625 36.4704 29.0364 37.7383 30.8423" stroke="#0A65CC" stroke-width="2" stroke-linecap="round" stroke-linejoin="round"/>
</g>
<defs>
<clipPath id="clip0_5201_14079">
<rect width="40" height="40" fill="white"/>
</clipPath>
</defs>
</svg>
