<svg width="32" height="32" viewBox="0 0 32 32" fill="none" xmlns="http://www.w3.org/2000/svg">
<g clip-path="url(#clip0_1647_31999)">
<path opacity="0.2" d="M10.001 15.9981C10.001 14.0202 10.5875 12.0868 11.6863 10.4423C12.7851 8.79786 14.3469 7.51613 16.1742 6.75926C18.0014 6.00238 20.0121 5.80435 21.9519 6.1902C23.8917 6.57605 25.6735 7.52846 27.0721 8.92698C28.4706 10.3255 29.423 12.1073 29.8089 14.0471C30.1947 15.987 29.9967 17.9976 29.2398 19.8249C28.4829 21.6521 27.2012 23.2139 25.5567 24.3127C23.9122 25.4116 21.9788 25.9981 20.001 25.9981H9.00101C8.0083 25.9971 7.02716 25.785 6.12269 25.3758C5.21823 24.9667 4.41114 24.3698 3.75498 23.6249C3.09882 22.88 2.60862 22.004 2.31689 21.0551C2.02517 20.1063 1.9386 19.1062 2.06294 18.1213C2.18727 17.1364 2.51967 16.1892 3.03806 15.3426C3.55645 14.496 4.24898 13.7694 5.06969 13.2109C5.89039 12.6524 6.8205 12.2749 7.79827 12.1033C8.77604 11.9318 9.77912 11.9702 10.7409 12.216" fill="#F1F2F4"/>
<path d="M12.001 25.998H9.00101C8.0083 25.9971 7.02716 25.785 6.1227 25.3758C5.21823 24.9667 4.41114 24.3698 3.75498 23.6249C3.09882 22.88 2.60862 22.004 2.31689 21.0551C2.02517 20.1063 1.9386 19.1062 2.06294 18.1213C2.18727 17.1364 2.51967 16.1892 3.03806 15.3426C3.55645 14.496 4.24898 13.7694 5.06969 13.2109C5.89039 12.6524 6.8205 12.2749 7.79827 12.1033C8.77604 11.9318 9.77912 11.9702 10.7409 12.216" stroke="#F1F2F4" stroke-width="2" stroke-linecap="round" stroke-linejoin="round"/>
<path d="M10 15.998C10.0002 14.4136 10.3768 12.8518 11.0989 11.4415C11.821 10.0312 12.868 8.81262 14.1534 7.88625C15.4388 6.95988 16.926 6.35221 18.4923 6.11333C20.0587 5.87445 21.6594 6.01118 23.1625 6.51227C24.6656 7.01335 26.0282 7.86445 27.1379 8.99541C28.2476 10.1264 29.0726 11.5048 29.5451 13.0172C30.0175 14.5296 30.1239 16.1326 29.8553 17.6941C29.5867 19.2557 28.9509 20.731 28.0003 21.9986" stroke="#F1F2F4" stroke-width="2" stroke-linecap="round" stroke-linejoin="round"/>
<path d="M14.7578 20.2408L19.0004 15.998L23.2431 20.2408" stroke="#F1F2F4" stroke-width="2" stroke-linecap="round" stroke-linejoin="round"/>
<path d="M19 25.998V15.998" stroke="#F1F2F4" stroke-width="2" stroke-linecap="round" stroke-linejoin="round"/>
</g>
<defs>
<clipPath id="clip0_1647_31999">
<rect width="32" height="32" fill="white"/>
</clipPath>
</defs>
</svg>
