<svg width="237" height="56" viewBox="0 0 237 56" fill="none" xmlns="http://www.w3.org/2000/svg">
<rect width="56" height="56" rx="4" fill="#EA4C89"/>
<g clip-path="url(#clip0_1647_32441)">
<path d="M16 28C16 25.824 16.536 23.816 17.608 21.976C18.68 20.136 20.136 18.68 21.976 17.608C23.816 16.536 25.824 16 28 16C30.176 16 32.184 16.536 34.024 17.608C35.864 18.68 37.32 20.136 38.392 21.976C39.464 23.816 40 25.824 40 28C40 30.176 39.464 32.184 38.392 34.024C37.32 35.864 35.864 37.32 34.024 38.392C32.184 39.464 30.176 40 28 40C25.824 40 23.816 39.464 21.976 38.392C20.136 37.32 18.68 35.864 17.608 34.024C16.536 32.184 16 30.176 16 28ZM17.992 28C17.992 30.496 18.832 32.696 20.512 34.6C21.28 33.096 22.496 31.664 24.16 30.304C25.824 28.944 27.448 28.088 29.032 27.736C28.792 27.176 28.56 26.672 28.336 26.224C25.584 27.104 22.608 27.544 19.408 27.544C18.784 27.544 18.32 27.536 18.016 27.52C18.016 27.584 18.012 27.664 18.004 27.76C17.996 27.856 17.992 27.936 17.992 28ZM18.304 25.528C18.656 25.56 19.176 25.576 19.864 25.576C22.536 25.576 25.072 25.216 27.472 24.496C26.256 22.336 24.92 20.536 23.464 19.096C22.2 19.736 21.116 20.624 20.212 21.76C19.308 22.896 18.672 24.152 18.304 25.528ZM21.88 35.896C23.688 37.304 25.728 38.008 28 38.008C29.184 38.008 30.36 37.784 31.528 37.336C31.208 34.6 30.584 31.952 29.656 29.392C28.184 29.712 26.7 30.52 25.204 31.816C23.708 33.112 22.6 34.472 21.88 35.896ZM25.552 18.328C26.96 19.784 28.264 21.6 29.464 23.776C31.64 22.864 33.28 21.704 34.384 20.296C32.528 18.76 30.4 17.992 28 17.992C27.184 17.992 26.368 18.104 25.552 18.328ZM30.328 25.48C30.568 25.992 30.84 26.64 31.144 27.424C32.328 27.312 33.616 27.256 35.008 27.256C36 27.256 36.984 27.28 37.96 27.328C37.832 25.152 37.048 23.216 35.608 21.52C34.568 23.072 32.808 24.392 30.328 25.48ZM31.744 29.104C32.56 31.472 33.112 33.904 33.4 36.4C34.664 35.584 35.696 34.536 36.496 33.256C37.296 31.976 37.776 30.592 37.936 29.104C36.768 29.024 35.704 28.984 34.744 28.984C33.864 28.984 32.864 29.024 31.744 29.104Z" fill="white"/>
</g>
<path d="M77.6761 21H73.4382V7.90909H77.8104C79.093 7.90909 80.1946 8.17116 81.1151 8.69531C82.0355 9.2152 82.7408 9.96307 83.2308 10.9389C83.7251 11.9105 83.9723 13.076 83.9723 14.4354C83.9723 15.799 83.723 16.9709 83.2244 17.951C82.7301 18.9311 82.0142 19.6854 81.0767 20.2138C80.1392 20.7379 79.0057 21 77.6761 21ZM75.4134 19.2741H77.5675C78.5646 19.2741 79.3935 19.0866 80.054 18.7116C80.7145 18.3324 81.2088 17.7848 81.5369 17.0689C81.8651 16.3487 82.0291 15.4709 82.0291 14.4354C82.0291 13.4084 81.8651 12.5369 81.5369 11.821C81.2131 11.1051 80.7294 10.5618 80.0859 10.1911C79.4425 9.82031 78.6435 9.63494 77.6889 9.63494H75.4134V19.2741ZM86.275 21V11.1818H88.1223V12.7415H88.2246C88.4036 12.2131 88.7189 11.7976 89.1706 11.495C89.6266 11.1882 90.1422 11.0348 90.7175 11.0348C90.8368 11.0348 90.9775 11.0391 91.1394 11.0476C91.3056 11.0561 91.4355 11.0668 91.5293 11.0795V12.9077C91.4526 12.8864 91.3162 12.8629 91.1202 12.8374C90.9242 12.8075 90.7282 12.7926 90.5321 12.7926C90.0804 12.7926 89.6777 12.8885 89.324 13.0803C88.9746 13.2678 88.6976 13.5298 88.4931 13.8665C88.2885 14.1989 88.1863 14.5781 88.1863 15.0043V21H86.275ZM93.1832 21V11.1818H95.0945V21H93.1832ZM94.1484 9.6669C93.8161 9.6669 93.5305 9.55611 93.2919 9.33452C93.0575 9.10866 92.9403 8.8402 92.9403 8.52912C92.9403 8.21378 93.0575 7.94531 93.2919 7.72372C93.5305 7.49787 93.8161 7.38494 94.1484 7.38494C94.4808 7.38494 94.7642 7.49787 94.9986 7.72372C95.2372 7.94531 95.3565 8.21378 95.3565 8.52912C95.3565 8.8402 95.2372 9.10866 94.9986 9.33452C94.7642 9.55611 94.4808 9.6669 94.1484 9.6669ZM97.8191 21V7.90909H99.7303V12.7734H99.8453C99.9561 12.5689 100.116 12.3324 100.325 12.0639C100.534 11.7955 100.823 11.5611 101.194 11.3608C101.565 11.1562 102.055 11.054 102.664 11.054C103.457 11.054 104.164 11.2543 104.786 11.6548C105.409 12.0554 105.896 12.6328 106.25 13.3871C106.608 14.1413 106.787 15.049 106.787 16.1101C106.787 17.1712 106.61 18.081 106.257 18.8395C105.903 19.5937 105.417 20.1754 104.799 20.5845C104.181 20.9893 103.476 21.1918 102.683 21.1918C102.087 21.1918 101.599 21.0916 101.22 20.8913C100.845 20.6911 100.551 20.4567 100.338 20.1882C100.124 19.9197 99.9604 19.6811 99.8453 19.4723H99.6855V21H97.8191ZM99.6919 16.0909C99.6919 16.7812 99.7921 17.3864 99.9924 17.9062C100.193 18.4261 100.482 18.8331 100.862 19.1271C101.241 19.4169 101.705 19.5618 102.255 19.5618C102.826 19.5618 103.303 19.4105 103.687 19.108C104.07 18.8011 104.36 18.3857 104.556 17.8615C104.757 17.3374 104.857 16.7472 104.857 16.0909C104.857 15.4432 104.759 14.8615 104.563 14.3459C104.371 13.8303 104.081 13.4233 103.693 13.125C103.31 12.8267 102.83 12.6776 102.255 12.6776C101.701 12.6776 101.232 12.8203 100.849 13.1058C100.47 13.3913 100.182 13.7898 99.986 14.3011C99.79 14.8125 99.6919 15.4091 99.6919 16.0909ZM109.087 21V7.90909H110.998V12.7734H111.113C111.224 12.5689 111.384 12.3324 111.592 12.0639C111.801 11.7955 112.091 11.5611 112.462 11.3608C112.832 11.1562 113.322 11.054 113.932 11.054C114.724 11.054 115.432 11.2543 116.054 11.6548C116.676 12.0554 117.164 12.6328 117.518 13.3871C117.876 14.1413 118.055 15.049 118.055 16.1101C118.055 17.1712 117.878 18.081 117.524 18.8395C117.17 19.5937 116.685 20.1754 116.067 20.5845C115.449 20.9893 114.744 21.1918 113.951 21.1918C113.354 21.1918 112.866 21.0916 112.487 20.8913C112.112 20.6911 111.818 20.4567 111.605 20.1882C111.392 19.9197 111.228 19.6811 111.113 19.4723H110.953V21H109.087ZM110.96 16.0909C110.96 16.7812 111.06 17.3864 111.26 17.9062C111.46 18.4261 111.75 18.8331 112.129 19.1271C112.509 19.4169 112.973 19.5618 113.523 19.5618C114.094 19.5618 114.571 19.4105 114.955 19.108C115.338 18.8011 115.628 18.3857 115.824 17.8615C116.024 17.3374 116.124 16.7472 116.124 16.0909C116.124 15.4432 116.026 14.8615 115.83 14.3459C115.638 13.8303 115.349 13.4233 114.961 13.125C114.577 12.8267 114.098 12.6776 113.523 12.6776C112.969 12.6776 112.5 12.8203 112.116 13.1058C111.737 13.3913 111.45 13.7898 111.254 14.3011C111.058 14.8125 110.96 15.4091 110.96 16.0909ZM120.354 21V7.90909H122.265V12.7734H122.381C122.491 12.5689 122.651 12.3324 122.86 12.0639C123.069 11.7955 123.358 11.5611 123.729 11.3608C124.1 11.1562 124.59 11.054 125.199 11.054C125.992 11.054 126.699 11.2543 127.322 11.6548C127.944 12.0554 128.432 12.6328 128.785 13.3871C129.143 14.1413 129.322 15.049 129.322 16.1101C129.322 17.1712 129.145 18.081 128.792 18.8395C128.438 19.5937 127.952 20.1754 127.334 20.5845C126.716 20.9893 126.011 21.1918 125.219 21.1918C124.622 21.1918 124.134 21.0916 123.755 20.8913C123.38 20.6911 123.086 20.4567 122.873 20.1882C122.66 19.9197 122.496 19.6811 122.381 19.4723H122.221V21H120.354ZM122.227 16.0909C122.227 16.7812 122.327 17.3864 122.528 17.9062C122.728 18.4261 123.018 18.8331 123.397 19.1271C123.776 19.4169 124.241 19.5618 124.79 19.5618C125.361 19.5618 125.839 19.4105 126.222 19.108C126.606 18.8011 126.895 18.3857 127.091 17.8615C127.292 17.3374 127.392 16.7472 127.392 16.0909C127.392 15.4432 127.294 14.8615 127.098 14.3459C126.906 13.8303 126.616 13.4233 126.229 13.125C125.845 12.8267 125.366 12.6776 124.79 12.6776C124.236 12.6776 123.768 12.8203 123.384 13.1058C123.005 13.3913 122.717 13.7898 122.521 14.3011C122.325 14.8125 122.227 15.4091 122.227 16.0909ZM133.38 7.90909V21H131.468V7.90909H133.38ZM140.182 21.1982C139.215 21.1982 138.382 20.9915 137.683 20.5781C136.988 20.1605 136.452 19.5746 136.072 18.8203C135.697 18.0618 135.51 17.1733 135.51 16.1548C135.51 15.1491 135.697 14.2628 136.072 13.4957C136.452 12.7287 136.98 12.13 137.657 11.6996C138.339 11.2692 139.136 11.054 140.048 11.054C140.602 11.054 141.139 11.1456 141.659 11.3288C142.179 11.5121 142.645 11.7997 143.059 12.1918C143.472 12.5838 143.798 13.093 144.037 13.7195C144.275 14.3416 144.395 15.098 144.395 15.9886V16.6662H136.59V15.2344H142.522C142.522 14.7315 142.42 14.2862 142.215 13.8984C142.01 13.5064 141.723 13.1974 141.352 12.9716C140.986 12.7457 140.555 12.6328 140.061 12.6328C139.524 12.6328 139.055 12.7649 138.655 13.0291C138.258 13.2891 137.952 13.63 137.734 14.0518C137.521 14.4695 137.415 14.9233 137.415 15.4134V16.532C137.415 17.1882 137.53 17.7464 137.76 18.2067C137.994 18.6669 138.32 19.0185 138.738 19.2614C139.155 19.5 139.643 19.6193 140.202 19.6193C140.564 19.6193 140.894 19.5682 141.192 19.4659C141.491 19.3594 141.748 19.2017 141.966 18.9929C142.183 18.7841 142.349 18.5263 142.464 18.2195L144.273 18.5455C144.128 19.0781 143.868 19.5447 143.493 19.9453C143.123 20.3416 142.656 20.6506 142.094 20.8722C141.535 21.0895 140.898 21.1982 140.182 21.1982Z" fill="#191F33"/>
<rect x="154" y="1" width="83" height="26" rx="13" fill="#FCEEEE"/>
<path d="M167.233 19V8.81818H173.338V9.91193H168.466V13.3523H172.881V14.446H168.466V19H167.233ZM177.932 19.1591C177.196 19.1591 176.561 18.9967 176.028 18.6719C175.497 18.3438 175.088 17.8864 174.8 17.2997C174.515 16.7098 174.372 16.0237 174.372 15.2415C174.372 14.4593 174.515 13.7699 174.8 13.1733C175.088 12.5734 175.489 12.1061 176.003 11.7713C176.52 11.4332 177.123 11.2642 177.812 11.2642C178.21 11.2642 178.603 11.3305 178.991 11.4631C179.379 11.5956 179.732 11.8111 180.05 12.1094C180.368 12.4044 180.621 12.7955 180.81 13.2827C180.999 13.7699 181.094 14.3698 181.094 15.0824V15.5795H175.207V14.5653H179.901C179.901 14.1345 179.814 13.75 179.642 13.4119C179.473 13.0739 179.231 12.8071 178.916 12.6115C178.605 12.416 178.237 12.3182 177.812 12.3182C177.345 12.3182 176.941 12.4342 176.599 12.6662C176.261 12.8949 176.001 13.1932 175.819 13.5611C175.637 13.929 175.545 14.3234 175.545 14.7443V15.4205C175.545 15.9972 175.645 16.486 175.844 16.8871C176.046 17.2848 176.326 17.5881 176.684 17.7969C177.042 18.0024 177.458 18.1051 177.932 18.1051C178.24 18.1051 178.518 18.062 178.767 17.9759C179.019 17.8864 179.236 17.7538 179.418 17.5781C179.601 17.3991 179.741 17.1771 179.841 16.9119L180.974 17.2301C180.855 17.6146 180.655 17.9527 180.373 18.2443C180.091 18.5327 179.743 18.758 179.329 18.9205C178.915 19.0795 178.449 19.1591 177.932 19.1591ZM185.126 19.179C184.642 19.179 184.203 19.0878 183.808 18.9055C183.414 18.7199 183.101 18.4531 182.869 18.1051C182.637 17.7538 182.521 17.3295 182.521 16.8324C182.521 16.3949 182.607 16.0402 182.779 15.7685C182.951 15.4934 183.182 15.2779 183.47 15.1222C183.759 14.9664 184.077 14.8504 184.425 14.7741C184.776 14.6946 185.129 14.6316 185.484 14.5852C185.948 14.5256 186.324 14.4808 186.612 14.451C186.904 14.4179 187.116 14.3632 187.249 14.2869C187.384 14.2107 187.452 14.0781 187.452 13.8892V13.8494C187.452 13.3589 187.318 12.9777 187.05 12.706C186.785 12.4342 186.382 12.2983 185.842 12.2983C185.281 12.2983 184.842 12.4209 184.524 12.6662C184.206 12.9115 183.982 13.1733 183.853 13.4517L182.739 13.054C182.938 12.59 183.203 12.2287 183.535 11.9702C183.87 11.7083 184.234 11.526 184.629 11.4233C185.026 11.3172 185.417 11.2642 185.802 11.2642C186.047 11.2642 186.329 11.294 186.647 11.3537C186.969 11.41 187.278 11.5277 187.577 11.7067C187.878 11.8857 188.129 12.1558 188.327 12.517C188.526 12.8783 188.626 13.3622 188.626 13.9688V19H187.452V17.9659H187.393C187.313 18.1316 187.181 18.3089 186.995 18.4979C186.809 18.6868 186.563 18.8475 186.254 18.9801C185.946 19.1127 185.57 19.179 185.126 19.179ZM185.305 18.125C185.769 18.125 186.16 18.0339 186.478 17.8516C186.799 17.6693 187.041 17.4339 187.204 17.1456C187.37 16.8572 187.452 16.554 187.452 16.2358V15.1619C187.403 15.2216 187.293 15.2763 187.124 15.326C186.959 15.3724 186.766 15.4138 186.548 15.4503C186.332 15.4834 186.122 15.5133 185.916 15.5398C185.714 15.563 185.55 15.5829 185.424 15.5994C185.119 15.6392 184.834 15.7038 184.569 15.7933C184.307 15.8795 184.095 16.0104 183.933 16.1861C183.773 16.3584 183.694 16.5937 183.694 16.892C183.694 17.2997 183.845 17.608 184.146 17.8168C184.451 18.0223 184.837 18.125 185.305 18.125ZM194.088 11.3636V12.358H190.131V11.3636H194.088ZM191.284 9.53409H192.458V16.8125C192.458 17.1439 192.506 17.3925 192.602 17.5582C192.701 17.7206 192.827 17.83 192.98 17.8864C193.135 17.9394 193.299 17.9659 193.472 17.9659C193.601 17.9659 193.707 17.9593 193.79 17.946C193.873 17.9295 193.939 17.9162 193.989 17.9062L194.227 18.9602C194.148 18.9901 194.037 19.0199 193.894 19.0497C193.752 19.0829 193.571 19.0994 193.352 19.0994C193.021 19.0994 192.696 19.0282 192.378 18.8857C192.063 18.7431 191.801 18.526 191.593 18.2344C191.387 17.9427 191.284 17.5748 191.284 17.1307V9.53409ZM200.666 15.8778V11.3636H201.839V19H200.666V17.7074H200.586C200.407 18.0952 200.129 18.425 199.751 18.6967C199.373 18.9652 198.896 19.0994 198.319 19.0994C197.842 19.0994 197.418 18.995 197.046 18.7862C196.675 18.5741 196.383 18.2559 196.171 17.8317C195.959 17.4041 195.853 16.8655 195.853 16.2159V11.3636H197.026V16.1364C197.026 16.6932 197.182 17.1373 197.494 17.4688C197.809 17.8002 198.21 17.9659 198.697 17.9659C198.989 17.9659 199.285 17.8913 199.587 17.7422C199.892 17.593 200.147 17.3643 200.352 17.0561C200.561 16.7479 200.666 16.3551 200.666 15.8778ZM203.988 19V11.3636H205.121V12.517H205.201C205.34 12.1392 205.592 11.8326 205.957 11.5973C206.321 11.362 206.732 11.2443 207.19 11.2443C207.276 11.2443 207.384 11.246 207.513 11.2493C207.642 11.2526 207.74 11.2576 207.806 11.2642V12.4574C207.766 12.4474 207.675 12.4325 207.533 12.4126C207.393 12.3894 207.246 12.3778 207.09 12.3778C206.719 12.3778 206.388 12.4557 206.096 12.6115C205.808 12.764 205.579 12.9761 205.41 13.2479C205.244 13.5163 205.161 13.8229 205.161 14.1676V19H203.988ZM212.166 19.1591C211.43 19.1591 210.796 18.9967 210.262 18.6719C209.732 18.3438 209.322 17.8864 209.034 17.2997C208.749 16.7098 208.607 16.0237 208.607 15.2415C208.607 14.4593 208.749 13.7699 209.034 13.1733C209.322 12.5734 209.723 12.1061 210.237 11.7713C210.754 11.4332 211.357 11.2642 212.047 11.2642C212.445 11.2642 212.837 11.3305 213.225 11.4631C213.613 11.5956 213.966 11.8111 214.284 12.1094C214.602 12.4044 214.856 12.7955 215.045 13.2827C215.234 13.7699 215.328 14.3698 215.328 15.0824V15.5795H209.442V14.5653H214.135C214.135 14.1345 214.049 13.75 213.876 13.4119C213.707 13.0739 213.465 12.8071 213.151 12.6115C212.839 12.416 212.471 12.3182 212.047 12.3182C211.58 12.3182 211.175 12.4342 210.834 12.6662C210.496 12.8949 210.236 13.1932 210.053 13.5611C209.871 13.929 209.78 14.3234 209.78 14.7443V15.4205C209.78 15.9972 209.879 16.486 210.078 16.8871C210.28 17.2848 210.56 17.5881 210.918 17.7969C211.276 18.0024 211.692 18.1051 212.166 18.1051C212.474 18.1051 212.753 18.062 213.001 17.9759C213.253 17.8864 213.47 17.7538 213.653 17.5781C213.835 17.3991 213.976 17.1771 214.075 16.9119L215.209 17.2301C215.089 17.6146 214.889 17.9527 214.607 18.2443C214.326 18.5327 213.978 18.758 213.563 18.9205C213.149 19.0795 212.683 19.1591 212.166 19.1591ZM219.996 19.1591C219.36 19.1591 218.798 18.9983 218.311 18.6768C217.824 18.352 217.443 17.8946 217.168 17.3047C216.893 16.7114 216.755 16.0104 216.755 15.2017C216.755 14.3996 216.893 13.7036 217.168 13.1136C217.443 12.5237 217.826 12.0679 218.316 11.7464C218.807 11.425 219.373 11.2642 220.016 11.2642C220.513 11.2642 220.906 11.3471 221.195 11.5128C221.486 11.6752 221.708 11.8608 221.861 12.0696C222.017 12.2751 222.138 12.4441 222.224 12.5767H222.323V8.81818H223.496V19H222.363V17.8267H222.224C222.138 17.9659 222.015 18.1416 221.856 18.3537C221.697 18.5625 221.47 18.7498 221.175 18.9155C220.88 19.0779 220.487 19.1591 219.996 19.1591ZM220.156 18.1051C220.626 18.1051 221.024 17.9825 221.349 17.7372C221.674 17.4886 221.92 17.1456 222.089 16.7081C222.259 16.2673 222.343 15.7585 222.343 15.1818C222.343 14.6117 222.26 14.1129 222.094 13.6854C221.929 13.2545 221.683 12.9197 221.359 12.6811C221.034 12.4392 220.633 12.3182 220.156 12.3182C219.658 12.3182 219.244 12.4458 218.913 12.701C218.585 12.9529 218.338 13.2959 218.172 13.7301C218.009 14.161 217.928 14.6449 217.928 15.1818C217.928 15.7254 218.011 16.2192 218.177 16.6634C218.346 17.1042 218.594 17.4555 218.923 17.7173C219.254 17.9759 219.665 18.1051 220.156 18.1051Z" fill="#E05151"/>
<path d="M87.75 42.5C87.75 47.75 81 52.25 81 52.25C81 52.25 74.25 47.75 74.25 42.5C74.25 40.7098 74.9612 38.9929 76.227 37.727C77.4929 36.4612 79.2098 35.75 81 35.75C82.7902 35.75 84.5071 36.4612 85.773 37.727C87.0388 38.9929 87.75 40.7098 87.75 42.5Z" stroke="#939AAD" stroke-width="1.5" stroke-linecap="round" stroke-linejoin="round"/>
<path d="M81 44.75C82.2426 44.75 83.25 43.7426 83.25 42.5C83.25 41.2574 82.2426 40.25 81 40.25C79.7574 40.25 78.75 41.2574 78.75 42.5C78.75 43.7426 79.7574 44.75 81 44.75Z" stroke="#939AAD" stroke-width="1.5" stroke-linecap="round" stroke-linejoin="round"/>
<path d="M103.915 38.8182H105.148V45.5597C105.148 46.2557 104.984 46.8771 104.656 47.424C104.331 47.9676 103.872 48.3968 103.278 48.7116C102.685 49.0232 101.989 49.179 101.19 49.179C100.392 49.179 99.6955 49.0232 99.1023 48.7116C98.509 48.3968 98.0483 47.9676 97.7202 47.424C97.3954 46.8771 97.233 46.2557 97.233 45.5597V38.8182H98.4659V45.4602C98.4659 45.9574 98.5753 46.3999 98.794 46.7876C99.0128 47.1721 99.3243 47.4754 99.7287 47.6974C100.136 47.9162 100.624 48.0256 101.19 48.0256C101.757 48.0256 102.244 47.9162 102.652 47.6974C103.06 47.4754 103.371 47.1721 103.587 46.7876C103.805 46.3999 103.915 45.9574 103.915 45.4602V38.8182ZM108.624 44.4062V49H107.451V41.3636H108.584V42.5568H108.684C108.863 42.169 109.135 41.8575 109.499 41.6222C109.864 41.3835 110.334 41.2642 110.911 41.2642C111.428 41.2642 111.881 41.3703 112.268 41.5824C112.656 41.7912 112.958 42.1094 113.173 42.5369C113.389 42.9612 113.496 43.4981 113.496 44.1477V49H112.323V44.2273C112.323 43.6274 112.167 43.16 111.856 42.8253C111.544 42.4872 111.117 42.3182 110.573 42.3182C110.198 42.3182 109.864 42.3994 109.569 42.5618C109.277 42.7242 109.047 42.9612 108.878 43.2727C108.709 43.5843 108.624 43.9621 108.624 44.4062ZM115.64 49V41.3636H116.814V49H115.64ZM116.237 40.0909C116.008 40.0909 115.811 40.013 115.645 39.8572C115.483 39.7015 115.402 39.5142 115.402 39.2955C115.402 39.0767 115.483 38.8894 115.645 38.7337C115.811 38.5779 116.008 38.5 116.237 38.5C116.466 38.5 116.661 38.5779 116.824 38.7337C116.989 38.8894 117.072 39.0767 117.072 39.2955C117.072 39.5142 116.989 39.7015 116.824 39.8572C116.661 40.013 116.466 40.0909 116.237 40.0909ZM122.284 41.3636V42.358H118.326V41.3636H122.284ZM119.48 39.5341H120.653V46.8125C120.653 47.1439 120.701 47.3925 120.797 47.5582C120.896 47.7206 121.022 47.83 121.175 47.8864C121.331 47.9394 121.495 47.9659 121.667 47.9659C121.796 47.9659 121.902 47.9593 121.985 47.946C122.068 47.9295 122.134 47.9162 122.184 47.9062L122.423 48.9602C122.343 48.9901 122.232 49.0199 122.09 49.0497C121.947 49.0829 121.767 49.0994 121.548 49.0994C121.216 49.0994 120.892 49.0282 120.573 48.8857C120.258 48.7431 119.997 48.526 119.788 48.2344C119.582 47.9427 119.48 47.5748 119.48 47.1307V39.5341ZM127.168 49.1591C126.432 49.1591 125.798 48.9967 125.264 48.6719C124.734 48.3438 124.324 47.8864 124.036 47.2997C123.751 46.7098 123.608 46.0237 123.608 45.2415C123.608 44.4593 123.751 43.7699 124.036 43.1733C124.324 42.5734 124.725 42.1061 125.239 41.7713C125.756 41.4332 126.359 41.2642 127.049 41.2642C127.447 41.2642 127.839 41.3305 128.227 41.4631C128.615 41.5956 128.968 41.8111 129.286 42.1094C129.604 42.4044 129.858 42.7955 130.047 43.2827C130.236 43.7699 130.33 44.3698 130.33 45.0824V45.5795H124.444V44.5653H129.137C129.137 44.1345 129.051 43.75 128.878 43.4119C128.709 43.0739 128.467 42.8071 128.153 42.6115C127.841 42.416 127.473 42.3182 127.049 42.3182C126.581 42.3182 126.177 42.4342 125.836 42.6662C125.498 42.8949 125.238 43.1932 125.055 43.5611C124.873 43.929 124.782 44.3234 124.782 44.7443V45.4205C124.782 45.9972 124.881 46.486 125.08 46.8871C125.282 47.2848 125.562 47.5881 125.92 47.7969C126.278 48.0024 126.694 48.1051 127.168 48.1051C127.476 48.1051 127.755 48.062 128.003 47.9759C128.255 47.8864 128.472 47.7538 128.655 47.5781C128.837 47.3991 128.978 47.1771 129.077 46.9119L130.211 47.2301C130.091 47.6146 129.891 47.9527 129.609 48.2443C129.327 48.5327 128.979 48.758 128.565 48.9205C128.151 49.0795 127.685 49.1591 127.168 49.1591ZM134.998 49.1591C134.362 49.1591 133.8 48.9983 133.313 48.6768C132.826 48.352 132.445 47.8946 132.17 47.3047C131.894 46.7114 131.757 46.0104 131.757 45.2017C131.757 44.3996 131.894 43.7036 132.17 43.1136C132.445 42.5237 132.827 42.0679 133.318 41.7464C133.809 41.425 134.375 41.2642 135.018 41.2642C135.515 41.2642 135.908 41.3471 136.197 41.5128C136.488 41.6752 136.71 41.8608 136.863 42.0696C137.019 42.2751 137.14 42.4441 137.226 42.5767H137.325V38.8182H138.498V49H137.365V47.8267H137.226C137.14 47.9659 137.017 48.1416 136.858 48.3537C136.699 48.5625 136.472 48.7498 136.177 48.9155C135.882 49.0779 135.489 49.1591 134.998 49.1591ZM135.157 48.1051C135.628 48.1051 136.026 47.9825 136.351 47.7372C136.675 47.4886 136.922 47.1456 137.091 46.7081C137.26 46.2673 137.345 45.7585 137.345 45.1818C137.345 44.6117 137.262 44.1129 137.096 43.6854C136.931 43.2545 136.685 42.9197 136.361 42.6811C136.036 42.4392 135.635 42.3182 135.157 42.3182C134.66 42.3182 134.246 42.4458 133.915 42.701C133.586 42.9529 133.34 43.2959 133.174 43.7301C133.011 44.161 132.93 44.6449 132.93 45.1818C132.93 45.7254 133.013 46.2192 133.179 46.6634C133.348 47.1042 133.596 47.4555 133.925 47.7173C134.256 47.9759 134.667 48.1051 135.157 48.1051ZM150.475 41.3636C150.415 40.8598 150.173 40.4688 149.749 40.1903C149.325 39.9119 148.805 39.7727 148.188 39.7727C147.737 39.7727 147.343 39.8456 147.005 39.9915C146.67 40.1373 146.408 40.3378 146.219 40.593C146.034 40.8482 145.941 41.1383 145.941 41.4631C145.941 41.7348 146.006 41.9685 146.135 42.1641C146.267 42.3563 146.436 42.517 146.642 42.6463C146.847 42.7723 147.063 42.8767 147.288 42.9595C147.514 43.0391 147.721 43.1037 147.91 43.1534L148.944 43.4318C149.209 43.5014 149.504 43.5975 149.829 43.7202C150.157 43.8428 150.47 44.0102 150.768 44.2223C151.07 44.4311 151.318 44.6996 151.514 45.0277C151.71 45.3558 151.807 45.7585 151.807 46.2358C151.807 46.786 151.663 47.2831 151.375 47.7273C151.09 48.1714 150.672 48.5244 150.122 48.7862C149.575 49.0481 148.911 49.179 148.128 49.179C147.399 49.179 146.768 49.0613 146.234 48.826C145.704 48.5907 145.286 48.2625 144.981 47.8416C144.68 47.4207 144.509 46.9318 144.469 46.375H145.742C145.775 46.7595 145.904 47.0777 146.13 47.3295C146.358 47.5781 146.647 47.7637 146.995 47.8864C147.346 48.0057 147.724 48.0653 148.128 48.0653C148.599 48.0653 149.022 47.9891 149.396 47.8366C149.771 47.6809 150.067 47.4654 150.286 47.1903C150.505 46.9119 150.614 46.5871 150.614 46.2159C150.614 45.8778 150.52 45.6027 150.331 45.3906C150.142 45.1785 149.893 45.0062 149.585 44.8736C149.277 44.741 148.944 44.625 148.586 44.5256L147.333 44.1676C146.537 43.9389 145.908 43.6125 145.444 43.1882C144.98 42.764 144.748 42.2088 144.748 41.5227C144.748 40.9527 144.902 40.4555 145.21 40.0312C145.522 39.6037 145.939 39.2723 146.463 39.0369C146.99 38.7983 147.578 38.679 148.228 38.679C148.884 38.679 149.467 38.7966 149.978 39.032C150.488 39.264 150.893 39.5821 151.191 39.9865C151.492 40.3909 151.652 40.8499 151.668 41.3636H150.475ZM156.996 41.3636V42.358H153.039V41.3636H156.996ZM154.192 39.5341H155.366V46.8125C155.366 47.1439 155.414 47.3925 155.51 47.5582C155.609 47.7206 155.735 47.83 155.888 47.8864C156.044 47.9394 156.208 47.9659 156.38 47.9659C156.509 47.9659 156.615 47.9593 156.698 47.946C156.781 47.9295 156.847 47.9162 156.897 47.9062L157.136 48.9602C157.056 48.9901 156.945 49.0199 156.803 49.0497C156.66 49.0829 156.479 49.0994 156.261 49.0994C155.929 49.0994 155.604 49.0282 155.286 48.8857C154.971 48.7431 154.71 48.526 154.501 48.2344C154.295 47.9427 154.192 47.5748 154.192 47.1307V39.5341ZM161.009 49.179C160.525 49.179 160.085 49.0878 159.691 48.9055C159.297 48.7199 158.983 48.4531 158.751 48.1051C158.519 47.7538 158.403 47.3295 158.403 46.8324C158.403 46.3949 158.49 46.0402 158.662 45.7685C158.834 45.4934 159.065 45.2779 159.353 45.1222C159.641 44.9664 159.96 44.8504 160.308 44.7741C160.659 44.6946 161.012 44.6316 161.366 44.5852C161.83 44.5256 162.207 44.4808 162.495 44.451C162.787 44.4179 162.999 44.3632 163.131 44.2869C163.267 44.2107 163.335 44.0781 163.335 43.8892V43.8494C163.335 43.3589 163.201 42.9777 162.933 42.706C162.667 42.4342 162.265 42.2983 161.724 42.2983C161.164 42.2983 160.725 42.4209 160.407 42.6662C160.089 42.9115 159.865 43.1733 159.736 43.4517L158.622 43.054C158.821 42.59 159.086 42.2287 159.418 41.9702C159.752 41.7083 160.117 41.526 160.511 41.4233C160.909 41.3172 161.3 41.2642 161.685 41.2642C161.93 41.2642 162.212 41.294 162.53 41.3537C162.851 41.41 163.161 41.5277 163.46 41.7067C163.761 41.8857 164.011 42.1558 164.21 42.517C164.409 42.8783 164.509 43.3622 164.509 43.9688V49H163.335V47.9659H163.276C163.196 48.1316 163.063 48.3089 162.878 48.4979C162.692 48.6868 162.445 48.8475 162.137 48.9801C161.829 49.1127 161.453 49.179 161.009 49.179ZM161.188 48.125C161.652 48.125 162.043 48.0339 162.361 47.8516C162.682 47.6693 162.924 47.4339 163.087 47.1456C163.252 46.8572 163.335 46.554 163.335 46.2358V45.1619C163.286 45.2216 163.176 45.2763 163.007 45.326C162.841 45.3724 162.649 45.4138 162.43 45.4503C162.215 45.4834 162.004 45.5133 161.799 45.5398C161.597 45.563 161.433 45.5829 161.307 45.5994C161.002 45.6392 160.717 45.7038 160.452 45.7933C160.19 45.8795 159.978 46.0104 159.815 46.1861C159.656 46.3584 159.577 46.5937 159.577 46.892C159.577 47.2997 159.728 47.608 160.029 47.8168C160.334 48.0223 160.72 48.125 161.188 48.125ZM169.971 41.3636V42.358H166.014V41.3636H169.971ZM167.167 39.5341H168.34V46.8125C168.34 47.1439 168.388 47.3925 168.485 47.5582C168.584 47.7206 168.71 47.83 168.862 47.8864C169.018 47.9394 169.182 47.9659 169.355 47.9659C169.484 47.9659 169.59 47.9593 169.673 47.946C169.756 47.9295 169.822 47.9162 169.872 47.9062L170.11 48.9602C170.031 48.9901 169.92 49.0199 169.777 49.0497C169.635 49.0829 169.454 49.0994 169.235 49.0994C168.904 49.0994 168.579 49.0282 168.261 48.8857C167.946 48.7431 167.684 48.526 167.475 48.2344C167.27 47.9427 167.167 47.5748 167.167 47.1307V39.5341ZM174.856 49.1591C174.12 49.1591 173.485 48.9967 172.952 48.6719C172.421 48.3438 172.012 47.8864 171.724 47.2997C171.439 46.7098 171.296 46.0237 171.296 45.2415C171.296 44.4593 171.439 43.7699 171.724 43.1733C172.012 42.5734 172.413 42.1061 172.927 41.7713C173.444 41.4332 174.047 41.2642 174.736 41.2642C175.134 41.2642 175.527 41.3305 175.915 41.4631C176.302 41.5956 176.655 41.8111 176.974 42.1094C177.292 42.4044 177.545 42.7955 177.734 43.2827C177.923 43.7699 178.018 44.3698 178.018 45.0824V45.5795H172.131V44.5653H176.824C176.824 44.1345 176.738 43.75 176.566 43.4119C176.397 43.0739 176.155 42.8071 175.84 42.6115C175.528 42.416 175.161 42.3182 174.736 42.3182C174.269 42.3182 173.865 42.4342 173.523 42.6662C173.185 42.8949 172.925 43.1932 172.743 43.5611C172.56 43.929 172.469 44.3234 172.469 44.7443V45.4205C172.469 45.9972 172.569 46.486 172.768 46.8871C172.97 47.2848 173.25 47.5881 173.608 47.7969C173.966 48.0024 174.382 48.1051 174.856 48.1051C175.164 48.1051 175.442 48.062 175.691 47.9759C175.943 47.8864 176.16 47.7538 176.342 47.5781C176.524 47.3991 176.665 47.1771 176.765 46.9119L177.898 47.2301C177.779 47.6146 177.578 47.9527 177.297 48.2443C177.015 48.5327 176.667 48.758 176.253 48.9205C175.838 49.0795 175.373 49.1591 174.856 49.1591ZM185.211 43.0739L184.157 43.3722C184.091 43.1965 183.993 43.0258 183.864 42.8601C183.738 42.6911 183.566 42.5518 183.347 42.4425C183.128 42.3331 182.848 42.2784 182.507 42.2784C182.04 42.2784 181.65 42.3861 181.339 42.6016C181.03 42.8137 180.876 43.0838 180.876 43.4119C180.876 43.7036 180.982 43.9339 181.194 44.103C181.407 44.272 181.738 44.4129 182.189 44.5256L183.322 44.804C184.005 44.9697 184.514 45.2232 184.849 45.5646C185.183 45.9027 185.351 46.3385 185.351 46.8722C185.351 47.3097 185.225 47.7008 184.973 48.0455C184.724 48.3902 184.376 48.6619 183.929 48.8608C183.481 49.0597 182.961 49.1591 182.368 49.1591C181.589 49.1591 180.944 48.9901 180.434 48.652C179.923 48.3139 179.6 47.8201 179.464 47.1705L180.578 46.892C180.684 47.303 180.885 47.6113 181.18 47.8168C181.478 48.0223 181.867 48.125 182.348 48.125C182.895 48.125 183.329 48.009 183.65 47.777C183.975 47.5417 184.138 47.2599 184.138 46.9318C184.138 46.6667 184.045 46.4446 183.859 46.2656C183.674 46.0833 183.389 45.9474 183.004 45.858L181.731 45.5597C181.032 45.3939 180.518 45.1371 180.19 44.7891C179.865 44.4377 179.703 43.9986 179.703 43.4716C179.703 43.0407 179.824 42.6596 180.066 42.3281C180.311 41.9967 180.644 41.7365 181.065 41.5476C181.489 41.3587 181.97 41.2642 182.507 41.2642C183.263 41.2642 183.856 41.4299 184.287 41.7614C184.721 42.0928 185.029 42.5303 185.211 43.0739Z" fill="#939AAD"/>
<defs>
<clipPath id="clip0_1647_32441">
<rect width="24" height="24" fill="white" transform="translate(16 16)"/>
</clipPath>
</defs>
</svg>
