<svg width="187" height="56" viewBox="0 0 187 56" fill="none" xmlns="http://www.w3.org/2000/svg">
<rect width="56" height="56" rx="4" fill="#6FDA44"/>
<path d="M34.4841 29.1387C33.3976 29.1387 32.3796 28.6798 31.4546 27.9328L31.6799 26.8783L31.6897 26.8392C31.8902 25.7165 32.5265 23.8318 34.4841 23.8318C35.9522 23.8318 37.1464 25.0231 37.1464 26.4877C37.1414 27.9474 35.9474 29.1387 34.4841 29.1387ZM34.4841 21.1419C31.9832 21.1419 30.0453 22.7627 29.2574 25.4283C28.0535 23.6268 27.1432 21.4641 26.6098 19.6431H23.9181V26.6293C23.9181 28.006 22.7925 29.1288 21.4124 29.1288C20.0323 29.1288 18.9068 28.006 18.9068 26.6293V19.6431H16.2149V26.6293C16.2051 29.4903 18.5395 31.8385 21.4073 31.8385C24.2752 31.8385 26.6097 29.4903 26.6097 26.6293V25.4577C27.1332 26.5463 27.7743 27.6447 28.5525 28.6212L26.9032 36.3543H29.6585L30.8526 30.7449C31.8999 31.4137 33.1038 31.8336 34.484 31.8336C37.4349 31.8336 39.8379 29.4219 39.8379 26.4779C39.8379 23.5389 37.4349 21.1419 34.484 21.1419H34.4841Z" fill="white"/>
<path d="M81.8565 7.90909H83.8381V16.5192C83.8381 17.4354 83.6229 18.2472 83.1925 18.9545C82.7621 19.6577 82.157 20.2116 81.3771 20.6165C80.5973 21.017 79.6832 21.2173 78.6349 21.2173C77.5909 21.2173 76.679 21.017 75.8991 20.6165C75.1193 20.2116 74.5142 19.6577 74.0838 18.9545C73.6534 18.2472 73.4382 17.4354 73.4382 16.5192V7.90909H75.4134V16.3594C75.4134 16.9517 75.5433 17.478 75.8033 17.9382C76.0675 18.3984 76.4403 18.7607 76.9219 19.0249C77.4034 19.2848 77.9744 19.4148 78.6349 19.4148C79.2997 19.4148 79.8729 19.2848 80.3544 19.0249C80.8402 18.7607 81.2109 18.3984 81.4666 17.9382C81.7266 17.478 81.8565 16.9517 81.8565 16.3594V7.90909ZM86.5563 24.6818V11.1818H88.4228V12.7734H88.5826C88.6934 12.5689 88.8532 12.3324 89.062 12.0639C89.2708 11.7955 89.5605 11.5611 89.9313 11.3608C90.302 11.1562 90.7921 11.054 91.4015 11.054C92.1941 11.054 92.9015 11.2543 93.5236 11.6548C94.1458 12.0554 94.6337 12.6328 94.9874 13.3871C95.3453 14.1413 95.5243 15.049 95.5243 16.1101C95.5243 17.1712 95.3475 18.081 94.9938 18.8395C94.6401 19.5937 94.1543 20.1754 93.5364 20.5845C92.9185 20.9893 92.2132 21.1918 91.4206 21.1918C90.824 21.1918 90.3361 21.0916 89.9569 20.8913C89.5819 20.6911 89.2878 20.4567 89.0748 20.1882C88.8617 19.9197 88.6976 19.6811 88.5826 19.4723H88.4675V24.6818H86.5563ZM88.4292 16.0909C88.4292 16.7812 88.5293 17.3864 88.7296 17.9062C88.9299 18.4261 89.2196 18.8331 89.5989 19.1271C89.9782 19.4169 90.4426 19.5618 90.9924 19.5618C91.5634 19.5618 92.0407 19.4105 92.4242 19.108C92.8077 18.8011 93.0975 18.3857 93.2935 17.8615C93.4938 17.3374 93.5939 16.7472 93.5939 16.0909C93.5939 15.4432 93.4959 14.8615 93.2999 14.3459C93.1081 13.8303 92.8184 13.4233 92.4306 13.125C92.0471 12.8267 91.5676 12.6776 90.9924 12.6776C90.4384 12.6776 89.9696 12.8203 89.5861 13.1058C89.2069 13.3913 88.9192 13.7898 88.7232 14.3011C88.5272 14.8125 88.4292 15.4091 88.4292 16.0909ZM99.4954 21L96.6062 11.1818H98.5813L100.505 18.392H100.601L102.532 11.1818H104.507L106.424 18.3601H106.52L108.431 11.1818H110.407L107.524 21H105.574L103.58 13.9112H103.433L101.439 21H99.4954ZM116.057 21.1982C115.137 21.1982 114.333 20.9872 113.647 20.5653C112.961 20.1435 112.429 19.5533 112.049 18.7947C111.67 18.0362 111.48 17.1499 111.48 16.1357C111.48 15.1172 111.67 14.2266 112.049 13.4638C112.429 12.701 112.961 12.1087 113.647 11.6868C114.333 11.2649 115.137 11.054 116.057 11.054C116.978 11.054 117.781 11.2649 118.467 11.6868C119.153 12.1087 119.686 12.701 120.065 13.4638C120.444 14.2266 120.634 15.1172 120.634 16.1357C120.634 17.1499 120.444 18.0362 120.065 18.7947C119.686 19.5533 119.153 20.1435 118.467 20.5653C117.781 20.9872 116.978 21.1982 116.057 21.1982ZM116.064 19.5938C116.66 19.5938 117.154 19.4361 117.547 19.1207C117.939 18.8054 118.228 18.3857 118.416 17.8615C118.608 17.3374 118.703 16.7599 118.703 16.1293C118.703 15.5028 118.608 14.9276 118.416 14.4034C118.228 13.875 117.939 13.451 117.547 13.1314C117.154 12.8118 116.66 12.652 116.064 12.652C115.463 12.652 114.964 12.8118 114.568 13.1314C114.176 13.451 113.884 13.875 113.692 14.4034C113.505 14.9276 113.411 15.5028 113.411 16.1293C113.411 16.7599 113.505 17.3374 113.692 17.8615C113.884 18.3857 114.176 18.8054 114.568 19.1207C114.964 19.4361 115.463 19.5938 116.064 19.5938ZM122.767 21V11.1818H124.615V12.7415H124.717C124.896 12.2131 125.211 11.7976 125.663 11.495C126.119 11.1882 126.634 11.0348 127.21 11.0348C127.329 11.0348 127.47 11.0391 127.632 11.0476C127.798 11.0561 127.928 11.0668 128.021 11.0795V12.9077C127.945 12.8864 127.808 12.8629 127.612 12.8374C127.416 12.8075 127.22 12.7926 127.024 12.7926C126.573 12.7926 126.17 12.8885 125.816 13.0803C125.467 13.2678 125.19 13.5298 124.985 13.8665C124.781 14.1989 124.678 14.5781 124.678 15.0043V21H122.767ZM131.433 17.6697L131.42 15.3366H131.753L135.665 11.1818H137.953L133.491 15.9119H133.191L131.433 17.6697ZM129.675 21V7.90909H131.587V21H129.675ZM135.876 21L132.36 16.3338L133.677 14.9979L138.222 21H135.876Z" fill="#191F33"/>
<path d="M87.75 42.5C87.75 47.75 81 52.25 81 52.25C81 52.25 74.25 47.75 74.25 42.5C74.25 40.7098 74.9612 38.9929 76.227 37.727C77.4929 36.4612 79.2098 35.75 81 35.75C82.7902 35.75 84.5071 36.4612 85.773 37.727C87.0388 38.9929 87.75 40.7098 87.75 42.5Z" stroke="#939AAD" stroke-width="1.5" stroke-linecap="round" stroke-linejoin="round"/>
<path d="M81 44.75C82.2426 44.75 83.25 43.7426 83.25 42.5C83.25 41.2574 82.2426 40.25 81 40.25C79.7574 40.25 78.75 41.2574 78.75 42.5C78.75 43.7426 79.7574 44.75 81 44.75Z" stroke="#939AAD" stroke-width="1.5" stroke-linecap="round" stroke-linejoin="round"/>
<path d="M103.915 38.8182H105.148V45.5597C105.148 46.2557 104.984 46.8771 104.656 47.424C104.331 47.9676 103.872 48.3968 103.278 48.7116C102.685 49.0232 101.989 49.179 101.19 49.179C100.392 49.179 99.6955 49.0232 99.1023 48.7116C98.509 48.3968 98.0483 47.9676 97.7202 47.424C97.3954 46.8771 97.233 46.2557 97.233 45.5597V38.8182H98.4659V45.4602C98.4659 45.9574 98.5753 46.3999 98.794 46.7876C99.0128 47.1721 99.3243 47.4754 99.7287 47.6974C100.136 47.9162 100.624 48.0256 101.19 48.0256C101.757 48.0256 102.244 47.9162 102.652 47.6974C103.06 47.4754 103.371 47.1721 103.587 46.7876C103.805 46.3999 103.915 45.9574 103.915 45.4602V38.8182ZM108.624 44.4062V49H107.451V41.3636H108.584V42.5568H108.684C108.863 42.169 109.135 41.8575 109.499 41.6222C109.864 41.3835 110.334 41.2642 110.911 41.2642C111.428 41.2642 111.881 41.3703 112.268 41.5824C112.656 41.7912 112.958 42.1094 113.173 42.5369C113.389 42.9612 113.496 43.4981 113.496 44.1477V49H112.323V44.2273C112.323 43.6274 112.167 43.16 111.856 42.8253C111.544 42.4872 111.117 42.3182 110.573 42.3182C110.198 42.3182 109.864 42.3994 109.569 42.5618C109.277 42.7242 109.047 42.9612 108.878 43.2727C108.709 43.5843 108.624 43.9621 108.624 44.4062ZM115.64 49V41.3636H116.814V49H115.64ZM116.237 40.0909C116.008 40.0909 115.811 40.013 115.645 39.8572C115.483 39.7015 115.402 39.5142 115.402 39.2955C115.402 39.0767 115.483 38.8894 115.645 38.7337C115.811 38.5779 116.008 38.5 116.237 38.5C116.466 38.5 116.661 38.5779 116.824 38.7337C116.989 38.8894 117.072 39.0767 117.072 39.2955C117.072 39.5142 116.989 39.7015 116.824 39.8572C116.661 40.013 116.466 40.0909 116.237 40.0909ZM122.284 41.3636V42.358H118.326V41.3636H122.284ZM119.48 39.5341H120.653V46.8125C120.653 47.1439 120.701 47.3925 120.797 47.5582C120.896 47.7206 121.022 47.83 121.175 47.8864C121.331 47.9394 121.495 47.9659 121.667 47.9659C121.796 47.9659 121.902 47.9593 121.985 47.946C122.068 47.9295 122.134 47.9162 122.184 47.9062L122.423 48.9602C122.343 48.9901 122.232 49.0199 122.09 49.0497C121.947 49.0829 121.767 49.0994 121.548 49.0994C121.216 49.0994 120.892 49.0282 120.573 48.8857C120.258 48.7431 119.997 48.526 119.788 48.2344C119.582 47.9427 119.48 47.5748 119.48 47.1307V39.5341ZM127.168 49.1591C126.432 49.1591 125.798 48.9967 125.264 48.6719C124.734 48.3438 124.324 47.8864 124.036 47.2997C123.751 46.7098 123.608 46.0237 123.608 45.2415C123.608 44.4593 123.751 43.7699 124.036 43.1733C124.324 42.5734 124.725 42.1061 125.239 41.7713C125.756 41.4332 126.359 41.2642 127.049 41.2642C127.447 41.2642 127.839 41.3305 128.227 41.4631C128.615 41.5956 128.968 41.8111 129.286 42.1094C129.604 42.4044 129.858 42.7955 130.047 43.2827C130.236 43.7699 130.33 44.3698 130.33 45.0824V45.5795H124.444V44.5653H129.137C129.137 44.1345 129.051 43.75 128.878 43.4119C128.709 43.0739 128.467 42.8071 128.153 42.6115C127.841 42.416 127.473 42.3182 127.049 42.3182C126.581 42.3182 126.177 42.4342 125.836 42.6662C125.498 42.8949 125.238 43.1932 125.055 43.5611C124.873 43.929 124.782 44.3234 124.782 44.7443V45.4205C124.782 45.9972 124.881 46.486 125.08 46.8871C125.282 47.2848 125.562 47.5881 125.92 47.7969C126.278 48.0024 126.694 48.1051 127.168 48.1051C127.476 48.1051 127.755 48.062 128.003 47.9759C128.255 47.8864 128.472 47.7538 128.655 47.5781C128.837 47.3991 128.978 47.1771 129.077 46.9119L130.211 47.2301C130.091 47.6146 129.891 47.9527 129.609 48.2443C129.327 48.5327 128.979 48.758 128.565 48.9205C128.151 49.0795 127.685 49.1591 127.168 49.1591ZM134.998 49.1591C134.362 49.1591 133.8 48.9983 133.313 48.6768C132.826 48.352 132.445 47.8946 132.17 47.3047C131.894 46.7114 131.757 46.0104 131.757 45.2017C131.757 44.3996 131.894 43.7036 132.17 43.1136C132.445 42.5237 132.827 42.0679 133.318 41.7464C133.809 41.425 134.375 41.2642 135.018 41.2642C135.515 41.2642 135.908 41.3471 136.197 41.5128C136.488 41.6752 136.71 41.8608 136.863 42.0696C137.019 42.2751 137.14 42.4441 137.226 42.5767H137.325V38.8182H138.498V49H137.365V47.8267H137.226C137.14 47.9659 137.017 48.1416 136.858 48.3537C136.699 48.5625 136.472 48.7498 136.177 48.9155C135.882 49.0779 135.489 49.1591 134.998 49.1591ZM135.157 48.1051C135.628 48.1051 136.026 47.9825 136.351 47.7372C136.675 47.4886 136.922 47.1456 137.091 46.7081C137.26 46.2673 137.345 45.7585 137.345 45.1818C137.345 44.6117 137.262 44.1129 137.096 43.6854C136.931 43.2545 136.685 42.9197 136.361 42.6811C136.036 42.4392 135.635 42.3182 135.157 42.3182C134.66 42.3182 134.246 42.4458 133.915 42.701C133.586 42.9529 133.34 43.2959 133.174 43.7301C133.011 44.161 132.93 44.6449 132.93 45.1818C132.93 45.7254 133.013 46.2192 133.179 46.6634C133.348 47.1042 133.596 47.4555 133.925 47.7173C134.256 47.9759 134.667 48.1051 135.157 48.1051ZM150.475 41.3636C150.415 40.8598 150.173 40.4688 149.749 40.1903C149.325 39.9119 148.805 39.7727 148.188 39.7727C147.737 39.7727 147.343 39.8456 147.005 39.9915C146.67 40.1373 146.408 40.3378 146.219 40.593C146.034 40.8482 145.941 41.1383 145.941 41.4631C145.941 41.7348 146.006 41.9685 146.135 42.1641C146.267 42.3563 146.436 42.517 146.642 42.6463C146.847 42.7723 147.063 42.8767 147.288 42.9595C147.514 43.0391 147.721 43.1037 147.91 43.1534L148.944 43.4318C149.209 43.5014 149.504 43.5975 149.829 43.7202C150.157 43.8428 150.47 44.0102 150.768 44.2223C151.07 44.4311 151.318 44.6996 151.514 45.0277C151.71 45.3558 151.807 45.7585 151.807 46.2358C151.807 46.786 151.663 47.2831 151.375 47.7273C151.09 48.1714 150.672 48.5244 150.122 48.7862C149.575 49.0481 148.911 49.179 148.128 49.179C147.399 49.179 146.768 49.0613 146.234 48.826C145.704 48.5907 145.286 48.2625 144.981 47.8416C144.68 47.4207 144.509 46.9318 144.469 46.375H145.742C145.775 46.7595 145.904 47.0777 146.13 47.3295C146.358 47.5781 146.647 47.7637 146.995 47.8864C147.346 48.0057 147.724 48.0653 148.128 48.0653C148.599 48.0653 149.022 47.9891 149.396 47.8366C149.771 47.6809 150.067 47.4654 150.286 47.1903C150.505 46.9119 150.614 46.5871 150.614 46.2159C150.614 45.8778 150.52 45.6027 150.331 45.3906C150.142 45.1785 149.893 45.0062 149.585 44.8736C149.277 44.741 148.944 44.625 148.586 44.5256L147.333 44.1676C146.537 43.9389 145.908 43.6125 145.444 43.1882C144.98 42.764 144.748 42.2088 144.748 41.5227C144.748 40.9527 144.902 40.4555 145.21 40.0312C145.522 39.6037 145.939 39.2723 146.463 39.0369C146.99 38.7983 147.578 38.679 148.228 38.679C148.884 38.679 149.467 38.7966 149.978 39.032C150.488 39.264 150.893 39.5821 151.191 39.9865C151.492 40.3909 151.652 40.8499 151.668 41.3636H150.475ZM156.996 41.3636V42.358H153.039V41.3636H156.996ZM154.192 39.5341H155.366V46.8125C155.366 47.1439 155.414 47.3925 155.51 47.5582C155.609 47.7206 155.735 47.83 155.888 47.8864C156.044 47.9394 156.208 47.9659 156.38 47.9659C156.509 47.9659 156.615 47.9593 156.698 47.946C156.781 47.9295 156.847 47.9162 156.897 47.9062L157.136 48.9602C157.056 48.9901 156.945 49.0199 156.803 49.0497C156.66 49.0829 156.479 49.0994 156.261 49.0994C155.929 49.0994 155.604 49.0282 155.286 48.8857C154.971 48.7431 154.71 48.526 154.501 48.2344C154.295 47.9427 154.192 47.5748 154.192 47.1307V39.5341ZM161.009 49.179C160.525 49.179 160.085 49.0878 159.691 48.9055C159.297 48.7199 158.983 48.4531 158.751 48.1051C158.519 47.7538 158.403 47.3295 158.403 46.8324C158.403 46.3949 158.49 46.0402 158.662 45.7685C158.834 45.4934 159.065 45.2779 159.353 45.1222C159.641 44.9664 159.96 44.8504 160.308 44.7741C160.659 44.6946 161.012 44.6316 161.366 44.5852C161.83 44.5256 162.207 44.4808 162.495 44.451C162.787 44.4179 162.999 44.3632 163.131 44.2869C163.267 44.2107 163.335 44.0781 163.335 43.8892V43.8494C163.335 43.3589 163.201 42.9777 162.933 42.706C162.667 42.4342 162.265 42.2983 161.724 42.2983C161.164 42.2983 160.725 42.4209 160.407 42.6662C160.089 42.9115 159.865 43.1733 159.736 43.4517L158.622 43.054C158.821 42.59 159.086 42.2287 159.418 41.9702C159.752 41.7083 160.117 41.526 160.511 41.4233C160.909 41.3172 161.3 41.2642 161.685 41.2642C161.93 41.2642 162.212 41.294 162.53 41.3537C162.851 41.41 163.161 41.5277 163.46 41.7067C163.761 41.8857 164.011 42.1558 164.21 42.517C164.409 42.8783 164.509 43.3622 164.509 43.9688V49H163.335V47.9659H163.276C163.196 48.1316 163.063 48.3089 162.878 48.4979C162.692 48.6868 162.445 48.8475 162.137 48.9801C161.829 49.1127 161.453 49.179 161.009 49.179ZM161.188 48.125C161.652 48.125 162.043 48.0339 162.361 47.8516C162.682 47.6693 162.924 47.4339 163.087 47.1456C163.252 46.8572 163.335 46.554 163.335 46.2358V45.1619C163.286 45.2216 163.176 45.2763 163.007 45.326C162.841 45.3724 162.649 45.4138 162.43 45.4503C162.215 45.4834 162.004 45.5133 161.799 45.5398C161.597 45.563 161.433 45.5829 161.307 45.5994C161.002 45.6392 160.717 45.7038 160.452 45.7933C160.19 45.8795 159.978 46.0104 159.815 46.1861C159.656 46.3584 159.577 46.5937 159.577 46.892C159.577 47.2997 159.728 47.608 160.029 47.8168C160.334 48.0223 160.72 48.125 161.188 48.125ZM169.971 41.3636V42.358H166.014V41.3636H169.971ZM167.167 39.5341H168.34V46.8125C168.34 47.1439 168.388 47.3925 168.485 47.5582C168.584 47.7206 168.71 47.83 168.862 47.8864C169.018 47.9394 169.182 47.9659 169.355 47.9659C169.484 47.9659 169.59 47.9593 169.673 47.946C169.756 47.9295 169.822 47.9162 169.872 47.9062L170.11 48.9602C170.031 48.9901 169.92 49.0199 169.777 49.0497C169.635 49.0829 169.454 49.0994 169.235 49.0994C168.904 49.0994 168.579 49.0282 168.261 48.8857C167.946 48.7431 167.684 48.526 167.475 48.2344C167.27 47.9427 167.167 47.5748 167.167 47.1307V39.5341ZM174.856 49.1591C174.12 49.1591 173.485 48.9967 172.952 48.6719C172.421 48.3438 172.012 47.8864 171.724 47.2997C171.439 46.7098 171.296 46.0237 171.296 45.2415C171.296 44.4593 171.439 43.7699 171.724 43.1733C172.012 42.5734 172.413 42.1061 172.927 41.7713C173.444 41.4332 174.047 41.2642 174.736 41.2642C175.134 41.2642 175.527 41.3305 175.915 41.4631C176.302 41.5956 176.655 41.8111 176.974 42.1094C177.292 42.4044 177.545 42.7955 177.734 43.2827C177.923 43.7699 178.018 44.3698 178.018 45.0824V45.5795H172.131V44.5653H176.824C176.824 44.1345 176.738 43.75 176.566 43.4119C176.397 43.0739 176.155 42.8071 175.84 42.6115C175.528 42.416 175.161 42.3182 174.736 42.3182C174.269 42.3182 173.865 42.4342 173.523 42.6662C173.185 42.8949 172.925 43.1932 172.743 43.5611C172.56 43.929 172.469 44.3234 172.469 44.7443V45.4205C172.469 45.9972 172.569 46.486 172.768 46.8871C172.97 47.2848 173.25 47.5881 173.608 47.7969C173.966 48.0024 174.382 48.1051 174.856 48.1051C175.164 48.1051 175.442 48.062 175.691 47.9759C175.943 47.8864 176.16 47.7538 176.342 47.5781C176.524 47.3991 176.665 47.1771 176.765 46.9119L177.898 47.2301C177.779 47.6146 177.578 47.9527 177.297 48.2443C177.015 48.5327 176.667 48.758 176.253 48.9205C175.838 49.0795 175.373 49.1591 174.856 49.1591ZM185.211 43.0739L184.157 43.3722C184.091 43.1965 183.993 43.0258 183.864 42.8601C183.738 42.6911 183.566 42.5518 183.347 42.4425C183.128 42.3331 182.848 42.2784 182.507 42.2784C182.04 42.2784 181.65 42.3861 181.339 42.6016C181.03 42.8137 180.876 43.0838 180.876 43.4119C180.876 43.7036 180.982 43.9339 181.194 44.103C181.407 44.272 181.738 44.4129 182.189 44.5256L183.322 44.804C184.005 44.9697 184.514 45.2232 184.849 45.5646C185.183 45.9027 185.351 46.3385 185.351 46.8722C185.351 47.3097 185.225 47.7008 184.973 48.0455C184.724 48.3902 184.376 48.6619 183.929 48.8608C183.481 49.0597 182.961 49.1591 182.368 49.1591C181.589 49.1591 180.944 48.9901 180.434 48.652C179.923 48.3139 179.6 47.8201 179.464 47.1705L180.578 46.892C180.684 47.303 180.885 47.6113 181.18 47.8168C181.478 48.0223 181.867 48.125 182.348 48.125C182.895 48.125 183.329 48.009 183.65 47.777C183.975 47.5417 184.138 47.2599 184.138 46.9318C184.138 46.6667 184.045 46.4446 183.859 46.2656C183.674 46.0833 183.389 45.9474 183.004 45.858L181.731 45.5597C181.032 45.3939 180.518 45.1371 180.19 44.7891C179.865 44.4377 179.703 43.9986 179.703 43.4716C179.703 43.0407 179.824 42.6596 180.066 42.3281C180.311 41.9967 180.644 41.7365 181.065 41.5476C181.489 41.3587 181.97 41.2642 182.507 41.2642C183.263 41.2642 183.856 41.4299 184.287 41.7614C184.721 42.0928 185.029 42.5303 185.211 43.0739Z" fill="#939AAD"/>
</svg>
