<svg width="187" height="56" viewBox="0 0 187 56" fill="none" xmlns="http://www.w3.org/2000/svg">
<rect width="56" height="56" rx="4" fill="#1E60C6"/>
<path d="M20.1788 32.1007C20.0886 31.6127 19.9713 31.1337 19.9082 30.6456C19.6555 28.7386 20.0616 26.9762 21.1894 25.4036C22.0736 24.1654 23.2826 23.3068 24.6721 22.7103C26.3412 21.9963 28.1367 21.6076 29.9503 21.5715C31.5653 21.5263 32.9728 22.1228 34.1999 23.1351C35.463 24.1835 36.4375 25.4759 37.1864 26.931C37.5473 27.636 37.8811 28.359 38.2239 29.0821C38.26 29.1634 38.2871 29.2538 38.3051 29.3442C37.827 29.6334 37.3668 29.9316 36.8796 30.1937C35.0751 31.1879 33.1262 31.8658 31.0961 32.2182C29.9864 32.408 28.8676 32.5165 27.7488 32.5888C26.6841 32.6611 25.6194 32.6972 24.5548 32.6701C23.1022 32.634 21.6585 32.408 20.1788 32.1007ZM22.4706 27.2564C22.4435 28.8471 23.7337 30.1305 25.3037 30.1485C26.8194 30.1666 28.236 29.0007 28.236 27.2925C28.236 25.5211 26.8736 24.4004 25.3488 24.4004C23.7698 24.4004 22.4796 25.6747 22.4706 27.2564ZM33.5593 28.0879C34.4164 28.1511 35.3728 27.4371 35.3818 26.2622C35.3909 25.2861 34.6059 24.4908 33.6315 24.4817H33.5954C32.6029 24.4636 31.7909 25.259 31.7728 26.2441V26.2712C31.7728 27.3016 32.5397 28.0879 33.5593 28.0879Z" fill="white"/>
<path d="M38.36 29.751C38.4863 31.2694 38.1074 32.607 37.3495 33.8361C36.3209 35.4991 34.7871 36.5475 32.9826 37.2073C31.142 37.8761 29.1841 38.1382 27.2352 37.9936C26.0713 37.9123 24.8984 37.7405 23.8518 37.1892C22.0473 36.2312 20.9285 34.7038 20.342 32.7606C20.3149 32.6431 20.3059 32.5166 20.2969 32.3991C26.6578 33.8723 32.6939 33.2216 38.36 29.751Z" fill="white"/>
<path d="M38.0618 24.2288C38.531 24.0571 38.531 24.048 38.4859 23.6052C38.4588 23.3521 38.4498 23.099 38.5761 22.855C38.6303 22.7556 38.6212 22.6291 38.6303 22.5116C38.6483 22.1501 38.946 21.8699 39.3069 21.8699C39.6679 21.8699 39.9746 22.1591 39.9927 22.5206C39.9927 22.8821 39.7039 23.1804 39.343 23.1985C39.2257 23.2075 39.1085 23.1985 38.946 23.1985C38.928 23.3792 38.8919 23.5419 38.91 23.6955C38.9641 24.1384 38.8919 24.509 38.3866 24.6988L39.4152 26.5244L37.8724 27.4825C37.2227 25.9731 36.2303 24.7259 35.0393 23.5871L35.9596 22.4664C36.8167 22.8731 37.4573 23.5238 38.0618 24.2288ZM19.4934 29.8233L17.9957 29.3172C17.9235 28.4134 18.113 27.5728 18.4468 26.7504L17.9235 25.9189C17.734 25.9189 17.5445 25.955 17.3821 25.9099C17.0212 25.8285 16.6694 25.7201 16.3355 25.5845C16.0739 25.476 15.9566 25.1145 16.0288 24.8524C16.128 24.5361 16.4258 24.3372 16.7506 24.3644C17.0573 24.3915 17.31 24.6265 17.3551 24.9337C17.3731 25.0784 17.3551 25.232 17.3551 25.4128H18.1491C18.4829 25.5483 18.4648 25.955 18.7175 26.2171C19.2137 25.5664 19.7009 24.9157 20.4408 24.4547L21.1265 24.988C20.6032 25.711 20.0438 26.3889 19.8543 27.2294C19.6648 28.079 19.6107 28.9285 19.4934 29.8233Z" fill="white"/>
<path d="M25.6271 22.1951L25.3203 21.4359C26.1684 20.7581 27.1338 20.4779 28.1534 20.3423C28.1714 20.0712 28.0361 19.9537 27.8286 19.8453C27.1248 19.4837 27.0075 18.6342 27.5669 18.119C27.9008 17.8117 28.2978 17.7665 28.6947 17.9202C29.0556 18.0467 29.3083 18.3811 29.3353 18.7697C29.3985 19.1855 29.2 19.5922 28.8391 19.8001C28.7399 19.8543 28.6316 19.8995 28.5323 19.9447L28.6406 20.2881C29.5519 20.27 30.4451 20.2791 31.3293 20.6316L31.203 21.3817C29.3353 21.3908 27.4406 21.2913 25.6271 22.1951Z" fill="white"/>
<path d="M73.4382 21V7.90909H81.5561V9.60938H75.4134V13.598H80.9744V15.2919H75.4134V21H73.4382ZM83.7086 21V11.1818H85.5559V12.7415H85.6582C85.8372 12.2131 86.1525 11.7976 86.6042 11.495C87.0602 11.1882 87.5758 11.0348 88.1511 11.0348C88.2704 11.0348 88.411 11.0391 88.573 11.0476C88.7392 11.0561 88.8691 11.0668 88.9629 11.0795V12.9077C88.8862 12.8864 88.7498 12.8629 88.5538 12.8374C88.3578 12.8075 88.1618 12.7926 87.9657 12.7926C87.514 12.7926 87.1113 12.8885 86.7576 13.0803C86.4082 13.2678 86.1312 13.5298 85.9267 13.8665C85.7221 14.1989 85.6199 14.5781 85.6199 15.0043V21H83.7086ZM94.4968 21.1982C93.5295 21.1982 92.6964 20.9915 91.9975 20.5781C91.3029 20.1605 90.766 19.5746 90.3867 18.8203C90.0117 18.0618 89.8242 17.1733 89.8242 16.1548C89.8242 15.1491 90.0117 14.2628 90.3867 13.4957C90.766 12.7287 91.2944 12.13 91.9719 11.6996C92.6538 11.2692 93.4506 11.054 94.3626 11.054C94.9165 11.054 95.4535 11.1456 95.9734 11.3288C96.4933 11.5121 96.9599 11.7997 97.3732 12.1918C97.7866 12.5838 98.1126 13.093 98.3512 13.7195C98.5898 14.3416 98.7092 15.098 98.7092 15.9886V16.6662H90.9045V15.2344H96.8363C96.8363 14.7315 96.734 14.2862 96.5295 13.8984C96.3249 13.5064 96.0373 13.1974 95.6665 12.9716C95.3001 12.7457 94.8697 12.6328 94.3754 12.6328C93.8384 12.6328 93.3697 12.7649 92.9691 13.0291C92.5728 13.2891 92.266 13.63 92.0487 14.0518C91.8356 14.4695 91.729 14.9233 91.729 15.4134V16.532C91.729 17.1882 91.8441 17.7464 92.0742 18.2067C92.3086 18.6669 92.6346 19.0185 93.0522 19.2614C93.4698 19.5 93.9577 19.6193 94.516 19.6193C94.8782 19.6193 95.2085 19.5682 95.5067 19.4659C95.805 19.3594 96.0629 19.2017 96.2802 18.9929C96.4975 18.7841 96.6637 18.5263 96.7788 18.2195L98.5877 18.5455C98.4428 19.0781 98.1829 19.5447 97.8079 19.9453C97.4371 20.3416 96.9705 20.6506 96.408 20.8722C95.8498 21.0895 95.2127 21.1982 94.4968 21.1982ZM105.061 21.1982C104.094 21.1982 103.261 20.9915 102.562 20.5781C101.867 20.1605 101.33 19.5746 100.951 18.8203C100.576 18.0618 100.389 17.1733 100.389 16.1548C100.389 15.1491 100.576 14.2628 100.951 13.4957C101.33 12.7287 101.859 12.13 102.536 11.6996C103.218 11.2692 104.015 11.054 104.927 11.054C105.481 11.054 106.018 11.1456 106.538 11.3288C107.058 11.5121 107.524 11.7997 107.938 12.1918C108.351 12.5838 108.677 13.093 108.916 13.7195C109.154 14.3416 109.274 15.098 109.274 15.9886V16.6662H101.469V15.2344H107.401C107.401 14.7315 107.298 14.2862 107.094 13.8984C106.889 13.5064 106.602 13.1974 106.231 12.9716C105.865 12.7457 105.434 12.6328 104.94 12.6328C104.403 12.6328 103.934 12.7649 103.534 13.0291C103.137 13.2891 102.83 13.63 102.613 14.0518C102.4 14.4695 102.294 14.9233 102.294 15.4134V16.532C102.294 17.1882 102.409 17.7464 102.639 18.2067C102.873 18.6669 103.199 19.0185 103.617 19.2614C104.034 19.5 104.522 19.6193 105.08 19.6193C105.443 19.6193 105.773 19.5682 106.071 19.4659C106.369 19.3594 106.627 19.2017 106.845 18.9929C107.062 18.7841 107.228 18.5263 107.343 18.2195L109.152 18.5455C109.007 19.0781 108.747 19.5447 108.372 19.9453C108.002 20.3416 107.535 20.6506 106.972 20.8722C106.414 21.0895 105.777 21.1982 105.061 21.1982ZM111.394 24.6818V11.1818H113.261V12.7734H113.42C113.531 12.5689 113.691 12.3324 113.9 12.0639C114.109 11.7955 114.398 11.5611 114.769 11.3608C115.14 11.1562 115.63 11.054 116.239 11.054C117.032 11.054 117.739 11.2543 118.362 11.6548C118.984 12.0554 119.472 12.6328 119.825 13.3871C120.183 14.1413 120.362 15.049 120.362 16.1101C120.362 17.1712 120.185 18.081 119.832 18.8395C119.478 19.5937 118.992 20.1754 118.374 20.5845C117.756 20.9893 117.051 21.1918 116.259 21.1918C115.662 21.1918 115.174 21.0916 114.795 20.8913C114.42 20.6911 114.126 20.4567 113.913 20.1882C113.7 19.9197 113.536 19.6811 113.42 19.4723H113.305V24.6818H111.394ZM113.267 16.0909C113.267 16.7812 113.367 17.3864 113.567 17.9062C113.768 18.4261 114.058 18.8331 114.437 19.1271C114.816 19.4169 115.281 19.5618 115.83 19.5618C116.401 19.5618 116.879 19.4105 117.262 19.108C117.646 18.8011 117.935 18.3857 118.131 17.8615C118.332 17.3374 118.432 16.7472 118.432 16.0909C118.432 15.4432 118.334 14.8615 118.138 14.3459C117.946 13.8303 117.656 13.4233 117.268 13.125C116.885 12.8267 116.406 12.6776 115.83 12.6776C115.276 12.6776 114.808 12.8203 114.424 13.1058C114.045 13.3913 113.757 13.7898 113.561 14.3011C113.365 14.8125 113.267 15.4091 113.267 16.0909ZM122.504 21V11.1818H124.415V21H122.504ZM123.469 9.6669C123.136 9.6669 122.851 9.55611 122.612 9.33452C122.378 9.10866 122.261 8.8402 122.261 8.52912C122.261 8.21378 122.378 7.94531 122.612 7.72372C122.851 7.49787 123.136 7.38494 123.469 7.38494C123.801 7.38494 124.085 7.49787 124.319 7.72372C124.558 7.94531 124.677 8.21378 124.677 8.52912C124.677 8.8402 124.558 9.10866 124.319 9.33452C124.085 9.55611 123.801 9.6669 123.469 9.6669ZM128.744 17.6697L128.731 15.3366H129.063L132.975 11.1818H135.264L130.802 15.9119H130.502L128.744 17.6697ZM126.986 21V7.90909H128.897V21H126.986ZM133.186 21L129.671 16.3338L130.987 14.9979L135.532 21H133.186Z" fill="#191F33"/>
<path d="M87.75 42.5C87.75 47.75 81 52.25 81 52.25C81 52.25 74.25 47.75 74.25 42.5C74.25 40.7098 74.9612 38.9929 76.227 37.727C77.4929 36.4612 79.2098 35.75 81 35.75C82.7902 35.75 84.5071 36.4612 85.773 37.727C87.0388 38.9929 87.75 40.7098 87.75 42.5Z" stroke="#939AAD" stroke-width="1.5" stroke-linecap="round" stroke-linejoin="round"/>
<path d="M81 44.75C82.2426 44.75 83.25 43.7426 83.25 42.5C83.25 41.2574 82.2426 40.25 81 40.25C79.7574 40.25 78.75 41.2574 78.75 42.5C78.75 43.7426 79.7574 44.75 81 44.75Z" stroke="#939AAD" stroke-width="1.5" stroke-linecap="round" stroke-linejoin="round"/>
<path d="M103.915 38.8182H105.148V45.5597C105.148 46.2557 104.984 46.8771 104.656 47.424C104.331 47.9676 103.872 48.3968 103.278 48.7116C102.685 49.0232 101.989 49.179 101.19 49.179C100.392 49.179 99.6955 49.0232 99.1023 48.7116C98.509 48.3968 98.0483 47.9676 97.7202 47.424C97.3954 46.8771 97.233 46.2557 97.233 45.5597V38.8182H98.4659V45.4602C98.4659 45.9574 98.5753 46.3999 98.794 46.7876C99.0128 47.1721 99.3243 47.4754 99.7287 47.6974C100.136 47.9162 100.624 48.0256 101.19 48.0256C101.757 48.0256 102.244 47.9162 102.652 47.6974C103.06 47.4754 103.371 47.1721 103.587 46.7876C103.805 46.3999 103.915 45.9574 103.915 45.4602V38.8182ZM108.624 44.4062V49H107.451V41.3636H108.584V42.5568H108.684C108.863 42.169 109.135 41.8575 109.499 41.6222C109.864 41.3835 110.334 41.2642 110.911 41.2642C111.428 41.2642 111.881 41.3703 112.268 41.5824C112.656 41.7912 112.958 42.1094 113.173 42.5369C113.389 42.9612 113.496 43.4981 113.496 44.1477V49H112.323V44.2273C112.323 43.6274 112.167 43.16 111.856 42.8253C111.544 42.4872 111.117 42.3182 110.573 42.3182C110.198 42.3182 109.864 42.3994 109.569 42.5618C109.277 42.7242 109.047 42.9612 108.878 43.2727C108.709 43.5843 108.624 43.9621 108.624 44.4062ZM115.64 49V41.3636H116.814V49H115.64ZM116.237 40.0909C116.008 40.0909 115.811 40.013 115.645 39.8572C115.483 39.7015 115.402 39.5142 115.402 39.2955C115.402 39.0767 115.483 38.8894 115.645 38.7337C115.811 38.5779 116.008 38.5 116.237 38.5C116.466 38.5 116.661 38.5779 116.824 38.7337C116.989 38.8894 117.072 39.0767 117.072 39.2955C117.072 39.5142 116.989 39.7015 116.824 39.8572C116.661 40.013 116.466 40.0909 116.237 40.0909ZM122.284 41.3636V42.358H118.326V41.3636H122.284ZM119.48 39.5341H120.653V46.8125C120.653 47.1439 120.701 47.3925 120.797 47.5582C120.896 47.7206 121.022 47.83 121.175 47.8864C121.331 47.9394 121.495 47.9659 121.667 47.9659C121.796 47.9659 121.902 47.9593 121.985 47.946C122.068 47.9295 122.134 47.9162 122.184 47.9062L122.423 48.9602C122.343 48.9901 122.232 49.0199 122.09 49.0497C121.947 49.0829 121.767 49.0994 121.548 49.0994C121.216 49.0994 120.892 49.0282 120.573 48.8857C120.258 48.7431 119.997 48.526 119.788 48.2344C119.582 47.9427 119.48 47.5748 119.48 47.1307V39.5341ZM127.168 49.1591C126.432 49.1591 125.798 48.9967 125.264 48.6719C124.734 48.3438 124.324 47.8864 124.036 47.2997C123.751 46.7098 123.608 46.0237 123.608 45.2415C123.608 44.4593 123.751 43.7699 124.036 43.1733C124.324 42.5734 124.725 42.1061 125.239 41.7713C125.756 41.4332 126.359 41.2642 127.049 41.2642C127.447 41.2642 127.839 41.3305 128.227 41.4631C128.615 41.5956 128.968 41.8111 129.286 42.1094C129.604 42.4044 129.858 42.7955 130.047 43.2827C130.236 43.7699 130.33 44.3698 130.33 45.0824V45.5795H124.444V44.5653H129.137C129.137 44.1345 129.051 43.75 128.878 43.4119C128.709 43.0739 128.467 42.8071 128.153 42.6115C127.841 42.416 127.473 42.3182 127.049 42.3182C126.581 42.3182 126.177 42.4342 125.836 42.6662C125.498 42.8949 125.238 43.1932 125.055 43.5611C124.873 43.929 124.782 44.3234 124.782 44.7443V45.4205C124.782 45.9972 124.881 46.486 125.08 46.8871C125.282 47.2848 125.562 47.5881 125.92 47.7969C126.278 48.0024 126.694 48.1051 127.168 48.1051C127.476 48.1051 127.755 48.062 128.003 47.9759C128.255 47.8864 128.472 47.7538 128.655 47.5781C128.837 47.3991 128.978 47.1771 129.077 46.9119L130.211 47.2301C130.091 47.6146 129.891 47.9527 129.609 48.2443C129.327 48.5327 128.979 48.758 128.565 48.9205C128.151 49.0795 127.685 49.1591 127.168 49.1591ZM134.998 49.1591C134.362 49.1591 133.8 48.9983 133.313 48.6768C132.826 48.352 132.445 47.8946 132.17 47.3047C131.894 46.7114 131.757 46.0104 131.757 45.2017C131.757 44.3996 131.894 43.7036 132.17 43.1136C132.445 42.5237 132.827 42.0679 133.318 41.7464C133.809 41.425 134.375 41.2642 135.018 41.2642C135.515 41.2642 135.908 41.3471 136.197 41.5128C136.488 41.6752 136.71 41.8608 136.863 42.0696C137.019 42.2751 137.14 42.4441 137.226 42.5767H137.325V38.8182H138.498V49H137.365V47.8267H137.226C137.14 47.9659 137.017 48.1416 136.858 48.3537C136.699 48.5625 136.472 48.7498 136.177 48.9155C135.882 49.0779 135.489 49.1591 134.998 49.1591ZM135.157 48.1051C135.628 48.1051 136.026 47.9825 136.351 47.7372C136.675 47.4886 136.922 47.1456 137.091 46.7081C137.26 46.2673 137.345 45.7585 137.345 45.1818C137.345 44.6117 137.262 44.1129 137.096 43.6854C136.931 43.2545 136.685 42.9197 136.361 42.6811C136.036 42.4392 135.635 42.3182 135.157 42.3182C134.66 42.3182 134.246 42.4458 133.915 42.701C133.586 42.9529 133.34 43.2959 133.174 43.7301C133.011 44.161 132.93 44.6449 132.93 45.1818C132.93 45.7254 133.013 46.2192 133.179 46.6634C133.348 47.1042 133.596 47.4555 133.925 47.7173C134.256 47.9759 134.667 48.1051 135.157 48.1051ZM150.475 41.3636C150.415 40.8598 150.173 40.4688 149.749 40.1903C149.325 39.9119 148.805 39.7727 148.188 39.7727C147.737 39.7727 147.343 39.8456 147.005 39.9915C146.67 40.1373 146.408 40.3378 146.219 40.593C146.034 40.8482 145.941 41.1383 145.941 41.4631C145.941 41.7348 146.006 41.9685 146.135 42.1641C146.267 42.3563 146.436 42.517 146.642 42.6463C146.847 42.7723 147.063 42.8767 147.288 42.9595C147.514 43.0391 147.721 43.1037 147.91 43.1534L148.944 43.4318C149.209 43.5014 149.504 43.5975 149.829 43.7202C150.157 43.8428 150.47 44.0102 150.768 44.2223C151.07 44.4311 151.318 44.6996 151.514 45.0277C151.71 45.3558 151.807 45.7585 151.807 46.2358C151.807 46.786 151.663 47.2831 151.375 47.7273C151.09 48.1714 150.672 48.5244 150.122 48.7862C149.575 49.0481 148.911 49.179 148.128 49.179C147.399 49.179 146.768 49.0613 146.234 48.826C145.704 48.5907 145.286 48.2625 144.981 47.8416C144.68 47.4207 144.509 46.9318 144.469 46.375H145.742C145.775 46.7595 145.904 47.0777 146.13 47.3295C146.358 47.5781 146.647 47.7637 146.995 47.8864C147.346 48.0057 147.724 48.0653 148.128 48.0653C148.599 48.0653 149.022 47.9891 149.396 47.8366C149.771 47.6809 150.067 47.4654 150.286 47.1903C150.505 46.9119 150.614 46.5871 150.614 46.2159C150.614 45.8778 150.52 45.6027 150.331 45.3906C150.142 45.1785 149.893 45.0062 149.585 44.8736C149.277 44.741 148.944 44.625 148.586 44.5256L147.333 44.1676C146.537 43.9389 145.908 43.6125 145.444 43.1882C144.98 42.764 144.748 42.2088 144.748 41.5227C144.748 40.9527 144.902 40.4555 145.21 40.0312C145.522 39.6037 145.939 39.2723 146.463 39.0369C146.99 38.7983 147.578 38.679 148.228 38.679C148.884 38.679 149.467 38.7966 149.978 39.032C150.488 39.264 150.893 39.5821 151.191 39.9865C151.492 40.3909 151.652 40.8499 151.668 41.3636H150.475ZM156.996 41.3636V42.358H153.039V41.3636H156.996ZM154.192 39.5341H155.366V46.8125C155.366 47.1439 155.414 47.3925 155.51 47.5582C155.609 47.7206 155.735 47.83 155.888 47.8864C156.044 47.9394 156.208 47.9659 156.38 47.9659C156.509 47.9659 156.615 47.9593 156.698 47.946C156.781 47.9295 156.847 47.9162 156.897 47.9062L157.136 48.9602C157.056 48.9901 156.945 49.0199 156.803 49.0497C156.66 49.0829 156.479 49.0994 156.261 49.0994C155.929 49.0994 155.604 49.0282 155.286 48.8857C154.971 48.7431 154.71 48.526 154.501 48.2344C154.295 47.9427 154.192 47.5748 154.192 47.1307V39.5341ZM161.009 49.179C160.525 49.179 160.085 49.0878 159.691 48.9055C159.297 48.7199 158.983 48.4531 158.751 48.1051C158.519 47.7538 158.403 47.3295 158.403 46.8324C158.403 46.3949 158.49 46.0402 158.662 45.7685C158.834 45.4934 159.065 45.2779 159.353 45.1222C159.641 44.9664 159.96 44.8504 160.308 44.7741C160.659 44.6946 161.012 44.6316 161.366 44.5852C161.83 44.5256 162.207 44.4808 162.495 44.451C162.787 44.4179 162.999 44.3632 163.131 44.2869C163.267 44.2107 163.335 44.0781 163.335 43.8892V43.8494C163.335 43.3589 163.201 42.9777 162.933 42.706C162.667 42.4342 162.265 42.2983 161.724 42.2983C161.164 42.2983 160.725 42.4209 160.407 42.6662C160.089 42.9115 159.865 43.1733 159.736 43.4517L158.622 43.054C158.821 42.59 159.086 42.2287 159.418 41.9702C159.752 41.7083 160.117 41.526 160.511 41.4233C160.909 41.3172 161.3 41.2642 161.685 41.2642C161.93 41.2642 162.212 41.294 162.53 41.3537C162.851 41.41 163.161 41.5277 163.46 41.7067C163.761 41.8857 164.011 42.1558 164.21 42.517C164.409 42.8783 164.509 43.3622 164.509 43.9688V49H163.335V47.9659H163.276C163.196 48.1316 163.063 48.3089 162.878 48.4979C162.692 48.6868 162.445 48.8475 162.137 48.9801C161.829 49.1127 161.453 49.179 161.009 49.179ZM161.188 48.125C161.652 48.125 162.043 48.0339 162.361 47.8516C162.682 47.6693 162.924 47.4339 163.087 47.1456C163.252 46.8572 163.335 46.554 163.335 46.2358V45.1619C163.286 45.2216 163.176 45.2763 163.007 45.326C162.841 45.3724 162.649 45.4138 162.43 45.4503C162.215 45.4834 162.004 45.5133 161.799 45.5398C161.597 45.563 161.433 45.5829 161.307 45.5994C161.002 45.6392 160.717 45.7038 160.452 45.7933C160.19 45.8795 159.978 46.0104 159.815 46.1861C159.656 46.3584 159.577 46.5937 159.577 46.892C159.577 47.2997 159.728 47.608 160.029 47.8168C160.334 48.0223 160.72 48.125 161.188 48.125ZM169.971 41.3636V42.358H166.014V41.3636H169.971ZM167.167 39.5341H168.34V46.8125C168.34 47.1439 168.388 47.3925 168.485 47.5582C168.584 47.7206 168.71 47.83 168.862 47.8864C169.018 47.9394 169.182 47.9659 169.355 47.9659C169.484 47.9659 169.59 47.9593 169.673 47.946C169.756 47.9295 169.822 47.9162 169.872 47.9062L170.11 48.9602C170.031 48.9901 169.92 49.0199 169.777 49.0497C169.635 49.0829 169.454 49.0994 169.235 49.0994C168.904 49.0994 168.579 49.0282 168.261 48.8857C167.946 48.7431 167.684 48.526 167.475 48.2344C167.27 47.9427 167.167 47.5748 167.167 47.1307V39.5341ZM174.856 49.1591C174.12 49.1591 173.485 48.9967 172.952 48.6719C172.421 48.3438 172.012 47.8864 171.724 47.2997C171.439 46.7098 171.296 46.0237 171.296 45.2415C171.296 44.4593 171.439 43.7699 171.724 43.1733C172.012 42.5734 172.413 42.1061 172.927 41.7713C173.444 41.4332 174.047 41.2642 174.736 41.2642C175.134 41.2642 175.527 41.3305 175.915 41.4631C176.302 41.5956 176.655 41.8111 176.974 42.1094C177.292 42.4044 177.545 42.7955 177.734 43.2827C177.923 43.7699 178.018 44.3698 178.018 45.0824V45.5795H172.131V44.5653H176.824C176.824 44.1345 176.738 43.75 176.566 43.4119C176.397 43.0739 176.155 42.8071 175.84 42.6115C175.528 42.416 175.161 42.3182 174.736 42.3182C174.269 42.3182 173.865 42.4342 173.523 42.6662C173.185 42.8949 172.925 43.1932 172.743 43.5611C172.56 43.929 172.469 44.3234 172.469 44.7443V45.4205C172.469 45.9972 172.569 46.486 172.768 46.8871C172.97 47.2848 173.25 47.5881 173.608 47.7969C173.966 48.0024 174.382 48.1051 174.856 48.1051C175.164 48.1051 175.442 48.062 175.691 47.9759C175.943 47.8864 176.16 47.7538 176.342 47.5781C176.524 47.3991 176.665 47.1771 176.765 46.9119L177.898 47.2301C177.779 47.6146 177.578 47.9527 177.297 48.2443C177.015 48.5327 176.667 48.758 176.253 48.9205C175.838 49.0795 175.373 49.1591 174.856 49.1591ZM185.211 43.0739L184.157 43.3722C184.091 43.1965 183.993 43.0258 183.864 42.8601C183.738 42.6911 183.566 42.5518 183.347 42.4425C183.128 42.3331 182.848 42.2784 182.507 42.2784C182.04 42.2784 181.65 42.3861 181.339 42.6016C181.03 42.8137 180.876 43.0838 180.876 43.4119C180.876 43.7036 180.982 43.9339 181.194 44.103C181.407 44.272 181.738 44.4129 182.189 44.5256L183.322 44.804C184.005 44.9697 184.514 45.2232 184.849 45.5646C185.183 45.9027 185.351 46.3385 185.351 46.8722C185.351 47.3097 185.225 47.7008 184.973 48.0455C184.724 48.3902 184.376 48.6619 183.929 48.8608C183.481 49.0597 182.961 49.1591 182.368 49.1591C181.589 49.1591 180.944 48.9901 180.434 48.652C179.923 48.3139 179.6 47.8201 179.464 47.1705L180.578 46.892C180.684 47.303 180.885 47.6113 181.18 47.8168C181.478 48.0223 181.867 48.125 182.348 48.125C182.895 48.125 183.329 48.009 183.65 47.777C183.975 47.5417 184.138 47.2599 184.138 46.9318C184.138 46.6667 184.045 46.4446 183.859 46.2656C183.674 46.0833 183.389 45.9474 183.004 45.858L181.731 45.5597C181.032 45.3939 180.518 45.1371 180.19 44.7891C179.865 44.4377 179.703 43.9986 179.703 43.4716C179.703 43.0407 179.824 42.6596 180.066 42.3281C180.311 41.9967 180.644 41.7365 181.065 41.5476C181.489 41.3587 181.97 41.2642 182.507 41.2642C183.263 41.2642 183.856 41.4299 184.287 41.7614C184.721 42.0928 185.029 42.5303 185.211 43.0739Z" fill="#939AAD"/>
</svg>
