<svg width="134" height="56" viewBox="0 0 134 56" fill="none" xmlns="http://www.w3.org/2000/svg">
<rect width="56" height="56" rx="4" fill="#EDEFF5"/>
<g clip-path="url(#clip0_1647_32474)">
<path fill-rule="evenodd" clip-rule="evenodd" d="M24.8319 16C23.508 16.001 22.4365 17.0755 22.4375 18.3995C22.4365 19.7235 23.509 20.798 24.8329 20.799H27.2283V18.4005C27.2292 17.0765 26.1568 16.002 24.8319 16C24.8329 16 24.8329 16 24.8319 16V16ZM24.8319 22.4H18.4462C17.1222 22.401 16.0498 23.4755 16.0508 24.7995C16.0488 26.1235 17.1213 27.198 18.4452 27.2H24.8319C26.1558 27.199 27.2282 26.1245 27.2273 24.8005C27.2282 23.4755 26.1558 22.401 24.8319 22.4Z" fill="#36C5F0"/>
<path fill-rule="evenodd" clip-rule="evenodd" d="M40.0007 24.7995C40.0017 23.4755 38.9293 22.401 37.6053 22.4C36.2814 22.401 35.209 23.4755 35.21 24.7995V27.2H37.6053C38.9293 27.199 40.0017 26.1245 40.0007 24.7995ZM33.614 24.7995V18.3995C33.615 17.0765 32.5435 16.002 31.2196 16C29.8957 16.001 28.8232 17.0755 28.8242 18.3995V24.7995C28.8223 26.1235 29.8947 27.198 31.2186 27.2C32.5425 27.199 33.615 26.1245 33.614 24.7995Z" fill="#2EB67D"/>
<path fill-rule="evenodd" clip-rule="evenodd" d="M31.2196 40.0001C32.5435 39.9991 33.616 38.9246 33.615 37.6006C33.616 36.2765 32.5435 35.202 31.2196 35.201H28.8242V37.6006C28.8232 38.9236 29.8957 39.9981 31.2196 40.0001ZM31.2196 33.5991H37.6063C38.9302 33.5981 40.0027 32.5236 40.0017 31.1996C40.0037 29.8755 38.9312 28.801 37.6073 28.7991H31.2206C29.8967 28.8001 28.8242 29.8745 28.8252 31.1986C28.8242 32.5236 29.8957 33.5981 31.2196 33.5991Z" fill="#ECB22E"/>
<path fill-rule="evenodd" clip-rule="evenodd" d="M16.0508 31.1996C16.0498 32.5236 17.1222 33.5981 18.4462 33.5991C19.7701 33.5981 20.8425 32.5236 20.8415 31.1996V28.8H18.4462C17.1222 28.801 16.0498 29.8755 16.0508 31.1996ZM22.4375 31.1996V37.5996C22.4355 38.9236 23.508 39.9981 24.8319 40.0001C26.1558 39.9991 27.2283 38.9246 27.2273 37.6006V31.2015C27.2292 29.8775 26.1568 28.803 24.8329 28.801C23.508 28.801 22.4365 29.8755 22.4375 31.1996C22.4375 31.2005 22.4375 31.1996 22.4375 31.1996Z" fill="#E01E5A"/>
</g>
<path d="M80.5781 11.348C80.5099 10.7429 80.2287 10.2741 79.7344 9.94176C79.2401 9.60511 78.6179 9.43679 77.8679 9.43679C77.331 9.43679 76.8665 9.52202 76.4744 9.69247C76.0824 9.85866 75.7777 10.0888 75.5604 10.3828C75.3473 10.6726 75.2408 11.0028 75.2408 11.3736C75.2408 11.6847 75.3132 11.9531 75.4581 12.179C75.6072 12.4048 75.8011 12.5945 76.0398 12.7479C76.2827 12.897 76.5426 13.0227 76.8196 13.125C77.0966 13.223 77.3629 13.304 77.6186 13.3679L78.897 13.7003C79.3146 13.8026 79.7429 13.9411 80.1818 14.1158C80.6207 14.2905 81.0277 14.5206 81.4027 14.8061C81.7777 15.0916 82.0803 15.4453 82.3104 15.8672C82.5447 16.2891 82.6619 16.794 82.6619 17.3821C82.6619 18.1236 82.4702 18.782 82.0866 19.3572C81.7074 19.9325 81.1555 20.3864 80.4311 20.7188C79.7109 21.0511 78.8395 21.2173 77.8168 21.2173C76.8366 21.2173 75.9886 21.0618 75.2727 20.7507C74.5568 20.4396 73.9964 19.9986 73.5916 19.4276C73.1868 18.8523 72.9631 18.1705 72.9205 17.3821H74.902C74.9403 17.8551 75.0938 18.2493 75.3622 18.5646C75.6349 18.8757 75.9822 19.108 76.4041 19.2614C76.8303 19.4105 77.2969 19.4851 77.804 19.4851C78.3622 19.4851 78.8587 19.3977 79.2933 19.223C79.7322 19.044 80.0774 18.7969 80.3288 18.4815C80.5803 18.1619 80.706 17.7891 80.706 17.3629C80.706 16.9751 80.5952 16.6577 80.3736 16.4105C80.1563 16.1634 79.8601 15.9588 79.4851 15.7969C79.1143 15.6349 78.6946 15.4922 78.2259 15.3686L76.679 14.9467C75.6307 14.6612 74.7997 14.2415 74.1861 13.6875C73.5767 13.1335 73.272 12.4006 73.272 11.4886C73.272 10.7344 73.4766 10.076 73.8857 9.51349C74.2947 8.95099 74.8487 8.5142 75.5476 8.20312C76.2464 7.88778 77.0348 7.73011 77.9126 7.73011C78.799 7.73011 79.581 7.88565 80.2585 8.19673C80.9403 8.50781 81.4773 8.93608 81.8693 9.48153C82.2614 10.0227 82.4659 10.6449 82.483 11.348H80.5781ZM86.78 7.90909V21H84.8688V7.90909H86.78ZM92.2085 21.2173C91.5863 21.2173 91.0238 21.1023 90.521 20.8722C90.0181 20.6378 89.6197 20.299 89.3256 19.8558C89.0359 19.4126 88.891 18.8693 88.891 18.2259C88.891 17.6719 88.9975 17.2159 89.2106 16.858C89.4237 16.5 89.7113 16.2166 90.0735 16.0078C90.4357 15.799 90.8406 15.6413 91.288 15.5348C91.7354 15.4283 92.1914 15.3473 92.6559 15.2919C93.244 15.2237 93.7212 15.1683 94.0877 15.1257C94.4542 15.0788 94.7205 15.0043 94.8867 14.902C95.0529 14.7997 95.136 14.6335 95.136 14.4034V14.3587C95.136 13.8004 94.9783 13.3679 94.663 13.0611C94.3519 12.7543 93.8874 12.6009 93.2695 12.6009C92.6261 12.6009 92.119 12.7436 91.7482 13.0291C91.3817 13.3104 91.1282 13.6236 90.9876 13.9688L89.1914 13.5597C89.4045 12.9631 89.7156 12.4815 90.1246 12.1151C90.538 11.7443 91.0131 11.4759 91.5501 11.3097C92.087 11.1392 92.6516 11.054 93.244 11.054C93.636 11.054 94.0515 11.1009 94.4904 11.1946C94.9336 11.2841 95.3469 11.4503 95.7305 11.6932C96.1183 11.9361 96.4357 12.2834 96.6829 12.7351C96.93 13.1825 97.0536 13.7642 97.0536 14.4801V21H95.1871V19.6577H95.1104C94.9869 19.9048 94.8015 20.1477 94.5543 20.3864C94.3072 20.625 93.9897 20.8232 93.6019 20.9808C93.2141 21.1385 92.7496 21.2173 92.2085 21.2173ZM92.6239 19.6832C93.1523 19.6832 93.604 19.5788 93.979 19.37C94.3583 19.1612 94.646 18.8885 94.842 18.5518C95.0423 18.2109 95.1424 17.8466 95.1424 17.4588V16.1932C95.0742 16.2614 94.9421 16.3253 94.7461 16.3849C94.5543 16.4403 94.3349 16.4893 94.0877 16.532C93.8406 16.5703 93.5998 16.6065 93.3654 16.6406C93.131 16.6705 92.935 16.696 92.7773 16.7173C92.4066 16.7642 92.0678 16.843 91.761 16.9538C91.4585 17.0646 91.2156 17.2244 91.0323 17.4332C90.8533 17.6378 90.7638 17.9105 90.7638 18.2514C90.7638 18.7244 90.9386 19.0824 91.288 19.3253C91.6374 19.5639 92.0827 19.6832 92.6239 19.6832ZM103.735 21.1982C102.785 21.1982 101.966 20.983 101.28 20.5526C100.599 20.1179 100.074 19.5192 99.7079 18.7564C99.3414 17.9936 99.1582 17.12 99.1582 16.1357C99.1582 15.1385 99.3457 14.2585 99.7207 13.4957C100.096 12.7287 100.624 12.13 101.306 11.6996C101.988 11.2692 102.791 11.054 103.716 11.054C104.461 11.054 105.126 11.1925 105.71 11.4695C106.294 11.7422 106.765 12.1257 107.123 12.62C107.485 13.1143 107.7 13.6918 107.768 14.3523H105.908C105.806 13.892 105.572 13.4957 105.205 13.1634C104.843 12.831 104.357 12.6648 103.748 12.6648C103.215 12.6648 102.748 12.8054 102.348 13.0866C101.952 13.3636 101.643 13.7599 101.421 14.2756C101.199 14.7869 101.089 15.392 101.089 16.0909C101.089 16.8068 101.197 17.4247 101.415 17.9446C101.632 18.4645 101.939 18.8672 102.335 19.1527C102.736 19.4382 103.206 19.581 103.748 19.581C104.11 19.581 104.438 19.5149 104.732 19.3828C105.03 19.2464 105.28 19.0526 105.48 18.8011C105.684 18.5497 105.827 18.2472 105.908 17.8935H107.768C107.7 18.5284 107.493 19.0952 107.148 19.5938C106.803 20.0923 106.341 20.4844 105.761 20.7699C105.186 21.0554 104.51 21.1982 103.735 21.1982ZM111.57 17.6697L111.557 15.3366H111.89L115.801 11.1818H118.09L113.628 15.9119H113.328L111.57 17.6697ZM109.812 21V7.90909H111.723V21H109.812ZM116.012 21L112.497 16.3338L113.814 14.9979L118.358 21H116.012Z" fill="#191F33"/>
<path d="M87.75 42.5C87.75 47.75 81 52.25 81 52.25C81 52.25 74.25 47.75 74.25 42.5C74.25 40.7098 74.9612 38.9929 76.227 37.727C77.4929 36.4612 79.2098 35.75 81 35.75C82.7902 35.75 84.5071 36.4612 85.773 37.727C87.0388 38.9929 87.75 40.7098 87.75 42.5Z" stroke="#939AAD" stroke-width="1.5" stroke-linecap="round" stroke-linejoin="round"/>
<path d="M81 44.75C82.2426 44.75 83.25 43.7426 83.25 42.5C83.25 41.2574 82.2426 40.25 81 40.25C79.7574 40.25 78.75 41.2574 78.75 42.5C78.75 43.7426 79.7574 44.75 81 44.75Z" stroke="#939AAD" stroke-width="1.5" stroke-linecap="round" stroke-linejoin="round"/>
<path d="M105.426 42H104.193C104.12 41.6454 103.993 41.3338 103.81 41.0653C103.631 40.7969 103.413 40.5715 103.154 40.3892C102.899 40.2036 102.616 40.0644 102.304 39.9716C101.992 39.8788 101.668 39.8324 101.33 39.8324C100.713 39.8324 100.155 39.9882 99.6541 40.2997C99.157 40.6113 98.7609 41.0703 98.4659 41.6768C98.1742 42.2834 98.0284 43.0275 98.0284 43.9091C98.0284 44.7907 98.1742 45.5348 98.4659 46.1413C98.7609 46.7479 99.157 47.2069 99.6541 47.5185C100.155 47.83 100.713 47.9858 101.33 47.9858C101.668 47.9858 101.992 47.9394 102.304 47.8466C102.616 47.7538 102.899 47.6162 103.154 47.4339C103.413 47.2483 103.631 47.0213 103.81 46.7528C103.993 46.4811 104.12 46.1695 104.193 45.8182H105.426C105.333 46.3385 105.164 46.8042 104.919 47.2152C104.674 47.6262 104.369 47.9759 104.004 48.2642C103.64 48.5492 103.23 48.7663 102.776 48.9155C102.326 49.0646 101.843 49.1392 101.33 49.1392C100.461 49.1392 99.6889 48.9271 99.0128 48.5028C98.3366 48.0786 97.8047 47.4754 97.4169 46.6932C97.0291 45.911 96.8352 44.983 96.8352 43.9091C96.8352 42.8352 97.0291 41.9072 97.4169 41.125C97.8047 40.3428 98.3366 39.7396 99.0128 39.3153C99.6889 38.8911 100.461 38.679 101.33 38.679C101.843 38.679 102.326 38.7536 102.776 38.9027C103.23 39.0518 103.64 39.2706 104.004 39.5589C104.369 39.844 104.674 40.192 104.919 40.603C105.164 41.0107 105.333 41.4763 105.426 42ZM108.433 44.4062V49H107.259V38.8182H108.433V42.5568H108.532C108.711 42.1624 108.98 41.8492 109.338 41.6172C109.699 41.3819 110.179 41.2642 110.779 41.2642C111.3 41.2642 111.755 41.3686 112.146 41.5774C112.538 41.7829 112.841 42.0994 113.056 42.527C113.275 42.9512 113.384 43.4915 113.384 44.1477V49H112.211V44.2273C112.211 43.6207 112.054 43.1518 111.739 42.8203C111.427 42.4856 110.995 42.3182 110.441 42.3182C110.057 42.3182 109.712 42.3994 109.407 42.5618C109.106 42.7242 108.867 42.9612 108.691 43.2727C108.519 43.5843 108.433 43.9621 108.433 44.4062ZM115.531 49V41.3636H116.704V49H115.531ZM116.127 40.0909C115.899 40.0909 115.702 40.013 115.536 39.8572C115.373 39.7015 115.292 39.5142 115.292 39.2955C115.292 39.0767 115.373 38.8894 115.536 38.7337C115.702 38.5779 115.899 38.5 116.127 38.5C116.356 38.5 116.552 38.5779 116.714 38.7337C116.88 38.8894 116.963 39.0767 116.963 39.2955C116.963 39.5142 116.88 39.7015 116.714 39.8572C116.552 40.013 116.356 40.0909 116.127 40.0909ZM120.026 44.4062V49H118.853V41.3636H119.987V42.5568H120.086C120.265 42.169 120.537 41.8575 120.901 41.6222C121.266 41.3835 121.737 41.2642 122.313 41.2642C122.83 41.2642 123.283 41.3703 123.671 41.5824C124.058 41.7912 124.36 42.1094 124.575 42.5369C124.791 42.9612 124.899 43.4981 124.899 44.1477V49H123.725V44.2273C123.725 43.6274 123.57 43.16 123.258 42.8253C122.946 42.4872 122.519 42.3182 121.975 42.3182C121.601 42.3182 121.266 42.3994 120.971 42.5618C120.679 42.7242 120.449 42.9612 120.28 43.2727C120.111 43.5843 120.026 43.9621 120.026 44.4062ZM129.29 49.179C128.806 49.179 128.367 49.0878 127.972 48.9055C127.578 48.7199 127.265 48.4531 127.033 48.1051C126.801 47.7538 126.685 47.3295 126.685 46.8324C126.685 46.3949 126.771 46.0402 126.943 45.7685C127.116 45.4934 127.346 45.2779 127.634 45.1222C127.923 44.9664 128.241 44.8504 128.589 44.7741C128.94 44.6946 129.293 44.6316 129.648 44.5852C130.112 44.5256 130.488 44.4808 130.776 44.451C131.068 44.4179 131.28 44.3632 131.413 44.2869C131.549 44.2107 131.616 44.0781 131.616 43.8892V43.8494C131.616 43.3589 131.482 42.9777 131.214 42.706C130.949 42.4342 130.546 42.2983 130.006 42.2983C129.446 42.2983 129.006 42.4209 128.688 42.6662C128.37 42.9115 128.146 43.1733 128.017 43.4517L126.903 43.054C127.102 42.59 127.367 42.2287 127.699 41.9702C128.034 41.7083 128.398 41.526 128.793 41.4233C129.19 41.3172 129.581 41.2642 129.966 41.2642C130.211 41.2642 130.493 41.294 130.811 41.3537C131.133 41.41 131.442 41.5277 131.741 41.7067C132.042 41.8857 132.293 42.1558 132.491 42.517C132.69 42.8783 132.79 43.3622 132.79 43.9688V49H131.616V47.9659H131.557C131.477 48.1316 131.345 48.3089 131.159 48.4979C130.973 48.6868 130.727 48.8475 130.418 48.9801C130.11 49.1127 129.734 49.179 129.29 49.179ZM129.469 48.125C129.933 48.125 130.324 48.0339 130.642 47.8516C130.964 47.6693 131.205 47.4339 131.368 47.1456C131.534 46.8572 131.616 46.554 131.616 46.2358V45.1619C131.567 45.2216 131.457 45.2763 131.288 45.326C131.123 45.3724 130.93 45.4138 130.712 45.4503C130.496 45.4834 130.286 45.5133 130.08 45.5398C129.878 45.563 129.714 45.5829 129.588 45.5994C129.283 45.6392 128.998 45.7038 128.733 45.7933C128.471 45.8795 128.259 46.0104 128.097 46.1861C127.938 46.3584 127.858 46.5937 127.858 46.892C127.858 47.2997 128.009 47.608 128.31 47.8168C128.615 48.0223 129.001 48.125 129.469 48.125Z" fill="#939AAD"/>
<defs>
<clipPath id="clip0_1647_32474">
<rect width="24" height="24" fill="white" transform="translate(16 16)"/>
</clipPath>
</defs>
</svg>
