<svg width="119" height="26" viewBox="0 0 119 26" fill="none" xmlns="http://www.w3.org/2000/svg">
<rect width="119" height="26" rx="13" fill="#E8F1FF"/>
<path d="M21.4261 11H20.1932C20.1203 10.6454 19.9927 10.3338 19.8104 10.0653C19.6314 9.79688 19.4126 9.5715 19.1541 9.3892C18.8989 9.2036 18.6155 9.06439 18.304 8.97159C17.9924 8.87879 17.6676 8.83239 17.3295 8.83239C16.7131 8.83239 16.1546 8.98816 15.6541 9.29972C15.157 9.61127 14.7609 10.0703 14.4659 10.6768C14.1742 11.2834 14.0284 12.0275 14.0284 12.9091C14.0284 13.7907 14.1742 14.5348 14.4659 15.1413C14.7609 15.7479 15.157 16.2069 15.6541 16.5185C16.1546 16.83 16.7131 16.9858 17.3295 16.9858C17.6676 16.9858 17.9924 16.9394 18.304 16.8466C18.6155 16.7538 18.8989 16.6162 19.1541 16.4339C19.4126 16.2483 19.6314 16.0213 19.8104 15.7528C19.9927 15.4811 20.1203 15.1695 20.1932 14.8182H21.4261C21.3333 15.3385 21.1643 15.8042 20.919 16.2152C20.6738 16.6262 20.3688 16.9759 20.0043 17.2642C19.6397 17.5492 19.2304 17.7663 18.7763 17.9155C18.3255 18.0646 17.8433 18.1392 17.3295 18.1392C16.4612 18.1392 15.6889 17.9271 15.0128 17.5028C14.3366 17.0786 13.8047 16.4754 13.4169 15.6932C13.0291 14.911 12.8352 13.983 12.8352 12.9091C12.8352 11.8352 13.0291 10.9072 13.4169 10.125C13.8047 9.3428 14.3366 8.73958 15.0128 8.31534C15.6889 7.8911 16.4612 7.67898 17.3295 7.67898C17.8433 7.67898 18.3255 7.75355 18.7763 7.9027C19.2304 8.05185 19.6397 8.2706 20.0043 8.55895C20.3688 8.84399 20.6738 9.192 20.919 9.60298C21.1643 10.0107 21.3333 10.4763 21.4261 11ZM26.3617 18.1591C25.6723 18.1591 25.0674 17.995 24.5471 17.6669C24.03 17.3388 23.6257 16.8797 23.334 16.2898C23.0456 15.6998 22.9015 15.0104 22.9015 14.2216C22.9015 13.4261 23.0456 12.7318 23.334 12.1385C23.6257 11.5452 24.03 11.0845 24.5471 10.7564C25.0674 10.4283 25.6723 10.2642 26.3617 10.2642C27.0511 10.2642 27.6543 10.4283 28.1713 10.7564C28.6917 11.0845 29.0961 11.5452 29.3844 12.1385C29.6761 12.7318 29.8219 13.4261 29.8219 14.2216C29.8219 15.0104 29.6761 15.6998 29.3844 16.2898C29.0961 16.8797 28.6917 17.3388 28.1713 17.6669C27.6543 17.995 27.0511 18.1591 26.3617 18.1591ZM26.3617 17.1051C26.8854 17.1051 27.3162 16.9709 27.6543 16.7024C27.9924 16.4339 28.2426 16.081 28.405 15.6435C28.5674 15.206 28.6486 14.732 28.6486 14.2216C28.6486 13.7112 28.5674 13.2356 28.405 12.7947C28.2426 12.3539 27.9924 11.9976 27.6543 11.7259C27.3162 11.4541 26.8854 11.3182 26.3617 11.3182C25.838 11.3182 25.4071 11.4541 25.0691 11.7259C24.731 11.9976 24.4808 12.3539 24.3184 12.7947C24.156 13.2356 24.0748 13.7112 24.0748 14.2216C24.0748 14.732 24.156 15.206 24.3184 15.6435C24.4808 16.081 24.731 16.4339 25.0691 16.7024C25.4071 16.9709 25.838 17.1051 26.3617 17.1051ZM32.7862 13.4062V18H31.6129V10.3636H32.7464V11.5568H32.8459C33.0249 11.169 33.2966 10.8575 33.6612 10.6222C34.0258 10.3835 34.4964 10.2642 35.0732 10.2642C35.5902 10.2642 36.0426 10.3703 36.4304 10.5824C36.8182 10.7912 37.1198 11.1094 37.3352 11.5369C37.5507 11.9612 37.6584 12.4981 37.6584 13.1477V18H36.4851V13.2273C36.4851 12.6274 36.3293 12.16 36.0178 11.8253C35.7062 11.4872 35.2786 11.3182 34.7351 11.3182C34.3606 11.3182 34.0258 11.3994 33.7308 11.5618C33.4392 11.7242 33.2088 11.9612 33.0398 12.2727C32.8707 12.5843 32.7862 12.9621 32.7862 13.4062ZM43.1234 10.3636V11.358H39.166V10.3636H43.1234ZM40.3194 8.53409H41.4927V15.8125C41.4927 16.1439 41.5408 16.3925 41.6369 16.5582C41.7363 16.7206 41.8623 16.83 42.0147 16.8864C42.1705 16.9394 42.3346 16.9659 42.5069 16.9659C42.6362 16.9659 42.7422 16.9593 42.8251 16.946C42.908 16.9295 42.9743 16.9162 43.024 16.9062L43.2626 17.9602C43.1831 17.9901 43.072 18.0199 42.9295 18.0497C42.787 18.0829 42.6064 18.0994 42.3876 18.0994C42.0562 18.0994 41.7314 18.0282 41.4132 17.8857C41.0983 17.7431 40.8365 17.526 40.6277 17.2344C40.4222 16.9427 40.3194 16.5748 40.3194 16.1307V8.53409ZM44.8883 18V10.3636H46.0218V11.517H46.1014C46.2406 11.1392 46.4925 10.8326 46.8571 10.5973C47.2217 10.362 47.6326 10.2443 48.09 10.2443C48.1762 10.2443 48.2839 10.246 48.4132 10.2493C48.5424 10.2526 48.6402 10.2576 48.7065 10.2642V11.4574C48.6667 11.4474 48.5756 11.4325 48.4331 11.4126C48.2939 11.3894 48.1464 11.3778 47.9906 11.3778C47.6194 11.3778 47.2879 11.4557 46.9963 11.6115C46.7079 11.764 46.4792 11.9761 46.3102 12.2479C46.1445 12.5163 46.0616 12.8229 46.0616 13.1676V18H44.8883ZM52.3445 18.179C51.8606 18.179 51.4214 18.0878 51.027 17.9055C50.6326 17.7199 50.3194 17.4531 50.0874 17.1051C49.8554 16.7538 49.7393 16.3295 49.7393 15.8324C49.7393 15.3949 49.8255 15.0402 49.9979 14.7685C50.1702 14.4934 50.4006 14.2779 50.6889 14.1222C50.9773 13.9664 51.2955 13.8504 51.6435 13.7741C51.9948 13.6946 52.3478 13.6316 52.7024 13.5852C53.1664 13.5256 53.5426 13.4808 53.831 13.451C54.1226 13.4179 54.3348 13.3632 54.4673 13.2869C54.6032 13.2107 54.6712 13.0781 54.6712 12.8892V12.8494C54.6712 12.3589 54.5369 11.9777 54.2685 11.706C54.0033 11.4342 53.6006 11.2983 53.0604 11.2983C52.5002 11.2983 52.0611 11.4209 51.7429 11.6662C51.4247 11.9115 51.201 12.1733 51.0717 12.4517L49.9581 12.054C50.157 11.59 50.4221 11.2287 50.7536 10.9702C51.0883 10.7083 51.4529 10.526 51.8473 10.4233C52.245 10.3172 52.6361 10.2642 53.0206 10.2642C53.2659 10.2642 53.5476 10.294 53.8658 10.3537C54.1873 10.41 54.4972 10.5277 54.7955 10.7067C55.0971 10.8857 55.3473 11.1558 55.5462 11.517C55.745 11.8783 55.8445 12.3622 55.8445 12.9688V18H54.6712V16.9659H54.6115C54.532 17.1316 54.3994 17.3089 54.2138 17.4979C54.0282 17.6868 53.7813 17.8475 53.473 17.9801C53.1648 18.1127 52.7886 18.179 52.3445 18.179ZM52.5234 17.125C52.9875 17.125 53.3786 17.0339 53.6967 16.8516C54.0182 16.6693 54.2602 16.4339 54.4226 16.1456C54.5883 15.8572 54.6712 15.554 54.6712 15.2358V14.1619C54.6214 14.2216 54.5121 14.2763 54.343 14.326C54.1773 14.3724 53.9851 14.4138 53.7663 14.4503C53.5509 14.4834 53.3404 14.5133 53.1349 14.5398C52.9328 14.563 52.7687 14.5829 52.6428 14.5994C52.3378 14.6392 52.0528 14.7038 51.7876 14.7933C51.5258 14.8795 51.3137 15.0104 51.1513 15.1861C50.9922 15.3584 50.9126 15.5937 50.9126 15.892C50.9126 16.2997 51.0634 16.608 51.3651 16.8168C51.67 17.0223 52.0561 17.125 52.5234 17.125ZM61.0882 18.1591C60.3723 18.1591 59.7559 17.9901 59.2388 17.652C58.7218 17.3139 58.324 16.8482 58.0456 16.255C57.7672 15.6617 57.628 14.9839 57.628 14.2216C57.628 13.446 57.7705 12.7616 58.0556 12.1683C58.3439 11.5717 58.745 11.1061 59.2587 10.7713C59.7757 10.4332 60.379 10.2642 61.0684 10.2642C61.6053 10.2642 62.0892 10.3636 62.5201 10.5625C62.9509 10.7614 63.3039 11.0398 63.579 11.3977C63.8541 11.7557 64.0248 12.1733 64.0911 12.6506H62.9178C62.8283 12.3026 62.6294 11.9943 62.3212 11.7259C62.0163 11.4541 61.6053 11.3182 61.0882 11.3182C60.6309 11.3182 60.2298 11.4375 59.8851 11.6761C59.5437 11.9115 59.2769 12.2446 59.0847 12.6754C58.8958 13.103 58.8013 13.6051 58.8013 14.1818C58.8013 14.7718 58.8941 15.2855 59.0797 15.723C59.2686 16.1605 59.5338 16.5002 59.8752 16.7422C60.2199 16.9841 60.6242 17.1051 61.0882 17.1051C61.3932 17.1051 61.6699 17.0521 61.9185 16.946C62.1671 16.84 62.3775 16.6875 62.5499 16.4886C62.7222 16.2898 62.8449 16.0511 62.9178 15.7727H64.0911C64.0248 16.2235 63.8607 16.6295 63.5989 16.9908C63.3404 17.3487 62.9973 17.6338 62.5698 17.8459C62.1455 18.0547 61.6517 18.1591 61.0882 18.1591ZM69.1273 10.3636V11.358H65.1699V10.3636H69.1273ZM66.3233 8.53409H67.4966V15.8125C67.4966 16.1439 67.5447 16.3925 67.6408 16.5582C67.7402 16.7206 67.8662 16.83 68.0186 16.8864C68.1744 16.9394 68.3385 16.9659 68.5108 16.9659C68.6401 16.9659 68.7462 16.9593 68.829 16.946C68.9119 16.9295 68.9782 16.9162 69.0279 16.9062L69.2665 17.9602C69.187 17.9901 69.0759 18.0199 68.9334 18.0497C68.7909 18.0829 68.6103 18.0994 68.3915 18.0994C68.0601 18.0994 67.7353 18.0282 67.4171 17.8857C67.1022 17.7431 66.8404 17.526 66.6316 17.2344C66.4261 16.9427 66.3233 16.5748 66.3233 16.1307V8.53409ZM74.9888 18V7.81818H78.5485C79.2578 7.81818 79.8427 7.94081 80.3034 8.18608C80.7641 8.42803 81.1072 8.7545 81.3326 9.16548C81.5579 9.57315 81.6706 10.0256 81.6706 10.5227C81.6706 10.9602 81.5927 11.3215 81.437 11.6065C81.2845 11.8916 81.0823 12.117 80.8304 12.2827C80.5819 12.4484 80.3117 12.571 80.0201 12.6506V12.75C80.3316 12.7699 80.6448 12.8793 80.9597 13.0781C81.2746 13.277 81.5381 13.562 81.7502 13.9332C81.9623 14.3045 82.0684 14.7585 82.0684 15.2955C82.0684 15.8059 81.9524 16.2649 81.7203 16.6726C81.4883 17.0803 81.1221 17.4034 80.6216 17.642C80.1212 17.8807 79.4699 18 78.6678 18H74.9888ZM76.2218 16.9062H78.6678C79.4732 16.9062 80.0449 16.7505 80.383 16.4389C80.7244 16.1241 80.8951 15.7429 80.8951 15.2955C80.8951 14.9508 80.8072 14.6326 80.6316 14.3409C80.4559 14.0459 80.2057 13.8106 79.8809 13.6349C79.556 13.456 79.1716 13.3665 78.7275 13.3665H76.2218V16.9062ZM76.2218 12.2926H78.5087C78.8799 12.2926 79.2147 12.2197 79.513 12.0739C79.8146 11.928 80.0532 11.7225 80.2289 11.4574C80.4078 11.1922 80.4973 10.8807 80.4973 10.5227C80.4973 10.0753 80.3416 9.69579 80.03 9.38423C79.7185 9.06937 79.2246 8.91193 78.5485 8.91193H76.2218V12.2926ZM86.1824 18.179C85.6984 18.179 85.2593 18.0878 84.8649 17.9055C84.4705 17.7199 84.1573 17.4531 83.9252 17.1051C83.6932 16.7538 83.5772 16.3295 83.5772 15.8324C83.5772 15.3949 83.6634 15.0402 83.8358 14.7685C84.0081 14.4934 84.2385 14.2779 84.5268 14.1222C84.8152 13.9664 85.1333 13.8504 85.4814 13.7741C85.8327 13.6946 86.1857 13.6316 86.5403 13.5852C87.0043 13.5256 87.3805 13.4808 87.6689 13.451C87.9605 13.4179 88.1726 13.3632 88.3052 13.2869C88.4411 13.2107 88.5091 13.0781 88.5091 12.8892V12.8494C88.5091 12.3589 88.3748 11.9777 88.1064 11.706C87.8412 11.4342 87.4385 11.2983 86.8983 11.2983C86.3381 11.2983 85.899 11.4209 85.5808 11.6662C85.2626 11.9115 85.0389 12.1733 84.9096 12.4517L83.796 12.054C83.9949 11.59 84.26 11.2287 84.5914 10.9702C84.9262 10.7083 85.2908 10.526 85.6852 10.4233C86.0829 10.3172 86.474 10.2642 86.8585 10.2642C87.1038 10.2642 87.3855 10.294 87.7037 10.3537C88.0252 10.41 88.335 10.5277 88.6333 10.7067C88.935 10.8857 89.1852 11.1558 89.3841 11.517C89.5829 11.8783 89.6824 12.3622 89.6824 12.9688V18H88.5091V16.9659H88.4494C88.3699 17.1316 88.2373 17.3089 88.0517 17.4979C87.8661 17.6868 87.6191 17.8475 87.3109 17.9801C87.0027 18.1127 86.6265 18.179 86.1824 18.179ZM86.3613 17.125C86.8253 17.125 87.2164 17.0339 87.5346 16.8516C87.8561 16.6693 88.0981 16.4339 88.2605 16.1456C88.4262 15.8572 88.5091 15.554 88.5091 15.2358V14.1619C88.4593 14.2216 88.35 14.2763 88.1809 14.326C88.0152 14.3724 87.823 14.4138 87.6042 14.4503C87.3888 14.4834 87.1783 14.5133 86.9728 14.5398C86.7707 14.563 86.6066 14.5829 86.4806 14.5994C86.1757 14.6392 85.8907 14.7038 85.6255 14.7933C85.3637 14.8795 85.1516 15.0104 84.9892 15.1861C84.8301 15.3584 84.7505 15.5937 84.7505 15.892C84.7505 16.2997 84.9013 16.608 85.2029 16.8168C85.5079 17.0223 85.894 17.125 86.3613 17.125ZM97.233 12.0739L96.179 12.3722C96.1127 12.1965 96.0149 12.0258 95.8857 11.8601C95.7597 11.6911 95.5874 11.5518 95.3686 11.4425C95.1499 11.3331 94.8698 11.2784 94.5284 11.2784C94.0611 11.2784 93.6716 11.3861 93.3601 11.6016C93.0518 11.8137 92.8977 12.0838 92.8977 12.4119C92.8977 12.7036 93.0038 12.9339 93.2159 13.103C93.428 13.272 93.7595 13.4129 94.2102 13.5256L95.3438 13.804C96.0265 13.9697 96.5353 14.2232 96.87 14.5646C97.2048 14.9027 97.3722 15.3385 97.3722 15.8722C97.3722 16.3097 97.2462 16.7008 96.9943 17.0455C96.7457 17.3902 96.3977 17.6619 95.9503 17.8608C95.5028 18.0597 94.9825 18.1591 94.3892 18.1591C93.6103 18.1591 92.9657 17.9901 92.4553 17.652C91.9448 17.3139 91.6217 16.8201 91.4858 16.1705L92.5994 15.892C92.7055 16.303 92.906 16.6113 93.201 16.8168C93.4993 17.0223 93.8887 17.125 94.3693 17.125C94.9162 17.125 95.3504 17.009 95.6719 16.777C95.9967 16.5417 96.1591 16.2599 96.1591 15.9318C96.1591 15.6667 96.0663 15.4446 95.8807 15.2656C95.6951 15.0833 95.41 14.9474 95.0256 14.858L93.7528 14.5597C93.0535 14.3939 92.5398 14.1371 92.2116 13.7891C91.8868 13.4377 91.7244 12.9986 91.7244 12.4716C91.7244 12.0407 91.8454 11.6596 92.0874 11.3281C92.3326 10.9967 92.6657 10.7365 93.0866 10.5476C93.5109 10.3587 93.9915 10.2642 94.5284 10.2642C95.2841 10.2642 95.8774 10.4299 96.3082 10.7614C96.7424 11.0928 97.0507 11.5303 97.233 12.0739ZM102.34 18.1591C101.604 18.1591 100.97 17.9967 100.436 17.6719C99.9056 17.3438 99.4963 16.8864 99.2079 16.2997C98.9229 15.7098 98.7804 15.0237 98.7804 14.2415C98.7804 13.4593 98.9229 12.7699 99.2079 12.1733C99.4963 11.5734 99.8973 11.1061 100.411 10.7713C100.928 10.4332 101.531 10.2642 102.221 10.2642C102.618 10.2642 103.011 10.3305 103.399 10.4631C103.787 10.5956 104.14 10.8111 104.458 11.1094C104.776 11.4044 105.03 11.7955 105.219 12.2827C105.407 12.7699 105.502 13.3698 105.502 14.0824V14.5795H99.6156V13.5653H104.309C104.309 13.1345 104.223 12.75 104.05 12.4119C103.881 12.0739 103.639 11.8071 103.324 11.6115C103.013 11.416 102.645 11.3182 102.221 11.3182C101.753 11.3182 101.349 11.4342 101.008 11.6662C100.67 11.8949 100.409 12.1932 100.227 12.5611C100.045 12.929 99.9537 13.3234 99.9537 13.7443V14.4205C99.9537 14.9972 100.053 15.486 100.252 15.8871C100.454 16.2848 100.734 16.5881 101.092 16.7969C101.45 17.0024 101.866 17.1051 102.34 17.1051C102.648 17.1051 102.927 17.062 103.175 16.9759C103.427 16.8864 103.644 16.7538 103.827 16.5781C104.009 16.3991 104.15 16.1771 104.249 15.9119L105.383 16.2301C105.263 16.6146 105.063 16.9527 104.781 17.2443C104.499 17.5327 104.151 17.758 103.737 17.9205C103.323 18.0795 102.857 18.1591 102.34 18.1591Z" fill="#0A65CC"/>
</svg>
