<svg width="83" height="26" viewBox="0 0 83 26" fill="none" xmlns="http://www.w3.org/2000/svg">
<rect width="83" height="26" rx="13" fill="#FCEEEE"/>
<path d="M13.233 18V7.81818H19.3381V8.91193H14.4659V12.3523H18.8807V13.446H14.4659V18H13.233ZM23.9318 18.1591C23.196 18.1591 22.5613 17.9967 22.0277 17.6719C21.4974 17.3438 21.0881 16.8864 20.7997 16.2997C20.5147 15.7098 20.3722 15.0237 20.3722 14.2415C20.3722 13.4593 20.5147 12.7699 20.7997 12.1733C21.0881 11.5734 21.4891 11.1061 22.0028 10.7713C22.5199 10.4332 23.1231 10.2642 23.8125 10.2642C24.2102 10.2642 24.603 10.3305 24.9908 10.4631C25.3786 10.5956 25.7315 10.8111 26.0497 11.1094C26.3679 11.4044 26.6214 11.7955 26.8104 12.2827C26.9993 12.7699 27.0938 13.3698 27.0938 14.0824V14.5795H21.2074V13.5653H25.9006C25.9006 13.1345 25.8144 12.75 25.642 12.4119C25.473 12.0739 25.2311 11.8071 24.9162 11.6115C24.6046 11.416 24.2367 11.3182 23.8125 11.3182C23.3452 11.3182 22.9408 11.4342 22.5994 11.6662C22.2614 11.8949 22.0012 12.1932 21.8189 12.5611C21.6366 12.929 21.5455 13.3234 21.5455 13.7443V14.4205C21.5455 14.9972 21.6449 15.486 21.8438 15.8871C22.0459 16.2848 22.326 16.5881 22.6839 16.7969C23.0419 17.0024 23.4579 17.1051 23.9318 17.1051C24.2401 17.1051 24.5185 17.062 24.767 16.9759C25.0189 16.8864 25.236 16.7538 25.4183 16.5781C25.6006 16.3991 25.7415 16.1771 25.8409 15.9119L26.9744 16.2301C26.8551 16.6146 26.6546 16.9527 26.3729 17.2443C26.0911 17.5327 25.7431 17.758 25.3288 17.9205C24.9145 18.0795 24.4489 18.1591 23.9318 18.1591ZM31.1257 18.179C30.6418 18.179 30.2027 18.0878 29.8082 17.9055C29.4138 17.7199 29.1006 17.4531 28.8686 17.1051C28.6366 16.7538 28.5206 16.3295 28.5206 15.8324C28.5206 15.3949 28.6068 15.0402 28.7791 14.7685C28.9515 14.4934 29.1818 14.2779 29.4702 14.1222C29.7585 13.9664 30.0767 13.8504 30.4247 13.7741C30.776 13.6946 31.129 13.6316 31.4837 13.5852C31.9477 13.5256 32.3239 13.4808 32.6122 13.451C32.9039 13.4179 33.116 13.3632 33.2486 13.2869C33.3845 13.2107 33.4524 13.0781 33.4524 12.8892V12.8494C33.4524 12.3589 33.3182 11.9777 33.0497 11.706C32.7846 11.4342 32.3819 11.2983 31.8416 11.2983C31.2815 11.2983 30.8423 11.4209 30.5241 11.6662C30.206 11.9115 29.9822 12.1733 29.853 12.4517L28.7393 12.054C28.9382 11.59 29.2034 11.2287 29.5348 10.9702C29.8696 10.7083 30.2341 10.526 30.6286 10.4233C31.0263 10.3172 31.4174 10.2642 31.8018 10.2642C32.0471 10.2642 32.3288 10.294 32.647 10.3537C32.9685 10.41 33.2784 10.5277 33.5767 10.7067C33.8783 10.8857 34.1286 11.1558 34.3274 11.517C34.5263 11.8783 34.6257 12.3622 34.6257 12.9688V18H33.4524V16.9659H33.3928C33.3132 17.1316 33.1806 17.3089 32.995 17.4979C32.8094 17.6868 32.5625 17.8475 32.2543 17.9801C31.946 18.1127 31.5698 18.179 31.1257 18.179ZM31.3047 17.125C31.7687 17.125 32.1598 17.0339 32.478 16.8516C32.7995 16.6693 33.0414 16.4339 33.2038 16.1456C33.3696 15.8572 33.4524 15.554 33.4524 15.2358V14.1619C33.4027 14.2216 33.2933 14.2763 33.1243 14.326C32.9586 14.3724 32.7663 14.4138 32.5476 14.4503C32.3321 14.4834 32.1217 14.5133 31.9162 14.5398C31.714 14.563 31.55 14.5829 31.424 14.5994C31.1191 14.6392 30.834 14.7038 30.5689 14.7933C30.3071 14.8795 30.0949 15.0104 29.9325 15.1861C29.7734 15.3584 29.6939 15.5937 29.6939 15.892C29.6939 16.2997 29.8447 16.608 30.1463 16.8168C30.4512 17.0223 30.8374 17.125 31.3047 17.125ZM40.0882 10.3636V11.358H36.1309V10.3636H40.0882ZM37.2843 8.53409H38.4576V15.8125C38.4576 16.1439 38.5056 16.3925 38.6017 16.5582C38.7012 16.7206 38.8271 16.83 38.9796 16.8864C39.1354 16.9394 39.2994 16.9659 39.4718 16.9659C39.601 16.9659 39.7071 16.9593 39.79 16.946C39.8728 16.9295 39.9391 16.9162 39.9888 16.9062L40.2275 17.9602C40.1479 17.9901 40.0369 18.0199 39.8944 18.0497C39.7518 18.0829 39.5712 18.0994 39.3525 18.0994C39.021 18.0994 38.6962 18.0282 38.378 17.8857C38.0632 17.7431 37.8013 17.526 37.5925 17.2344C37.387 16.9427 37.2843 16.5748 37.2843 16.1307V8.53409ZM46.6657 14.8778V10.3636H47.839V18H46.6657V16.7074H46.5861C46.4071 17.0952 46.1287 17.425 45.7509 17.6967C45.373 17.9652 44.8958 18.0994 44.3191 18.0994C43.8418 18.0994 43.4176 17.995 43.0463 17.7862C42.6751 17.5741 42.3835 17.2559 42.1713 16.8317C41.9592 16.4041 41.8532 15.8655 41.8532 15.2159V10.3636H43.0265V15.1364C43.0265 15.6932 43.1822 16.1373 43.4938 16.4688C43.8087 16.8002 44.2097 16.9659 44.6969 16.9659C44.9886 16.9659 45.2852 16.8913 45.5868 16.7422C45.8917 16.593 46.147 16.3643 46.3525 16.0561C46.5613 15.7479 46.6657 15.3551 46.6657 14.8778ZM49.9879 18V10.3636H51.1214V11.517H51.201C51.3402 11.1392 51.5921 10.8326 51.9567 10.5973C52.3213 10.362 52.7322 10.2443 53.1896 10.2443C53.2758 10.2443 53.3835 10.246 53.5128 10.2493C53.642 10.2526 53.7398 10.2576 53.8061 10.2642V11.4574C53.7663 11.4474 53.6752 11.4325 53.5327 11.4126C53.3935 11.3894 53.246 11.3778 53.0902 11.3778C52.719 11.3778 52.3875 11.4557 52.0959 11.6115C51.8075 11.764 51.5788 11.9761 51.4098 12.2479C51.2441 12.5163 51.1612 12.8229 51.1612 13.1676V18H49.9879ZM58.1662 18.1591C57.4304 18.1591 56.7957 17.9967 56.2621 17.6719C55.7318 17.3438 55.3224 16.8864 55.0341 16.2997C54.7491 15.7098 54.6065 15.0237 54.6065 14.2415C54.6065 13.4593 54.7491 12.7699 55.0341 12.1733C55.3224 11.5734 55.7235 11.1061 56.2372 10.7713C56.7543 10.4332 57.3575 10.2642 58.0469 10.2642C58.4446 10.2642 58.8374 10.3305 59.2251 10.4631C59.6129 10.5956 59.9659 10.8111 60.2841 11.1094C60.6023 11.4044 60.8558 11.7955 61.0447 12.2827C61.2337 12.7699 61.3281 13.3698 61.3281 14.0824V14.5795H55.4418V13.5653H60.1349C60.1349 13.1345 60.0488 12.75 59.8764 12.4119C59.7074 12.0739 59.4654 11.8071 59.1506 11.6115C58.839 11.416 58.4711 11.3182 58.0469 11.3182C57.5795 11.3182 57.1752 11.4342 56.8338 11.6662C56.4957 11.8949 56.2356 12.1932 56.0533 12.5611C55.871 12.929 55.7798 13.3234 55.7798 13.7443V14.4205C55.7798 14.9972 55.8793 15.486 56.0781 15.8871C56.2803 16.2848 56.5604 16.5881 56.9183 16.7969C57.2763 17.0024 57.6922 17.1051 58.1662 17.1051C58.4744 17.1051 58.7528 17.062 59.0014 16.9759C59.2533 16.8864 59.4704 16.7538 59.6527 16.5781C59.835 16.3991 59.9759 16.1771 60.0753 15.9119L61.2088 16.2301C61.0895 16.6146 60.889 16.9527 60.6072 17.2443C60.3255 17.5327 59.9775 17.758 59.5632 17.9205C59.1489 18.0795 58.6832 18.1591 58.1662 18.1591ZM65.9964 18.1591C65.3601 18.1591 64.7983 17.9983 64.3111 17.6768C63.8239 17.352 63.4427 16.8946 63.1676 16.3047C62.8925 15.7114 62.755 15.0104 62.755 14.2017C62.755 13.3996 62.8925 12.7036 63.1676 12.1136C63.4427 11.5237 63.8255 11.0679 64.3161 10.7464C64.8066 10.425 65.3733 10.2642 66.0163 10.2642C66.5135 10.2642 66.9063 10.3471 67.1946 10.5128C67.4863 10.6752 67.7083 10.8608 67.8608 11.0696C68.0166 11.2751 68.1375 11.4441 68.2237 11.5767H68.3232V7.81818H69.4964V18H68.3629V16.8267H68.2237C68.1375 16.9659 68.0149 17.1416 67.8558 17.3537C67.6967 17.5625 67.4697 17.7498 67.1747 17.9155C66.8797 18.0779 66.487 18.1591 65.9964 18.1591ZM66.1555 17.1051C66.6262 17.1051 67.0239 16.9825 67.3487 16.7372C67.6735 16.4886 67.9205 16.1456 68.0895 15.7081C68.2585 15.2673 68.343 14.7585 68.343 14.1818C68.343 13.6117 68.2602 13.1129 68.0945 12.6854C67.9287 12.2545 67.6835 11.9197 67.3587 11.6811C67.0339 11.4392 66.6328 11.3182 66.1555 11.3182C65.6584 11.3182 65.2441 11.4458 64.9126 11.701C64.5845 11.9529 64.3376 12.2959 64.1719 12.7301C64.0095 13.161 63.9283 13.6449 63.9283 14.1818C63.9283 14.7254 64.0111 15.2192 64.1768 15.6634C64.3459 16.1042 64.5945 16.4555 64.9226 16.7173C65.254 16.9759 65.665 17.1051 66.1555 17.1051Z" fill="#E05151"/>
</svg>
