<svg width="401" height="22" viewBox="0 0 401 22" fill="none" xmlns="http://www.w3.org/2000/svg">
<path d="M19.25 9.16675C19.25 15.5834 11 21.0834 11 21.0834C11 21.0834 2.75 15.5834 2.75 9.16675C2.75 6.97871 3.61919 4.88029 5.16637 3.33312C6.71354 1.78594 8.81196 0.916748 11 0.916748C13.188 0.916748 15.2865 1.78594 16.8336 3.33312C18.3808 4.88029 19.25 6.97871 19.25 9.16675Z" stroke="#C5C9D6" stroke-width="1.5" stroke-linecap="round" stroke-linejoin="round"/>
<path d="M11 11.9167C12.5188 11.9167 13.75 10.6855 13.75 9.16675C13.75 7.64797 12.5188 6.41675 11 6.41675C9.48122 6.41675 8.25 7.64797 8.25 9.16675C8.25 10.6855 9.48122 11.9167 11 11.9167Z" stroke="#C5C9D6" stroke-width="1.5" stroke-linecap="round" stroke-linejoin="round"/>
<path d="M35.9148 5.81818H37.1477V12.5597C37.1477 13.2557 36.9837 13.8771 36.6555 14.424C36.3307 14.9676 35.8717 15.3968 35.2784 15.7116C34.6851 16.0232 33.9891 16.179 33.1903 16.179C32.3916 16.179 31.6955 16.0232 31.1023 15.7116C30.509 15.3968 30.0483 14.9676 29.7202 14.424C29.3954 13.8771 29.233 13.2557 29.233 12.5597V5.81818H30.4659V12.4602C30.4659 12.9574 30.5753 13.3999 30.794 13.7876C31.0128 14.1721 31.3243 14.4754 31.7287 14.6974C32.1364 14.9162 32.6236 15.0256 33.1903 15.0256C33.7571 15.0256 34.2443 14.9162 34.652 14.6974C35.0597 14.4754 35.3712 14.1721 35.5866 13.7876C35.8054 13.3999 35.9148 12.9574 35.9148 12.4602V5.81818ZM40.6241 11.4062V16H39.4508V8.36364H40.5843V9.55682H40.6838C40.8627 9.16903 41.1345 8.85748 41.4991 8.62216C41.8637 8.38352 42.3343 8.2642 42.911 8.2642C43.4281 8.2642 43.8805 8.37027 44.2683 8.58239C44.6561 8.79119 44.9577 9.10938 45.1731 9.53693C45.3886 9.96117 45.4963 10.4981 45.4963 11.1477V16H44.323V11.2273C44.323 10.6274 44.1672 10.16 43.8556 9.82528C43.5441 9.48722 43.1165 9.31818 42.573 9.31818C42.1984 9.31818 41.8637 9.39938 41.5687 9.56179C41.277 9.72419 41.0467 9.96117 40.8777 10.2727C40.7086 10.5843 40.6241 10.9621 40.6241 11.4062ZM47.6403 16V8.36364H48.8136V16H47.6403ZM48.2369 7.09091C48.0082 7.09091 47.811 7.01302 47.6452 6.85724C47.4828 6.70147 47.4016 6.5142 47.4016 6.29545C47.4016 6.0767 47.4828 5.88944 47.6452 5.73366C47.811 5.57789 48.0082 5.5 48.2369 5.5C48.4656 5.5 48.6611 5.57789 48.8235 5.73366C48.9892 5.88944 49.0721 6.0767 49.0721 6.29545C49.0721 6.5142 48.9892 6.70147 48.8235 6.85724C48.6611 7.01302 48.4656 7.09091 48.2369 7.09091ZM54.2836 8.36364V9.35795H50.3262V8.36364H54.2836ZM51.4796 6.53409H52.6529V13.8125C52.6529 14.1439 52.7009 14.3925 52.7971 14.5582C52.8965 14.7206 53.0224 14.83 53.1749 14.8864C53.3307 14.9394 53.4947 14.9659 53.6671 14.9659C53.7963 14.9659 53.9024 14.9593 53.9853 14.946C54.0681 14.9295 54.1344 14.9162 54.1841 14.9062L54.4228 15.9602C54.3432 15.9901 54.2322 16.0199 54.0897 16.0497C53.9471 16.0829 53.7665 16.0994 53.5478 16.0994C53.2163 16.0994 52.8915 16.0282 52.5733 15.8857C52.2585 15.7431 51.9966 15.526 51.7878 15.2344C51.5823 14.9427 51.4796 14.5748 51.4796 14.1307V6.53409ZM59.1681 16.1591C58.4324 16.1591 57.7976 15.9967 57.264 15.6719C56.7337 15.3438 56.3244 14.8864 56.036 14.2997C55.751 13.7098 55.6085 13.0237 55.6085 12.2415C55.6085 11.4593 55.751 10.7699 56.036 10.1733C56.3244 9.57339 56.7254 9.10606 57.2392 8.77131C57.7562 8.43324 58.3594 8.2642 59.0488 8.2642C59.4466 8.2642 59.8393 8.33049 60.2271 8.46307C60.6149 8.59564 60.9679 8.81108 61.286 9.10938C61.6042 9.40436 61.8578 9.79545 62.0467 10.2827C62.2356 10.7699 62.3301 11.3698 62.3301 12.0824V12.5795H56.4437V11.5653H61.1369C61.1369 11.1345 61.0507 10.75 60.8784 10.4119C60.7093 10.0739 60.4674 9.80705 60.1525 9.61151C59.841 9.41596 59.4731 9.31818 59.0488 9.31818C58.5815 9.31818 58.1771 9.43419 57.8358 9.66619C57.4977 9.89489 57.2375 10.1932 57.0552 10.5611C56.8729 10.929 56.7818 11.3234 56.7818 11.7443V12.4205C56.7818 12.9972 56.8812 13.486 57.0801 13.8871C57.2823 14.2848 57.5623 14.5881 57.9203 14.7969C58.2782 15.0024 58.6942 15.1051 59.1681 15.1051C59.4764 15.1051 59.7548 15.062 60.0034 14.9759C60.2553 14.8864 60.4724 14.7538 60.6547 14.5781C60.8369 14.3991 60.9778 14.1771 61.0772 13.9119L62.2108 14.2301C62.0914 14.6146 61.8909 14.9527 61.6092 15.2443C61.3275 15.5327 60.9795 15.758 60.5652 15.9205C60.1509 16.0795 59.6852 16.1591 59.1681 16.1591ZM66.9984 16.1591C66.362 16.1591 65.8002 15.9983 65.313 15.6768C64.8258 15.352 64.4447 14.8946 64.1696 14.3047C63.8945 13.7114 63.7569 13.0104 63.7569 12.2017C63.7569 11.3996 63.8945 10.7036 64.1696 10.1136C64.4447 9.52367 64.8275 9.06794 65.318 8.74645C65.8085 8.42495 66.3753 8.2642 67.0183 8.2642C67.5154 8.2642 67.9082 8.34706 68.1966 8.51278C68.4882 8.67519 68.7103 8.8608 68.8627 9.0696C69.0185 9.27509 69.1395 9.44413 69.2257 9.5767H69.3251V5.81818H70.4984V16H69.3649V14.8267H69.2257C69.1395 14.9659 69.0169 15.1416 68.8578 15.3537C68.6987 15.5625 68.4717 15.7498 68.1767 15.9155C67.8817 16.0779 67.4889 16.1591 66.9984 16.1591ZM67.1575 15.1051C67.6281 15.1051 68.0259 14.9825 68.3507 14.7372C68.6755 14.4886 68.9224 14.1456 69.0914 13.7081C69.2605 13.2673 69.345 12.7585 69.345 12.1818C69.345 11.6117 69.2621 11.1129 69.0964 10.6854C68.9307 10.2545 68.6854 9.91974 68.3606 9.68111C68.0358 9.43916 67.6348 9.31818 67.1575 9.31818C66.6603 9.31818 66.246 9.44579 65.9146 9.70099C65.5865 9.95289 65.3395 10.2959 65.1738 10.7301C65.0114 11.161 64.9302 11.6449 64.9302 12.1818C64.9302 12.7254 65.0131 13.2192 65.1788 13.6634C65.3478 14.1042 65.5964 14.4555 65.9245 14.7173C66.256 14.9759 66.667 15.1051 67.1575 15.1051ZM82.475 8.36364C82.4153 7.85985 82.1734 7.46875 81.7491 7.19034C81.3249 6.91193 80.8045 6.77273 80.188 6.77273C79.7373 6.77273 79.3429 6.84564 79.0048 6.99148C78.67 7.13731 78.4082 7.33783 78.2193 7.59304C78.0337 7.84825 77.9409 8.13826 77.9409 8.46307C77.9409 8.73485 78.0055 8.96851 78.1348 9.16406C78.2673 9.3563 78.4364 9.51705 78.6419 9.64631C78.8474 9.77225 79.0628 9.87666 79.2882 9.95952C79.5136 10.0391 79.7207 10.1037 79.9096 10.1534L80.9437 10.4318C81.2089 10.5014 81.5038 10.5975 81.8287 10.7202C82.1568 10.8428 82.47 11.0102 82.7683 11.2223C83.0699 11.4311 83.3185 11.6996 83.514 12.0277C83.7096 12.3558 83.8074 12.7585 83.8074 13.2358C83.8074 13.786 83.6632 14.2831 83.3748 14.7273C83.0898 15.1714 82.6722 15.5244 82.122 15.7862C81.5751 16.0481 80.9106 16.179 80.1284 16.179C79.3992 16.179 78.7678 16.0613 78.2342 15.826C77.7039 15.5907 77.2863 15.2625 76.9814 14.8416C76.6797 14.4207 76.5091 13.9318 76.4693 13.375H77.742C77.7752 13.7595 77.9044 14.0777 78.1298 14.3295C78.3585 14.5781 78.6468 14.7637 78.9949 14.8864C79.3462 15.0057 79.724 15.0653 80.1284 15.0653C80.599 15.0653 81.0216 14.9891 81.3961 14.8366C81.7707 14.6809 82.0673 14.4654 82.286 14.1903C82.5048 13.9119 82.6142 13.5871 82.6142 13.2159C82.6142 12.8778 82.5197 12.6027 82.3308 12.3906C82.1419 12.1785 81.8933 12.0062 81.585 11.8736C81.2768 11.741 80.9437 11.625 80.5858 11.5256L79.3329 11.1676C78.5375 10.9389 77.9077 10.6125 77.4437 10.1882C76.9797 9.76397 76.7477 9.20881 76.7477 8.52273C76.7477 7.95265 76.9018 7.45549 77.21 7.03125C77.5216 6.60369 77.9392 6.27225 78.4629 6.03693C78.9899 5.7983 79.5782 5.67898 80.2278 5.67898C80.8841 5.67898 81.4674 5.79664 81.9778 6.03196C82.4882 6.26397 82.8926 6.58215 83.1909 6.98651C83.4925 7.39086 83.6516 7.8499 83.6681 8.36364H82.475ZM88.9964 8.36364V9.35795H85.0391V8.36364H88.9964ZM86.1925 6.53409H87.3658V13.8125C87.3658 14.1439 87.4138 14.3925 87.5099 14.5582C87.6094 14.7206 87.7353 14.83 87.8878 14.8864C88.0436 14.9394 88.2076 14.9659 88.38 14.9659C88.5092 14.9659 88.6153 14.9593 88.6982 14.946C88.781 14.9295 88.8473 14.9162 88.897 14.9062L89.1357 15.9602C89.0561 15.9901 88.9451 16.0199 88.8026 16.0497C88.66 16.0829 88.4794 16.0994 88.2607 16.0994C87.9292 16.0994 87.6044 16.0282 87.2862 15.8857C86.9714 15.7431 86.7095 15.526 86.5007 15.2344C86.2952 14.9427 86.1925 14.5748 86.1925 14.1307V6.53409ZM93.0085 16.179C92.5246 16.179 92.0855 16.0878 91.6911 15.9055C91.2966 15.7199 90.9834 15.4531 90.7514 15.1051C90.5194 14.7538 90.4034 14.3295 90.4034 13.8324C90.4034 13.3949 90.4896 13.0402 90.6619 12.7685C90.8343 12.4934 91.0646 12.2779 91.353 12.1222C91.6413 11.9664 91.9595 11.8504 92.3075 11.7741C92.6589 11.6946 93.0118 11.6316 93.3665 11.5852C93.8305 11.5256 94.2067 11.4808 94.495 11.451C94.7867 11.4179 94.9988 11.3632 95.1314 11.2869C95.2673 11.2107 95.3352 11.0781 95.3352 10.8892V10.8494C95.3352 10.3589 95.201 9.97775 94.9325 9.70597C94.6674 9.43419 94.2647 9.2983 93.7244 9.2983C93.1643 9.2983 92.7251 9.42093 92.407 9.66619C92.0888 9.91146 91.8651 10.1733 91.7358 10.4517L90.6222 10.054C90.821 9.58996 91.0862 9.22869 91.4176 8.97017C91.7524 8.70833 92.117 8.52604 92.5114 8.4233C92.9091 8.31723 93.3002 8.2642 93.6847 8.2642C93.9299 8.2642 94.2116 8.29403 94.5298 8.35369C94.8513 8.41004 95.1612 8.5277 95.4595 8.70668C95.7611 8.88565 96.0114 9.15578 96.2102 9.51705C96.4091 9.87831 96.5085 10.3622 96.5085 10.9688V16H95.3352V14.9659H95.2756C95.196 15.1316 95.0634 15.3089 94.8778 15.4979C94.6922 15.6868 94.4453 15.8475 94.1371 15.9801C93.8288 16.1127 93.4527 16.179 93.0085 16.179ZM93.1875 15.125C93.6515 15.125 94.0426 15.0339 94.3608 14.8516C94.6823 14.6693 94.9242 14.4339 95.0866 14.1456C95.2524 13.8572 95.3352 13.554 95.3352 13.2358V12.1619C95.2855 12.2216 95.1761 12.2763 95.0071 12.326C94.8414 12.3724 94.6491 12.4138 94.4304 12.4503C94.215 12.4834 94.0045 12.5133 93.799 12.5398C93.5968 12.563 93.4328 12.5829 93.3068 12.5994C93.0019 12.6392 92.7169 12.7038 92.4517 12.7933C92.1899 12.8795 91.9777 13.0104 91.8153 13.1861C91.6563 13.3584 91.5767 13.5937 91.5767 13.892C91.5767 14.2997 91.7275 14.608 92.0291 14.8168C92.334 15.0223 92.7202 15.125 93.1875 15.125ZM101.971 8.36364V9.35795H98.0137V8.36364H101.971ZM99.1671 6.53409H100.34V13.8125C100.34 14.1439 100.388 14.3925 100.485 14.5582C100.584 14.7206 100.71 14.83 100.862 14.8864C101.018 14.9394 101.182 14.9659 101.355 14.9659C101.484 14.9659 101.59 14.9593 101.673 14.946C101.756 14.9295 101.822 14.9162 101.872 14.9062L102.11 15.9602C102.031 15.9901 101.92 16.0199 101.777 16.0497C101.635 16.0829 101.454 16.0994 101.235 16.0994C100.904 16.0994 100.579 16.0282 100.261 15.8857C99.946 15.7431 99.6841 15.526 99.4753 15.2344C99.2698 14.9427 99.1671 14.5748 99.1671 14.1307V6.53409ZM106.856 16.1591C106.12 16.1591 105.485 15.9967 104.952 15.6719C104.421 15.3438 104.012 14.8864 103.724 14.2997C103.439 13.7098 103.296 13.0237 103.296 12.2415C103.296 11.4593 103.439 10.7699 103.724 10.1733C104.012 9.57339 104.413 9.10606 104.927 8.77131C105.444 8.43324 106.047 8.2642 106.736 8.2642C107.134 8.2642 107.527 8.33049 107.915 8.46307C108.302 8.59564 108.655 8.81108 108.974 9.10938C109.292 9.40436 109.545 9.79545 109.734 10.2827C109.923 10.7699 110.018 11.3698 110.018 12.0824V12.5795H104.131V11.5653H108.824C108.824 11.1345 108.738 10.75 108.566 10.4119C108.397 10.0739 108.155 9.80705 107.84 9.61151C107.528 9.41596 107.161 9.31818 106.736 9.31818C106.269 9.31818 105.865 9.43419 105.523 9.66619C105.185 9.89489 104.925 10.1932 104.743 10.5611C104.56 10.929 104.469 11.3234 104.469 11.7443V12.4205C104.469 12.9972 104.569 13.486 104.768 13.8871C104.97 14.2848 105.25 14.5881 105.608 14.7969C105.966 15.0024 106.382 15.1051 106.856 15.1051C107.164 15.1051 107.442 15.062 107.691 14.9759C107.943 14.8864 108.16 14.7538 108.342 14.5781C108.524 14.3991 108.665 14.1771 108.765 13.9119L109.898 14.2301C109.779 14.6146 109.578 14.9527 109.297 15.2443C109.015 15.5327 108.667 15.758 108.253 15.9205C107.838 16.0795 107.373 16.1591 106.856 16.1591ZM117.211 10.0739L116.157 10.3722C116.091 10.1965 115.993 10.0258 115.864 9.86009C115.738 9.69105 115.566 9.55185 115.347 9.44247C115.128 9.3331 114.848 9.27841 114.507 9.27841C114.04 9.27841 113.65 9.38613 113.339 9.60156C113.03 9.81368 112.876 10.0838 112.876 10.4119C112.876 10.7036 112.982 10.9339 113.194 11.103C113.407 11.272 113.738 11.4129 114.189 11.5256L115.322 11.804C116.005 11.9697 116.514 12.2232 116.849 12.5646C117.183 12.9027 117.351 13.3385 117.351 13.8722C117.351 14.3097 117.225 14.7008 116.973 15.0455C116.724 15.3902 116.376 15.6619 115.929 15.8608C115.481 16.0597 114.961 16.1591 114.368 16.1591C113.589 16.1591 112.944 15.9901 112.434 15.652C111.923 15.3139 111.6 14.8201 111.464 14.1705L112.578 13.892C112.684 14.303 112.885 14.6113 113.18 14.8168C113.478 15.0223 113.867 15.125 114.348 15.125C114.895 15.125 115.329 15.009 115.65 14.777C115.975 14.5417 116.138 14.2599 116.138 13.9318C116.138 13.6667 116.045 13.4446 115.859 13.2656C115.674 13.0833 115.389 12.9474 115.004 12.858L113.731 12.5597C113.032 12.3939 112.518 12.1371 112.19 11.7891C111.865 11.4377 111.703 10.9986 111.703 10.4716C111.703 10.0407 111.824 9.65956 112.066 9.32812C112.311 8.99669 112.644 8.73651 113.065 8.54758C113.489 8.35866 113.97 8.2642 114.507 8.2642C115.263 8.2642 115.856 8.42992 116.287 8.76136C116.721 9.0928 117.029 9.5303 117.211 10.0739Z" fill="#636A80"/>
<g clip-path="url(#clip0_1647_32229)">
<path d="M146 2.0625V19.9375" stroke="#C5C9D6" stroke-width="1.5" stroke-linecap="round" stroke-linejoin="round"/>
<path d="M150.812 7.5625C150.812 7.11108 150.724 6.66408 150.551 6.24703C150.378 5.82997 150.125 5.45102 149.806 5.13182C149.486 4.81262 149.108 4.55941 148.69 4.38666C148.273 4.21391 147.826 4.125 147.375 4.125H144.281C143.37 4.125 142.495 4.48716 141.851 5.13182C141.206 5.77648 140.844 6.65082 140.844 7.5625C140.844 8.47418 141.206 9.34852 141.851 9.99318C142.495 10.6378 143.37 11 144.281 11H148.062C148.974 11 149.849 11.3622 150.493 12.0068C151.138 12.6515 151.5 13.5258 151.5 14.4375C151.5 15.3492 151.138 16.2235 150.493 16.8682C149.849 17.5128 148.974 17.875 148.062 17.875H143.938C143.026 17.875 142.151 17.5128 141.507 16.8682C140.862 16.2235 140.5 15.3492 140.5 14.4375" stroke="#C5C9D6" stroke-width="1.5" stroke-linecap="round" stroke-linejoin="round"/>
</g>
<path d="M165.057 17.2727V4.54545H165.872V17.2727H165.057ZM167.801 8.36364C167.741 7.85985 167.5 7.46875 167.075 7.19034C166.651 6.91193 166.131 6.77273 165.514 6.77273C165.063 6.77273 164.669 6.84564 164.331 6.99148C163.996 7.13731 163.734 7.33783 163.545 7.59304C163.36 7.84825 163.267 8.13826 163.267 8.46307C163.267 8.73485 163.332 8.96851 163.461 9.16406C163.594 9.3563 163.763 9.51705 163.968 9.64631C164.174 9.77225 164.389 9.87666 164.614 9.95952C164.84 10.0391 165.047 10.1037 165.236 10.1534L166.27 10.4318C166.535 10.5014 166.83 10.5975 167.155 10.7202C167.483 10.8428 167.796 11.0102 168.094 11.2223C168.396 11.4311 168.645 11.6996 168.84 12.0277C169.036 12.3558 169.134 12.7585 169.134 13.2358C169.134 13.786 168.989 14.2831 168.701 14.7273C168.416 15.1714 167.998 15.5244 167.448 15.7862C166.901 16.0481 166.237 16.179 165.455 16.179C164.725 16.179 164.094 16.0613 163.56 15.826C163.03 15.5907 162.612 15.2625 162.308 14.8416C162.006 14.4207 161.835 13.9318 161.795 13.375H163.068C163.101 13.7595 163.231 14.0777 163.456 14.3295C163.685 14.5781 163.973 14.7637 164.321 14.8864C164.672 15.0057 165.05 15.0653 165.455 15.0653C165.925 15.0653 166.348 14.9891 166.722 14.8366C167.097 14.6809 167.393 14.4654 167.612 14.1903C167.831 13.9119 167.94 13.5871 167.94 13.2159C167.94 12.8778 167.846 12.6027 167.657 12.3906C167.468 12.1785 167.219 12.0062 166.911 11.8736C166.603 11.741 166.27 11.625 165.912 11.5256L164.659 11.1676C163.864 10.9389 163.234 10.6125 162.77 10.1882C162.306 9.76397 162.074 9.20881 162.074 8.52273C162.074 7.95265 162.228 7.45549 162.536 7.03125C162.848 6.60369 163.265 6.27225 163.789 6.03693C164.316 5.7983 164.904 5.67898 165.554 5.67898C166.21 5.67898 166.794 5.79664 167.304 6.03196C167.814 6.26397 168.219 6.58215 168.517 6.98651C168.819 7.39086 168.978 7.8499 168.994 8.36364H167.801ZM174.422 16.1392C173.766 16.1392 173.181 16.0265 172.667 15.8011C172.157 15.5758 171.751 15.2625 171.449 14.8615C171.151 14.4571 170.988 13.9882 170.962 13.4545H172.215C172.241 13.7827 172.354 14.0661 172.553 14.3047C172.752 14.54 173.012 14.7223 173.333 14.8516C173.655 14.9808 174.011 15.0455 174.402 15.0455C174.84 15.0455 175.227 14.9692 175.566 14.8168C175.904 14.6643 176.169 14.4522 176.361 14.1804C176.553 13.9086 176.649 13.5938 176.649 13.2358C176.649 12.8613 176.557 12.5315 176.371 12.2464C176.185 11.9581 175.914 11.7327 175.556 11.5703C175.198 11.4079 174.76 11.3267 174.243 11.3267H173.428V10.233H174.243C174.647 10.233 175.002 10.16 175.307 10.0142C175.615 9.86837 175.856 9.66288 176.028 9.39773C176.204 9.13258 176.291 8.82102 176.291 8.46307C176.291 8.11837 176.215 7.81842 176.063 7.56321C175.91 7.308 175.695 7.10914 175.416 6.96662C175.141 6.8241 174.816 6.75284 174.442 6.75284C174.091 6.75284 173.759 6.81747 173.448 6.94673C173.139 7.07268 172.887 7.25663 172.692 7.49858C172.496 7.73722 172.39 8.02557 172.374 8.36364H171.181C171.2 7.83002 171.361 7.36269 171.663 6.96165C171.964 6.55729 172.359 6.24242 172.846 6.01705C173.337 5.79167 173.875 5.67898 174.462 5.67898C175.092 5.67898 175.632 5.80658 176.083 6.06179C176.533 6.31368 176.88 6.64678 177.122 7.06108C177.364 7.47538 177.485 7.92282 177.485 8.40341C177.485 8.9768 177.334 9.46567 177.032 9.87003C176.734 10.2744 176.328 10.5545 175.814 10.7102V10.7898C176.457 10.8958 176.959 11.1693 177.32 11.6101C177.682 12.0476 177.862 12.5895 177.862 13.2358C177.862 13.7893 177.712 14.2865 177.41 14.7273C177.112 15.1648 176.704 15.5095 176.187 15.7614C175.67 16.0133 175.082 16.1392 174.422 16.1392ZM183.078 16.1392C182.494 16.1392 181.969 16.0232 181.502 15.7912C181.034 15.5592 180.66 15.241 180.378 14.8366C180.096 14.4323 179.942 13.9716 179.916 13.4545H181.109C181.155 13.9152 181.364 14.2964 181.735 14.598C182.11 14.8963 182.557 15.0455 183.078 15.0455C183.495 15.0455 183.866 14.9477 184.191 14.7521C184.519 14.5566 184.776 14.2881 184.962 13.9467C185.151 13.602 185.245 13.2126 185.245 12.7784C185.245 12.3343 185.147 11.9382 184.952 11.5902C184.76 11.2389 184.494 10.9621 184.156 10.7599C183.818 10.5578 183.432 10.455 182.998 10.4517C182.686 10.4484 182.367 10.4964 182.039 10.5959C181.71 10.692 181.44 10.8163 181.228 10.9688L180.075 10.8295L180.691 5.81818H185.981V6.91193H181.725L181.367 9.91477H181.427C181.636 9.74905 181.898 9.61151 182.213 9.50213C182.527 9.39276 182.856 9.33807 183.197 9.33807C183.82 9.33807 184.375 9.48722 184.862 9.78551C185.353 10.0805 185.737 10.4848 186.016 10.9986C186.298 11.5123 186.438 12.099 186.438 12.7585C186.438 13.4081 186.293 13.9882 186.001 14.4986C185.713 15.0057 185.315 15.4067 184.808 15.7017C184.301 15.9934 183.724 16.1392 183.078 16.1392ZM188.592 16V5.81818H189.825V10.8693H189.945L194.518 5.81818H196.129L191.854 10.4119L196.129 16H194.638L191.098 11.267L189.825 12.6989V16H188.592ZM200.423 10.3622V11.456H195.969V10.3622H200.423ZM205.471 17.2727V4.54545H206.286V17.2727H205.471ZM208.215 8.36364C208.156 7.85985 207.914 7.46875 207.489 7.19034C207.065 6.91193 206.545 6.77273 205.928 6.77273C205.478 6.77273 205.083 6.84564 204.745 6.99148C204.41 7.13731 204.148 7.33783 203.96 7.59304C203.774 7.84825 203.681 8.13826 203.681 8.46307C203.681 8.73485 203.746 8.96851 203.875 9.16406C204.008 9.3563 204.177 9.51705 204.382 9.64631C204.588 9.77225 204.803 9.87666 205.028 9.95952C205.254 10.0391 205.461 10.1037 205.65 10.1534L206.684 10.4318C206.949 10.5014 207.244 10.5975 207.569 10.7202C207.897 10.8428 208.21 11.0102 208.509 11.2223C208.81 11.4311 209.059 11.6996 209.254 12.0277C209.45 12.3558 209.548 12.7585 209.548 13.2358C209.548 13.786 209.403 14.2831 209.115 14.7273C208.83 15.1714 208.412 15.5244 207.862 15.7862C207.315 16.0481 206.651 16.179 205.869 16.179C205.139 16.179 204.508 16.0613 203.974 15.826C203.444 15.5907 203.027 15.2625 202.722 14.8416C202.42 14.4207 202.249 13.9318 202.21 13.375H203.482C203.515 13.7595 203.645 14.0777 203.87 14.3295C204.099 14.5781 204.387 14.7637 204.735 14.8864C205.086 15.0057 205.464 15.0653 205.869 15.0653C206.339 15.0653 206.762 14.9891 207.136 14.8366C207.511 14.6809 207.808 14.4654 208.026 14.1903C208.245 13.9119 208.354 13.5871 208.354 13.2159C208.354 12.8778 208.26 12.6027 208.071 12.3906C207.882 12.1785 207.634 12.0062 207.325 11.8736C207.017 11.741 206.684 11.625 206.326 11.5256L205.073 11.1676C204.278 10.9389 203.648 10.6125 203.184 10.1882C202.72 9.76397 202.488 9.20881 202.488 8.52273C202.488 7.95265 202.642 7.45549 202.95 7.03125C203.262 6.60369 203.679 6.27225 204.203 6.03693C204.73 5.7983 205.318 5.67898 205.968 5.67898C206.624 5.67898 207.208 5.79664 207.718 6.03196C208.228 6.26397 208.633 6.58215 208.931 6.98651C209.233 7.39086 209.392 7.8499 209.408 8.36364H208.215ZM211.157 13.9119V12.8977L215.632 5.81818H216.367V7.3892H215.87L212.49 12.7386V12.8182H218.515V13.9119H211.157ZM215.95 16V13.6037V13.1314V5.81818H217.123V16H215.95ZM223.699 16.1392C222.95 16.1392 222.312 15.9354 221.785 15.5277C221.258 15.1167 220.855 14.5218 220.577 13.7429C220.299 12.9607 220.159 12.0161 220.159 10.9091C220.159 9.80871 220.299 8.86908 220.577 8.0902C220.859 7.308 221.263 6.71141 221.79 6.30043C222.32 5.88613 222.957 5.67898 223.699 5.67898C224.442 5.67898 225.076 5.88613 225.603 6.30043C226.134 6.71141 226.538 7.308 226.816 8.0902C227.098 8.86908 227.239 9.80871 227.239 10.9091C227.239 12.0161 227.1 12.9607 226.821 13.7429C226.543 14.5218 226.14 15.1167 225.613 15.5277C225.086 15.9354 224.448 16.1392 223.699 16.1392ZM223.699 15.0455C224.442 15.0455 225.018 14.6875 225.429 13.9716C225.84 13.2557 226.046 12.2348 226.046 10.9091C226.046 10.0275 225.951 9.27675 225.762 8.65696C225.577 8.03717 225.308 7.56487 224.957 7.24006C224.609 6.91525 224.19 6.75284 223.699 6.75284C222.963 6.75284 222.388 7.11577 221.974 7.84162C221.56 8.56416 221.353 9.58665 221.353 10.9091C221.353 11.7907 221.445 12.5398 221.631 13.1562C221.817 13.7727 222.083 14.2417 222.431 14.5632C222.783 14.8847 223.205 15.0455 223.699 15.0455ZM229.307 16V5.81818H230.54V10.8693H230.659L235.233 5.81818H236.844L232.569 10.4119L236.844 16H235.353L231.813 11.267L230.54 12.6989V16H229.307Z" fill="#636A80"/>
<g clip-path="url(#clip1_1647_32229)">
<path d="M271.875 3.4375H258.125C257.745 3.4375 257.438 3.7453 257.438 4.125V17.875C257.438 18.2547 257.745 18.5625 258.125 18.5625H271.875C272.255 18.5625 272.562 18.2547 272.562 17.875V4.125C272.562 3.7453 272.255 3.4375 271.875 3.4375Z" stroke="#C5C9D6" stroke-width="1.5" stroke-linecap="round" stroke-linejoin="round"/>
<path d="M269.125 2.0625V4.8125" stroke="#C5C9D6" stroke-width="1.5" stroke-linecap="round" stroke-linejoin="round"/>
<path d="M260.875 2.0625V4.8125" stroke="#C5C9D6" stroke-width="1.5" stroke-linecap="round" stroke-linejoin="round"/>
<path d="M257.438 7.5625H272.562" stroke="#C5C9D6" stroke-width="1.5" stroke-linecap="round" stroke-linejoin="round"/>
</g>
<path d="M282.815 13.9119V12.8977L287.29 5.81818H288.026V7.3892H287.528L284.148 12.7386V12.8182H290.173V13.9119H282.815ZM287.608 16V13.6037V13.1314V5.81818H288.781V16H287.608ZM299.295 16H296.153V5.81818H299.434C300.422 5.81818 301.267 6.02202 301.97 6.42969C302.672 6.83404 303.211 7.41572 303.585 8.17472C303.96 8.9304 304.147 9.83523 304.147 10.8892C304.147 11.9498 303.958 12.8629 303.58 13.6286C303.203 14.3909 302.652 14.9775 301.93 15.3885C301.207 15.7962 300.329 16 299.295 16ZM297.386 14.9062H299.215C300.057 14.9062 300.755 14.7438 301.308 14.419C301.862 14.0942 302.275 13.6319 302.546 13.032C302.818 12.4321 302.954 11.7178 302.954 10.8892C302.954 10.0672 302.82 9.35961 302.551 8.76633C302.283 8.16974 301.882 7.71236 301.348 7.39418C300.815 7.07268 300.15 6.91193 299.355 6.91193H297.386V14.9062ZM308.303 16.179C307.82 16.179 307.38 16.0878 306.986 15.9055C306.592 15.7199 306.278 15.4531 306.046 15.1051C305.814 14.7538 305.698 14.3295 305.698 13.8324C305.698 13.3949 305.785 13.0402 305.957 12.7685C306.129 12.4934 306.36 12.2779 306.648 12.1222C306.936 11.9664 307.254 11.8504 307.602 11.7741C307.954 11.6946 308.307 11.6316 308.661 11.5852C309.125 11.5256 309.502 11.4808 309.79 11.451C310.082 11.4179 310.294 11.3632 310.426 11.2869C310.562 11.2107 310.63 11.0781 310.63 10.8892V10.8494C310.63 10.3589 310.496 9.97775 310.227 9.70597C309.962 9.43419 309.56 9.2983 309.019 9.2983C308.459 9.2983 308.02 9.42093 307.702 9.66619C307.384 9.91146 307.16 10.1733 307.031 10.4517L305.917 10.054C306.116 9.58996 306.381 9.22869 306.713 8.97017C307.047 8.70833 307.412 8.52604 307.806 8.4233C308.204 8.31723 308.595 8.2642 308.98 8.2642C309.225 8.2642 309.507 8.29403 309.825 8.35369C310.146 8.41004 310.456 8.5277 310.754 8.70668C311.056 8.88565 311.306 9.15578 311.505 9.51705C311.704 9.87831 311.803 10.3622 311.803 10.9688V16H310.63V14.9659H310.57C310.491 15.1316 310.358 15.3089 310.173 15.4979C309.987 15.6868 309.74 15.8475 309.432 15.9801C309.124 16.1127 308.748 16.179 308.303 16.179ZM308.482 15.125C308.946 15.125 309.338 15.0339 309.656 14.8516C309.977 14.6693 310.219 14.4339 310.382 14.1456C310.547 13.8572 310.63 13.554 310.63 13.2358V12.1619C310.58 12.2216 310.471 12.2763 310.302 12.326C310.136 12.3724 309.944 12.4138 309.725 12.4503C309.51 12.4834 309.299 12.5133 309.094 12.5398C308.892 12.563 308.728 12.5829 308.602 12.5994C308.297 12.6392 308.012 12.7038 307.747 12.7933C307.485 12.8795 307.273 13.0104 307.11 13.1861C306.951 13.3584 306.872 13.5937 306.872 13.892C306.872 14.2997 307.022 14.608 307.324 14.8168C307.629 15.0223 308.015 15.125 308.482 15.125ZM314.427 18.8636C314.228 18.8636 314.051 18.8471 313.895 18.8139C313.739 18.7841 313.632 18.7543 313.572 18.7244L313.87 17.6903C314.155 17.7633 314.407 17.7898 314.626 17.7699C314.845 17.75 315.039 17.6522 315.208 17.4766C315.38 17.3042 315.538 17.0241 315.68 16.6364L315.899 16.0398L313.075 8.36364H314.348L316.456 14.4489H316.535L318.643 8.36364H319.916L316.674 17.1136C316.529 17.508 316.348 17.8345 316.132 18.093C315.917 18.3549 315.667 18.5488 315.382 18.6747C315.1 18.8007 314.782 18.8636 314.427 18.8636ZM326.874 10.0739L325.82 10.3722C325.753 10.1965 325.656 10.0258 325.526 9.86009C325.4 9.69105 325.228 9.55185 325.009 9.44247C324.79 9.3331 324.51 9.27841 324.169 9.27841C323.702 9.27841 323.312 9.38613 323.001 9.60156C322.692 9.81368 322.538 10.0838 322.538 10.4119C322.538 10.7036 322.644 10.9339 322.857 11.103C323.069 11.272 323.4 11.4129 323.851 11.5256L324.984 11.804C325.667 11.9697 326.176 12.2232 326.511 12.5646C326.845 12.9027 327.013 13.3385 327.013 13.8722C327.013 14.3097 326.887 14.7008 326.635 15.0455C326.386 15.3902 326.038 15.6619 325.591 15.8608C325.143 16.0597 324.623 16.1591 324.03 16.1591C323.251 16.1591 322.606 15.9901 322.096 15.652C321.585 15.3139 321.262 14.8201 321.126 14.1705L322.24 13.892C322.346 14.303 322.547 14.6113 322.842 14.8168C323.14 15.0223 323.529 15.125 324.01 15.125C324.557 15.125 324.991 15.009 325.312 14.777C325.637 14.5417 325.8 14.2599 325.8 13.9318C325.8 13.6667 325.707 13.4446 325.521 13.2656C325.336 13.0833 325.051 12.9474 324.666 12.858L323.393 12.5597C322.694 12.3939 322.18 12.1371 321.852 11.7891C321.527 11.4377 321.365 10.9986 321.365 10.4716C321.365 10.0407 321.486 9.65956 321.728 9.32812C321.973 8.99669 322.306 8.73651 322.727 8.54758C323.152 8.35866 323.632 8.2642 324.169 8.2642C324.925 8.2642 325.518 8.42992 325.949 8.76136C326.383 9.0928 326.691 9.5303 326.874 10.0739ZM332.876 16V5.81818H336.316C337.111 5.81818 337.764 5.95407 338.275 6.22585C338.785 6.49432 339.163 6.86387 339.408 7.33452C339.653 7.80516 339.776 8.34044 339.776 8.94034C339.776 9.54025 339.653 10.0722 339.408 10.5362C339.163 11.0002 338.787 11.3648 338.28 11.63C337.773 11.8918 337.125 12.0227 336.336 12.0227H333.552V10.9091H336.296C336.84 10.9091 337.277 10.8295 337.608 10.6705C337.943 10.5114 338.185 10.286 338.334 9.99432C338.487 9.69934 338.563 9.34801 338.563 8.94034C338.563 8.53267 338.487 8.17637 338.334 7.87145C338.182 7.56652 337.938 7.3312 337.604 7.16548C337.269 6.99645 336.826 6.91193 336.276 6.91193H334.108V16H332.876ZM337.668 11.4261L340.174 16H338.742L336.276 11.4261H337.668ZM344.791 16.1591C344.055 16.1591 343.421 15.9967 342.887 15.6719C342.357 15.3438 341.947 14.8864 341.659 14.2997C341.374 13.7098 341.232 13.0237 341.232 12.2415C341.232 11.4593 341.374 10.7699 341.659 10.1733C341.947 9.57339 342.348 9.10606 342.862 8.77131C343.379 8.43324 343.982 8.2642 344.672 8.2642C345.07 8.2642 345.462 8.33049 345.85 8.46307C346.238 8.59564 346.591 8.81108 346.909 9.10938C347.227 9.40436 347.481 9.79545 347.67 10.2827C347.859 10.7699 347.953 11.3698 347.953 12.0824V12.5795H342.067V11.5653H346.76C346.76 11.1345 346.674 10.75 346.501 10.4119C346.332 10.0739 346.09 9.80705 345.776 9.61151C345.464 9.41596 345.096 9.31818 344.672 9.31818C344.205 9.31818 343.8 9.43419 343.459 9.66619C343.121 9.89489 342.861 10.1932 342.678 10.5611C342.496 10.929 342.405 11.3234 342.405 11.7443V12.4205C342.405 12.9972 342.504 13.486 342.703 13.8871C342.905 14.2848 343.185 14.5881 343.543 14.7969C343.901 15.0024 344.317 15.1051 344.791 15.1051C345.099 15.1051 345.378 15.062 345.626 14.9759C345.878 14.8864 346.095 14.7538 346.278 14.5781C346.46 14.3991 346.601 14.1771 346.7 13.9119L347.834 14.2301C347.714 14.6146 347.514 14.9527 347.232 15.2443C346.951 15.5327 346.603 15.758 346.188 15.9205C345.774 16.0795 345.308 16.1591 344.791 16.1591ZM349.738 16V8.36364H350.871V9.55682H350.971C351.13 9.14915 351.387 8.83262 351.741 8.60724C352.096 8.37855 352.522 8.2642 353.019 8.2642C353.523 8.2642 353.942 8.37855 354.277 8.60724C354.615 8.83262 354.879 9.14915 355.067 9.55682H355.147C355.343 9.16241 355.636 8.84919 356.027 8.61719C356.418 8.38187 356.887 8.2642 357.434 8.2642C358.117 8.2642 358.675 8.47798 359.109 8.90554C359.544 9.32978 359.761 9.991 359.761 10.8892V16H358.587V10.8892C358.587 10.3258 358.433 9.92306 358.125 9.68111C357.817 9.43916 357.454 9.31818 357.036 9.31818C356.499 9.31818 356.083 9.48059 355.788 9.8054C355.493 10.1269 355.346 10.5346 355.346 11.0284V16H354.153V10.7699C354.153 10.3357 354.012 9.98603 353.73 9.72088C353.448 9.45241 353.085 9.31818 352.641 9.31818C352.336 9.31818 352.051 9.39938 351.786 9.56179C351.524 9.72419 351.312 9.94957 351.15 10.2379C350.991 10.523 350.911 10.8527 350.911 11.2273V16H349.738ZM364.153 16.179C363.669 16.179 363.23 16.0878 362.836 15.9055C362.441 15.7199 362.128 15.4531 361.896 15.1051C361.664 14.7538 361.548 14.3295 361.548 13.8324C361.548 13.3949 361.634 13.0402 361.806 12.7685C361.979 12.4934 362.209 12.2779 362.498 12.1222C362.786 11.9664 363.104 11.8504 363.452 11.7741C363.803 11.6946 364.156 11.6316 364.511 11.5852C364.975 11.5256 365.351 11.4808 365.64 11.451C365.931 11.4179 366.143 11.3632 366.276 11.2869C366.412 11.2107 366.48 11.0781 366.48 10.8892V10.8494C366.48 10.3589 366.346 9.97775 366.077 9.70597C365.812 9.43419 365.409 9.2983 364.869 9.2983C364.309 9.2983 363.87 9.42093 363.551 9.66619C363.233 9.91146 363.01 10.1733 362.88 10.4517L361.767 10.054C361.966 9.58996 362.231 9.22869 362.562 8.97017C362.897 8.70833 363.261 8.52604 363.656 8.4233C364.054 8.31723 364.445 8.2642 364.829 8.2642C365.074 8.2642 365.356 8.29403 365.674 8.35369C365.996 8.41004 366.306 8.5277 366.604 8.70668C366.906 8.88565 367.156 9.15578 367.355 9.51705C367.554 9.87831 367.653 10.3622 367.653 10.9688V16H366.48V14.9659H366.42C366.341 15.1316 366.208 15.3089 366.022 15.4979C365.837 15.6868 365.59 15.8475 365.282 15.9801C364.973 16.1127 364.597 16.179 364.153 16.179ZM364.332 15.125C364.796 15.125 365.187 15.0339 365.505 14.8516C365.827 14.6693 366.069 14.4339 366.231 14.1456C366.397 13.8572 366.48 13.554 366.48 13.2358V12.1619C366.43 12.2216 366.321 12.2763 366.152 12.326C365.986 12.3724 365.794 12.4138 365.575 12.4503C365.359 12.4834 365.149 12.5133 364.944 12.5398C364.741 12.563 364.577 12.5829 364.451 12.5994C364.146 12.6392 363.861 12.7038 363.596 12.7933C363.334 12.8795 363.122 13.0104 362.96 13.1861C362.801 13.3584 362.721 13.5937 362.721 13.892C362.721 14.2997 362.872 14.608 363.174 14.8168C363.479 15.0223 363.865 15.125 364.332 15.125ZM369.795 16V8.36364H370.968V16H369.795ZM370.391 7.09091C370.162 7.09091 369.965 7.01302 369.8 6.85724C369.637 6.70147 369.556 6.5142 369.556 6.29545C369.556 6.0767 369.637 5.88944 369.8 5.73366C369.965 5.57789 370.162 5.5 370.391 5.5C370.62 5.5 370.815 5.57789 370.978 5.73366C371.144 5.88944 371.226 6.0767 371.226 6.29545C371.226 6.5142 371.144 6.70147 370.978 6.85724C370.815 7.01302 370.62 7.09091 370.391 7.09091ZM374.29 11.4062V16H373.117V8.36364H374.25V9.55682H374.35C374.529 9.16903 374.801 8.85748 375.165 8.62216C375.53 8.38352 376 8.2642 376.577 8.2642C377.094 8.2642 377.547 8.37027 377.934 8.58239C378.322 8.79119 378.624 9.10938 378.839 9.53693C379.055 9.96117 379.162 10.4981 379.162 11.1477V16H377.989V11.2273C377.989 10.6274 377.833 10.16 377.522 9.82528C377.21 9.48722 376.783 9.31818 376.239 9.31818C375.864 9.31818 375.53 9.39938 375.235 9.56179C374.943 9.72419 374.713 9.96117 374.544 10.2727C374.375 10.5843 374.29 10.9621 374.29 11.4062ZM381.306 16V8.36364H382.48V16H381.306ZM381.903 7.09091C381.674 7.09091 381.477 7.01302 381.311 6.85724C381.149 6.70147 381.068 6.5142 381.068 6.29545C381.068 6.0767 381.149 5.88944 381.311 5.73366C381.477 5.57789 381.674 5.5 381.903 5.5C382.132 5.5 382.327 5.57789 382.49 5.73366C382.655 5.88944 382.738 6.0767 382.738 6.29545C382.738 6.5142 382.655 6.70147 382.49 6.85724C382.327 7.01302 382.132 7.09091 381.903 7.09091ZM385.802 11.4062V16H384.629V8.36364H385.762V9.55682H385.862C386.04 9.16903 386.312 8.85748 386.677 8.62216C387.041 8.38352 387.512 8.2642 388.089 8.2642C388.606 8.2642 389.058 8.37027 389.446 8.58239C389.834 8.79119 390.135 9.10938 390.351 9.53693C390.566 9.96117 390.674 10.4981 390.674 11.1477V16H389.501V11.2273C389.501 10.6274 389.345 10.16 389.033 9.82528C388.722 9.48722 388.294 9.31818 387.751 9.31818C387.376 9.31818 387.041 9.39938 386.746 9.56179C386.455 9.72419 386.224 9.96117 386.055 10.2727C385.886 10.5843 385.802 10.9621 385.802 11.4062ZM395.9 19.0227C395.334 19.0227 394.846 18.9498 394.439 18.804C394.031 18.6615 393.691 18.4725 393.42 18.2372C393.151 18.0052 392.937 17.7566 392.778 17.4915L393.713 16.8352C393.819 16.9744 393.953 17.1335 394.116 17.3125C394.278 17.4948 394.5 17.6522 394.782 17.7848C395.067 17.9207 395.44 17.9886 395.9 17.9886C396.517 17.9886 397.026 17.8395 397.427 17.5412C397.828 17.2429 398.028 16.7756 398.028 16.1392V14.5881H397.929C397.843 14.7273 397.72 14.8996 397.561 15.1051C397.405 15.3073 397.18 15.4879 396.885 15.647C396.593 15.8028 396.199 15.8807 395.702 15.8807C395.085 15.8807 394.532 15.7348 394.041 15.4432C393.554 15.1515 393.168 14.7273 392.883 14.1705C392.601 13.6136 392.46 12.9375 392.46 12.142C392.46 11.3598 392.598 10.6787 392.873 10.0987C393.148 9.51539 393.531 9.06463 394.021 8.74645C394.512 8.42495 395.078 8.2642 395.721 8.2642C396.219 8.2642 396.613 8.34706 396.905 8.51278C397.2 8.67519 397.425 8.8608 397.581 9.0696C397.74 9.27509 397.863 9.44413 397.949 9.5767H398.068V8.36364H399.202V16.2188C399.202 16.875 399.052 17.4086 398.754 17.8196C398.459 18.2339 398.061 18.5372 397.561 18.7294C397.064 18.925 396.51 19.0227 395.9 19.0227ZM395.861 14.8267C396.331 14.8267 396.729 14.719 397.054 14.5036C397.379 14.2881 397.626 13.9782 397.795 13.5739C397.964 13.1695 398.048 12.6856 398.048 12.1222C398.048 11.572 397.965 11.0864 397.8 10.6655C397.634 10.2446 397.389 9.91477 397.064 9.67614C396.739 9.4375 396.338 9.31818 395.861 9.31818C395.363 9.31818 394.949 9.44413 394.618 9.69602C394.29 9.94792 394.043 10.286 393.877 10.7102C393.715 11.1345 393.633 11.6051 393.633 12.1222C393.633 12.6525 393.716 13.1214 393.882 13.5291C394.051 13.9335 394.3 14.2517 394.628 14.4837C394.959 14.7124 395.37 14.8267 395.861 14.8267Z" fill="#636A80"/>
<defs>
<clipPath id="clip0_1647_32229">
<rect width="22" height="22" fill="white" transform="translate(135)"/>
</clipPath>
<clipPath id="clip1_1647_32229">
<rect width="22" height="22" fill="white" transform="translate(254)"/>
</clipPath>
</defs>
</svg>
