<svg width="344" height="22" viewBox="0 0 344 22" fill="none" xmlns="http://www.w3.org/2000/svg">
<path d="M19.25 9.16675C19.25 15.5834 11 21.0834 11 21.0834C11 21.0834 2.75 15.5834 2.75 9.16675C2.75 6.97871 3.61919 4.88029 5.16637 3.33312C6.71354 1.78594 8.81196 0.916748 11 0.916748C13.188 0.916748 15.2865 1.78594 16.8336 3.33312C18.3808 4.88029 19.25 6.97871 19.25 9.16675Z" stroke="#C5C9D6" stroke-width="1.5" stroke-linecap="round" stroke-linejoin="round"/>
<path d="M11 11.9167C12.5188 11.9167 13.75 10.6855 13.75 9.16675C13.75 7.64797 12.5188 6.41675 11 6.41675C9.48122 6.41675 8.25 7.64797 8.25 9.16675C8.25 10.6855 9.48122 11.9167 11 11.9167Z" stroke="#C5C9D6" stroke-width="1.5" stroke-linecap="round" stroke-linejoin="round"/>
<path d="M29.233 16V5.81818H35.3381V6.91193H30.4659V10.3523H34.8807V11.446H30.4659V16H29.233ZM37.2086 16V8.36364H38.3422V9.51705H38.4217C38.5609 9.1392 38.8128 8.83262 39.1774 8.5973C39.542 8.36198 39.9529 8.24432 40.4103 8.24432C40.4965 8.24432 40.6042 8.24597 40.7335 8.24929C40.8627 8.2526 40.9605 8.25758 41.0268 8.2642V9.45739C40.987 9.44744 40.8959 9.43253 40.7534 9.41264C40.6142 9.38944 40.4667 9.37784 40.3109 9.37784C39.9397 9.37784 39.6083 9.45573 39.3166 9.61151C39.0282 9.76397 38.7995 9.97609 38.6305 10.2479C38.4648 10.5163 38.3819 10.8229 38.3819 11.1676V16H37.2086ZM44.6648 16.179C44.1809 16.179 43.7417 16.0878 43.3473 15.9055C42.9529 15.7199 42.6397 15.4531 42.4077 15.1051C42.1757 14.7538 42.0597 14.3295 42.0597 13.8324C42.0597 13.3949 42.1458 13.0402 42.3182 12.7685C42.4905 12.4934 42.7209 12.2779 43.0092 12.1222C43.2976 11.9664 43.6158 11.8504 43.9638 11.7741C44.3151 11.6946 44.6681 11.6316 45.0227 11.5852C45.4867 11.5256 45.8629 11.4808 46.1513 11.451C46.4429 11.4179 46.6551 11.3632 46.7876 11.2869C46.9235 11.2107 46.9915 11.0781 46.9915 10.8892V10.8494C46.9915 10.3589 46.8572 9.97775 46.5888 9.70597C46.3236 9.43419 45.9209 9.2983 45.3807 9.2983C44.8205 9.2983 44.3814 9.42093 44.0632 9.66619C43.745 9.91146 43.5213 10.1733 43.392 10.4517L42.2784 10.054C42.4773 9.58996 42.7424 9.22869 43.0739 8.97017C43.4086 8.70833 43.7732 8.52604 44.1676 8.4233C44.5653 8.31723 44.9564 8.2642 45.3409 8.2642C45.5862 8.2642 45.8679 8.29403 46.1861 8.35369C46.5076 8.41004 46.8175 8.5277 47.1158 8.70668C47.4174 8.88565 47.6676 9.15578 47.8665 9.51705C48.0653 9.87831 48.1648 10.3622 48.1648 10.9688V16H46.9915V14.9659H46.9318C46.8523 15.1316 46.7197 15.3089 46.5341 15.4979C46.3485 15.6868 46.1016 15.8475 45.7933 15.9801C45.4851 16.1127 45.1089 16.179 44.6648 16.179ZM44.8438 15.125C45.3078 15.125 45.6989 15.0339 46.017 14.8516C46.3385 14.6693 46.5805 14.4339 46.7429 14.1456C46.9086 13.8572 46.9915 13.554 46.9915 13.2358V12.1619C46.9418 12.2216 46.8324 12.2763 46.6634 12.326C46.4976 12.3724 46.3054 12.4138 46.0866 12.4503C45.8712 12.4834 45.6607 12.5133 45.4553 12.5398C45.2531 12.563 45.089 12.5829 44.9631 12.5994C44.6581 12.6392 44.3731 12.7038 44.108 12.7933C43.8461 12.8795 43.634 13.0104 43.4716 13.1861C43.3125 13.3584 43.233 13.5937 43.233 13.892C43.233 14.2997 43.3838 14.608 43.6854 14.8168C43.9903 15.0223 44.3764 15.125 44.8438 15.125ZM51.4796 11.4062V16H50.3063V8.36364H51.4398V9.55682H51.5392C51.7182 9.16903 51.99 8.85748 52.3546 8.62216C52.7192 8.38352 53.1898 8.2642 53.7665 8.2642C54.2836 8.2642 54.736 8.37027 55.1238 8.58239C55.5115 8.79119 55.8132 9.10938 56.0286 9.53693C56.244 9.96117 56.3517 10.4981 56.3517 11.1477V16H55.1784V11.2273C55.1784 10.6274 55.0227 10.16 54.7111 9.82528C54.3996 9.48722 53.972 9.31818 53.4284 9.31818C53.0539 9.31818 52.7192 9.39938 52.4242 9.56179C52.1325 9.72419 51.9022 9.96117 51.7331 10.2727C51.5641 10.5843 51.4796 10.9621 51.4796 11.4062ZM61.598 16.1591C60.8821 16.1591 60.2656 15.9901 59.7486 15.652C59.2315 15.3139 58.8338 14.8482 58.5554 14.255C58.277 13.6617 58.1378 12.9839 58.1378 12.2216C58.1378 11.446 58.2803 10.7616 58.5653 10.1683C58.8537 9.57173 59.2547 9.10606 59.7685 8.77131C60.2855 8.43324 60.8887 8.2642 61.5781 8.2642C62.1151 8.2642 62.599 8.36364 63.0298 8.5625C63.4607 8.76136 63.8137 9.03977 64.0888 9.39773C64.3639 9.75568 64.5346 10.1733 64.6009 10.6506H63.4276C63.3381 10.3026 63.1392 9.99432 62.831 9.72585C62.526 9.45407 62.1151 9.31818 61.598 9.31818C61.1406 9.31818 60.7396 9.4375 60.3949 9.67614C60.0535 9.91146 59.7867 10.2446 59.5945 10.6754C59.4055 11.103 59.3111 11.6051 59.3111 12.1818C59.3111 12.7718 59.4039 13.2855 59.5895 13.723C59.7784 14.1605 60.0436 14.5002 60.3849 14.7422C60.7296 14.9841 61.134 15.1051 61.598 15.1051C61.9029 15.1051 62.1797 15.0521 62.4283 14.946C62.6768 14.84 62.8873 14.6875 63.0597 14.4886C63.232 14.2898 63.3546 14.0511 63.4276 13.7727H64.6009C64.5346 14.2235 64.3705 14.6295 64.1087 14.9908C63.8501 15.3487 63.5071 15.6338 63.0795 15.8459C62.6553 16.0547 62.1615 16.1591 61.598 16.1591ZM69.5178 16.1591C68.782 16.1591 68.1473 15.9967 67.6136 15.6719C67.0833 15.3438 66.674 14.8864 66.3857 14.2997C66.1006 13.7098 65.9581 13.0237 65.9581 12.2415C65.9581 11.4593 66.1006 10.7699 66.3857 10.1733C66.674 9.57339 67.075 9.10606 67.5888 8.77131C68.1058 8.43324 68.709 8.2642 69.3984 8.2642C69.7962 8.2642 70.1889 8.33049 70.5767 8.46307C70.9645 8.59564 71.3175 8.81108 71.6357 9.10938C71.9538 9.40436 72.2074 9.79545 72.3963 10.2827C72.5852 10.7699 72.6797 11.3698 72.6797 12.0824V12.5795H66.7933V11.5653H71.4865C71.4865 11.1345 71.4003 10.75 71.228 10.4119C71.0589 10.0739 70.817 9.80705 70.5021 9.61151C70.1906 9.41596 69.8227 9.31818 69.3984 9.31818C68.9311 9.31818 68.5268 9.43419 68.1854 9.66619C67.8473 9.89489 67.5871 10.1932 67.4048 10.5611C67.2225 10.929 67.1314 11.3234 67.1314 11.7443V12.4205C67.1314 12.9972 67.2308 13.486 67.4297 13.8871C67.6319 14.2848 67.9119 14.5881 68.2699 14.7969C68.6278 15.0024 69.0438 15.1051 69.5178 15.1051C69.826 15.1051 70.1044 15.062 70.353 14.9759C70.6049 14.8864 70.822 14.7538 71.0043 14.5781C71.1866 14.3991 71.3274 14.1771 71.4268 13.9119L72.5604 14.2301C72.4411 14.6146 72.2405 14.9527 71.9588 15.2443C71.6771 15.5327 71.3291 15.758 70.9148 15.9205C70.5005 16.0795 70.0348 16.1591 69.5178 16.1591Z" fill="#636A80"/>
<g clip-path="url(#clip0_1647_32300)">
<path d="M101 2.0625V19.9375" stroke="#C5C9D6" stroke-width="1.5" stroke-linecap="round" stroke-linejoin="round"/>
<path d="M105.812 7.5625C105.812 7.11108 105.724 6.66408 105.551 6.24703C105.378 5.82997 105.125 5.45102 104.806 5.13182C104.486 4.81262 104.108 4.55941 103.69 4.38666C103.273 4.21391 102.826 4.125 102.375 4.125H99.2812C98.3696 4.125 97.4952 4.48716 96.8506 5.13182C96.2059 5.77648 95.8438 6.65082 95.8438 7.5625C95.8438 8.47418 96.2059 9.34852 96.8506 9.99318C97.4952 10.6378 98.3696 11 99.2812 11H103.062C103.974 11 104.849 11.3622 105.493 12.0068C106.138 12.6515 106.5 13.5258 106.5 14.4375C106.5 15.3492 106.138 16.2235 105.493 16.8682C104.849 17.5128 103.974 17.875 103.062 17.875H98.9375C98.0258 17.875 97.1515 17.5128 96.5068 16.8682C95.8622 16.2235 95.5 15.3492 95.5 14.4375" stroke="#C5C9D6" stroke-width="1.5" stroke-linecap="round" stroke-linejoin="round"/>
</g>
<path d="M120.057 17.2727V4.54545H120.872V17.2727H120.057ZM122.801 8.36364C122.741 7.85985 122.5 7.46875 122.075 7.19034C121.651 6.91193 121.131 6.77273 120.514 6.77273C120.063 6.77273 119.669 6.84564 119.331 6.99148C118.996 7.13731 118.734 7.33783 118.545 7.59304C118.36 7.84825 118.267 8.13826 118.267 8.46307C118.267 8.73485 118.332 8.96851 118.461 9.16406C118.594 9.3563 118.763 9.51705 118.968 9.64631C119.174 9.77225 119.389 9.87666 119.614 9.95952C119.84 10.0391 120.047 10.1037 120.236 10.1534L121.27 10.4318C121.535 10.5014 121.83 10.5975 122.155 10.7202C122.483 10.8428 122.796 11.0102 123.094 11.2223C123.396 11.4311 123.645 11.6996 123.84 12.0277C124.036 12.3558 124.134 12.7585 124.134 13.2358C124.134 13.786 123.989 14.2831 123.701 14.7273C123.416 15.1714 122.998 15.5244 122.448 15.7862C121.901 16.0481 121.237 16.179 120.455 16.179C119.725 16.179 119.094 16.0613 118.56 15.826C118.03 15.5907 117.612 15.2625 117.308 14.8416C117.006 14.4207 116.835 13.9318 116.795 13.375H118.068C118.101 13.7595 118.231 14.0777 118.456 14.3295C118.685 14.5781 118.973 14.7637 119.321 14.8864C119.672 15.0057 120.05 15.0653 120.455 15.0653C120.925 15.0653 121.348 14.9891 121.722 14.8366C122.097 14.6809 122.393 14.4654 122.612 14.1903C122.831 13.9119 122.94 13.5871 122.94 13.2159C122.94 12.8778 122.846 12.6027 122.657 12.3906C122.468 12.1785 122.219 12.0062 121.911 11.8736C121.603 11.741 121.27 11.625 120.912 11.5256L119.659 11.1676C118.864 10.9389 118.234 10.6125 117.77 10.1882C117.306 9.76397 117.074 9.20881 117.074 8.52273C117.074 7.95265 117.228 7.45549 117.536 7.03125C117.848 6.60369 118.265 6.27225 118.789 6.03693C119.316 5.7983 119.904 5.67898 120.554 5.67898C121.21 5.67898 121.794 5.79664 122.304 6.03196C122.814 6.26397 123.219 6.58215 123.517 6.98651C123.819 7.39086 123.978 7.8499 123.994 8.36364H122.801ZM129.164 16.1392C128.58 16.1392 128.055 16.0232 127.588 15.7912C127.12 15.5592 126.746 15.241 126.464 14.8366C126.182 14.4323 126.028 13.9716 126.002 13.4545H127.195C127.241 13.9152 127.45 14.2964 127.821 14.598C128.196 14.8963 128.643 15.0455 129.164 15.0455C129.581 15.0455 129.952 14.9477 130.277 14.7521C130.605 14.5566 130.862 14.2881 131.048 13.9467C131.237 13.602 131.331 13.2126 131.331 12.7784C131.331 12.3343 131.233 11.9382 131.038 11.5902C130.846 11.2389 130.58 10.9621 130.242 10.7599C129.904 10.5578 129.518 10.455 129.084 10.4517C128.772 10.4484 128.453 10.4964 128.124 10.5959C127.796 10.692 127.526 10.8163 127.314 10.9688L126.161 10.8295L126.777 5.81818H132.067V6.91193H127.811L127.453 9.91477H127.513C127.722 9.74905 127.984 9.61151 128.298 9.50213C128.613 9.39276 128.941 9.33807 129.283 9.33807C129.906 9.33807 130.461 9.48722 130.948 9.78551C131.439 10.0805 131.823 10.4848 132.102 10.9986C132.383 11.5123 132.524 12.099 132.524 12.7585C132.524 13.4081 132.378 13.9882 132.087 14.4986C131.798 15.0057 131.401 15.4067 130.894 15.7017C130.387 15.9934 129.81 16.1392 129.164 16.1392ZM134.678 16V5.81818H135.911V10.8693H136.031L140.604 5.81818H142.215L137.94 10.4119L142.215 16H140.724L137.184 11.267L135.911 12.6989V16H134.678ZM146.509 10.3622V11.456H142.055V10.3622H146.509ZM151.557 17.2727V4.54545H152.372V17.2727H151.557ZM154.301 8.36364C154.241 7.85985 154 7.46875 153.575 7.19034C153.151 6.91193 152.631 6.77273 152.014 6.77273C151.563 6.77273 151.169 6.84564 150.831 6.99148C150.496 7.13731 150.234 7.33783 150.045 7.59304C149.86 7.84825 149.767 8.13826 149.767 8.46307C149.767 8.73485 149.832 8.96851 149.961 9.16406C150.094 9.3563 150.263 9.51705 150.468 9.64631C150.674 9.77225 150.889 9.87666 151.114 9.95952C151.34 10.0391 151.547 10.1037 151.736 10.1534L152.77 10.4318C153.035 10.5014 153.33 10.5975 153.655 10.7202C153.983 10.8428 154.296 11.0102 154.594 11.2223C154.896 11.4311 155.145 11.6996 155.34 12.0277C155.536 12.3558 155.634 12.7585 155.634 13.2358C155.634 13.786 155.489 14.2831 155.201 14.7273C154.916 15.1714 154.498 15.5244 153.948 15.7862C153.401 16.0481 152.737 16.179 151.955 16.179C151.225 16.179 150.594 16.0613 150.06 15.826C149.53 15.5907 149.112 15.2625 148.808 14.8416C148.506 14.4207 148.335 13.9318 148.295 13.375H149.568C149.601 13.7595 149.731 14.0777 149.956 14.3295C150.185 14.5781 150.473 14.7637 150.821 14.8864C151.172 15.0057 151.55 15.0653 151.955 15.0653C152.425 15.0653 152.848 14.9891 153.222 14.8366C153.597 14.6809 153.893 14.4654 154.112 14.1903C154.331 13.9119 154.44 13.5871 154.44 13.2159C154.44 12.8778 154.346 12.6027 154.157 12.3906C153.968 12.1785 153.719 12.0062 153.411 11.8736C153.103 11.741 152.77 11.625 152.412 11.5256L151.159 11.1676C150.364 10.9389 149.734 10.6125 149.27 10.1882C148.806 9.76397 148.574 9.20881 148.574 8.52273C148.574 7.95265 148.728 7.45549 149.036 7.03125C149.348 6.60369 149.765 6.27225 150.289 6.03693C150.816 5.7983 151.404 5.67898 152.054 5.67898C152.71 5.67898 153.294 5.79664 153.804 6.03196C154.314 6.26397 154.719 6.58215 155.017 6.98651C155.319 7.39086 155.478 7.8499 155.494 8.36364H154.301ZM161.061 5.81818V16H159.828V7.1108H159.769L157.283 8.76136V7.50852L159.828 5.81818H161.061ZM167.311 16.1392C166.561 16.1392 165.923 15.9354 165.396 15.5277C164.869 15.1167 164.467 14.5218 164.188 13.7429C163.91 12.9607 163.771 12.0161 163.771 10.9091C163.771 9.80871 163.91 8.86908 164.188 8.0902C164.47 7.308 164.874 6.71141 165.401 6.30043C165.932 5.88613 166.568 5.67898 167.311 5.67898C168.053 5.67898 168.688 5.88613 169.215 6.30043C169.745 6.71141 170.149 7.308 170.428 8.0902C170.709 8.86908 170.85 9.80871 170.85 10.9091C170.85 12.0161 170.711 12.9607 170.433 13.7429C170.154 14.5218 169.752 15.1167 169.225 15.5277C168.698 15.9354 168.06 16.1392 167.311 16.1392ZM167.311 15.0455C168.053 15.0455 168.63 14.6875 169.041 13.9716C169.452 13.2557 169.657 12.2348 169.657 10.9091C169.657 10.0275 169.563 9.27675 169.374 8.65696C169.188 8.03717 168.92 7.56487 168.568 7.24006C168.22 6.91525 167.801 6.75284 167.311 6.75284C166.575 6.75284 166 7.11577 165.585 7.84162C165.171 8.56416 164.964 9.58665 164.964 10.9091C164.964 11.7907 165.057 12.5398 165.242 13.1562C165.428 13.7727 165.695 14.2417 166.043 14.5632C166.394 14.8847 166.817 15.0455 167.311 15.0455ZM172.919 16V5.81818H174.151V10.8693H174.271L178.845 5.81818H180.455L176.18 10.4119L180.455 16H178.964L175.424 11.267L174.151 12.6989V16H172.919Z" fill="#636A80"/>
<g clip-path="url(#clip1_1647_32300)">
<path d="M214.875 3.4375H201.125C200.745 3.4375 200.438 3.7453 200.438 4.125V17.875C200.438 18.2547 200.745 18.5625 201.125 18.5625H214.875C215.255 18.5625 215.562 18.2547 215.562 17.875V4.125C215.562 3.7453 215.255 3.4375 214.875 3.4375Z" stroke="#C5C9D6" stroke-width="1.5" stroke-linecap="round" stroke-linejoin="round"/>
<path d="M212.125 2.0625V4.8125" stroke="#C5C9D6" stroke-width="1.5" stroke-linecap="round" stroke-linejoin="round"/>
<path d="M203.875 2.0625V4.8125" stroke="#C5C9D6" stroke-width="1.5" stroke-linecap="round" stroke-linejoin="round"/>
<path d="M200.438 7.5625H215.562" stroke="#C5C9D6" stroke-width="1.5" stroke-linecap="round" stroke-linejoin="round"/>
</g>
<path d="M225.815 13.9119V12.8977L230.29 5.81818H231.026V7.3892H230.528L227.148 12.7386V12.8182H233.173V13.9119H225.815ZM230.608 16V13.6037V13.1314V5.81818H231.781V16H230.608ZM242.295 16H239.153V5.81818H242.434C243.422 5.81818 244.267 6.02202 244.97 6.42969C245.672 6.83404 246.211 7.41572 246.585 8.17472C246.96 8.9304 247.147 9.83523 247.147 10.8892C247.147 11.9498 246.958 12.8629 246.58 13.6286C246.203 14.3909 245.652 14.9775 244.93 15.3885C244.207 15.7962 243.329 16 242.295 16ZM240.386 14.9062H242.215C243.057 14.9062 243.755 14.7438 244.308 14.419C244.862 14.0942 245.275 13.6319 245.546 13.032C245.818 12.4321 245.954 11.7178 245.954 10.8892C245.954 10.0672 245.82 9.35961 245.551 8.76633C245.283 8.16974 244.882 7.71236 244.348 7.39418C243.815 7.07268 243.15 6.91193 242.355 6.91193H240.386V14.9062ZM251.303 16.179C250.82 16.179 250.38 16.0878 249.986 15.9055C249.592 15.7199 249.278 15.4531 249.046 15.1051C248.814 14.7538 248.698 14.3295 248.698 13.8324C248.698 13.3949 248.785 13.0402 248.957 12.7685C249.129 12.4934 249.36 12.2779 249.648 12.1222C249.936 11.9664 250.254 11.8504 250.602 11.7741C250.954 11.6946 251.307 11.6316 251.661 11.5852C252.125 11.5256 252.502 11.4808 252.79 11.451C253.082 11.4179 253.294 11.3632 253.426 11.2869C253.562 11.2107 253.63 11.0781 253.63 10.8892V10.8494C253.63 10.3589 253.496 9.97775 253.227 9.70597C252.962 9.43419 252.56 9.2983 252.019 9.2983C251.459 9.2983 251.02 9.42093 250.702 9.66619C250.384 9.91146 250.16 10.1733 250.031 10.4517L248.917 10.054C249.116 9.58996 249.381 9.22869 249.713 8.97017C250.047 8.70833 250.412 8.52604 250.806 8.4233C251.204 8.31723 251.595 8.2642 251.98 8.2642C252.225 8.2642 252.507 8.29403 252.825 8.35369C253.146 8.41004 253.456 8.5277 253.754 8.70668C254.056 8.88565 254.306 9.15578 254.505 9.51705C254.704 9.87831 254.803 10.3622 254.803 10.9688V16H253.63V14.9659H253.57C253.491 15.1316 253.358 15.3089 253.173 15.4979C252.987 15.6868 252.74 15.8475 252.432 15.9801C252.124 16.1127 251.748 16.179 251.303 16.179ZM251.482 15.125C251.946 15.125 252.338 15.0339 252.656 14.8516C252.977 14.6693 253.219 14.4339 253.382 14.1456C253.547 13.8572 253.63 13.554 253.63 13.2358V12.1619C253.58 12.2216 253.471 12.2763 253.302 12.326C253.136 12.3724 252.944 12.4138 252.725 12.4503C252.51 12.4834 252.299 12.5133 252.094 12.5398C251.892 12.563 251.728 12.5829 251.602 12.5994C251.297 12.6392 251.012 12.7038 250.747 12.7933C250.485 12.8795 250.273 13.0104 250.11 13.1861C249.951 13.3584 249.872 13.5937 249.872 13.892C249.872 14.2997 250.022 14.608 250.324 14.8168C250.629 15.0223 251.015 15.125 251.482 15.125ZM257.427 18.8636C257.228 18.8636 257.051 18.8471 256.895 18.8139C256.739 18.7841 256.632 18.7543 256.572 18.7244L256.87 17.6903C257.155 17.7633 257.407 17.7898 257.626 17.7699C257.845 17.75 258.039 17.6522 258.208 17.4766C258.38 17.3042 258.538 17.0241 258.68 16.6364L258.899 16.0398L256.075 8.36364H257.348L259.456 14.4489H259.535L261.643 8.36364H262.916L259.674 17.1136C259.529 17.508 259.348 17.8345 259.132 18.093C258.917 18.3549 258.667 18.5488 258.382 18.6747C258.1 18.8007 257.782 18.8636 257.427 18.8636ZM269.874 10.0739L268.82 10.3722C268.753 10.1965 268.656 10.0258 268.526 9.86009C268.4 9.69105 268.228 9.55185 268.009 9.44247C267.79 9.3331 267.51 9.27841 267.169 9.27841C266.702 9.27841 266.312 9.38613 266.001 9.60156C265.692 9.81368 265.538 10.0838 265.538 10.4119C265.538 10.7036 265.644 10.9339 265.857 11.103C266.069 11.272 266.4 11.4129 266.851 11.5256L267.984 11.804C268.667 11.9697 269.176 12.2232 269.511 12.5646C269.845 12.9027 270.013 13.3385 270.013 13.8722C270.013 14.3097 269.887 14.7008 269.635 15.0455C269.386 15.3902 269.038 15.6619 268.591 15.8608C268.143 16.0597 267.623 16.1591 267.03 16.1591C266.251 16.1591 265.606 15.9901 265.096 15.652C264.585 15.3139 264.262 14.8201 264.126 14.1705L265.24 13.892C265.346 14.303 265.547 14.6113 265.842 14.8168C266.14 15.0223 266.529 15.125 267.01 15.125C267.557 15.125 267.991 15.009 268.312 14.777C268.637 14.5417 268.8 14.2599 268.8 13.9318C268.8 13.6667 268.707 13.4446 268.521 13.2656C268.336 13.0833 268.051 12.9474 267.666 12.858L266.393 12.5597C265.694 12.3939 265.18 12.1371 264.852 11.7891C264.527 11.4377 264.365 10.9986 264.365 10.4716C264.365 10.0407 264.486 9.65956 264.728 9.32812C264.973 8.99669 265.306 8.73651 265.727 8.54758C266.152 8.35866 266.632 8.2642 267.169 8.2642C267.925 8.2642 268.518 8.42992 268.949 8.76136C269.383 9.0928 269.691 9.5303 269.874 10.0739ZM275.876 16V5.81818H279.316C280.111 5.81818 280.764 5.95407 281.275 6.22585C281.785 6.49432 282.163 6.86387 282.408 7.33452C282.653 7.80516 282.776 8.34044 282.776 8.94034C282.776 9.54025 282.653 10.0722 282.408 10.5362C282.163 11.0002 281.787 11.3648 281.28 11.63C280.773 11.8918 280.125 12.0227 279.336 12.0227H276.552V10.9091H279.296C279.84 10.9091 280.277 10.8295 280.608 10.6705C280.943 10.5114 281.185 10.286 281.334 9.99432C281.487 9.69934 281.563 9.34801 281.563 8.94034C281.563 8.53267 281.487 8.17637 281.334 7.87145C281.182 7.56652 280.938 7.3312 280.604 7.16548C280.269 6.99645 279.826 6.91193 279.276 6.91193H277.108V16H275.876ZM280.668 11.4261L283.174 16H281.742L279.276 11.4261H280.668ZM287.791 16.1591C287.055 16.1591 286.421 15.9967 285.887 15.6719C285.357 15.3438 284.947 14.8864 284.659 14.2997C284.374 13.7098 284.232 13.0237 284.232 12.2415C284.232 11.4593 284.374 10.7699 284.659 10.1733C284.947 9.57339 285.348 9.10606 285.862 8.77131C286.379 8.43324 286.982 8.2642 287.672 8.2642C288.07 8.2642 288.462 8.33049 288.85 8.46307C289.238 8.59564 289.591 8.81108 289.909 9.10938C290.227 9.40436 290.481 9.79545 290.67 10.2827C290.859 10.7699 290.953 11.3698 290.953 12.0824V12.5795H285.067V11.5653H289.76C289.76 11.1345 289.674 10.75 289.501 10.4119C289.332 10.0739 289.09 9.80705 288.776 9.61151C288.464 9.41596 288.096 9.31818 287.672 9.31818C287.205 9.31818 286.8 9.43419 286.459 9.66619C286.121 9.89489 285.861 10.1932 285.678 10.5611C285.496 10.929 285.405 11.3234 285.405 11.7443V12.4205C285.405 12.9972 285.504 13.486 285.703 13.8871C285.905 14.2848 286.185 14.5881 286.543 14.7969C286.901 15.0024 287.317 15.1051 287.791 15.1051C288.099 15.1051 288.378 15.062 288.626 14.9759C288.878 14.8864 289.095 14.7538 289.278 14.5781C289.46 14.3991 289.601 14.1771 289.7 13.9119L290.834 14.2301C290.714 14.6146 290.514 14.9527 290.232 15.2443C289.951 15.5327 289.603 15.758 289.188 15.9205C288.774 16.0795 288.308 16.1591 287.791 16.1591ZM292.738 16V8.36364H293.871V9.55682H293.971C294.13 9.14915 294.387 8.83262 294.741 8.60724C295.096 8.37855 295.522 8.2642 296.019 8.2642C296.523 8.2642 296.942 8.37855 297.277 8.60724C297.615 8.83262 297.879 9.14915 298.067 9.55682H298.147C298.343 9.16241 298.636 8.84919 299.027 8.61719C299.418 8.38187 299.887 8.2642 300.434 8.2642C301.117 8.2642 301.675 8.47798 302.109 8.90554C302.544 9.32978 302.761 9.991 302.761 10.8892V16H301.587V10.8892C301.587 10.3258 301.433 9.92306 301.125 9.68111C300.817 9.43916 300.454 9.31818 300.036 9.31818C299.499 9.31818 299.083 9.48059 298.788 9.8054C298.493 10.1269 298.346 10.5346 298.346 11.0284V16H297.153V10.7699C297.153 10.3357 297.012 9.98603 296.73 9.72088C296.448 9.45241 296.085 9.31818 295.641 9.31818C295.336 9.31818 295.051 9.39938 294.786 9.56179C294.524 9.72419 294.312 9.94957 294.15 10.2379C293.991 10.523 293.911 10.8527 293.911 11.2273V16H292.738ZM307.153 16.179C306.669 16.179 306.23 16.0878 305.836 15.9055C305.441 15.7199 305.128 15.4531 304.896 15.1051C304.664 14.7538 304.548 14.3295 304.548 13.8324C304.548 13.3949 304.634 13.0402 304.806 12.7685C304.979 12.4934 305.209 12.2779 305.498 12.1222C305.786 11.9664 306.104 11.8504 306.452 11.7741C306.803 11.6946 307.156 11.6316 307.511 11.5852C307.975 11.5256 308.351 11.4808 308.64 11.451C308.931 11.4179 309.143 11.3632 309.276 11.2869C309.412 11.2107 309.48 11.0781 309.48 10.8892V10.8494C309.48 10.3589 309.346 9.97775 309.077 9.70597C308.812 9.43419 308.409 9.2983 307.869 9.2983C307.309 9.2983 306.87 9.42093 306.551 9.66619C306.233 9.91146 306.01 10.1733 305.88 10.4517L304.767 10.054C304.966 9.58996 305.231 9.22869 305.562 8.97017C305.897 8.70833 306.261 8.52604 306.656 8.4233C307.054 8.31723 307.445 8.2642 307.829 8.2642C308.074 8.2642 308.356 8.29403 308.674 8.35369C308.996 8.41004 309.306 8.5277 309.604 8.70668C309.906 8.88565 310.156 9.15578 310.355 9.51705C310.554 9.87831 310.653 10.3622 310.653 10.9688V16H309.48V14.9659H309.42C309.341 15.1316 309.208 15.3089 309.022 15.4979C308.837 15.6868 308.59 15.8475 308.282 15.9801C307.973 16.1127 307.597 16.179 307.153 16.179ZM307.332 15.125C307.796 15.125 308.187 15.0339 308.505 14.8516C308.827 14.6693 309.069 14.4339 309.231 14.1456C309.397 13.8572 309.48 13.554 309.48 13.2358V12.1619C309.43 12.2216 309.321 12.2763 309.152 12.326C308.986 12.3724 308.794 12.4138 308.575 12.4503C308.359 12.4834 308.149 12.5133 307.944 12.5398C307.741 12.563 307.577 12.5829 307.451 12.5994C307.146 12.6392 306.861 12.7038 306.596 12.7933C306.334 12.8795 306.122 13.0104 305.96 13.1861C305.801 13.3584 305.721 13.5937 305.721 13.892C305.721 14.2997 305.872 14.608 306.174 14.8168C306.479 15.0223 306.865 15.125 307.332 15.125ZM312.795 16V8.36364H313.968V16H312.795ZM313.391 7.09091C313.162 7.09091 312.965 7.01302 312.8 6.85724C312.637 6.70147 312.556 6.5142 312.556 6.29545C312.556 6.0767 312.637 5.88944 312.8 5.73366C312.965 5.57789 313.162 5.5 313.391 5.5C313.62 5.5 313.815 5.57789 313.978 5.73366C314.144 5.88944 314.226 6.0767 314.226 6.29545C314.226 6.5142 314.144 6.70147 313.978 6.85724C313.815 7.01302 313.62 7.09091 313.391 7.09091ZM317.29 11.4062V16H316.117V8.36364H317.25V9.55682H317.35C317.529 9.16903 317.801 8.85748 318.165 8.62216C318.53 8.38352 319 8.2642 319.577 8.2642C320.094 8.2642 320.547 8.37027 320.934 8.58239C321.322 8.79119 321.624 9.10938 321.839 9.53693C322.055 9.96117 322.162 10.4981 322.162 11.1477V16H320.989V11.2273C320.989 10.6274 320.833 10.16 320.522 9.82528C320.21 9.48722 319.783 9.31818 319.239 9.31818C318.864 9.31818 318.53 9.39938 318.235 9.56179C317.943 9.72419 317.713 9.96117 317.544 10.2727C317.375 10.5843 317.29 10.9621 317.29 11.4062ZM324.306 16V8.36364H325.48V16H324.306ZM324.903 7.09091C324.674 7.09091 324.477 7.01302 324.311 6.85724C324.149 6.70147 324.068 6.5142 324.068 6.29545C324.068 6.0767 324.149 5.88944 324.311 5.73366C324.477 5.57789 324.674 5.5 324.903 5.5C325.132 5.5 325.327 5.57789 325.49 5.73366C325.655 5.88944 325.738 6.0767 325.738 6.29545C325.738 6.5142 325.655 6.70147 325.49 6.85724C325.327 7.01302 325.132 7.09091 324.903 7.09091ZM328.802 11.4062V16H327.629V8.36364H328.762V9.55682H328.862C329.04 9.16903 329.312 8.85748 329.677 8.62216C330.041 8.38352 330.512 8.2642 331.089 8.2642C331.606 8.2642 332.058 8.37027 332.446 8.58239C332.834 8.79119 333.135 9.10938 333.351 9.53693C333.566 9.96117 333.674 10.4981 333.674 11.1477V16H332.501V11.2273C332.501 10.6274 332.345 10.16 332.033 9.82528C331.722 9.48722 331.294 9.31818 330.751 9.31818C330.376 9.31818 330.041 9.39938 329.746 9.56179C329.455 9.72419 329.224 9.96117 329.055 10.2727C328.886 10.5843 328.802 10.9621 328.802 11.4062ZM338.9 19.0227C338.334 19.0227 337.846 18.9498 337.439 18.804C337.031 18.6615 336.691 18.4725 336.42 18.2372C336.151 18.0052 335.937 17.7566 335.778 17.4915L336.713 16.8352C336.819 16.9744 336.953 17.1335 337.116 17.3125C337.278 17.4948 337.5 17.6522 337.782 17.7848C338.067 17.9207 338.44 17.9886 338.9 17.9886C339.517 17.9886 340.026 17.8395 340.427 17.5412C340.828 17.2429 341.028 16.7756 341.028 16.1392V14.5881H340.929C340.843 14.7273 340.72 14.8996 340.561 15.1051C340.405 15.3073 340.18 15.4879 339.885 15.647C339.593 15.8028 339.199 15.8807 338.702 15.8807C338.085 15.8807 337.532 15.7348 337.041 15.4432C336.554 15.1515 336.168 14.7273 335.883 14.1705C335.601 13.6136 335.46 12.9375 335.46 12.142C335.46 11.3598 335.598 10.6787 335.873 10.0987C336.148 9.51539 336.531 9.06463 337.021 8.74645C337.512 8.42495 338.078 8.2642 338.721 8.2642C339.219 8.2642 339.613 8.34706 339.905 8.51278C340.2 8.67519 340.425 8.8608 340.581 9.0696C340.74 9.27509 340.863 9.44413 340.949 9.5767H341.068V8.36364H342.202V16.2188C342.202 16.875 342.052 17.4086 341.754 17.8196C341.459 18.2339 341.061 18.5372 340.561 18.7294C340.064 18.925 339.51 19.0227 338.9 19.0227ZM338.861 14.8267C339.331 14.8267 339.729 14.719 340.054 14.5036C340.379 14.2881 340.626 13.9782 340.795 13.5739C340.964 13.1695 341.048 12.6856 341.048 12.1222C341.048 11.572 340.965 11.0864 340.8 10.6655C340.634 10.2446 340.389 9.91477 340.064 9.67614C339.739 9.4375 339.338 9.31818 338.861 9.31818C338.363 9.31818 337.949 9.44413 337.618 9.69602C337.29 9.94792 337.043 10.286 336.877 10.7102C336.715 11.1345 336.633 11.6051 336.633 12.1222C336.633 12.6525 336.716 13.1214 336.882 13.5291C337.051 13.9335 337.3 14.2517 337.628 14.4837C337.959 14.7124 338.37 14.8267 338.861 14.8267Z" fill="#636A80"/>
<defs>
<clipPath id="clip0_1647_32300">
<rect width="22" height="22" fill="white" transform="translate(90)"/>
</clipPath>
<clipPath id="clip1_1647_32300">
<rect width="22" height="22" fill="white" transform="translate(197)"/>
</clipPath>
</defs>
</svg>
