<svg width="368" height="22" viewBox="0 0 368 22" fill="none" xmlns="http://www.w3.org/2000/svg">
<path d="M19.25 9.16663C19.25 15.5833 11 21.0833 11 21.0833C11 21.0833 2.75 15.5833 2.75 9.16663C2.75 6.97859 3.61919 4.88017 5.16637 3.33299C6.71354 1.78582 8.81196 0.916626 11 0.916626C13.188 0.916626 15.2865 1.78582 16.8336 3.33299C18.3808 4.88017 19.25 6.97859 19.25 9.16663Z" stroke="#C5C9D6" stroke-width="1.5" stroke-linecap="round" stroke-linejoin="round"/>
<path d="M11 11.9166C12.5188 11.9166 13.75 10.6854 13.75 9.16663C13.75 7.64784 12.5188 6.41663 11 6.41663C9.48122 6.41663 8.25 7.64784 8.25 9.16663C8.25 10.6854 9.48122 11.9166 11 11.9166Z" stroke="#C5C9D6" stroke-width="1.5" stroke-linecap="round" stroke-linejoin="round"/>
<path d="M29.6506 16H28.358L32.0966 5.81818H33.3693L37.108 16H35.8153L32.7727 7.42898H32.6932L29.6506 16ZM30.1278 12.0227H35.3381V13.1165H30.1278V12.0227ZM43.3473 12.8778V8.36364H44.5206V16H43.3473V14.7074H43.2678C43.0888 15.0952 42.8104 15.425 42.4325 15.6967C42.0547 15.9652 41.5774 16.0994 41.0007 16.0994C40.5234 16.0994 40.0992 15.995 39.728 15.7862C39.3568 15.5741 39.0651 15.2559 38.853 14.8317C38.6409 14.4041 38.5348 13.8655 38.5348 13.2159V8.36364H39.7081V13.1364C39.7081 13.6932 39.8639 14.1373 40.1754 14.4688C40.4903 14.8002 40.8913 14.9659 41.3786 14.9659C41.6702 14.9659 41.9669 14.8913 42.2685 14.7422C42.5734 14.593 42.8286 14.3643 43.0341 14.0561C43.2429 13.7479 43.3473 13.3551 43.3473 12.8778ZM52.0787 10.0739L51.0247 10.3722C50.9584 10.1965 50.8606 10.0258 50.7314 9.86009C50.6054 9.69105 50.4331 9.55185 50.2143 9.44247C49.9956 9.3331 49.7155 9.27841 49.3741 9.27841C48.9068 9.27841 48.5173 9.38613 48.2058 9.60156C47.8975 9.81368 47.7434 10.0838 47.7434 10.4119C47.7434 10.7036 47.8495 10.9339 48.0616 11.103C48.2737 11.272 48.6052 11.4129 49.0559 11.5256L50.1895 11.804C50.8722 11.9697 51.381 12.2232 51.7157 12.5646C52.0505 12.9027 52.2179 13.3385 52.2179 13.8722C52.2179 14.3097 52.0919 14.7008 51.84 15.0455C51.5914 15.3902 51.2434 15.6619 50.796 15.8608C50.3485 16.0597 49.8282 16.1591 49.2349 16.1591C48.456 16.1591 47.8114 15.9901 47.301 15.652C46.7905 15.3139 46.4674 14.8201 46.3315 14.1705L47.4451 13.892C47.5512 14.303 47.7517 14.6113 48.0467 14.8168C48.345 15.0223 48.7344 15.125 49.215 15.125C49.7619 15.125 50.1961 15.009 50.5176 14.777C50.8424 14.5417 51.0048 14.2599 51.0048 13.9318C51.0048 13.6667 50.912 13.4446 50.7264 13.2656C50.5408 13.0833 50.2557 12.9474 49.8713 12.858L48.5985 12.5597C47.8992 12.3939 47.3855 12.1371 47.0574 11.7891C46.7325 11.4377 46.5701 10.9986 46.5701 10.4716C46.5701 10.0407 46.6911 9.65956 46.9331 9.32812C47.1783 8.99669 47.5114 8.73651 47.9324 8.54758C48.3566 8.35866 48.8372 8.2642 49.3741 8.2642C50.1298 8.2642 50.7231 8.42992 51.1539 8.76136C51.5881 9.0928 51.8964 9.5303 52.0787 10.0739ZM57.305 8.36364V9.35795H53.3477V8.36364H57.305ZM54.5011 6.53409H55.6744V13.8125C55.6744 14.1439 55.7224 14.3925 55.8185 14.5582C55.918 14.7206 56.0439 14.83 56.1964 14.8864C56.3522 14.9394 56.5162 14.9659 56.6886 14.9659C56.8178 14.9659 56.9239 14.9593 57.0067 14.946C57.0896 14.9295 57.1559 14.9162 57.2056 14.9062L57.4442 15.9602C57.3647 15.9901 57.2537 16.0199 57.1112 16.0497C56.9686 16.0829 56.788 16.0994 56.5692 16.0994C56.2378 16.0994 55.913 16.0282 55.5948 15.8857C55.2799 15.7431 55.0181 15.526 54.8093 15.2344C54.6038 14.9427 54.5011 14.5748 54.5011 14.1307V6.53409ZM59.07 16V8.36364H60.2035V9.51705H60.283C60.4222 9.1392 60.6741 8.83262 61.0387 8.5973C61.4033 8.36198 61.8143 8.24432 62.2717 8.24432C62.3578 8.24432 62.4656 8.24597 62.5948 8.24929C62.7241 8.2526 62.8219 8.25758 62.8881 8.2642V9.45739C62.8484 9.44744 62.7572 9.43253 62.6147 9.41264C62.4755 9.38944 62.328 9.37784 62.1722 9.37784C61.801 9.37784 61.4696 9.45573 61.1779 9.61151C60.8896 9.76397 60.6609 9.97609 60.4918 10.2479C60.3261 10.5163 60.2433 10.8229 60.2433 11.1676V16H59.07ZM66.5261 16.179C66.0422 16.179 65.603 16.0878 65.2086 15.9055C64.8142 15.7199 64.501 15.4531 64.269 15.1051C64.037 14.7538 63.921 14.3295 63.921 13.8324C63.921 13.3949 64.0072 13.0402 64.1795 12.7685C64.3519 12.4934 64.5822 12.2779 64.8706 12.1222C65.1589 11.9664 65.4771 11.8504 65.8251 11.7741C66.1764 11.6946 66.5294 11.6316 66.8841 11.5852C67.3481 11.5256 67.7243 11.4808 68.0126 11.451C68.3043 11.4179 68.5164 11.3632 68.649 11.2869C68.7849 11.2107 68.8528 11.0781 68.8528 10.8892V10.8494C68.8528 10.3589 68.7186 9.97775 68.4501 9.70597C68.185 9.43419 67.7823 9.2983 67.242 9.2983C66.6819 9.2983 66.2427 9.42093 65.9245 9.66619C65.6064 9.91146 65.3826 10.1733 65.2534 10.4517L64.1397 10.054C64.3386 9.58996 64.6038 9.22869 64.9352 8.97017C65.2699 8.70833 65.6345 8.52604 66.0289 8.4233C66.4267 8.31723 66.8178 8.2642 67.2022 8.2642C67.4475 8.2642 67.7292 8.29403 68.0474 8.35369C68.3689 8.41004 68.6788 8.5277 68.9771 8.70668C69.2787 8.88565 69.5289 9.15578 69.7278 9.51705C69.9267 9.87831 70.0261 10.3622 70.0261 10.9688V16H68.8528V14.9659H68.7931C68.7136 15.1316 68.581 15.3089 68.3954 15.4979C68.2098 15.6868 67.9629 15.8475 67.6547 15.9801C67.3464 16.1127 66.9702 16.179 66.5261 16.179ZM66.7051 15.125C67.1691 15.125 67.5602 15.0339 67.8784 14.8516C68.1999 14.6693 68.4418 14.4339 68.6042 14.1456C68.7699 13.8572 68.8528 13.554 68.8528 13.2358V12.1619C68.8031 12.2216 68.6937 12.2763 68.5247 12.326C68.359 12.3724 68.1667 12.4138 67.948 12.4503C67.7325 12.4834 67.5221 12.5133 67.3166 12.5398C67.1144 12.563 66.9503 12.5829 66.8244 12.5994C66.5195 12.6392 66.2344 12.7038 65.9693 12.7933C65.7074 12.8795 65.4953 13.0104 65.3329 13.1861C65.1738 13.3584 65.0943 13.5937 65.0943 13.892C65.0943 14.2997 65.2451 14.608 65.5467 14.8168C65.8516 15.0223 66.2377 15.125 66.7051 15.125ZM73.3409 5.81818V16H72.1676V5.81818H73.3409ZM75.4899 16V8.36364H76.6632V16H75.4899ZM76.0865 7.09091C75.8578 7.09091 75.6606 7.01302 75.4949 6.85724C75.3324 6.70147 75.2512 6.5142 75.2512 6.29545C75.2512 6.0767 75.3324 5.88944 75.4949 5.73366C75.6606 5.57789 75.8578 5.5 76.0865 5.5C76.3152 5.5 76.5107 5.57789 76.6731 5.73366C76.8388 5.88944 76.9217 6.0767 76.9217 6.29545C76.9217 6.5142 76.8388 6.70147 76.6731 6.85724C76.5107 7.01302 76.3152 7.09091 76.0865 7.09091ZM81.0593 16.179C80.5754 16.179 80.1362 16.0878 79.7418 15.9055C79.3474 15.7199 79.0342 15.4531 78.8022 15.1051C78.5702 14.7538 78.4542 14.3295 78.4542 13.8324C78.4542 13.3949 78.5404 13.0402 78.7127 12.7685C78.8851 12.4934 79.1154 12.2779 79.4038 12.1222C79.6921 11.9664 80.0103 11.8504 80.3583 11.7741C80.7096 11.6946 81.0626 11.6316 81.4173 11.5852C81.8813 11.5256 82.2575 11.4808 82.5458 11.451C82.8375 11.4179 83.0496 11.3632 83.1822 11.2869C83.3181 11.2107 83.386 11.0781 83.386 10.8892V10.8494C83.386 10.3589 83.2518 9.97775 82.9833 9.70597C82.7182 9.43419 82.3155 9.2983 81.7752 9.2983C81.2151 9.2983 80.7759 9.42093 80.4577 9.66619C80.1396 9.91146 79.9158 10.1733 79.7866 10.4517L78.6729 10.054C78.8718 9.58996 79.137 9.22869 79.4684 8.97017C79.8031 8.70833 80.1677 8.52604 80.5621 8.4233C80.9599 8.31723 81.351 8.2642 81.7354 8.2642C81.9807 8.2642 82.2624 8.29403 82.5806 8.35369C82.9021 8.41004 83.212 8.5277 83.5103 8.70668C83.8119 8.88565 84.0621 9.15578 84.261 9.51705C84.4599 9.87831 84.5593 10.3622 84.5593 10.9688V16H83.386V14.9659H83.3263C83.2468 15.1316 83.1142 15.3089 82.9286 15.4979C82.743 15.6868 82.4961 15.8475 82.1879 15.9801C81.8796 16.1127 81.5034 16.179 81.0593 16.179ZM81.2383 15.125C81.7023 15.125 82.0934 15.0339 82.4116 14.8516C82.7331 14.6693 82.975 14.4339 83.1374 14.1456C83.3031 13.8572 83.386 13.554 83.386 13.2358V12.1619C83.3363 12.2216 83.2269 12.2763 83.0579 12.326C82.8922 12.3724 82.6999 12.4138 82.4812 12.4503C82.2657 12.4834 82.0553 12.5133 81.8498 12.5398C81.6476 12.563 81.4835 12.5829 81.3576 12.5994C81.0527 12.6392 80.7676 12.7038 80.5025 12.7933C80.2406 12.8795 80.0285 13.0104 79.8661 13.1861C79.707 13.3584 79.6275 13.5937 79.6275 13.892C79.6275 14.2997 79.7783 14.608 80.0799 14.8168C80.3848 15.0223 80.771 15.125 81.2383 15.125Z" fill="#636A80"/>
<g clip-path="url(#clip0_1647_32157)">
<path d="M113 2.0625V19.9375" stroke="#C5C9D6" stroke-width="1.5" stroke-linecap="round" stroke-linejoin="round"/>
<path d="M117.812 7.5625C117.812 7.11108 117.724 6.66408 117.551 6.24703C117.378 5.82997 117.125 5.45102 116.806 5.13182C116.486 4.81262 116.108 4.55941 115.69 4.38666C115.273 4.21391 114.826 4.125 114.375 4.125H111.281C110.37 4.125 109.495 4.48716 108.851 5.13182C108.206 5.77648 107.844 6.65082 107.844 7.5625C107.844 8.47418 108.206 9.34852 108.851 9.99318C109.495 10.6378 110.37 11 111.281 11H115.062C115.974 11 116.849 11.3622 117.493 12.0068C118.138 12.6515 118.5 13.5258 118.5 14.4375C118.5 15.3492 118.138 16.2235 117.493 16.8682C116.849 17.5128 115.974 17.875 115.062 17.875H110.938C110.026 17.875 109.151 17.5128 108.507 16.8682C107.862 16.2235 107.5 15.3492 107.5 14.4375" stroke="#C5C9D6" stroke-width="1.5" stroke-linecap="round" stroke-linejoin="round"/>
</g>
<path d="M132.057 17.2727V4.54545H132.872V17.2727H132.057ZM134.801 8.36364C134.741 7.85985 134.5 7.46875 134.075 7.19034C133.651 6.91193 133.131 6.77273 132.514 6.77273C132.063 6.77273 131.669 6.84564 131.331 6.99148C130.996 7.13731 130.734 7.33783 130.545 7.59304C130.36 7.84825 130.267 8.13826 130.267 8.46307C130.267 8.73485 130.332 8.96851 130.461 9.16406C130.594 9.3563 130.763 9.51705 130.968 9.64631C131.174 9.77225 131.389 9.87666 131.614 9.95952C131.84 10.0391 132.047 10.1037 132.236 10.1534L133.27 10.4318C133.535 10.5014 133.83 10.5975 134.155 10.7202C134.483 10.8428 134.796 11.0102 135.094 11.2223C135.396 11.4311 135.645 11.6996 135.84 12.0277C136.036 12.3558 136.134 12.7585 136.134 13.2358C136.134 13.786 135.989 14.2831 135.701 14.7273C135.416 15.1714 134.998 15.5244 134.448 15.7862C133.901 16.0481 133.237 16.179 132.455 16.179C131.725 16.179 131.094 16.0613 130.56 15.826C130.03 15.5907 129.612 15.2625 129.308 14.8416C129.006 14.4207 128.835 13.9318 128.795 13.375H130.068C130.101 13.7595 130.231 14.0777 130.456 14.3295C130.685 14.5781 130.973 14.7637 131.321 14.8864C131.672 15.0057 132.05 15.0653 132.455 15.0653C132.925 15.0653 133.348 14.9891 133.722 14.8366C134.097 14.6809 134.393 14.4654 134.612 14.1903C134.831 13.9119 134.94 13.5871 134.94 13.2159C134.94 12.8778 134.846 12.6027 134.657 12.3906C134.468 12.1785 134.219 12.0062 133.911 11.8736C133.603 11.741 133.27 11.625 132.912 11.5256L131.659 11.1676C130.864 10.9389 130.234 10.6125 129.77 10.1882C129.306 9.76397 129.074 9.20881 129.074 8.52273C129.074 7.95265 129.228 7.45549 129.536 7.03125C129.848 6.60369 130.265 6.27225 130.789 6.03693C131.316 5.7983 131.904 5.67898 132.554 5.67898C133.21 5.67898 133.794 5.79664 134.304 6.03196C134.814 6.26397 135.219 6.58215 135.517 6.98651C135.819 7.39086 135.978 7.8499 135.994 8.36364H134.801ZM141.422 16.1392C140.766 16.1392 140.181 16.0265 139.667 15.8011C139.157 15.5758 138.751 15.2625 138.449 14.8615C138.151 14.4571 137.988 13.9882 137.962 13.4545H139.215C139.241 13.7827 139.354 14.0661 139.553 14.3047C139.752 14.54 140.012 14.7223 140.333 14.8516C140.655 14.9808 141.011 15.0455 141.402 15.0455C141.84 15.0455 142.227 14.9692 142.566 14.8168C142.904 14.6643 143.169 14.4522 143.361 14.1804C143.553 13.9086 143.649 13.5938 143.649 13.2358C143.649 12.8613 143.557 12.5315 143.371 12.2464C143.185 11.9581 142.914 11.7327 142.556 11.5703C142.198 11.4079 141.76 11.3267 141.243 11.3267H140.428V10.233H141.243C141.647 10.233 142.002 10.16 142.307 10.0142C142.615 9.86837 142.856 9.66288 143.028 9.39773C143.204 9.13258 143.291 8.82102 143.291 8.46307C143.291 8.11837 143.215 7.81842 143.063 7.56321C142.91 7.308 142.695 7.10914 142.416 6.96662C142.141 6.8241 141.816 6.75284 141.442 6.75284C141.091 6.75284 140.759 6.81747 140.448 6.94673C140.139 7.07268 139.887 7.25663 139.692 7.49858C139.496 7.73722 139.39 8.02557 139.374 8.36364H138.181C138.2 7.83002 138.361 7.36269 138.663 6.96165C138.964 6.55729 139.359 6.24242 139.846 6.01705C140.337 5.79167 140.875 5.67898 141.462 5.67898C142.092 5.67898 142.632 5.80658 143.083 6.06179C143.533 6.31368 143.88 6.64678 144.122 7.06108C144.364 7.47538 144.485 7.92282 144.485 8.40341C144.485 8.9768 144.334 9.46567 144.032 9.87003C143.734 10.2744 143.328 10.5545 142.814 10.7102V10.7898C143.457 10.8958 143.959 11.1693 144.32 11.6101C144.682 12.0476 144.862 12.5895 144.862 13.2358C144.862 13.7893 144.712 14.2865 144.41 14.7273C144.112 15.1648 143.704 15.5095 143.187 15.7614C142.67 16.0133 142.082 16.1392 141.422 16.1392ZM150.217 16.1392C149.468 16.1392 148.83 15.9354 148.303 15.5277C147.776 15.1167 147.373 14.5218 147.095 13.7429C146.816 12.9607 146.677 12.0161 146.677 10.9091C146.677 9.80871 146.816 8.86908 147.095 8.0902C147.376 7.308 147.781 6.71141 148.308 6.30043C148.838 5.88613 149.474 5.67898 150.217 5.67898C150.959 5.67898 151.594 5.88613 152.121 6.30043C152.651 6.71141 153.056 7.308 153.334 8.0902C153.616 8.86908 153.757 9.80871 153.757 10.9091C153.757 12.0161 153.617 12.9607 153.339 13.7429C153.061 14.5218 152.658 15.1167 152.131 15.5277C151.604 15.9354 150.966 16.1392 150.217 16.1392ZM150.217 15.0455C150.959 15.0455 151.536 14.6875 151.947 13.9716C152.358 13.2557 152.563 12.2348 152.563 10.9091C152.563 10.0275 152.469 9.27675 152.28 8.65696C152.094 8.03717 151.826 7.56487 151.475 7.24006C151.127 6.91525 150.707 6.75284 150.217 6.75284C149.481 6.75284 148.906 7.11577 148.492 7.84162C148.077 8.56416 147.87 9.58665 147.87 10.9091C147.87 11.7907 147.963 12.5398 148.149 13.1562C148.334 13.7727 148.601 14.2417 148.949 14.5632C149.3 14.8847 149.723 15.0455 150.217 15.0455ZM155.825 16V5.81818H157.058V10.8693H157.177L161.751 5.81818H163.362L159.086 10.4119L163.362 16H161.87L158.33 11.267L157.058 12.6989V16H155.825ZM167.656 10.3622V11.456H163.201V10.3622H167.656ZM172.703 17.2727V4.54545H173.519V17.2727H172.703ZM175.448 8.36364C175.388 7.85985 175.146 7.46875 174.722 7.19034C174.298 6.91193 173.777 6.77273 173.161 6.77273C172.71 6.77273 172.316 6.84564 171.977 6.99148C171.643 7.13731 171.381 7.33783 171.192 7.59304C171.006 7.84825 170.914 8.13826 170.914 8.46307C170.914 8.73485 170.978 8.96851 171.107 9.16406C171.24 9.3563 171.409 9.51705 171.615 9.64631C171.82 9.77225 172.035 9.87666 172.261 9.95952C172.486 10.0391 172.693 10.1037 172.882 10.1534L173.916 10.4318C174.182 10.5014 174.477 10.5975 174.801 10.7202C175.129 10.8428 175.443 11.0102 175.741 11.2223C176.043 11.4311 176.291 11.6996 176.487 12.0277C176.682 12.3558 176.78 12.7585 176.78 13.2358C176.78 13.786 176.636 14.2831 176.347 14.7273C176.062 15.1714 175.645 15.5244 175.095 15.7862C174.548 16.0481 173.883 16.179 173.101 16.179C172.372 16.179 171.74 16.0613 171.207 15.826C170.677 15.5907 170.259 15.2625 169.954 14.8416C169.652 14.4207 169.482 13.9318 169.442 13.375H170.715C170.748 13.7595 170.877 14.0777 171.102 14.3295C171.331 14.5781 171.619 14.7637 171.968 14.8864C172.319 15.0057 172.697 15.0653 173.101 15.0653C173.572 15.0653 173.994 14.9891 174.369 14.8366C174.743 14.6809 175.04 14.4654 175.259 14.1903C175.477 13.9119 175.587 13.5871 175.587 13.2159C175.587 12.8778 175.492 12.6027 175.303 12.3906C175.115 12.1785 174.866 12.0062 174.558 11.8736C174.249 11.741 173.916 11.625 173.558 11.5256L172.306 11.1676C171.51 10.9389 170.88 10.6125 170.416 10.1882C169.952 9.76397 169.72 9.20881 169.72 8.52273C169.72 7.95265 169.874 7.45549 170.183 7.03125C170.494 6.60369 170.912 6.27225 171.436 6.03693C171.963 5.7983 172.551 5.67898 173.2 5.67898C173.857 5.67898 174.44 5.79664 174.95 6.03196C175.461 6.26397 175.865 6.58215 176.164 6.98651C176.465 7.39086 176.624 7.8499 176.641 8.36364H175.448ZM182.069 16.1392C181.412 16.1392 180.827 16.0265 180.314 15.8011C179.803 15.5758 179.397 15.2625 179.096 14.8615C178.797 14.4571 178.635 13.9882 178.608 13.4545H179.861C179.888 13.7827 180 14.0661 180.199 14.3047C180.398 14.54 180.658 14.7223 180.98 14.8516C181.301 14.9808 181.658 15.0455 182.049 15.0455C182.486 15.0455 182.874 14.9692 183.212 14.8168C183.55 14.6643 183.815 14.4522 184.007 14.1804C184.2 13.9086 184.296 13.5938 184.296 13.2358C184.296 12.8613 184.203 12.5315 184.017 12.2464C183.832 11.9581 183.56 11.7327 183.202 11.5703C182.844 11.4079 182.407 11.3267 181.89 11.3267H181.074V10.233H181.89C182.294 10.233 182.649 10.16 182.953 10.0142C183.262 9.86837 183.502 9.66288 183.674 9.39773C183.85 9.13258 183.938 8.82102 183.938 8.46307C183.938 8.11837 183.862 7.81842 183.709 7.56321C183.557 7.308 183.341 7.10914 183.063 6.96662C182.788 6.8241 182.463 6.75284 182.088 6.75284C181.737 6.75284 181.406 6.81747 181.094 6.94673C180.786 7.07268 180.534 7.25663 180.338 7.49858C180.143 7.73722 180.037 8.02557 180.02 8.36364H178.827C178.847 7.83002 179.008 7.36269 179.309 6.96165C179.611 6.55729 180.005 6.24242 180.493 6.01705C180.983 5.79167 181.522 5.67898 182.108 5.67898C182.738 5.67898 183.278 5.80658 183.729 6.06179C184.18 6.31368 184.526 6.64678 184.768 7.06108C185.01 7.47538 185.131 7.92282 185.131 8.40341C185.131 8.9768 184.98 9.46567 184.679 9.87003C184.38 10.2744 183.974 10.5545 183.461 10.7102V10.7898C184.104 10.8958 184.606 11.1693 184.967 11.6101C185.328 12.0476 185.509 12.5895 185.509 13.2358C185.509 13.7893 185.358 14.2865 185.056 14.7273C184.758 15.1648 184.35 15.5095 183.833 15.7614C183.316 16.0133 182.728 16.1392 182.069 16.1392ZM190.724 16.1392C190.141 16.1392 189.615 16.0232 189.148 15.7912C188.681 15.5592 188.306 15.241 188.025 14.8366C187.743 14.4323 187.589 13.9716 187.562 13.4545H188.755C188.802 13.9152 189.011 14.2964 189.382 14.598C189.756 14.8963 190.204 15.0455 190.724 15.0455C191.142 15.0455 191.513 14.9477 191.838 14.7521C192.166 14.5566 192.423 14.2881 192.608 13.9467C192.797 13.602 192.892 13.2126 192.892 12.7784C192.892 12.3343 192.794 11.9382 192.598 11.5902C192.406 11.2389 192.141 10.9621 191.803 10.7599C191.465 10.5578 191.079 10.455 190.645 10.4517C190.333 10.4484 190.013 10.4964 189.685 10.5959C189.357 10.692 189.087 10.8163 188.875 10.9688L187.721 10.8295L188.338 5.81818H193.627V6.91193H189.372L189.014 9.91477H189.074C189.282 9.74905 189.544 9.61151 189.859 9.50213C190.174 9.39276 190.502 9.33807 190.843 9.33807C191.467 9.33807 192.022 9.48722 192.509 9.78551C192.999 10.0805 193.384 10.4848 193.662 10.9986C193.944 11.5123 194.085 12.099 194.085 12.7585C194.085 13.4081 193.939 13.9882 193.647 14.4986C193.359 15.0057 192.961 15.4067 192.454 15.7017C191.947 15.9934 191.37 16.1392 190.724 16.1392ZM196.239 16V5.81818H197.472V10.8693H197.591L202.165 5.81818H203.776L199.5 10.4119L203.776 16H202.284L198.744 11.267L197.472 12.6989V16H196.239Z" fill="#636A80"/>
<g clip-path="url(#clip1_1647_32157)">
<path d="M238.875 3.4375H225.125C224.745 3.4375 224.438 3.7453 224.438 4.125V17.875C224.438 18.2547 224.745 18.5625 225.125 18.5625H238.875C239.255 18.5625 239.562 18.2547 239.562 17.875V4.125C239.562 3.7453 239.255 3.4375 238.875 3.4375Z" stroke="#C5C9D6" stroke-width="1.5" stroke-linecap="round" stroke-linejoin="round"/>
<path d="M236.125 2.0625V4.8125" stroke="#C5C9D6" stroke-width="1.5" stroke-linecap="round" stroke-linejoin="round"/>
<path d="M227.875 2.0625V4.8125" stroke="#C5C9D6" stroke-width="1.5" stroke-linecap="round" stroke-linejoin="round"/>
<path d="M224.438 7.5625H239.562" stroke="#C5C9D6" stroke-width="1.5" stroke-linecap="round" stroke-linejoin="round"/>
</g>
<path d="M249.815 13.9119V12.8977L254.29 5.81818H255.026V7.3892H254.528L251.148 12.7386V12.8182H257.173V13.9119H249.815ZM254.608 16V13.6037V13.1314V5.81818H255.781V16H254.608ZM266.295 16H263.153V5.81818H266.434C267.422 5.81818 268.267 6.02202 268.97 6.42969C269.672 6.83404 270.211 7.41572 270.585 8.17472C270.96 8.9304 271.147 9.83523 271.147 10.8892C271.147 11.9498 270.958 12.8629 270.58 13.6286C270.203 14.3909 269.652 14.9775 268.93 15.3885C268.207 15.7962 267.329 16 266.295 16ZM264.386 14.9062H266.215C267.057 14.9062 267.755 14.7438 268.308 14.419C268.862 14.0942 269.275 13.6319 269.546 13.032C269.818 12.4321 269.954 11.7178 269.954 10.8892C269.954 10.0672 269.82 9.35961 269.551 8.76633C269.283 8.16974 268.882 7.71236 268.348 7.39418C267.815 7.07268 267.15 6.91193 266.355 6.91193H264.386V14.9062ZM275.303 16.179C274.82 16.179 274.38 16.0878 273.986 15.9055C273.592 15.7199 273.278 15.4531 273.046 15.1051C272.814 14.7538 272.698 14.3295 272.698 13.8324C272.698 13.3949 272.785 13.0402 272.957 12.7685C273.129 12.4934 273.36 12.2779 273.648 12.1222C273.936 11.9664 274.254 11.8504 274.602 11.7741C274.954 11.6946 275.307 11.6316 275.661 11.5852C276.125 11.5256 276.502 11.4808 276.79 11.451C277.082 11.4179 277.294 11.3632 277.426 11.2869C277.562 11.2107 277.63 11.0781 277.63 10.8892V10.8494C277.63 10.3589 277.496 9.97775 277.227 9.70597C276.962 9.43419 276.56 9.2983 276.019 9.2983C275.459 9.2983 275.02 9.42093 274.702 9.66619C274.384 9.91146 274.16 10.1733 274.031 10.4517L272.917 10.054C273.116 9.58996 273.381 9.22869 273.713 8.97017C274.047 8.70833 274.412 8.52604 274.806 8.4233C275.204 8.31723 275.595 8.2642 275.98 8.2642C276.225 8.2642 276.507 8.29403 276.825 8.35369C277.146 8.41004 277.456 8.5277 277.754 8.70668C278.056 8.88565 278.306 9.15578 278.505 9.51705C278.704 9.87831 278.803 10.3622 278.803 10.9688V16H277.63V14.9659H277.57C277.491 15.1316 277.358 15.3089 277.173 15.4979C276.987 15.6868 276.74 15.8475 276.432 15.9801C276.124 16.1127 275.748 16.179 275.303 16.179ZM275.482 15.125C275.946 15.125 276.338 15.0339 276.656 14.8516C276.977 14.6693 277.219 14.4339 277.382 14.1456C277.547 13.8572 277.63 13.554 277.63 13.2358V12.1619C277.58 12.2216 277.471 12.2763 277.302 12.326C277.136 12.3724 276.944 12.4138 276.725 12.4503C276.51 12.4834 276.299 12.5133 276.094 12.5398C275.892 12.563 275.728 12.5829 275.602 12.5994C275.297 12.6392 275.012 12.7038 274.747 12.7933C274.485 12.8795 274.273 13.0104 274.11 13.1861C273.951 13.3584 273.872 13.5937 273.872 13.892C273.872 14.2997 274.022 14.608 274.324 14.8168C274.629 15.0223 275.015 15.125 275.482 15.125ZM281.427 18.8636C281.228 18.8636 281.051 18.8471 280.895 18.8139C280.739 18.7841 280.632 18.7543 280.572 18.7244L280.87 17.6903C281.155 17.7633 281.407 17.7898 281.626 17.7699C281.845 17.75 282.039 17.6522 282.208 17.4766C282.38 17.3042 282.538 17.0241 282.68 16.6364L282.899 16.0398L280.075 8.36364H281.348L283.456 14.4489H283.535L285.643 8.36364H286.916L283.674 17.1136C283.529 17.508 283.348 17.8345 283.132 18.093C282.917 18.3549 282.667 18.5488 282.382 18.6747C282.1 18.8007 281.782 18.8636 281.427 18.8636ZM293.874 10.0739L292.82 10.3722C292.753 10.1965 292.656 10.0258 292.526 9.86009C292.4 9.69105 292.228 9.55185 292.009 9.44247C291.79 9.3331 291.51 9.27841 291.169 9.27841C290.702 9.27841 290.312 9.38613 290.001 9.60156C289.692 9.81368 289.538 10.0838 289.538 10.4119C289.538 10.7036 289.644 10.9339 289.857 11.103C290.069 11.272 290.4 11.4129 290.851 11.5256L291.984 11.804C292.667 11.9697 293.176 12.2232 293.511 12.5646C293.845 12.9027 294.013 13.3385 294.013 13.8722C294.013 14.3097 293.887 14.7008 293.635 15.0455C293.386 15.3902 293.038 15.6619 292.591 15.8608C292.143 16.0597 291.623 16.1591 291.03 16.1591C290.251 16.1591 289.606 15.9901 289.096 15.652C288.585 15.3139 288.262 14.8201 288.126 14.1705L289.24 13.892C289.346 14.303 289.547 14.6113 289.842 14.8168C290.14 15.0223 290.529 15.125 291.01 15.125C291.557 15.125 291.991 15.009 292.312 14.777C292.637 14.5417 292.8 14.2599 292.8 13.9318C292.8 13.6667 292.707 13.4446 292.521 13.2656C292.336 13.0833 292.051 12.9474 291.666 12.858L290.393 12.5597C289.694 12.3939 289.18 12.1371 288.852 11.7891C288.527 11.4377 288.365 10.9986 288.365 10.4716C288.365 10.0407 288.486 9.65956 288.728 9.32812C288.973 8.99669 289.306 8.73651 289.727 8.54758C290.152 8.35866 290.632 8.2642 291.169 8.2642C291.925 8.2642 292.518 8.42992 292.949 8.76136C293.383 9.0928 293.691 9.5303 293.874 10.0739ZM299.876 16V5.81818H303.316C304.111 5.81818 304.764 5.95407 305.275 6.22585C305.785 6.49432 306.163 6.86387 306.408 7.33452C306.653 7.80516 306.776 8.34044 306.776 8.94034C306.776 9.54025 306.653 10.0722 306.408 10.5362C306.163 11.0002 305.787 11.3648 305.28 11.63C304.773 11.8918 304.125 12.0227 303.336 12.0227H300.552V10.9091H303.296C303.84 10.9091 304.277 10.8295 304.608 10.6705C304.943 10.5114 305.185 10.286 305.334 9.99432C305.487 9.69934 305.563 9.34801 305.563 8.94034C305.563 8.53267 305.487 8.17637 305.334 7.87145C305.182 7.56652 304.938 7.3312 304.604 7.16548C304.269 6.99645 303.826 6.91193 303.276 6.91193H301.108V16H299.876ZM304.668 11.4261L307.174 16H305.742L303.276 11.4261H304.668ZM311.791 16.1591C311.055 16.1591 310.421 15.9967 309.887 15.6719C309.357 15.3438 308.947 14.8864 308.659 14.2997C308.374 13.7098 308.232 13.0237 308.232 12.2415C308.232 11.4593 308.374 10.7699 308.659 10.1733C308.947 9.57339 309.348 9.10606 309.862 8.77131C310.379 8.43324 310.982 8.2642 311.672 8.2642C312.07 8.2642 312.462 8.33049 312.85 8.46307C313.238 8.59564 313.591 8.81108 313.909 9.10938C314.227 9.40436 314.481 9.79545 314.67 10.2827C314.859 10.7699 314.953 11.3698 314.953 12.0824V12.5795H309.067V11.5653H313.76C313.76 11.1345 313.674 10.75 313.501 10.4119C313.332 10.0739 313.09 9.80705 312.776 9.61151C312.464 9.41596 312.096 9.31818 311.672 9.31818C311.205 9.31818 310.8 9.43419 310.459 9.66619C310.121 9.89489 309.861 10.1932 309.678 10.5611C309.496 10.929 309.405 11.3234 309.405 11.7443V12.4205C309.405 12.9972 309.504 13.486 309.703 13.8871C309.905 14.2848 310.185 14.5881 310.543 14.7969C310.901 15.0024 311.317 15.1051 311.791 15.1051C312.099 15.1051 312.378 15.062 312.626 14.9759C312.878 14.8864 313.095 14.7538 313.278 14.5781C313.46 14.3991 313.601 14.1771 313.7 13.9119L314.834 14.2301C314.714 14.6146 314.514 14.9527 314.232 15.2443C313.951 15.5327 313.603 15.758 313.188 15.9205C312.774 16.0795 312.308 16.1591 311.791 16.1591ZM316.738 16V8.36364H317.871V9.55682H317.971C318.13 9.14915 318.387 8.83262 318.741 8.60724C319.096 8.37855 319.522 8.2642 320.019 8.2642C320.523 8.2642 320.942 8.37855 321.277 8.60724C321.615 8.83262 321.879 9.14915 322.067 9.55682H322.147C322.343 9.16241 322.636 8.84919 323.027 8.61719C323.418 8.38187 323.887 8.2642 324.434 8.2642C325.117 8.2642 325.675 8.47798 326.109 8.90554C326.544 9.32978 326.761 9.991 326.761 10.8892V16H325.587V10.8892C325.587 10.3258 325.433 9.92306 325.125 9.68111C324.817 9.43916 324.454 9.31818 324.036 9.31818C323.499 9.31818 323.083 9.48059 322.788 9.8054C322.493 10.1269 322.346 10.5346 322.346 11.0284V16H321.153V10.7699C321.153 10.3357 321.012 9.98603 320.73 9.72088C320.448 9.45241 320.085 9.31818 319.641 9.31818C319.336 9.31818 319.051 9.39938 318.786 9.56179C318.524 9.72419 318.312 9.94957 318.15 10.2379C317.991 10.523 317.911 10.8527 317.911 11.2273V16H316.738ZM331.153 16.179C330.669 16.179 330.23 16.0878 329.836 15.9055C329.441 15.7199 329.128 15.4531 328.896 15.1051C328.664 14.7538 328.548 14.3295 328.548 13.8324C328.548 13.3949 328.634 13.0402 328.806 12.7685C328.979 12.4934 329.209 12.2779 329.498 12.1222C329.786 11.9664 330.104 11.8504 330.452 11.7741C330.803 11.6946 331.156 11.6316 331.511 11.5852C331.975 11.5256 332.351 11.4808 332.64 11.451C332.931 11.4179 333.143 11.3632 333.276 11.2869C333.412 11.2107 333.48 11.0781 333.48 10.8892V10.8494C333.48 10.3589 333.346 9.97775 333.077 9.70597C332.812 9.43419 332.409 9.2983 331.869 9.2983C331.309 9.2983 330.87 9.42093 330.551 9.66619C330.233 9.91146 330.01 10.1733 329.88 10.4517L328.767 10.054C328.966 9.58996 329.231 9.22869 329.562 8.97017C329.897 8.70833 330.261 8.52604 330.656 8.4233C331.054 8.31723 331.445 8.2642 331.829 8.2642C332.074 8.2642 332.356 8.29403 332.674 8.35369C332.996 8.41004 333.306 8.5277 333.604 8.70668C333.906 8.88565 334.156 9.15578 334.355 9.51705C334.554 9.87831 334.653 10.3622 334.653 10.9688V16H333.48V14.9659H333.42C333.341 15.1316 333.208 15.3089 333.022 15.4979C332.837 15.6868 332.59 15.8475 332.282 15.9801C331.973 16.1127 331.597 16.179 331.153 16.179ZM331.332 15.125C331.796 15.125 332.187 15.0339 332.505 14.8516C332.827 14.6693 333.069 14.4339 333.231 14.1456C333.397 13.8572 333.48 13.554 333.48 13.2358V12.1619C333.43 12.2216 333.321 12.2763 333.152 12.326C332.986 12.3724 332.794 12.4138 332.575 12.4503C332.359 12.4834 332.149 12.5133 331.944 12.5398C331.741 12.563 331.577 12.5829 331.451 12.5994C331.146 12.6392 330.861 12.7038 330.596 12.7933C330.334 12.8795 330.122 13.0104 329.96 13.1861C329.801 13.3584 329.721 13.5937 329.721 13.892C329.721 14.2997 329.872 14.608 330.174 14.8168C330.479 15.0223 330.865 15.125 331.332 15.125ZM336.795 16V8.36364H337.968V16H336.795ZM337.391 7.09091C337.162 7.09091 336.965 7.01302 336.8 6.85724C336.637 6.70147 336.556 6.5142 336.556 6.29545C336.556 6.0767 336.637 5.88944 336.8 5.73366C336.965 5.57789 337.162 5.5 337.391 5.5C337.62 5.5 337.815 5.57789 337.978 5.73366C338.144 5.88944 338.226 6.0767 338.226 6.29545C338.226 6.5142 338.144 6.70147 337.978 6.85724C337.815 7.01302 337.62 7.09091 337.391 7.09091ZM341.29 11.4062V16H340.117V8.36364H341.25V9.55682H341.35C341.529 9.16903 341.801 8.85748 342.165 8.62216C342.53 8.38352 343 8.2642 343.577 8.2642C344.094 8.2642 344.547 8.37027 344.934 8.58239C345.322 8.79119 345.624 9.10938 345.839 9.53693C346.055 9.96117 346.162 10.4981 346.162 11.1477V16H344.989V11.2273C344.989 10.6274 344.833 10.16 344.522 9.82528C344.21 9.48722 343.783 9.31818 343.239 9.31818C342.864 9.31818 342.53 9.39938 342.235 9.56179C341.943 9.72419 341.713 9.96117 341.544 10.2727C341.375 10.5843 341.29 10.9621 341.29 11.4062ZM348.306 16V8.36364H349.48V16H348.306ZM348.903 7.09091C348.674 7.09091 348.477 7.01302 348.311 6.85724C348.149 6.70147 348.068 6.5142 348.068 6.29545C348.068 6.0767 348.149 5.88944 348.311 5.73366C348.477 5.57789 348.674 5.5 348.903 5.5C349.132 5.5 349.327 5.57789 349.49 5.73366C349.655 5.88944 349.738 6.0767 349.738 6.29545C349.738 6.5142 349.655 6.70147 349.49 6.85724C349.327 7.01302 349.132 7.09091 348.903 7.09091ZM352.802 11.4062V16H351.629V8.36364H352.762V9.55682H352.862C353.04 9.16903 353.312 8.85748 353.677 8.62216C354.041 8.38352 354.512 8.2642 355.089 8.2642C355.606 8.2642 356.058 8.37027 356.446 8.58239C356.834 8.79119 357.135 9.10938 357.351 9.53693C357.566 9.96117 357.674 10.4981 357.674 11.1477V16H356.501V11.2273C356.501 10.6274 356.345 10.16 356.033 9.82528C355.722 9.48722 355.294 9.31818 354.751 9.31818C354.376 9.31818 354.041 9.39938 353.746 9.56179C353.455 9.72419 353.224 9.96117 353.055 10.2727C352.886 10.5843 352.802 10.9621 352.802 11.4062ZM362.9 19.0227C362.334 19.0227 361.846 18.9498 361.439 18.804C361.031 18.6615 360.691 18.4725 360.42 18.2372C360.151 18.0052 359.937 17.7566 359.778 17.4915L360.713 16.8352C360.819 16.9744 360.953 17.1335 361.116 17.3125C361.278 17.4948 361.5 17.6522 361.782 17.7848C362.067 17.9207 362.44 17.9886 362.9 17.9886C363.517 17.9886 364.026 17.8395 364.427 17.5412C364.828 17.2429 365.028 16.7756 365.028 16.1392V14.5881H364.929C364.843 14.7273 364.72 14.8996 364.561 15.1051C364.405 15.3073 364.18 15.4879 363.885 15.647C363.593 15.8028 363.199 15.8807 362.702 15.8807C362.085 15.8807 361.532 15.7348 361.041 15.4432C360.554 15.1515 360.168 14.7273 359.883 14.1705C359.601 13.6136 359.46 12.9375 359.46 12.142C359.46 11.3598 359.598 10.6787 359.873 10.0987C360.148 9.51539 360.531 9.06463 361.021 8.74645C361.512 8.42495 362.078 8.2642 362.721 8.2642C363.219 8.2642 363.613 8.34706 363.905 8.51278C364.2 8.67519 364.425 8.8608 364.581 9.0696C364.74 9.27509 364.863 9.44413 364.949 9.5767H365.068V8.36364H366.202V16.2188C366.202 16.875 366.052 17.4086 365.754 17.8196C365.459 18.2339 365.061 18.5372 364.561 18.7294C364.064 18.925 363.51 19.0227 362.9 19.0227ZM362.861 14.8267C363.331 14.8267 363.729 14.719 364.054 14.5036C364.379 14.2881 364.626 13.9782 364.795 13.5739C364.964 13.1695 365.048 12.6856 365.048 12.1222C365.048 11.572 364.965 11.0864 364.8 10.6655C364.634 10.2446 364.389 9.91477 364.064 9.67614C363.739 9.4375 363.338 9.31818 362.861 9.31818C362.363 9.31818 361.949 9.44413 361.618 9.69602C361.29 9.94792 361.043 10.286 360.877 10.7102C360.715 11.1345 360.633 11.6051 360.633 12.1222C360.633 12.6525 360.716 13.1214 360.882 13.5291C361.051 13.9335 361.3 14.2517 361.628 14.4837C361.959 14.7124 362.37 14.8267 362.861 14.8267Z" fill="#636A80"/>
<defs>
<clipPath id="clip0_1647_32157">
<rect width="22" height="22" fill="white" transform="translate(102)"/>
</clipPath>
<clipPath id="clip1_1647_32157">
<rect width="22" height="22" fill="white" transform="translate(221)"/>
</clipPath>
</defs>
</svg>
