<svg width="359" height="22" viewBox="0 0 359 22" fill="none" xmlns="http://www.w3.org/2000/svg">
<path d="M19.25 9.16663C19.25 15.5833 11 21.0833 11 21.0833C11 21.0833 2.75 15.5833 2.75 9.16663C2.75 6.97859 3.61919 4.88017 5.16637 3.33299C6.71354 1.78582 8.81196 0.916626 11 0.916626C13.188 0.916626 15.2865 1.78582 16.8336 3.33299C18.3808 4.88017 19.25 6.97859 19.25 9.16663Z" stroke="#C5C9D6" stroke-width="1.5" stroke-linecap="round" stroke-linejoin="round"/>
<path d="M11 11.9166C12.5188 11.9166 13.75 10.6854 13.75 9.16663C13.75 7.64784 12.5188 6.41663 11 6.41663C9.48122 6.41663 8.25 7.64784 8.25 9.16663C8.25 10.6854 9.48122 11.9166 11 11.9166Z" stroke="#C5C9D6" stroke-width="1.5" stroke-linecap="round" stroke-linejoin="round"/>
<path d="M37.4261 9H36.1932C36.1203 8.64536 35.9927 8.33381 35.8104 8.06534C35.6314 7.79688 35.4126 7.5715 35.1541 7.3892C34.8989 7.2036 34.6155 7.06439 34.304 6.97159C33.9924 6.87879 33.6676 6.83239 33.3295 6.83239C32.7131 6.83239 32.1546 6.98816 31.6541 7.29972C31.157 7.61127 30.7609 8.07031 30.4659 8.67685C30.1742 9.28338 30.0284 10.0275 30.0284 10.9091C30.0284 11.7907 30.1742 12.5348 30.4659 13.1413C30.7609 13.7479 31.157 14.2069 31.6541 14.5185C32.1546 14.83 32.7131 14.9858 33.3295 14.9858C33.6676 14.9858 33.9924 14.9394 34.304 14.8466C34.6155 14.7538 34.8989 14.6162 35.1541 14.4339C35.4126 14.2483 35.6314 14.0213 35.8104 13.7528C35.9927 13.4811 36.1203 13.1695 36.1932 12.8182H37.4261C37.3333 13.3385 37.1643 13.8042 36.919 14.2152C36.6738 14.6262 36.3688 14.9759 36.0043 15.2642C35.6397 15.5492 35.2304 15.7663 34.7763 15.9155C34.3255 16.0646 33.8433 16.1392 33.3295 16.1392C32.4612 16.1392 31.6889 15.9271 31.0128 15.5028C30.3366 15.0786 29.8047 14.4754 29.4169 13.6932C29.0291 12.911 28.8352 11.983 28.8352 10.9091C28.8352 9.83523 29.0291 8.9072 29.4169 8.125C29.8047 7.3428 30.3366 6.73958 31.0128 6.31534C31.6889 5.8911 32.4612 5.67898 33.3295 5.67898C33.8433 5.67898 34.3255 5.75355 34.7763 5.9027C35.2304 6.05185 35.6397 6.2706 36.0043 6.55895C36.3688 6.84399 36.6738 7.192 36.919 7.60298C37.1643 8.01065 37.3333 8.47633 37.4261 9ZM41.5066 16.179C41.0227 16.179 40.5835 16.0878 40.1891 15.9055C39.7947 15.7199 39.4815 15.4531 39.2495 15.1051C39.0175 14.7538 38.9015 14.3295 38.9015 13.8324C38.9015 13.3949 38.9876 13.0402 39.16 12.7685C39.3323 12.4934 39.5627 12.2779 39.851 12.1222C40.1394 11.9664 40.4576 11.8504 40.8056 11.7741C41.1569 11.6946 41.5099 11.6316 41.8645 11.5852C42.3285 11.5256 42.7047 11.4808 42.9931 11.451C43.2847 11.4179 43.4969 11.3632 43.6294 11.2869C43.7653 11.2107 43.8333 11.0781 43.8333 10.8892V10.8494C43.8333 10.3589 43.699 9.97775 43.4306 9.70597C43.1654 9.43419 42.7627 9.2983 42.2225 9.2983C41.6623 9.2983 41.2232 9.42093 40.905 9.66619C40.5868 9.91146 40.3631 10.1733 40.2338 10.4517L39.1202 10.054C39.3191 9.58996 39.5842 9.22869 39.9157 8.97017C40.2504 8.70833 40.615 8.52604 41.0094 8.4233C41.4071 8.31723 41.7982 8.2642 42.1827 8.2642C42.428 8.2642 42.7097 8.29403 43.0279 8.35369C43.3494 8.41004 43.6593 8.5277 43.9576 8.70668C44.2592 8.88565 44.5094 9.15578 44.7083 9.51705C44.9071 9.87831 45.0066 10.3622 45.0066 10.9688V16H43.8333V14.9659H43.7736C43.6941 15.1316 43.5615 15.3089 43.3759 15.4979C43.1903 15.6868 42.9434 15.8475 42.6351 15.9801C42.3269 16.1127 41.9507 16.179 41.5066 16.179ZM41.6855 15.125C42.1496 15.125 42.5407 15.0339 42.8588 14.8516C43.1803 14.6693 43.4223 14.4339 43.5847 14.1456C43.7504 13.8572 43.8333 13.554 43.8333 13.2358V12.1619C43.7836 12.2216 43.6742 12.2763 43.5051 12.326C43.3394 12.3724 43.1472 12.4138 42.9284 12.4503C42.713 12.4834 42.5025 12.5133 42.2971 12.5398C42.0949 12.563 41.9308 12.5829 41.8049 12.5994C41.4999 12.6392 41.2149 12.7038 40.9498 12.7933C40.6879 12.8795 40.4758 13.0104 40.3134 13.1861C40.1543 13.3584 40.0748 13.5937 40.0748 13.892C40.0748 14.2997 40.2256 14.608 40.5272 14.8168C40.8321 15.0223 41.2182 15.125 41.6855 15.125ZM48.3214 11.4062V16H47.1481V8.36364H48.2816V9.55682H48.381C48.56 9.16903 48.8318 8.85748 49.1964 8.62216C49.561 8.38352 50.0316 8.2642 50.6083 8.2642C51.1254 8.2642 51.5778 8.37027 51.9656 8.58239C52.3533 8.79119 52.6549 9.10938 52.8704 9.53693C53.0858 9.96117 53.1935 10.4981 53.1935 11.1477V16H52.0202V11.2273C52.0202 10.6274 51.8645 10.16 51.5529 9.82528C51.2414 9.48722 50.8138 9.31818 50.2702 9.31818C49.8957 9.31818 49.561 9.39938 49.266 9.56179C48.9743 9.72419 48.744 9.96117 48.5749 10.2727C48.4059 10.5843 48.3214 10.9621 48.3214 11.4062ZM57.5847 16.179C57.1008 16.179 56.6616 16.0878 56.2672 15.9055C55.8728 15.7199 55.5596 15.4531 55.3276 15.1051C55.0956 14.7538 54.9796 14.3295 54.9796 13.8324C54.9796 13.3949 55.0658 13.0402 55.2381 12.7685C55.4105 12.4934 55.6408 12.2779 55.9292 12.1222C56.2175 11.9664 56.5357 11.8504 56.8837 11.7741C57.235 11.6946 57.588 11.6316 57.9426 11.5852C58.4067 11.5256 58.7828 11.4808 59.0712 11.451C59.3629 11.4179 59.575 11.3632 59.7076 11.2869C59.8435 11.2107 59.9114 11.0781 59.9114 10.8892V10.8494C59.9114 10.3589 59.7772 9.97775 59.5087 9.70597C59.2435 9.43419 58.8409 9.2983 58.3006 9.2983C57.7405 9.2983 57.3013 9.42093 56.9831 9.66619C56.665 9.91146 56.4412 10.1733 56.312 10.4517L55.1983 10.054C55.3972 9.58996 55.6623 9.22869 55.9938 8.97017C56.3285 8.70833 56.6931 8.52604 57.0875 8.4233C57.4853 8.31723 57.8764 8.2642 58.2608 8.2642C58.5061 8.2642 58.7878 8.29403 59.106 8.35369C59.4275 8.41004 59.7374 8.5277 60.0357 8.70668C60.3373 8.88565 60.5875 9.15578 60.7864 9.51705C60.9853 9.87831 61.0847 10.3622 61.0847 10.9688V16H59.9114V14.9659H59.8517C59.7722 15.1316 59.6396 15.3089 59.454 15.4979C59.2684 15.6868 59.0215 15.8475 58.7132 15.9801C58.405 16.1127 58.0288 16.179 57.5847 16.179ZM57.7637 15.125C58.2277 15.125 58.6188 15.0339 58.937 14.8516C59.2585 14.6693 59.5004 14.4339 59.6628 14.1456C59.8285 13.8572 59.9114 13.554 59.9114 13.2358V12.1619C59.8617 12.2216 59.7523 12.2763 59.5833 12.326C59.4176 12.3724 59.2253 12.4138 59.0066 12.4503C58.7911 12.4834 58.5807 12.5133 58.3752 12.5398C58.173 12.563 58.0089 12.5829 57.883 12.5994C57.5781 12.6392 57.293 12.7038 57.0279 12.7933C56.766 12.8795 56.5539 13.0104 56.3915 13.1861C56.2324 13.3584 56.1529 13.5937 56.1529 13.892C56.1529 14.2997 56.3037 14.608 56.6053 14.8168C56.9102 15.0223 57.2963 15.125 57.7637 15.125ZM66.1097 16.1591C65.4734 16.1591 64.9116 15.9983 64.4244 15.6768C63.9371 15.352 63.556 14.8946 63.2809 14.3047C63.0058 13.7114 62.8683 13.0104 62.8683 12.2017C62.8683 11.3996 63.0058 10.7036 63.2809 10.1136C63.556 9.52367 63.9388 9.06794 64.4293 8.74645C64.9199 8.42495 65.4866 8.2642 66.1296 8.2642C66.6268 8.2642 67.0195 8.34706 67.3079 8.51278C67.5996 8.67519 67.8216 8.8608 67.9741 9.0696C68.1299 9.27509 68.2508 9.44413 68.337 9.5767H68.4364V5.81818H69.6097V16H68.4762V14.8267H68.337C68.2508 14.9659 68.1282 15.1416 67.9691 15.3537C67.81 15.5625 67.583 15.7498 67.288 15.9155C66.993 16.0779 66.6003 16.1591 66.1097 16.1591ZM66.2688 15.1051C66.7395 15.1051 67.1372 14.9825 67.462 14.7372C67.7868 14.4886 68.0337 14.1456 68.2028 13.7081C68.3718 13.2673 68.4563 12.7585 68.4563 12.1818C68.4563 11.6117 68.3735 11.1129 68.2077 10.6854C68.042 10.2545 67.7968 9.91974 67.4719 9.68111C67.1471 9.43916 66.7461 9.31818 66.2688 9.31818C65.7717 9.31818 65.3574 9.44579 65.0259 9.70099C64.6978 9.95289 64.4509 10.2959 64.2852 10.7301C64.1228 11.161 64.0415 11.6449 64.0415 12.1818C64.0415 12.7254 64.1244 13.2192 64.2901 13.6634C64.4592 14.1042 64.7077 14.4555 65.0359 14.7173C65.3673 14.9759 65.7783 15.1051 66.2688 15.1051ZM74.1687 16.179C73.6848 16.179 73.2456 16.0878 72.8512 15.9055C72.4568 15.7199 72.1436 15.4531 71.9116 15.1051C71.6796 14.7538 71.5636 14.3295 71.5636 13.8324C71.5636 13.3949 71.6497 13.0402 71.8221 12.7685C71.9944 12.4934 72.2248 12.2779 72.5131 12.1222C72.8015 11.9664 73.1197 11.8504 73.4677 11.7741C73.819 11.6946 74.172 11.6316 74.5266 11.5852C74.9906 11.5256 75.3668 11.4808 75.6552 11.451C75.9469 11.4179 76.159 11.3632 76.2915 11.2869C76.4274 11.2107 76.4954 11.0781 76.4954 10.8892V10.8494C76.4954 10.3589 76.3612 9.97775 76.0927 9.70597C75.8275 9.43419 75.4248 9.2983 74.8846 9.2983C74.3245 9.2983 73.8853 9.42093 73.5671 9.66619C73.2489 9.91146 73.0252 10.1733 72.896 10.4517L71.7823 10.054C71.9812 9.58996 72.2463 9.22869 72.5778 8.97017C72.9125 8.70833 73.2771 8.52604 73.6715 8.4233C74.0692 8.31723 74.4603 8.2642 74.8448 8.2642C75.0901 8.2642 75.3718 8.29403 75.69 8.35369C76.0115 8.41004 76.3214 8.5277 76.6197 8.70668C76.9213 8.88565 77.1715 9.15578 77.3704 9.51705C77.5692 9.87831 77.6687 10.3622 77.6687 10.9688V16H76.4954V14.9659H76.4357C76.3562 15.1316 76.2236 15.3089 76.038 15.4979C75.8524 15.6868 75.6055 15.8475 75.2972 15.9801C74.989 16.1127 74.6128 16.179 74.1687 16.179ZM74.3477 15.125C74.8117 15.125 75.2028 15.0339 75.521 14.8516C75.8424 14.6693 76.0844 14.4339 76.2468 14.1456C76.4125 13.8572 76.4954 13.554 76.4954 13.2358V12.1619C76.4457 12.2216 76.3363 12.2763 76.1673 12.326C76.0015 12.3724 75.8093 12.4138 75.5906 12.4503C75.3751 12.4834 75.1647 12.5133 74.9592 12.5398C74.757 12.563 74.5929 12.5829 74.467 12.5994C74.1621 12.6392 73.877 12.7038 73.6119 12.7933C73.35 12.8795 73.1379 13.0104 72.9755 13.1861C72.8164 13.3584 72.7369 13.5937 72.7369 13.892C72.7369 14.2997 72.8877 14.608 73.1893 14.8168C73.4942 15.0223 73.8803 15.125 74.3477 15.125Z" fill="#636A80"/>
<g clip-path="url(#clip0_1647_32195)">
<path d="M106 2.0625V19.9375" stroke="#C5C9D6" stroke-width="1.5" stroke-linecap="round" stroke-linejoin="round"/>
<path d="M110.812 7.5625C110.812 7.11108 110.724 6.66408 110.551 6.24703C110.378 5.82997 110.125 5.45102 109.806 5.13182C109.486 4.81262 109.108 4.55941 108.69 4.38666C108.273 4.21391 107.826 4.125 107.375 4.125H104.281C103.37 4.125 102.495 4.48716 101.851 5.13182C101.206 5.77648 100.844 6.65082 100.844 7.5625C100.844 8.47418 101.206 9.34852 101.851 9.99318C102.495 10.6378 103.37 11 104.281 11H108.062C108.974 11 109.849 11.3622 110.493 12.0068C111.138 12.6515 111.5 13.5258 111.5 14.4375C111.5 15.3492 111.138 16.2235 110.493 16.8682C109.849 17.5128 108.974 17.875 108.062 17.875H103.938C103.026 17.875 102.151 17.5128 101.507 16.8682C100.862 16.2235 100.5 15.3492 100.5 14.4375" stroke="#C5C9D6" stroke-width="1.5" stroke-linecap="round" stroke-linejoin="round"/>
</g>
<path d="M125.057 17.2727V4.54545H125.872V17.2727H125.057ZM127.801 8.36364C127.741 7.85985 127.5 7.46875 127.075 7.19034C126.651 6.91193 126.131 6.77273 125.514 6.77273C125.063 6.77273 124.669 6.84564 124.331 6.99148C123.996 7.13731 123.734 7.33783 123.545 7.59304C123.36 7.84825 123.267 8.13826 123.267 8.46307C123.267 8.73485 123.332 8.96851 123.461 9.16406C123.594 9.3563 123.763 9.51705 123.968 9.64631C124.174 9.77225 124.389 9.87666 124.614 9.95952C124.84 10.0391 125.047 10.1037 125.236 10.1534L126.27 10.4318C126.535 10.5014 126.83 10.5975 127.155 10.7202C127.483 10.8428 127.796 11.0102 128.094 11.2223C128.396 11.4311 128.645 11.6996 128.84 12.0277C129.036 12.3558 129.134 12.7585 129.134 13.2358C129.134 13.786 128.989 14.2831 128.701 14.7273C128.416 15.1714 127.998 15.5244 127.448 15.7862C126.901 16.0481 126.237 16.179 125.455 16.179C124.725 16.179 124.094 16.0613 123.56 15.826C123.03 15.5907 122.612 15.2625 122.308 14.8416C122.006 14.4207 121.835 13.9318 121.795 13.375H123.068C123.101 13.7595 123.231 14.0777 123.456 14.3295C123.685 14.5781 123.973 14.7637 124.321 14.8864C124.672 15.0057 125.05 15.0653 125.455 15.0653C125.925 15.0653 126.348 14.9891 126.722 14.8366C127.097 14.6809 127.393 14.4654 127.612 14.1903C127.831 13.9119 127.94 13.5871 127.94 13.2159C127.94 12.8778 127.846 12.6027 127.657 12.3906C127.468 12.1785 127.219 12.0062 126.911 11.8736C126.603 11.741 126.27 11.625 125.912 11.5256L124.659 11.1676C123.864 10.9389 123.234 10.6125 122.77 10.1882C122.306 9.76397 122.074 9.20881 122.074 8.52273C122.074 7.95265 122.228 7.45549 122.536 7.03125C122.848 6.60369 123.265 6.27225 123.789 6.03693C124.316 5.7983 124.904 5.67898 125.554 5.67898C126.21 5.67898 126.794 5.79664 127.304 6.03196C127.814 6.26397 128.219 6.58215 128.517 6.98651C128.819 7.39086 128.978 7.8499 128.994 8.36364H127.801ZM134.164 16.1392C133.58 16.1392 133.055 16.0232 132.588 15.7912C132.12 15.5592 131.746 15.241 131.464 14.8366C131.182 14.4323 131.028 13.9716 131.002 13.4545H132.195C132.241 13.9152 132.45 14.2964 132.821 14.598C133.196 14.8963 133.643 15.0455 134.164 15.0455C134.581 15.0455 134.952 14.9477 135.277 14.7521C135.605 14.5566 135.862 14.2881 136.048 13.9467C136.237 13.602 136.331 13.2126 136.331 12.7784C136.331 12.3343 136.233 11.9382 136.038 11.5902C135.846 11.2389 135.58 10.9621 135.242 10.7599C134.904 10.5578 134.518 10.455 134.084 10.4517C133.772 10.4484 133.453 10.4964 133.124 10.5959C132.796 10.692 132.526 10.8163 132.314 10.9688L131.161 10.8295L131.777 5.81818H137.067V6.91193H132.811L132.453 9.91477H132.513C132.722 9.74905 132.984 9.61151 133.298 9.50213C133.613 9.39276 133.941 9.33807 134.283 9.33807C134.906 9.33807 135.461 9.48722 135.948 9.78551C136.439 10.0805 136.823 10.4848 137.102 10.9986C137.383 11.5123 137.524 12.099 137.524 12.7585C137.524 13.4081 137.378 13.9882 137.087 14.4986C136.798 15.0057 136.401 15.4067 135.894 15.7017C135.387 15.9934 134.81 16.1392 134.164 16.1392ZM142.82 16.1392C142.071 16.1392 141.433 15.9354 140.906 15.5277C140.379 15.1167 139.977 14.5218 139.698 13.7429C139.42 12.9607 139.281 12.0161 139.281 10.9091C139.281 9.80871 139.42 8.86908 139.698 8.0902C139.98 7.308 140.384 6.71141 140.911 6.30043C141.442 5.88613 142.078 5.67898 142.82 5.67898C143.563 5.67898 144.197 5.88613 144.724 6.30043C145.255 6.71141 145.659 7.308 145.938 8.0902C146.219 8.86908 146.36 9.80871 146.36 10.9091C146.36 12.0161 146.221 12.9607 145.942 13.7429C145.664 14.5218 145.261 15.1167 144.734 15.5277C144.207 15.9354 143.569 16.1392 142.82 16.1392ZM142.82 15.0455C143.563 15.0455 144.139 14.6875 144.55 13.9716C144.961 13.2557 145.167 12.2348 145.167 10.9091C145.167 10.0275 145.072 9.27675 144.884 8.65696C144.698 8.03717 144.429 7.56487 144.078 7.24006C143.73 6.91525 143.311 6.75284 142.82 6.75284C142.085 6.75284 141.509 7.11577 141.095 7.84162C140.681 8.56416 140.474 9.58665 140.474 10.9091C140.474 11.7907 140.567 12.5398 140.752 13.1562C140.938 13.7727 141.205 14.2417 141.553 14.5632C141.904 14.8847 142.326 15.0455 142.82 15.0455ZM148.428 16V5.81818H149.661V10.8693H149.781L154.354 5.81818H155.965L151.69 10.4119L155.965 16H154.474L150.934 11.267L149.661 12.6989V16H148.428ZM160.259 10.3622V11.456H155.805V10.3622H160.259ZM165.307 17.2727V4.54545H166.122V17.2727H165.307ZM168.051 8.36364C167.991 7.85985 167.75 7.46875 167.325 7.19034C166.901 6.91193 166.381 6.77273 165.764 6.77273C165.313 6.77273 164.919 6.84564 164.581 6.99148C164.246 7.13731 163.984 7.33783 163.795 7.59304C163.61 7.84825 163.517 8.13826 163.517 8.46307C163.517 8.73485 163.582 8.96851 163.711 9.16406C163.844 9.3563 164.013 9.51705 164.218 9.64631C164.424 9.77225 164.639 9.87666 164.864 9.95952C165.09 10.0391 165.297 10.1037 165.486 10.1534L166.52 10.4318C166.785 10.5014 167.08 10.5975 167.405 10.7202C167.733 10.8428 168.046 11.0102 168.344 11.2223C168.646 11.4311 168.895 11.6996 169.09 12.0277C169.286 12.3558 169.384 12.7585 169.384 13.2358C169.384 13.786 169.239 14.2831 168.951 14.7273C168.666 15.1714 168.248 15.5244 167.698 15.7862C167.151 16.0481 166.487 16.179 165.705 16.179C164.975 16.179 164.344 16.0613 163.81 15.826C163.28 15.5907 162.862 15.2625 162.558 14.8416C162.256 14.4207 162.085 13.9318 162.045 13.375H163.318C163.351 13.7595 163.481 14.0777 163.706 14.3295C163.935 14.5781 164.223 14.7637 164.571 14.8864C164.922 15.0057 165.3 15.0653 165.705 15.0653C166.175 15.0653 166.598 14.9891 166.972 14.8366C167.347 14.6809 167.643 14.4654 167.862 14.1903C168.081 13.9119 168.19 13.5871 168.19 13.2159C168.19 12.8778 168.096 12.6027 167.907 12.3906C167.718 12.1785 167.469 12.0062 167.161 11.8736C166.853 11.741 166.52 11.625 166.162 11.5256L164.909 11.1676C164.114 10.9389 163.484 10.6125 163.02 10.1882C162.556 9.76397 162.324 9.20881 162.324 8.52273C162.324 7.95265 162.478 7.45549 162.786 7.03125C163.098 6.60369 163.515 6.27225 164.039 6.03693C164.566 5.7983 165.154 5.67898 165.804 5.67898C166.46 5.67898 167.044 5.79664 167.554 6.03196C168.064 6.26397 168.469 6.58215 168.767 6.98651C169.069 7.39086 169.228 7.8499 169.244 8.36364H168.051ZM171.55 16L176.104 6.99148V6.91193H170.854V5.81818H177.377V6.97159L172.843 16H171.55ZM182.332 16.1392C181.583 16.1392 180.945 15.9354 180.418 15.5277C179.891 15.1167 179.488 14.5218 179.21 13.7429C178.931 12.9607 178.792 12.0161 178.792 10.9091C178.792 9.80871 178.931 8.86908 179.21 8.0902C179.492 7.308 179.896 6.71141 180.423 6.30043C180.953 5.88613 181.59 5.67898 182.332 5.67898C183.074 5.67898 183.709 5.88613 184.236 6.30043C184.766 6.71141 185.171 7.308 185.449 8.0902C185.731 8.86908 185.872 9.80871 185.872 10.9091C185.872 12.0161 185.733 12.9607 185.454 13.7429C185.176 14.5218 184.773 15.1167 184.246 15.5277C183.719 15.9354 183.081 16.1392 182.332 16.1392ZM182.332 15.0455C183.074 15.0455 183.651 14.6875 184.062 13.9716C184.473 13.2557 184.679 12.2348 184.679 10.9091C184.679 10.0275 184.584 9.27675 184.395 8.65696C184.21 8.03717 183.941 7.56487 183.59 7.24006C183.242 6.91525 182.823 6.75284 182.332 6.75284C181.596 6.75284 181.021 7.11577 180.607 7.84162C180.193 8.56416 179.985 9.58665 179.985 10.9091C179.985 11.7907 180.078 12.5398 180.264 13.1562C180.449 13.7727 180.716 14.2417 181.064 14.5632C181.416 14.8847 181.838 15.0455 182.332 15.0455ZM187.94 16V5.81818H189.173V10.8693H189.292L193.866 5.81818H195.477L191.201 10.4119L195.477 16H193.985L190.446 11.267L189.173 12.6989V16H187.94Z" fill="#636A80"/>
<g clip-path="url(#clip1_1647_32195)">
<path d="M229.875 3.4375H216.125C215.745 3.4375 215.438 3.7453 215.438 4.125V17.875C215.438 18.2547 215.745 18.5625 216.125 18.5625H229.875C230.255 18.5625 230.562 18.2547 230.562 17.875V4.125C230.562 3.7453 230.255 3.4375 229.875 3.4375Z" stroke="#C5C9D6" stroke-width="1.5" stroke-linecap="round" stroke-linejoin="round"/>
<path d="M227.125 2.0625V4.8125" stroke="#C5C9D6" stroke-width="1.5" stroke-linecap="round" stroke-linejoin="round"/>
<path d="M218.875 2.0625V4.8125" stroke="#C5C9D6" stroke-width="1.5" stroke-linecap="round" stroke-linejoin="round"/>
<path d="M215.438 7.5625H230.562" stroke="#C5C9D6" stroke-width="1.5" stroke-linecap="round" stroke-linejoin="round"/>
</g>
<path d="M240.815 13.9119V12.8977L245.29 5.81818H246.026V7.3892H245.528L242.148 12.7386V12.8182H248.173V13.9119H240.815ZM245.608 16V13.6037V13.1314V5.81818H246.781V16H245.608ZM257.295 16H254.153V5.81818H257.434C258.422 5.81818 259.267 6.02202 259.97 6.42969C260.672 6.83404 261.211 7.41572 261.585 8.17472C261.96 8.9304 262.147 9.83523 262.147 10.8892C262.147 11.9498 261.958 12.8629 261.58 13.6286C261.203 14.3909 260.652 14.9775 259.93 15.3885C259.207 15.7962 258.329 16 257.295 16ZM255.386 14.9062H257.215C258.057 14.9062 258.755 14.7438 259.308 14.419C259.862 14.0942 260.275 13.6319 260.546 13.032C260.818 12.4321 260.954 11.7178 260.954 10.8892C260.954 10.0672 260.82 9.35961 260.551 8.76633C260.283 8.16974 259.882 7.71236 259.348 7.39418C258.815 7.07268 258.15 6.91193 257.355 6.91193H255.386V14.9062ZM266.303 16.179C265.82 16.179 265.38 16.0878 264.986 15.9055C264.592 15.7199 264.278 15.4531 264.046 15.1051C263.814 14.7538 263.698 14.3295 263.698 13.8324C263.698 13.3949 263.785 13.0402 263.957 12.7685C264.129 12.4934 264.36 12.2779 264.648 12.1222C264.936 11.9664 265.254 11.8504 265.602 11.7741C265.954 11.6946 266.307 11.6316 266.661 11.5852C267.125 11.5256 267.502 11.4808 267.79 11.451C268.082 11.4179 268.294 11.3632 268.426 11.2869C268.562 11.2107 268.63 11.0781 268.63 10.8892V10.8494C268.63 10.3589 268.496 9.97775 268.227 9.70597C267.962 9.43419 267.56 9.2983 267.019 9.2983C266.459 9.2983 266.02 9.42093 265.702 9.66619C265.384 9.91146 265.16 10.1733 265.031 10.4517L263.917 10.054C264.116 9.58996 264.381 9.22869 264.713 8.97017C265.047 8.70833 265.412 8.52604 265.806 8.4233C266.204 8.31723 266.595 8.2642 266.98 8.2642C267.225 8.2642 267.507 8.29403 267.825 8.35369C268.146 8.41004 268.456 8.5277 268.754 8.70668C269.056 8.88565 269.306 9.15578 269.505 9.51705C269.704 9.87831 269.803 10.3622 269.803 10.9688V16H268.63V14.9659H268.57C268.491 15.1316 268.358 15.3089 268.173 15.4979C267.987 15.6868 267.74 15.8475 267.432 15.9801C267.124 16.1127 266.748 16.179 266.303 16.179ZM266.482 15.125C266.946 15.125 267.338 15.0339 267.656 14.8516C267.977 14.6693 268.219 14.4339 268.382 14.1456C268.547 13.8572 268.63 13.554 268.63 13.2358V12.1619C268.58 12.2216 268.471 12.2763 268.302 12.326C268.136 12.3724 267.944 12.4138 267.725 12.4503C267.51 12.4834 267.299 12.5133 267.094 12.5398C266.892 12.563 266.728 12.5829 266.602 12.5994C266.297 12.6392 266.012 12.7038 265.747 12.7933C265.485 12.8795 265.273 13.0104 265.11 13.1861C264.951 13.3584 264.872 13.5937 264.872 13.892C264.872 14.2997 265.022 14.608 265.324 14.8168C265.629 15.0223 266.015 15.125 266.482 15.125ZM272.427 18.8636C272.228 18.8636 272.051 18.8471 271.895 18.8139C271.739 18.7841 271.632 18.7543 271.572 18.7244L271.87 17.6903C272.155 17.7633 272.407 17.7898 272.626 17.7699C272.845 17.75 273.039 17.6522 273.208 17.4766C273.38 17.3042 273.538 17.0241 273.68 16.6364L273.899 16.0398L271.075 8.36364H272.348L274.456 14.4489H274.535L276.643 8.36364H277.916L274.674 17.1136C274.529 17.508 274.348 17.8345 274.132 18.093C273.917 18.3549 273.667 18.5488 273.382 18.6747C273.1 18.8007 272.782 18.8636 272.427 18.8636ZM284.874 10.0739L283.82 10.3722C283.753 10.1965 283.656 10.0258 283.526 9.86009C283.4 9.69105 283.228 9.55185 283.009 9.44247C282.79 9.3331 282.51 9.27841 282.169 9.27841C281.702 9.27841 281.312 9.38613 281.001 9.60156C280.692 9.81368 280.538 10.0838 280.538 10.4119C280.538 10.7036 280.644 10.9339 280.857 11.103C281.069 11.272 281.4 11.4129 281.851 11.5256L282.984 11.804C283.667 11.9697 284.176 12.2232 284.511 12.5646C284.845 12.9027 285.013 13.3385 285.013 13.8722C285.013 14.3097 284.887 14.7008 284.635 15.0455C284.386 15.3902 284.038 15.6619 283.591 15.8608C283.143 16.0597 282.623 16.1591 282.03 16.1591C281.251 16.1591 280.606 15.9901 280.096 15.652C279.585 15.3139 279.262 14.8201 279.126 14.1705L280.24 13.892C280.346 14.303 280.547 14.6113 280.842 14.8168C281.14 15.0223 281.529 15.125 282.01 15.125C282.557 15.125 282.991 15.009 283.312 14.777C283.637 14.5417 283.8 14.2599 283.8 13.9318C283.8 13.6667 283.707 13.4446 283.521 13.2656C283.336 13.0833 283.051 12.9474 282.666 12.858L281.393 12.5597C280.694 12.3939 280.18 12.1371 279.852 11.7891C279.527 11.4377 279.365 10.9986 279.365 10.4716C279.365 10.0407 279.486 9.65956 279.728 9.32812C279.973 8.99669 280.306 8.73651 280.727 8.54758C281.152 8.35866 281.632 8.2642 282.169 8.2642C282.925 8.2642 283.518 8.42992 283.949 8.76136C284.383 9.0928 284.691 9.5303 284.874 10.0739ZM290.876 16V5.81818H294.316C295.111 5.81818 295.764 5.95407 296.275 6.22585C296.785 6.49432 297.163 6.86387 297.408 7.33452C297.653 7.80516 297.776 8.34044 297.776 8.94034C297.776 9.54025 297.653 10.0722 297.408 10.5362C297.163 11.0002 296.787 11.3648 296.28 11.63C295.773 11.8918 295.125 12.0227 294.336 12.0227H291.552V10.9091H294.296C294.84 10.9091 295.277 10.8295 295.608 10.6705C295.943 10.5114 296.185 10.286 296.334 9.99432C296.487 9.69934 296.563 9.34801 296.563 8.94034C296.563 8.53267 296.487 8.17637 296.334 7.87145C296.182 7.56652 295.938 7.3312 295.604 7.16548C295.269 6.99645 294.826 6.91193 294.276 6.91193H292.108V16H290.876ZM295.668 11.4261L298.174 16H296.742L294.276 11.4261H295.668ZM302.791 16.1591C302.055 16.1591 301.421 15.9967 300.887 15.6719C300.357 15.3438 299.947 14.8864 299.659 14.2997C299.374 13.7098 299.232 13.0237 299.232 12.2415C299.232 11.4593 299.374 10.7699 299.659 10.1733C299.947 9.57339 300.348 9.10606 300.862 8.77131C301.379 8.43324 301.982 8.2642 302.672 8.2642C303.07 8.2642 303.462 8.33049 303.85 8.46307C304.238 8.59564 304.591 8.81108 304.909 9.10938C305.227 9.40436 305.481 9.79545 305.67 10.2827C305.859 10.7699 305.953 11.3698 305.953 12.0824V12.5795H300.067V11.5653H304.76C304.76 11.1345 304.674 10.75 304.501 10.4119C304.332 10.0739 304.09 9.80705 303.776 9.61151C303.464 9.41596 303.096 9.31818 302.672 9.31818C302.205 9.31818 301.8 9.43419 301.459 9.66619C301.121 9.89489 300.861 10.1932 300.678 10.5611C300.496 10.929 300.405 11.3234 300.405 11.7443V12.4205C300.405 12.9972 300.504 13.486 300.703 13.8871C300.905 14.2848 301.185 14.5881 301.543 14.7969C301.901 15.0024 302.317 15.1051 302.791 15.1051C303.099 15.1051 303.378 15.062 303.626 14.9759C303.878 14.8864 304.095 14.7538 304.278 14.5781C304.46 14.3991 304.601 14.1771 304.7 13.9119L305.834 14.2301C305.714 14.6146 305.514 14.9527 305.232 15.2443C304.951 15.5327 304.603 15.758 304.188 15.9205C303.774 16.0795 303.308 16.1591 302.791 16.1591ZM307.738 16V8.36364H308.871V9.55682H308.971C309.13 9.14915 309.387 8.83262 309.741 8.60724C310.096 8.37855 310.522 8.2642 311.019 8.2642C311.523 8.2642 311.942 8.37855 312.277 8.60724C312.615 8.83262 312.879 9.14915 313.067 9.55682H313.147C313.343 9.16241 313.636 8.84919 314.027 8.61719C314.418 8.38187 314.887 8.2642 315.434 8.2642C316.117 8.2642 316.675 8.47798 317.109 8.90554C317.544 9.32978 317.761 9.991 317.761 10.8892V16H316.587V10.8892C316.587 10.3258 316.433 9.92306 316.125 9.68111C315.817 9.43916 315.454 9.31818 315.036 9.31818C314.499 9.31818 314.083 9.48059 313.788 9.8054C313.493 10.1269 313.346 10.5346 313.346 11.0284V16H312.153V10.7699C312.153 10.3357 312.012 9.98603 311.73 9.72088C311.448 9.45241 311.085 9.31818 310.641 9.31818C310.336 9.31818 310.051 9.39938 309.786 9.56179C309.524 9.72419 309.312 9.94957 309.15 10.2379C308.991 10.523 308.911 10.8527 308.911 11.2273V16H307.738ZM322.153 16.179C321.669 16.179 321.23 16.0878 320.836 15.9055C320.441 15.7199 320.128 15.4531 319.896 15.1051C319.664 14.7538 319.548 14.3295 319.548 13.8324C319.548 13.3949 319.634 13.0402 319.806 12.7685C319.979 12.4934 320.209 12.2779 320.498 12.1222C320.786 11.9664 321.104 11.8504 321.452 11.7741C321.803 11.6946 322.156 11.6316 322.511 11.5852C322.975 11.5256 323.351 11.4808 323.64 11.451C323.931 11.4179 324.143 11.3632 324.276 11.2869C324.412 11.2107 324.48 11.0781 324.48 10.8892V10.8494C324.48 10.3589 324.346 9.97775 324.077 9.70597C323.812 9.43419 323.409 9.2983 322.869 9.2983C322.309 9.2983 321.87 9.42093 321.551 9.66619C321.233 9.91146 321.01 10.1733 320.88 10.4517L319.767 10.054C319.966 9.58996 320.231 9.22869 320.562 8.97017C320.897 8.70833 321.261 8.52604 321.656 8.4233C322.054 8.31723 322.445 8.2642 322.829 8.2642C323.074 8.2642 323.356 8.29403 323.674 8.35369C323.996 8.41004 324.306 8.5277 324.604 8.70668C324.906 8.88565 325.156 9.15578 325.355 9.51705C325.554 9.87831 325.653 10.3622 325.653 10.9688V16H324.48V14.9659H324.42C324.341 15.1316 324.208 15.3089 324.022 15.4979C323.837 15.6868 323.59 15.8475 323.282 15.9801C322.973 16.1127 322.597 16.179 322.153 16.179ZM322.332 15.125C322.796 15.125 323.187 15.0339 323.505 14.8516C323.827 14.6693 324.069 14.4339 324.231 14.1456C324.397 13.8572 324.48 13.554 324.48 13.2358V12.1619C324.43 12.2216 324.321 12.2763 324.152 12.326C323.986 12.3724 323.794 12.4138 323.575 12.4503C323.359 12.4834 323.149 12.5133 322.944 12.5398C322.741 12.563 322.577 12.5829 322.451 12.5994C322.146 12.6392 321.861 12.7038 321.596 12.7933C321.334 12.8795 321.122 13.0104 320.96 13.1861C320.801 13.3584 320.721 13.5937 320.721 13.892C320.721 14.2997 320.872 14.608 321.174 14.8168C321.479 15.0223 321.865 15.125 322.332 15.125ZM327.795 16V8.36364H328.968V16H327.795ZM328.391 7.09091C328.162 7.09091 327.965 7.01302 327.8 6.85724C327.637 6.70147 327.556 6.5142 327.556 6.29545C327.556 6.0767 327.637 5.88944 327.8 5.73366C327.965 5.57789 328.162 5.5 328.391 5.5C328.62 5.5 328.815 5.57789 328.978 5.73366C329.144 5.88944 329.226 6.0767 329.226 6.29545C329.226 6.5142 329.144 6.70147 328.978 6.85724C328.815 7.01302 328.62 7.09091 328.391 7.09091ZM332.29 11.4062V16H331.117V8.36364H332.25V9.55682H332.35C332.529 9.16903 332.801 8.85748 333.165 8.62216C333.53 8.38352 334 8.2642 334.577 8.2642C335.094 8.2642 335.547 8.37027 335.934 8.58239C336.322 8.79119 336.624 9.10938 336.839 9.53693C337.055 9.96117 337.162 10.4981 337.162 11.1477V16H335.989V11.2273C335.989 10.6274 335.833 10.16 335.522 9.82528C335.21 9.48722 334.783 9.31818 334.239 9.31818C333.864 9.31818 333.53 9.39938 333.235 9.56179C332.943 9.72419 332.713 9.96117 332.544 10.2727C332.375 10.5843 332.29 10.9621 332.29 11.4062ZM339.306 16V8.36364H340.48V16H339.306ZM339.903 7.09091C339.674 7.09091 339.477 7.01302 339.311 6.85724C339.149 6.70147 339.068 6.5142 339.068 6.29545C339.068 6.0767 339.149 5.88944 339.311 5.73366C339.477 5.57789 339.674 5.5 339.903 5.5C340.132 5.5 340.327 5.57789 340.49 5.73366C340.655 5.88944 340.738 6.0767 340.738 6.29545C340.738 6.5142 340.655 6.70147 340.49 6.85724C340.327 7.01302 340.132 7.09091 339.903 7.09091ZM343.802 11.4062V16H342.629V8.36364H343.762V9.55682H343.862C344.04 9.16903 344.312 8.85748 344.677 8.62216C345.041 8.38352 345.512 8.2642 346.089 8.2642C346.606 8.2642 347.058 8.37027 347.446 8.58239C347.834 8.79119 348.135 9.10938 348.351 9.53693C348.566 9.96117 348.674 10.4981 348.674 11.1477V16H347.501V11.2273C347.501 10.6274 347.345 10.16 347.033 9.82528C346.722 9.48722 346.294 9.31818 345.751 9.31818C345.376 9.31818 345.041 9.39938 344.746 9.56179C344.455 9.72419 344.224 9.96117 344.055 10.2727C343.886 10.5843 343.802 10.9621 343.802 11.4062ZM353.9 19.0227C353.334 19.0227 352.846 18.9498 352.439 18.804C352.031 18.6615 351.691 18.4725 351.42 18.2372C351.151 18.0052 350.937 17.7566 350.778 17.4915L351.713 16.8352C351.819 16.9744 351.953 17.1335 352.116 17.3125C352.278 17.4948 352.5 17.6522 352.782 17.7848C353.067 17.9207 353.44 17.9886 353.9 17.9886C354.517 17.9886 355.026 17.8395 355.427 17.5412C355.828 17.2429 356.028 16.7756 356.028 16.1392V14.5881H355.929C355.843 14.7273 355.72 14.8996 355.561 15.1051C355.405 15.3073 355.18 15.4879 354.885 15.647C354.593 15.8028 354.199 15.8807 353.702 15.8807C353.085 15.8807 352.532 15.7348 352.041 15.4432C351.554 15.1515 351.168 14.7273 350.883 14.1705C350.601 13.6136 350.46 12.9375 350.46 12.142C350.46 11.3598 350.598 10.6787 350.873 10.0987C351.148 9.51539 351.531 9.06463 352.021 8.74645C352.512 8.42495 353.078 8.2642 353.721 8.2642C354.219 8.2642 354.613 8.34706 354.905 8.51278C355.2 8.67519 355.425 8.8608 355.581 9.0696C355.74 9.27509 355.863 9.44413 355.949 9.5767H356.068V8.36364H357.202V16.2188C357.202 16.875 357.052 17.4086 356.754 17.8196C356.459 18.2339 356.061 18.5372 355.561 18.7294C355.064 18.925 354.51 19.0227 353.9 19.0227ZM353.861 14.8267C354.331 14.8267 354.729 14.719 355.054 14.5036C355.379 14.2881 355.626 13.9782 355.795 13.5739C355.964 13.1695 356.048 12.6856 356.048 12.1222C356.048 11.572 355.965 11.0864 355.8 10.6655C355.634 10.2446 355.389 9.91477 355.064 9.67614C354.739 9.4375 354.338 9.31818 353.861 9.31818C353.363 9.31818 352.949 9.44413 352.618 9.69602C352.29 9.94792 352.043 10.286 351.877 10.7102C351.715 11.1345 351.633 11.6051 351.633 12.1222C351.633 12.6525 351.716 13.1214 351.882 13.5291C352.051 13.9335 352.3 14.2517 352.628 14.4837C352.959 14.7124 353.37 14.8267 353.861 14.8267Z" fill="#636A80"/>
<defs>
<clipPath id="clip0_1647_32195">
<rect width="22" height="22" fill="white" transform="translate(95)"/>
</clipPath>
<clipPath id="clip1_1647_32195">
<rect width="22" height="22" fill="white" transform="translate(212)"/>
</clipPath>
</defs>
</svg>
