<svg width="347" height="22" viewBox="0 0 347 22" fill="none" xmlns="http://www.w3.org/2000/svg">
<path d="M19.25 9.16663C19.25 15.5833 11 21.0833 11 21.0833C11 21.0833 2.75 15.5833 2.75 9.16663C2.75 6.97859 3.61919 4.88017 5.16637 3.33299C6.71354 1.78582 8.81196 0.916626 11 0.916626C13.188 0.916626 15.2865 1.78582 16.8336 3.33299C18.3808 4.88017 19.25 6.97859 19.25 9.16663Z" stroke="#C5C9D6" stroke-width="1.5" stroke-linecap="round" stroke-linejoin="round"/>
<path d="M11 11.9166C12.5188 11.9166 13.75 10.6854 13.75 9.16663C13.75 7.64784 12.5188 6.41663 11 6.41663C9.48122 6.41663 8.25 7.64784 8.25 9.16663C8.25 10.6854 9.48122 11.9166 11 11.9166Z" stroke="#C5C9D6" stroke-width="1.5" stroke-linecap="round" stroke-linejoin="round"/>
<path d="M37.4261 9H36.1932C36.1203 8.64536 35.9927 8.33381 35.8104 8.06534C35.6314 7.79688 35.4126 7.5715 35.1541 7.3892C34.8989 7.2036 34.6155 7.06439 34.304 6.97159C33.9924 6.87879 33.6676 6.83239 33.3295 6.83239C32.7131 6.83239 32.1546 6.98816 31.6541 7.29972C31.157 7.61127 30.7609 8.07031 30.4659 8.67685C30.1742 9.28338 30.0284 10.0275 30.0284 10.9091C30.0284 11.7907 30.1742 12.5348 30.4659 13.1413C30.7609 13.7479 31.157 14.2069 31.6541 14.5185C32.1546 14.83 32.7131 14.9858 33.3295 14.9858C33.6676 14.9858 33.9924 14.9394 34.304 14.8466C34.6155 14.7538 34.8989 14.6162 35.1541 14.4339C35.4126 14.2483 35.6314 14.0213 35.8104 13.7528C35.9927 13.4811 36.1203 13.1695 36.1932 12.8182H37.4261C37.3333 13.3385 37.1643 13.8042 36.919 14.2152C36.6738 14.6262 36.3688 14.9759 36.0043 15.2642C35.6397 15.5492 35.2304 15.7663 34.7763 15.9155C34.3255 16.0646 33.8433 16.1392 33.3295 16.1392C32.4612 16.1392 31.6889 15.9271 31.0128 15.5028C30.3366 15.0786 29.8047 14.4754 29.4169 13.6932C29.0291 12.911 28.8352 11.983 28.8352 10.9091C28.8352 9.83523 29.0291 8.9072 29.4169 8.125C29.8047 7.3428 30.3366 6.73958 31.0128 6.31534C31.6889 5.8911 32.4612 5.67898 33.3295 5.67898C33.8433 5.67898 34.3255 5.75355 34.7763 5.9027C35.2304 6.05185 35.6397 6.2706 36.0043 6.55895C36.3688 6.84399 36.6738 7.192 36.919 7.60298C37.1643 8.01065 37.3333 8.47633 37.4261 9ZM40.4327 11.4062V16H39.2594V5.81818H40.4327V9.55682H40.5321C40.7111 9.16241 40.9796 8.84919 41.3375 8.61719C41.6988 8.38187 42.1794 8.2642 42.7793 8.2642C43.2997 8.2642 43.7554 8.36861 44.1465 8.57741C44.5376 8.78291 44.8409 9.09943 45.0563 9.52699C45.275 9.95123 45.3844 10.4915 45.3844 11.1477V16H44.2111V11.2273C44.2111 10.6207 44.0537 10.1518 43.7388 9.82031C43.4273 9.48556 42.9947 9.31818 42.4412 9.31818C42.0568 9.31818 41.7121 9.39938 41.4071 9.56179C41.1055 9.72419 40.8669 9.96117 40.6912 10.2727C40.5189 10.5843 40.4327 10.9621 40.4327 11.4062ZM47.5309 16V8.36364H48.7042V16H47.5309ZM48.1275 7.09091C47.8988 7.09091 47.7016 7.01302 47.5359 6.85724C47.3735 6.70147 47.2923 6.5142 47.2923 6.29545C47.2923 6.0767 47.3735 5.88944 47.5359 5.73366C47.7016 5.57789 47.8988 5.5 48.1275 5.5C48.3562 5.5 48.5517 5.57789 48.7141 5.73366C48.8799 5.88944 48.9627 6.0767 48.9627 6.29545C48.9627 6.5142 48.8799 6.70147 48.7141 6.85724C48.5517 7.01302 48.3562 7.09091 48.1275 7.09091ZM52.0265 11.4062V16H50.8532V8.36364H51.9867V9.55682H52.0861C52.2651 9.16903 52.5369 8.85748 52.9015 8.62216C53.266 8.38352 53.7367 8.2642 54.3134 8.2642C54.8304 8.2642 55.2828 8.37027 55.6706 8.58239C56.0584 8.79119 56.36 9.10938 56.5755 9.53693C56.7909 9.96117 56.8986 10.4981 56.8986 11.1477V16H55.7253V11.2273C55.7253 10.6274 55.5695 10.16 55.258 9.82528C54.9464 9.48722 54.5189 9.31818 53.9753 9.31818C53.6008 9.31818 53.266 9.39938 52.9711 9.56179C52.6794 9.72419 52.449 9.96117 52.28 10.2727C52.111 10.5843 52.0265 10.9621 52.0265 11.4062ZM61.2898 16.179C60.8059 16.179 60.3667 16.0878 59.9723 15.9055C59.5779 15.7199 59.2647 15.4531 59.0327 15.1051C58.8007 14.7538 58.6847 14.3295 58.6847 13.8324C58.6847 13.3949 58.7708 13.0402 58.9432 12.7685C59.1155 12.4934 59.3459 12.2779 59.6342 12.1222C59.9226 11.9664 60.2408 11.8504 60.5888 11.7741C60.9401 11.6946 61.2931 11.6316 61.6477 11.5852C62.1117 11.5256 62.4879 11.4808 62.7763 11.451C63.0679 11.4179 63.2801 11.3632 63.4126 11.2869C63.5485 11.2107 63.6165 11.0781 63.6165 10.8892V10.8494C63.6165 10.3589 63.4822 9.97775 63.2138 9.70597C62.9486 9.43419 62.5459 9.2983 62.0057 9.2983C61.4455 9.2983 61.0064 9.42093 60.6882 9.66619C60.37 9.91146 60.1463 10.1733 60.017 10.4517L58.9034 10.054C59.1023 9.58996 59.3674 9.22869 59.6989 8.97017C60.0336 8.70833 60.3982 8.52604 60.7926 8.4233C61.1903 8.31723 61.5814 8.2642 61.9659 8.2642C62.2112 8.2642 62.4929 8.29403 62.8111 8.35369C63.1326 8.41004 63.4425 8.5277 63.7408 8.70668C64.0424 8.88565 64.2926 9.15578 64.4915 9.51705C64.6903 9.87831 64.7898 10.3622 64.7898 10.9688V16H63.6165V14.9659H63.5568C63.4773 15.1316 63.3447 15.3089 63.1591 15.4979C62.9735 15.6868 62.7266 15.8475 62.4183 15.9801C62.1101 16.1127 61.7339 16.179 61.2898 16.179ZM61.4688 15.125C61.9328 15.125 62.3239 15.0339 62.642 14.8516C62.9635 14.6693 63.2055 14.4339 63.3679 14.1456C63.5336 13.8572 63.6165 13.554 63.6165 13.2358V12.1619C63.5668 12.2216 63.4574 12.2763 63.2884 12.326C63.1226 12.3724 62.9304 12.4138 62.7116 12.4503C62.4962 12.4834 62.2857 12.5133 62.0803 12.5398C61.8781 12.563 61.714 12.5829 61.5881 12.5994C61.2831 12.6392 60.9981 12.7038 60.733 12.7933C60.4711 12.8795 60.259 13.0104 60.0966 13.1861C59.9375 13.3584 59.858 13.5937 59.858 13.892C59.858 14.2997 60.0088 14.608 60.3104 14.8168C60.6153 15.0223 61.0014 15.125 61.4688 15.125Z" fill="#636A80"/>
<g clip-path="url(#clip0_1647_32334)">
<path d="M93 2.0625V19.9375" stroke="#C5C9D6" stroke-width="1.5" stroke-linecap="round" stroke-linejoin="round"/>
<path d="M97.8125 7.5625C97.8125 7.11108 97.7236 6.66408 97.5508 6.24703C97.3781 5.82997 97.1249 5.45102 96.8057 5.13182C96.4865 4.81262 96.1075 4.55941 95.6905 4.38666C95.2734 4.21391 94.8264 4.125 94.375 4.125H91.2812C90.3696 4.125 89.4952 4.48716 88.8506 5.13182C88.2059 5.77648 87.8438 6.65082 87.8438 7.5625C87.8438 8.47418 88.2059 9.34852 88.8506 9.99318C89.4952 10.6378 90.3696 11 91.2812 11H95.0625C95.9742 11 96.8485 11.3622 97.4932 12.0068C98.1378 12.6515 98.5 13.5258 98.5 14.4375C98.5 15.3492 98.1378 16.2235 97.4932 16.8682C96.8485 17.5128 95.9742 17.875 95.0625 17.875H90.9375C90.0258 17.875 89.1515 17.5128 88.5068 16.8682C87.8622 16.2235 87.5 15.3492 87.5 14.4375" stroke="#C5C9D6" stroke-width="1.5" stroke-linecap="round" stroke-linejoin="round"/>
</g>
<path d="M112.057 17.2727V4.54545H112.872V17.2727H112.057ZM114.801 8.36364C114.741 7.85985 114.5 7.46875 114.075 7.19034C113.651 6.91193 113.131 6.77273 112.514 6.77273C112.063 6.77273 111.669 6.84564 111.331 6.99148C110.996 7.13731 110.734 7.33783 110.545 7.59304C110.36 7.84825 110.267 8.13826 110.267 8.46307C110.267 8.73485 110.332 8.96851 110.461 9.16406C110.594 9.3563 110.763 9.51705 110.968 9.64631C111.174 9.77225 111.389 9.87666 111.614 9.95952C111.84 10.0391 112.047 10.1037 112.236 10.1534L113.27 10.4318C113.535 10.5014 113.83 10.5975 114.155 10.7202C114.483 10.8428 114.796 11.0102 115.094 11.2223C115.396 11.4311 115.645 11.6996 115.84 12.0277C116.036 12.3558 116.134 12.7585 116.134 13.2358C116.134 13.786 115.989 14.2831 115.701 14.7273C115.416 15.1714 114.998 15.5244 114.448 15.7862C113.901 16.0481 113.237 16.179 112.455 16.179C111.725 16.179 111.094 16.0613 110.56 15.826C110.03 15.5907 109.612 15.2625 109.308 14.8416C109.006 14.4207 108.835 13.9318 108.795 13.375H110.068C110.101 13.7595 110.231 14.0777 110.456 14.3295C110.685 14.5781 110.973 14.7637 111.321 14.8864C111.672 15.0057 112.05 15.0653 112.455 15.0653C112.925 15.0653 113.348 14.9891 113.722 14.8366C114.097 14.6809 114.393 14.4654 114.612 14.1903C114.831 13.9119 114.94 13.5871 114.94 13.2159C114.94 12.8778 114.846 12.6027 114.657 12.3906C114.468 12.1785 114.219 12.0062 113.911 11.8736C113.603 11.741 113.27 11.625 112.912 11.5256L111.659 11.1676C110.864 10.9389 110.234 10.6125 109.77 10.1882C109.306 9.76397 109.074 9.20881 109.074 8.52273C109.074 7.95265 109.228 7.45549 109.536 7.03125C109.848 6.60369 110.265 6.27225 110.789 6.03693C111.316 5.7983 111.904 5.67898 112.554 5.67898C113.21 5.67898 113.794 5.79664 114.304 6.03196C114.814 6.26397 115.219 6.58215 115.517 6.98651C115.819 7.39086 115.978 7.8499 115.994 8.36364H114.801ZM121.164 16.1392C120.58 16.1392 120.055 16.0232 119.588 15.7912C119.12 15.5592 118.746 15.241 118.464 14.8366C118.182 14.4323 118.028 13.9716 118.002 13.4545H119.195C119.241 13.9152 119.45 14.2964 119.821 14.598C120.196 14.8963 120.643 15.0455 121.164 15.0455C121.581 15.0455 121.952 14.9477 122.277 14.7521C122.605 14.5566 122.862 14.2881 123.048 13.9467C123.237 13.602 123.331 13.2126 123.331 12.7784C123.331 12.3343 123.233 11.9382 123.038 11.5902C122.846 11.2389 122.58 10.9621 122.242 10.7599C121.904 10.5578 121.518 10.455 121.084 10.4517C120.772 10.4484 120.453 10.4964 120.124 10.5959C119.796 10.692 119.526 10.8163 119.314 10.9688L118.161 10.8295L118.777 5.81818H124.067V6.91193H119.811L119.453 9.91477H119.513C119.722 9.74905 119.984 9.61151 120.298 9.50213C120.613 9.39276 120.941 9.33807 121.283 9.33807C121.906 9.33807 122.461 9.48722 122.948 9.78551C123.439 10.0805 123.823 10.4848 124.102 10.9986C124.383 11.5123 124.524 12.099 124.524 12.7585C124.524 13.4081 124.378 13.9882 124.087 14.4986C123.798 15.0057 123.401 15.4067 122.894 15.7017C122.387 15.9934 121.81 16.1392 121.164 16.1392ZM129.82 16.1392C129.071 16.1392 128.433 15.9354 127.906 15.5277C127.379 15.1167 126.977 14.5218 126.698 13.7429C126.42 12.9607 126.281 12.0161 126.281 10.9091C126.281 9.80871 126.42 8.86908 126.698 8.0902C126.98 7.308 127.384 6.71141 127.911 6.30043C128.442 5.88613 129.078 5.67898 129.82 5.67898C130.563 5.67898 131.197 5.88613 131.724 6.30043C132.255 6.71141 132.659 7.308 132.938 8.0902C133.219 8.86908 133.36 9.80871 133.36 10.9091C133.36 12.0161 133.221 12.9607 132.942 13.7429C132.664 14.5218 132.261 15.1167 131.734 15.5277C131.207 15.9354 130.569 16.1392 129.82 16.1392ZM129.82 15.0455C130.563 15.0455 131.139 14.6875 131.55 13.9716C131.961 13.2557 132.167 12.2348 132.167 10.9091C132.167 10.0275 132.072 9.27675 131.884 8.65696C131.698 8.03717 131.429 7.56487 131.078 7.24006C130.73 6.91525 130.311 6.75284 129.82 6.75284C129.085 6.75284 128.509 7.11577 128.095 7.84162C127.681 8.56416 127.474 9.58665 127.474 10.9091C127.474 11.7907 127.567 12.5398 127.752 13.1562C127.938 13.7727 128.205 14.2417 128.553 14.5632C128.904 14.8847 129.326 15.0455 129.82 15.0455ZM135.428 16V5.81818H136.661V10.8693H136.781L141.354 5.81818H142.965L138.69 10.4119L142.965 16H141.474L137.934 11.267L136.661 12.6989V16H135.428ZM147.259 10.3622V11.456H142.805V10.3622H147.259ZM152.307 17.2727V4.54545H153.122V17.2727H152.307ZM155.051 8.36364C154.991 7.85985 154.75 7.46875 154.325 7.19034C153.901 6.91193 153.381 6.77273 152.764 6.77273C152.313 6.77273 151.919 6.84564 151.581 6.99148C151.246 7.13731 150.984 7.33783 150.795 7.59304C150.61 7.84825 150.517 8.13826 150.517 8.46307C150.517 8.73485 150.582 8.96851 150.711 9.16406C150.844 9.3563 151.013 9.51705 151.218 9.64631C151.424 9.77225 151.639 9.87666 151.864 9.95952C152.09 10.0391 152.297 10.1037 152.486 10.1534L153.52 10.4318C153.785 10.5014 154.08 10.5975 154.405 10.7202C154.733 10.8428 155.046 11.0102 155.344 11.2223C155.646 11.4311 155.895 11.6996 156.09 12.0277C156.286 12.3558 156.384 12.7585 156.384 13.2358C156.384 13.786 156.239 14.2831 155.951 14.7273C155.666 15.1714 155.248 15.5244 154.698 15.7862C154.151 16.0481 153.487 16.179 152.705 16.179C151.975 16.179 151.344 16.0613 150.81 15.826C150.28 15.5907 149.862 15.2625 149.558 14.8416C149.256 14.4207 149.085 13.9318 149.045 13.375H150.318C150.351 13.7595 150.481 14.0777 150.706 14.3295C150.935 14.5781 151.223 14.7637 151.571 14.8864C151.922 15.0057 152.3 15.0653 152.705 15.0653C153.175 15.0653 153.598 14.9891 153.972 14.8366C154.347 14.6809 154.643 14.4654 154.862 14.1903C155.081 13.9119 155.19 13.5871 155.19 13.2159C155.19 12.8778 155.096 12.6027 154.907 12.3906C154.718 12.1785 154.469 12.0062 154.161 11.8736C153.853 11.741 153.52 11.625 153.162 11.5256L151.909 11.1676C151.114 10.9389 150.484 10.6125 150.02 10.1882C149.556 9.76397 149.324 9.20881 149.324 8.52273C149.324 7.95265 149.478 7.45549 149.786 7.03125C150.098 6.60369 150.515 6.27225 151.039 6.03693C151.566 5.7983 152.154 5.67898 152.804 5.67898C153.46 5.67898 154.044 5.79664 154.554 6.03196C155.064 6.26397 155.469 6.58215 155.767 6.98651C156.069 7.39086 156.228 7.8499 156.244 8.36364H155.051ZM161.612 16.1392C161.195 16.1326 160.777 16.053 160.36 15.9006C159.942 15.7481 159.561 15.4912 159.216 15.13C158.871 14.7654 158.595 14.2732 158.386 13.6534C158.177 13.0303 158.073 12.2481 158.073 11.3068C158.073 10.4053 158.157 9.60653 158.326 8.91051C158.495 8.21117 158.74 7.62287 159.062 7.1456C159.383 6.66501 159.771 6.30043 160.225 6.05185C160.683 5.80327 161.198 5.67898 161.771 5.67898C162.342 5.67898 162.849 5.79332 163.293 6.02202C163.74 6.2474 164.105 6.56226 164.387 6.96662C164.668 7.37098 164.851 7.83665 164.933 8.36364H163.72C163.608 7.90625 163.389 7.52675 163.064 7.22514C162.739 6.92353 162.308 6.77273 161.771 6.77273C160.983 6.77273 160.361 7.11577 159.907 7.80185C159.456 8.48793 159.229 9.45076 159.226 10.6903H159.306C159.491 10.4086 159.712 10.1683 159.967 9.96946C160.225 9.76728 160.51 9.61151 160.822 9.50213C161.133 9.39276 161.463 9.33807 161.811 9.33807C162.395 9.33807 162.928 9.4839 163.412 9.77557C163.896 10.0639 164.284 10.4633 164.575 10.9737C164.867 11.4808 165.013 12.0625 165.013 12.7188C165.013 13.3485 164.872 13.9252 164.59 14.4489C164.309 14.9692 163.913 15.3835 163.402 15.6918C162.895 15.9967 162.298 16.1458 161.612 16.1392ZM161.612 15.0455C162.03 15.0455 162.405 14.9411 162.736 14.7322C163.071 14.5234 163.334 14.2434 163.526 13.892C163.722 13.5407 163.82 13.1496 163.82 12.7188C163.82 12.2978 163.725 11.915 163.536 11.5703C163.351 11.2223 163.094 10.9455 162.766 10.7401C162.441 10.5346 162.07 10.4318 161.652 10.4318C161.337 10.4318 161.044 10.4948 160.772 10.6207C160.5 10.7434 160.262 10.9124 160.056 11.1278C159.854 11.3433 159.695 11.5902 159.579 11.8686C159.463 12.1437 159.405 12.4337 159.405 12.7386C159.405 13.143 159.499 13.5208 159.688 13.8722C159.881 14.2235 160.142 14.5069 160.474 14.7223C160.809 14.9377 161.188 15.0455 161.612 15.0455ZM170.289 16.1392C169.54 16.1392 168.902 15.9354 168.375 15.5277C167.848 15.1167 167.445 14.5218 167.167 13.7429C166.888 12.9607 166.749 12.0161 166.749 10.9091C166.749 9.80871 166.888 8.86908 167.167 8.0902C167.449 7.308 167.853 6.71141 168.38 6.30043C168.91 5.88613 169.547 5.67898 170.289 5.67898C171.031 5.67898 171.666 5.88613 172.193 6.30043C172.723 6.71141 173.128 7.308 173.406 8.0902C173.688 8.86908 173.829 9.80871 173.829 10.9091C173.829 12.0161 173.69 12.9607 173.411 13.7429C173.133 14.5218 172.73 15.1167 172.203 15.5277C171.676 15.9354 171.038 16.1392 170.289 16.1392ZM170.289 15.0455C171.031 15.0455 171.608 14.6875 172.019 13.9716C172.43 13.2557 172.636 12.2348 172.636 10.9091C172.636 10.0275 172.541 9.27675 172.352 8.65696C172.167 8.03717 171.898 7.56487 171.547 7.24006C171.199 6.91525 170.78 6.75284 170.289 6.75284C169.553 6.75284 168.978 7.11577 168.564 7.84162C168.15 8.56416 167.942 9.58665 167.942 10.9091C167.942 11.7907 168.035 12.5398 168.221 13.1562C168.406 13.7727 168.673 14.2417 169.021 14.5632C169.373 14.8847 169.795 15.0455 170.289 15.0455ZM175.897 16V5.81818H177.13V10.8693H177.249L181.823 5.81818H183.434L179.158 10.4119L183.434 16H181.942L178.403 11.267L177.13 12.6989V16H175.897Z" fill="#636A80"/>
<g clip-path="url(#clip1_1647_32334)">
<path d="M217.875 3.4375H204.125C203.745 3.4375 203.438 3.7453 203.438 4.125V17.875C203.438 18.2547 203.745 18.5625 204.125 18.5625H217.875C218.255 18.5625 218.562 18.2547 218.562 17.875V4.125C218.562 3.7453 218.255 3.4375 217.875 3.4375Z" stroke="#C5C9D6" stroke-width="1.5" stroke-linecap="round" stroke-linejoin="round"/>
<path d="M215.125 2.0625V4.8125" stroke="#C5C9D6" stroke-width="1.5" stroke-linecap="round" stroke-linejoin="round"/>
<path d="M206.875 2.0625V4.8125" stroke="#C5C9D6" stroke-width="1.5" stroke-linecap="round" stroke-linejoin="round"/>
<path d="M203.438 7.5625H218.562" stroke="#C5C9D6" stroke-width="1.5" stroke-linecap="round" stroke-linejoin="round"/>
</g>
<path d="M228.815 13.9119V12.8977L233.29 5.81818H234.026V7.3892H233.528L230.148 12.7386V12.8182H236.173V13.9119H228.815ZM233.608 16V13.6037V13.1314V5.81818H234.781V16H233.608ZM245.295 16H242.153V5.81818H245.434C246.422 5.81818 247.267 6.02202 247.97 6.42969C248.672 6.83404 249.211 7.41572 249.585 8.17472C249.96 8.9304 250.147 9.83523 250.147 10.8892C250.147 11.9498 249.958 12.8629 249.58 13.6286C249.203 14.3909 248.652 14.9775 247.93 15.3885C247.207 15.7962 246.329 16 245.295 16ZM243.386 14.9062H245.215C246.057 14.9062 246.755 14.7438 247.308 14.419C247.862 14.0942 248.275 13.6319 248.546 13.032C248.818 12.4321 248.954 11.7178 248.954 10.8892C248.954 10.0672 248.82 9.35961 248.551 8.76633C248.283 8.16974 247.882 7.71236 247.348 7.39418C246.815 7.07268 246.15 6.91193 245.355 6.91193H243.386V14.9062ZM254.303 16.179C253.82 16.179 253.38 16.0878 252.986 15.9055C252.592 15.7199 252.278 15.4531 252.046 15.1051C251.814 14.7538 251.698 14.3295 251.698 13.8324C251.698 13.3949 251.785 13.0402 251.957 12.7685C252.129 12.4934 252.36 12.2779 252.648 12.1222C252.936 11.9664 253.254 11.8504 253.602 11.7741C253.954 11.6946 254.307 11.6316 254.661 11.5852C255.125 11.5256 255.502 11.4808 255.79 11.451C256.082 11.4179 256.294 11.3632 256.426 11.2869C256.562 11.2107 256.63 11.0781 256.63 10.8892V10.8494C256.63 10.3589 256.496 9.97775 256.227 9.70597C255.962 9.43419 255.56 9.2983 255.019 9.2983C254.459 9.2983 254.02 9.42093 253.702 9.66619C253.384 9.91146 253.16 10.1733 253.031 10.4517L251.917 10.054C252.116 9.58996 252.381 9.22869 252.713 8.97017C253.047 8.70833 253.412 8.52604 253.806 8.4233C254.204 8.31723 254.595 8.2642 254.98 8.2642C255.225 8.2642 255.507 8.29403 255.825 8.35369C256.146 8.41004 256.456 8.5277 256.754 8.70668C257.056 8.88565 257.306 9.15578 257.505 9.51705C257.704 9.87831 257.803 10.3622 257.803 10.9688V16H256.63V14.9659H256.57C256.491 15.1316 256.358 15.3089 256.173 15.4979C255.987 15.6868 255.74 15.8475 255.432 15.9801C255.124 16.1127 254.748 16.179 254.303 16.179ZM254.482 15.125C254.946 15.125 255.338 15.0339 255.656 14.8516C255.977 14.6693 256.219 14.4339 256.382 14.1456C256.547 13.8572 256.63 13.554 256.63 13.2358V12.1619C256.58 12.2216 256.471 12.2763 256.302 12.326C256.136 12.3724 255.944 12.4138 255.725 12.4503C255.51 12.4834 255.299 12.5133 255.094 12.5398C254.892 12.563 254.728 12.5829 254.602 12.5994C254.297 12.6392 254.012 12.7038 253.747 12.7933C253.485 12.8795 253.273 13.0104 253.11 13.1861C252.951 13.3584 252.872 13.5937 252.872 13.892C252.872 14.2997 253.022 14.608 253.324 14.8168C253.629 15.0223 254.015 15.125 254.482 15.125ZM260.427 18.8636C260.228 18.8636 260.051 18.8471 259.895 18.8139C259.739 18.7841 259.632 18.7543 259.572 18.7244L259.87 17.6903C260.155 17.7633 260.407 17.7898 260.626 17.7699C260.845 17.75 261.039 17.6522 261.208 17.4766C261.38 17.3042 261.538 17.0241 261.68 16.6364L261.899 16.0398L259.075 8.36364H260.348L262.456 14.4489H262.535L264.643 8.36364H265.916L262.674 17.1136C262.529 17.508 262.348 17.8345 262.132 18.093C261.917 18.3549 261.667 18.5488 261.382 18.6747C261.1 18.8007 260.782 18.8636 260.427 18.8636ZM272.874 10.0739L271.82 10.3722C271.753 10.1965 271.656 10.0258 271.526 9.86009C271.4 9.69105 271.228 9.55185 271.009 9.44247C270.79 9.3331 270.51 9.27841 270.169 9.27841C269.702 9.27841 269.312 9.38613 269.001 9.60156C268.692 9.81368 268.538 10.0838 268.538 10.4119C268.538 10.7036 268.644 10.9339 268.857 11.103C269.069 11.272 269.4 11.4129 269.851 11.5256L270.984 11.804C271.667 11.9697 272.176 12.2232 272.511 12.5646C272.845 12.9027 273.013 13.3385 273.013 13.8722C273.013 14.3097 272.887 14.7008 272.635 15.0455C272.386 15.3902 272.038 15.6619 271.591 15.8608C271.143 16.0597 270.623 16.1591 270.03 16.1591C269.251 16.1591 268.606 15.9901 268.096 15.652C267.585 15.3139 267.262 14.8201 267.126 14.1705L268.24 13.892C268.346 14.303 268.547 14.6113 268.842 14.8168C269.14 15.0223 269.529 15.125 270.01 15.125C270.557 15.125 270.991 15.009 271.312 14.777C271.637 14.5417 271.8 14.2599 271.8 13.9318C271.8 13.6667 271.707 13.4446 271.521 13.2656C271.336 13.0833 271.051 12.9474 270.666 12.858L269.393 12.5597C268.694 12.3939 268.18 12.1371 267.852 11.7891C267.527 11.4377 267.365 10.9986 267.365 10.4716C267.365 10.0407 267.486 9.65956 267.728 9.32812C267.973 8.99669 268.306 8.73651 268.727 8.54758C269.152 8.35866 269.632 8.2642 270.169 8.2642C270.925 8.2642 271.518 8.42992 271.949 8.76136C272.383 9.0928 272.691 9.5303 272.874 10.0739ZM278.876 16V5.81818H282.316C283.111 5.81818 283.764 5.95407 284.275 6.22585C284.785 6.49432 285.163 6.86387 285.408 7.33452C285.653 7.80516 285.776 8.34044 285.776 8.94034C285.776 9.54025 285.653 10.0722 285.408 10.5362C285.163 11.0002 284.787 11.3648 284.28 11.63C283.773 11.8918 283.125 12.0227 282.336 12.0227H279.552V10.9091H282.296C282.84 10.9091 283.277 10.8295 283.608 10.6705C283.943 10.5114 284.185 10.286 284.334 9.99432C284.487 9.69934 284.563 9.34801 284.563 8.94034C284.563 8.53267 284.487 8.17637 284.334 7.87145C284.182 7.56652 283.938 7.3312 283.604 7.16548C283.269 6.99645 282.826 6.91193 282.276 6.91193H280.108V16H278.876ZM283.668 11.4261L286.174 16H284.742L282.276 11.4261H283.668ZM290.791 16.1591C290.055 16.1591 289.421 15.9967 288.887 15.6719C288.357 15.3438 287.947 14.8864 287.659 14.2997C287.374 13.7098 287.232 13.0237 287.232 12.2415C287.232 11.4593 287.374 10.7699 287.659 10.1733C287.947 9.57339 288.348 9.10606 288.862 8.77131C289.379 8.43324 289.982 8.2642 290.672 8.2642C291.07 8.2642 291.462 8.33049 291.85 8.46307C292.238 8.59564 292.591 8.81108 292.909 9.10938C293.227 9.40436 293.481 9.79545 293.67 10.2827C293.859 10.7699 293.953 11.3698 293.953 12.0824V12.5795H288.067V11.5653H292.76C292.76 11.1345 292.674 10.75 292.501 10.4119C292.332 10.0739 292.09 9.80705 291.776 9.61151C291.464 9.41596 291.096 9.31818 290.672 9.31818C290.205 9.31818 289.8 9.43419 289.459 9.66619C289.121 9.89489 288.861 10.1932 288.678 10.5611C288.496 10.929 288.405 11.3234 288.405 11.7443V12.4205C288.405 12.9972 288.504 13.486 288.703 13.8871C288.905 14.2848 289.185 14.5881 289.543 14.7969C289.901 15.0024 290.317 15.1051 290.791 15.1051C291.099 15.1051 291.378 15.062 291.626 14.9759C291.878 14.8864 292.095 14.7538 292.278 14.5781C292.46 14.3991 292.601 14.1771 292.7 13.9119L293.834 14.2301C293.714 14.6146 293.514 14.9527 293.232 15.2443C292.951 15.5327 292.603 15.758 292.188 15.9205C291.774 16.0795 291.308 16.1591 290.791 16.1591ZM295.738 16V8.36364H296.871V9.55682H296.971C297.13 9.14915 297.387 8.83262 297.741 8.60724C298.096 8.37855 298.522 8.2642 299.019 8.2642C299.523 8.2642 299.942 8.37855 300.277 8.60724C300.615 8.83262 300.879 9.14915 301.067 9.55682H301.147C301.343 9.16241 301.636 8.84919 302.027 8.61719C302.418 8.38187 302.887 8.2642 303.434 8.2642C304.117 8.2642 304.675 8.47798 305.109 8.90554C305.544 9.32978 305.761 9.991 305.761 10.8892V16H304.587V10.8892C304.587 10.3258 304.433 9.92306 304.125 9.68111C303.817 9.43916 303.454 9.31818 303.036 9.31818C302.499 9.31818 302.083 9.48059 301.788 9.8054C301.493 10.1269 301.346 10.5346 301.346 11.0284V16H300.153V10.7699C300.153 10.3357 300.012 9.98603 299.73 9.72088C299.448 9.45241 299.085 9.31818 298.641 9.31818C298.336 9.31818 298.051 9.39938 297.786 9.56179C297.524 9.72419 297.312 9.94957 297.15 10.2379C296.991 10.523 296.911 10.8527 296.911 11.2273V16H295.738ZM310.153 16.179C309.669 16.179 309.23 16.0878 308.836 15.9055C308.441 15.7199 308.128 15.4531 307.896 15.1051C307.664 14.7538 307.548 14.3295 307.548 13.8324C307.548 13.3949 307.634 13.0402 307.806 12.7685C307.979 12.4934 308.209 12.2779 308.498 12.1222C308.786 11.9664 309.104 11.8504 309.452 11.7741C309.803 11.6946 310.156 11.6316 310.511 11.5852C310.975 11.5256 311.351 11.4808 311.64 11.451C311.931 11.4179 312.143 11.3632 312.276 11.2869C312.412 11.2107 312.48 11.0781 312.48 10.8892V10.8494C312.48 10.3589 312.346 9.97775 312.077 9.70597C311.812 9.43419 311.409 9.2983 310.869 9.2983C310.309 9.2983 309.87 9.42093 309.551 9.66619C309.233 9.91146 309.01 10.1733 308.88 10.4517L307.767 10.054C307.966 9.58996 308.231 9.22869 308.562 8.97017C308.897 8.70833 309.261 8.52604 309.656 8.4233C310.054 8.31723 310.445 8.2642 310.829 8.2642C311.074 8.2642 311.356 8.29403 311.674 8.35369C311.996 8.41004 312.306 8.5277 312.604 8.70668C312.906 8.88565 313.156 9.15578 313.355 9.51705C313.554 9.87831 313.653 10.3622 313.653 10.9688V16H312.48V14.9659H312.42C312.341 15.1316 312.208 15.3089 312.022 15.4979C311.837 15.6868 311.59 15.8475 311.282 15.9801C310.973 16.1127 310.597 16.179 310.153 16.179ZM310.332 15.125C310.796 15.125 311.187 15.0339 311.505 14.8516C311.827 14.6693 312.069 14.4339 312.231 14.1456C312.397 13.8572 312.48 13.554 312.48 13.2358V12.1619C312.43 12.2216 312.321 12.2763 312.152 12.326C311.986 12.3724 311.794 12.4138 311.575 12.4503C311.359 12.4834 311.149 12.5133 310.944 12.5398C310.741 12.563 310.577 12.5829 310.451 12.5994C310.146 12.6392 309.861 12.7038 309.596 12.7933C309.334 12.8795 309.122 13.0104 308.96 13.1861C308.801 13.3584 308.721 13.5937 308.721 13.892C308.721 14.2997 308.872 14.608 309.174 14.8168C309.479 15.0223 309.865 15.125 310.332 15.125ZM315.795 16V8.36364H316.968V16H315.795ZM316.391 7.09091C316.162 7.09091 315.965 7.01302 315.8 6.85724C315.637 6.70147 315.556 6.5142 315.556 6.29545C315.556 6.0767 315.637 5.88944 315.8 5.73366C315.965 5.57789 316.162 5.5 316.391 5.5C316.62 5.5 316.815 5.57789 316.978 5.73366C317.144 5.88944 317.226 6.0767 317.226 6.29545C317.226 6.5142 317.144 6.70147 316.978 6.85724C316.815 7.01302 316.62 7.09091 316.391 7.09091ZM320.29 11.4062V16H319.117V8.36364H320.25V9.55682H320.35C320.529 9.16903 320.801 8.85748 321.165 8.62216C321.53 8.38352 322 8.2642 322.577 8.2642C323.094 8.2642 323.547 8.37027 323.934 8.58239C324.322 8.79119 324.624 9.10938 324.839 9.53693C325.055 9.96117 325.162 10.4981 325.162 11.1477V16H323.989V11.2273C323.989 10.6274 323.833 10.16 323.522 9.82528C323.21 9.48722 322.783 9.31818 322.239 9.31818C321.864 9.31818 321.53 9.39938 321.235 9.56179C320.943 9.72419 320.713 9.96117 320.544 10.2727C320.375 10.5843 320.29 10.9621 320.29 11.4062ZM327.306 16V8.36364H328.48V16H327.306ZM327.903 7.09091C327.674 7.09091 327.477 7.01302 327.311 6.85724C327.149 6.70147 327.068 6.5142 327.068 6.29545C327.068 6.0767 327.149 5.88944 327.311 5.73366C327.477 5.57789 327.674 5.5 327.903 5.5C328.132 5.5 328.327 5.57789 328.49 5.73366C328.655 5.88944 328.738 6.0767 328.738 6.29545C328.738 6.5142 328.655 6.70147 328.49 6.85724C328.327 7.01302 328.132 7.09091 327.903 7.09091ZM331.802 11.4062V16H330.629V8.36364H331.762V9.55682H331.862C332.04 9.16903 332.312 8.85748 332.677 8.62216C333.041 8.38352 333.512 8.2642 334.089 8.2642C334.606 8.2642 335.058 8.37027 335.446 8.58239C335.834 8.79119 336.135 9.10938 336.351 9.53693C336.566 9.96117 336.674 10.4981 336.674 11.1477V16H335.501V11.2273C335.501 10.6274 335.345 10.16 335.033 9.82528C334.722 9.48722 334.294 9.31818 333.751 9.31818C333.376 9.31818 333.041 9.39938 332.746 9.56179C332.455 9.72419 332.224 9.96117 332.055 10.2727C331.886 10.5843 331.802 10.9621 331.802 11.4062ZM341.9 19.0227C341.334 19.0227 340.846 18.9498 340.439 18.804C340.031 18.6615 339.691 18.4725 339.42 18.2372C339.151 18.0052 338.937 17.7566 338.778 17.4915L339.713 16.8352C339.819 16.9744 339.953 17.1335 340.116 17.3125C340.278 17.4948 340.5 17.6522 340.782 17.7848C341.067 17.9207 341.44 17.9886 341.9 17.9886C342.517 17.9886 343.026 17.8395 343.427 17.5412C343.828 17.2429 344.028 16.7756 344.028 16.1392V14.5881H343.929C343.843 14.7273 343.72 14.8996 343.561 15.1051C343.405 15.3073 343.18 15.4879 342.885 15.647C342.593 15.8028 342.199 15.8807 341.702 15.8807C341.085 15.8807 340.532 15.7348 340.041 15.4432C339.554 15.1515 339.168 14.7273 338.883 14.1705C338.601 13.6136 338.46 12.9375 338.46 12.142C338.46 11.3598 338.598 10.6787 338.873 10.0987C339.148 9.51539 339.531 9.06463 340.021 8.74645C340.512 8.42495 341.078 8.2642 341.721 8.2642C342.219 8.2642 342.613 8.34706 342.905 8.51278C343.2 8.67519 343.425 8.8608 343.581 9.0696C343.74 9.27509 343.863 9.44413 343.949 9.5767H344.068V8.36364H345.202V16.2188C345.202 16.875 345.052 17.4086 344.754 17.8196C344.459 18.2339 344.061 18.5372 343.561 18.7294C343.064 18.925 342.51 19.0227 341.9 19.0227ZM341.861 14.8267C342.331 14.8267 342.729 14.719 343.054 14.5036C343.379 14.2881 343.626 13.9782 343.795 13.5739C343.964 13.1695 344.048 12.6856 344.048 12.1222C344.048 11.572 343.965 11.0864 343.8 10.6655C343.634 10.2446 343.389 9.91477 343.064 9.67614C342.739 9.4375 342.338 9.31818 341.861 9.31818C341.363 9.31818 340.949 9.44413 340.618 9.69602C340.29 9.94792 340.043 10.286 339.877 10.7102C339.715 11.1345 339.633 11.6051 339.633 12.1222C339.633 12.6525 339.716 13.1214 339.882 13.5291C340.051 13.9335 340.3 14.2517 340.628 14.4837C340.959 14.7124 341.37 14.8267 341.861 14.8267Z" fill="#636A80"/>
<defs>
<clipPath id="clip0_1647_32334">
<rect width="22" height="22" fill="white" transform="translate(82)"/>
</clipPath>
<clipPath id="clip1_1647_32334">
<rect width="22" height="22" fill="white" transform="translate(200)"/>
</clipPath>
</defs>
</svg>
