<svg width="369" height="22" viewBox="0 0 369 22" fill="none" xmlns="http://www.w3.org/2000/svg">
<path d="M19.25 9.16675C19.25 15.5834 11 21.0834 11 21.0834C11 21.0834 2.75 15.5834 2.75 9.16675C2.75 6.97871 3.61919 4.88029 5.16637 3.33312C6.71354 1.78594 8.81196 0.916748 11 0.916748C13.188 0.916748 15.2865 1.78594 16.8336 3.33312C18.3808 4.88029 19.25 6.97871 19.25 9.16675Z" stroke="#C5C9D6" stroke-width="1.5" stroke-linecap="round" stroke-linejoin="round"/>
<path d="M11 11.9167C12.5188 11.9167 13.75 10.6855 13.75 9.16675C13.75 7.64797 12.5188 6.41675 11 6.41675C9.48122 6.41675 8.25 7.64797 8.25 9.16675C8.25 10.6855 9.48122 11.9167 11 11.9167Z" stroke="#C5C9D6" stroke-width="1.5" stroke-linecap="round" stroke-linejoin="round"/>
<path d="M36.1932 9C36.0838 8.66525 35.9396 8.36529 35.7607 8.10014C35.585 7.83168 35.3745 7.60298 35.1293 7.41406C34.8873 7.22514 34.6122 7.08097 34.304 6.98153C33.9957 6.8821 33.6577 6.83239 33.2898 6.83239C32.6866 6.83239 32.138 6.98816 31.6442 7.29972C31.1503 7.61127 30.7576 8.07031 30.4659 8.67685C30.1742 9.28338 30.0284 10.0275 30.0284 10.9091C30.0284 11.7907 30.1759 12.5348 30.4709 13.1413C30.7659 13.7479 31.1652 14.2069 31.669 14.5185C32.1728 14.83 32.7396 14.9858 33.3693 14.9858C33.9527 14.9858 34.4664 14.8615 34.9105 14.6129C35.358 14.361 35.706 14.0064 35.9545 13.549C36.2064 13.0883 36.3324 12.5464 36.3324 11.9233L36.7102 12.0028H33.6477V10.9091H37.5256V12.0028C37.5256 12.8414 37.3466 13.5705 36.9886 14.1903C36.634 14.8101 36.1435 15.2907 35.517 15.6321C34.8939 15.9702 34.178 16.1392 33.3693 16.1392C32.4678 16.1392 31.6757 15.9271 30.9929 15.5028C30.3134 15.0786 29.7831 14.4754 29.402 13.6932C29.0241 12.911 28.8352 11.983 28.8352 10.9091C28.8352 10.1037 28.9429 9.3795 29.1584 8.73651C29.3771 8.0902 29.6854 7.54001 30.0831 7.08594C30.4808 6.63187 30.9515 6.28385 31.495 6.0419C32.0386 5.79995 32.6368 5.67898 33.2898 5.67898C33.8267 5.67898 34.3272 5.76018 34.7912 5.92258C35.2585 6.08168 35.6745 6.30871 36.0391 6.60369C36.407 6.89536 36.7135 7.24503 36.9588 7.6527C37.2041 8.05705 37.3731 8.50616 37.4659 9H36.1932ZM42.6799 16.1591C41.9441 16.1591 41.3094 15.9967 40.7757 15.6719C40.2454 15.3438 39.8361 14.8864 39.5478 14.2997C39.2627 13.7098 39.1202 13.0237 39.1202 12.2415C39.1202 11.4593 39.2627 10.7699 39.5478 10.1733C39.8361 9.57339 40.2372 9.10606 40.7509 8.77131C41.2679 8.43324 41.8712 8.2642 42.5605 8.2642C42.9583 8.2642 43.351 8.33049 43.7388 8.46307C44.1266 8.59564 44.4796 8.81108 44.7978 9.10938C45.1159 9.40436 45.3695 9.79545 45.5584 10.2827C45.7473 10.7699 45.8418 11.3698 45.8418 12.0824V12.5795H39.9554V11.5653H44.6486C44.6486 11.1345 44.5624 10.75 44.3901 10.4119C44.2211 10.0739 43.9791 9.80705 43.6642 9.61151C43.3527 9.41596 42.9848 9.31818 42.5605 9.31818C42.0932 9.31818 41.6889 9.43419 41.3475 9.66619C41.0094 9.89489 40.7492 10.1932 40.5669 10.5611C40.3846 10.929 40.2935 11.3234 40.2935 11.7443V12.4205C40.2935 12.9972 40.3929 13.486 40.5918 13.8871C40.794 14.2848 41.074 14.5881 41.432 14.7969C41.79 15.0024 42.2059 15.1051 42.6799 15.1051C42.9881 15.1051 43.2665 15.062 43.5151 14.9759C43.767 14.8864 43.9841 14.7538 44.1664 14.5781C44.3487 14.3991 44.4895 14.1771 44.589 13.9119L45.7225 14.2301C45.6032 14.6146 45.4026 14.9527 45.1209 15.2443C44.8392 15.5327 44.4912 15.758 44.0769 15.9205C43.6626 16.0795 43.1969 16.1591 42.6799 16.1591ZM47.6266 16V8.36364H48.7601V9.51705H48.8397C48.9789 9.1392 49.2308 8.83262 49.5953 8.5973C49.9599 8.36198 50.3709 8.24432 50.8283 8.24432C50.9145 8.24432 51.0222 8.24597 51.1515 8.24929C51.2807 8.2526 51.3785 8.25758 51.4448 8.2642V9.45739C51.405 9.44744 51.3139 9.43253 51.1713 9.41264C51.0321 9.38944 50.8846 9.37784 50.7289 9.37784C50.3577 9.37784 50.0262 9.45573 49.7346 9.61151C49.4462 9.76397 49.2175 9.97609 49.0485 10.2479C48.8828 10.5163 48.7999 10.8229 48.7999 11.1676V16H47.6266ZM52.8356 16V8.36364H53.9691V9.55682H54.0685C54.2276 9.14915 54.4845 8.83262 54.8391 8.60724C55.1938 8.37855 55.6197 8.2642 56.1168 8.2642C56.6206 8.2642 57.0399 8.37855 57.3746 8.60724C57.7127 8.83262 57.9762 9.14915 58.1651 9.55682H58.2447C58.4402 9.16241 58.7335 8.84919 59.1246 8.61719C59.5157 8.38187 59.9847 8.2642 60.5316 8.2642C61.2144 8.2642 61.7728 8.47798 62.207 8.90554C62.6412 9.32978 62.8583 9.991 62.8583 10.8892V16H61.685V10.8892C61.685 10.3258 61.5309 9.92306 61.2227 9.68111C60.9144 9.43916 60.5515 9.31818 60.1339 9.31818C59.5969 9.31818 59.181 9.48059 58.886 9.8054C58.591 10.1269 58.4435 10.5346 58.4435 11.0284V16H57.2504V10.7699C57.2504 10.3357 57.1095 9.98603 56.8278 9.72088C56.546 9.45241 56.1831 9.31818 55.739 9.31818C55.4341 9.31818 55.149 9.39938 54.8839 9.56179C54.622 9.72419 54.4099 9.94957 54.2475 10.2379C54.0884 10.523 54.0089 10.8527 54.0089 11.2273V16H52.8356ZM67.2507 16.179C66.7668 16.179 66.3277 16.0878 65.9332 15.9055C65.5388 15.7199 65.2256 15.4531 64.9936 15.1051C64.7616 14.7538 64.6456 14.3295 64.6456 13.8324C64.6456 13.3949 64.7318 13.0402 64.9041 12.7685C65.0765 12.4934 65.3068 12.2779 65.5952 12.1222C65.8835 11.9664 66.2017 11.8504 66.5497 11.7741C66.901 11.6946 67.254 11.6316 67.6087 11.5852C68.0727 11.5256 68.4489 11.4808 68.7372 11.451C69.0289 11.4179 69.241 11.3632 69.3736 11.2869C69.5095 11.2107 69.5774 11.0781 69.5774 10.8892V10.8494C69.5774 10.3589 69.4432 9.97775 69.1747 9.70597C68.9096 9.43419 68.5069 9.2983 67.9666 9.2983C67.4065 9.2983 66.9673 9.42093 66.6491 9.66619C66.331 9.91146 66.1072 10.1733 65.978 10.4517L64.8643 10.054C65.0632 9.58996 65.3284 9.22869 65.6598 8.97017C65.9946 8.70833 66.3591 8.52604 66.7536 8.4233C67.1513 8.31723 67.5424 8.2642 67.9268 8.2642C68.1721 8.2642 68.4538 8.29403 68.772 8.35369C69.0935 8.41004 69.4034 8.5277 69.7017 8.70668C70.0033 8.88565 70.2536 9.15578 70.4524 9.51705C70.6513 9.87831 70.7507 10.3622 70.7507 10.9688V16H69.5774V14.9659H69.5178C69.4382 15.1316 69.3056 15.3089 69.12 15.4979C68.9344 15.6868 68.6875 15.8475 68.3793 15.9801C68.071 16.1127 67.6948 16.179 67.2507 16.179ZM67.4297 15.125C67.8937 15.125 68.2848 15.0339 68.603 14.8516C68.9245 14.6693 69.1664 14.4339 69.3288 14.1456C69.4946 13.8572 69.5774 13.554 69.5774 13.2358V12.1619C69.5277 12.2216 69.4183 12.2763 69.2493 12.326C69.0836 12.3724 68.8913 12.4138 68.6726 12.4503C68.4571 12.4834 68.2467 12.5133 68.0412 12.5398C67.839 12.563 67.675 12.5829 67.549 12.5994C67.2441 12.6392 66.959 12.7038 66.6939 12.7933C66.4321 12.8795 66.2199 13.0104 66.0575 13.1861C65.8984 13.3584 65.8189 13.5937 65.8189 13.892C65.8189 14.2997 65.9697 14.608 66.2713 14.8168C66.5762 15.0223 66.9624 15.125 67.4297 15.125ZM74.0655 11.4062V16H72.8922V8.36364H74.0257V9.55682H74.1252C74.3042 9.16903 74.5759 8.85748 74.9405 8.62216C75.3051 8.38352 75.7757 8.2642 76.3525 8.2642C76.8695 8.2642 77.3219 8.37027 77.7097 8.58239C78.0975 8.79119 78.3991 9.10938 78.6145 9.53693C78.83 9.96117 78.9377 10.4981 78.9377 11.1477V16H77.7644V11.2273C77.7644 10.6274 77.6086 10.16 77.2971 9.82528C76.9855 9.48722 76.5579 9.31818 76.0144 9.31818C75.6399 9.31818 75.3051 9.39938 75.0101 9.56179C74.7185 9.72419 74.4881 9.96117 74.3191 10.2727C74.15 10.5843 74.0655 10.9621 74.0655 11.4062ZM81.5639 18.8636C81.3651 18.8636 81.1877 18.8471 81.032 18.8139C80.8762 18.7841 80.7685 18.7543 80.7088 18.7244L81.0071 17.6903C81.2921 17.7633 81.544 17.7898 81.7628 17.7699C81.9815 17.75 82.1754 17.6522 82.3445 17.4766C82.5168 17.3042 82.6742 17.0241 82.8168 16.6364L83.0355 16.0398L80.2116 8.36364H81.4844L83.5923 14.4489H83.6719L85.7798 8.36364H87.0526L83.8111 17.1136C83.6652 17.508 83.4846 17.8345 83.2692 18.093C83.0537 18.3549 82.8035 18.5488 82.5185 18.6747C82.2367 18.8007 81.9186 18.8636 81.5639 18.8636Z" fill="#636A80"/>
<g clip-path="url(#clip0_1647_32263)">
<path d="M115 2.0625V19.9375" stroke="#C5C9D6" stroke-width="1.5" stroke-linecap="round" stroke-linejoin="round"/>
<path d="M119.812 7.5625C119.812 7.11108 119.724 6.66408 119.551 6.24703C119.378 5.82997 119.125 5.45102 118.806 5.13182C118.486 4.81262 118.108 4.55941 117.69 4.38666C117.273 4.21391 116.826 4.125 116.375 4.125H113.281C112.37 4.125 111.495 4.48716 110.851 5.13182C110.206 5.77648 109.844 6.65082 109.844 7.5625C109.844 8.47418 110.206 9.34852 110.851 9.99318C111.495 10.6378 112.37 11 113.281 11H117.062C117.974 11 118.849 11.3622 119.493 12.0068C120.138 12.6515 120.5 13.5258 120.5 14.4375C120.5 15.3492 120.138 16.2235 119.493 16.8682C118.849 17.5128 117.974 17.875 117.062 17.875H112.938C112.026 17.875 111.151 17.5128 110.507 16.8682C109.862 16.2235 109.5 15.3492 109.5 14.4375" stroke="#C5C9D6" stroke-width="1.5" stroke-linecap="round" stroke-linejoin="round"/>
</g>
<path d="M134.057 17.2727V4.54545H134.872V17.2727H134.057ZM136.801 8.36364C136.741 7.85985 136.5 7.46875 136.075 7.19034C135.651 6.91193 135.131 6.77273 134.514 6.77273C134.063 6.77273 133.669 6.84564 133.331 6.99148C132.996 7.13731 132.734 7.33783 132.545 7.59304C132.36 7.84825 132.267 8.13826 132.267 8.46307C132.267 8.73485 132.332 8.96851 132.461 9.16406C132.594 9.3563 132.763 9.51705 132.968 9.64631C133.174 9.77225 133.389 9.87666 133.614 9.95952C133.84 10.0391 134.047 10.1037 134.236 10.1534L135.27 10.4318C135.535 10.5014 135.83 10.5975 136.155 10.7202C136.483 10.8428 136.796 11.0102 137.094 11.2223C137.396 11.4311 137.645 11.6996 137.84 12.0277C138.036 12.3558 138.134 12.7585 138.134 13.2358C138.134 13.786 137.989 14.2831 137.701 14.7273C137.416 15.1714 136.998 15.5244 136.448 15.7862C135.901 16.0481 135.237 16.179 134.455 16.179C133.725 16.179 133.094 16.0613 132.56 15.826C132.03 15.5907 131.612 15.2625 131.308 14.8416C131.006 14.4207 130.835 13.9318 130.795 13.375H132.068C132.101 13.7595 132.231 14.0777 132.456 14.3295C132.685 14.5781 132.973 14.7637 133.321 14.8864C133.672 15.0057 134.05 15.0653 134.455 15.0653C134.925 15.0653 135.348 14.9891 135.722 14.8366C136.097 14.6809 136.393 14.4654 136.612 14.1903C136.831 13.9119 136.94 13.5871 136.94 13.2159C136.94 12.8778 136.846 12.6027 136.657 12.3906C136.468 12.1785 136.219 12.0062 135.911 11.8736C135.603 11.741 135.27 11.625 134.912 11.5256L133.659 11.1676C132.864 10.9389 132.234 10.6125 131.77 10.1882C131.306 9.76397 131.074 9.20881 131.074 8.52273C131.074 7.95265 131.228 7.45549 131.536 7.03125C131.848 6.60369 132.265 6.27225 132.789 6.03693C133.316 5.7983 133.904 5.67898 134.554 5.67898C135.21 5.67898 135.794 5.79664 136.304 6.03196C136.814 6.26397 137.219 6.58215 137.517 6.98651C137.819 7.39086 137.978 7.8499 137.994 8.36364H136.801ZM143.164 16.1392C142.58 16.1392 142.055 16.0232 141.588 15.7912C141.12 15.5592 140.746 15.241 140.464 14.8366C140.182 14.4323 140.028 13.9716 140.002 13.4545H141.195C141.241 13.9152 141.45 14.2964 141.821 14.598C142.196 14.8963 142.643 15.0455 143.164 15.0455C143.581 15.0455 143.952 14.9477 144.277 14.7521C144.605 14.5566 144.862 14.2881 145.048 13.9467C145.237 13.602 145.331 13.2126 145.331 12.7784C145.331 12.3343 145.233 11.9382 145.038 11.5902C144.846 11.2389 144.58 10.9621 144.242 10.7599C143.904 10.5578 143.518 10.455 143.084 10.4517C142.772 10.4484 142.453 10.4964 142.124 10.5959C141.796 10.692 141.526 10.8163 141.314 10.9688L140.161 10.8295L140.777 5.81818H146.067V6.91193H141.811L141.453 9.91477H141.513C141.722 9.74905 141.984 9.61151 142.298 9.50213C142.613 9.39276 142.941 9.33807 143.283 9.33807C143.906 9.33807 144.461 9.48722 144.948 9.78551C145.439 10.0805 145.823 10.4848 146.102 10.9986C146.383 11.5123 146.524 12.099 146.524 12.7585C146.524 13.4081 146.378 13.9882 146.087 14.4986C145.798 15.0057 145.401 15.4067 144.894 15.7017C144.387 15.9934 143.81 16.1392 143.164 16.1392ZM151.82 16.1392C151.071 16.1392 150.433 15.9354 149.906 15.5277C149.379 15.1167 148.977 14.5218 148.698 13.7429C148.42 12.9607 148.281 12.0161 148.281 10.9091C148.281 9.80871 148.42 8.86908 148.698 8.0902C148.98 7.308 149.384 6.71141 149.911 6.30043C150.442 5.88613 151.078 5.67898 151.82 5.67898C152.563 5.67898 153.197 5.88613 153.724 6.30043C154.255 6.71141 154.659 7.308 154.938 8.0902C155.219 8.86908 155.36 9.80871 155.36 10.9091C155.36 12.0161 155.221 12.9607 154.942 13.7429C154.664 14.5218 154.261 15.1167 153.734 15.5277C153.207 15.9354 152.569 16.1392 151.82 16.1392ZM151.82 15.0455C152.563 15.0455 153.139 14.6875 153.55 13.9716C153.961 13.2557 154.167 12.2348 154.167 10.9091C154.167 10.0275 154.072 9.27675 153.884 8.65696C153.698 8.03717 153.429 7.56487 153.078 7.24006C152.73 6.91525 152.311 6.75284 151.82 6.75284C151.085 6.75284 150.509 7.11577 150.095 7.84162C149.681 8.56416 149.474 9.58665 149.474 10.9091C149.474 11.7907 149.567 12.5398 149.752 13.1562C149.938 13.7727 150.205 14.2417 150.553 14.5632C150.904 14.8847 151.326 15.0455 151.82 15.0455ZM157.428 16V5.81818H158.661V10.8693H158.781L163.354 5.81818H164.965L160.69 10.4119L164.965 16H163.474L159.934 11.267L158.661 12.6989V16H157.428ZM169.259 10.3622V11.456H164.805V10.3622H169.259ZM174.307 17.2727V4.54545H175.122V17.2727H174.307ZM177.051 8.36364C176.991 7.85985 176.75 7.46875 176.325 7.19034C175.901 6.91193 175.381 6.77273 174.764 6.77273C174.313 6.77273 173.919 6.84564 173.581 6.99148C173.246 7.13731 172.984 7.33783 172.795 7.59304C172.61 7.84825 172.517 8.13826 172.517 8.46307C172.517 8.73485 172.582 8.96851 172.711 9.16406C172.844 9.3563 173.013 9.51705 173.218 9.64631C173.424 9.77225 173.639 9.87666 173.864 9.95952C174.09 10.0391 174.297 10.1037 174.486 10.1534L175.52 10.4318C175.785 10.5014 176.08 10.5975 176.405 10.7202C176.733 10.8428 177.046 11.0102 177.344 11.2223C177.646 11.4311 177.895 11.6996 178.09 12.0277C178.286 12.3558 178.384 12.7585 178.384 13.2358C178.384 13.786 178.239 14.2831 177.951 14.7273C177.666 15.1714 177.248 15.5244 176.698 15.7862C176.151 16.0481 175.487 16.179 174.705 16.179C173.975 16.179 173.344 16.0613 172.81 15.826C172.28 15.5907 171.862 15.2625 171.558 14.8416C171.256 14.4207 171.085 13.9318 171.045 13.375H172.318C172.351 13.7595 172.481 14.0777 172.706 14.3295C172.935 14.5781 173.223 14.7637 173.571 14.8864C173.922 15.0057 174.3 15.0653 174.705 15.0653C175.175 15.0653 175.598 14.9891 175.972 14.8366C176.347 14.6809 176.643 14.4654 176.862 14.1903C177.081 13.9119 177.19 13.5871 177.19 13.2159C177.19 12.8778 177.096 12.6027 176.907 12.3906C176.718 12.1785 176.469 12.0062 176.161 11.8736C175.853 11.741 175.52 11.625 175.162 11.5256L173.909 11.1676C173.114 10.9389 172.484 10.6125 172.02 10.1882C171.556 9.76397 171.324 9.20881 171.324 8.52273C171.324 7.95265 171.478 7.45549 171.786 7.03125C172.098 6.60369 172.515 6.27225 173.039 6.03693C173.566 5.7983 174.154 5.67898 174.804 5.67898C175.46 5.67898 176.044 5.79664 176.554 6.03196C177.064 6.26397 177.469 6.58215 177.767 6.98651C178.069 7.39086 178.228 7.8499 178.244 8.36364H177.051ZM183.473 5.67898C183.891 5.68229 184.308 5.76184 184.726 5.91761C185.144 6.07339 185.525 6.33191 185.869 6.69318C186.214 7.05114 186.491 7.54001 186.7 8.1598C186.909 8.77959 187.013 9.55682 187.013 10.4915C187.013 11.3963 186.927 12.2 186.754 12.9027C186.585 13.602 186.34 14.192 186.019 14.6726C185.7 15.1532 185.313 15.5178 184.855 15.7663C184.401 16.0149 183.887 16.1392 183.314 16.1392C182.744 16.1392 182.235 16.0265 181.788 15.8011C181.344 15.5724 180.979 15.2559 180.694 14.8516C180.412 14.4439 180.232 13.9716 180.152 13.4347H181.365C181.475 13.902 181.692 14.2881 182.017 14.593C182.345 14.8946 182.777 15.0455 183.314 15.0455C184.1 15.0455 184.719 14.7024 185.173 14.0163C185.631 13.3303 185.86 12.3608 185.86 11.108H185.78C185.594 11.3864 185.374 11.6267 185.119 11.8288C184.864 12.031 184.58 12.1868 184.269 12.2962C183.957 12.4055 183.626 12.4602 183.274 12.4602C182.691 12.4602 182.156 12.3161 181.669 12.0277C181.185 11.736 180.797 11.3366 180.505 10.8295C180.217 10.3191 180.073 9.7358 180.073 9.07955C180.073 8.45644 180.212 7.88636 180.49 7.36932C180.772 6.84896 181.166 6.43466 181.673 6.12642C182.184 5.81818 182.784 5.66903 183.473 5.67898ZM183.473 6.77273C183.056 6.77273 182.679 6.87713 182.345 7.08594C182.013 7.29143 181.75 7.56984 181.554 7.92116C181.362 8.26918 181.266 8.6553 181.266 9.07955C181.266 9.50379 181.359 9.88991 181.544 10.2379C181.733 10.5826 181.99 10.8577 182.315 11.0632C182.643 11.2654 183.016 11.3665 183.433 11.3665C183.748 11.3665 184.042 11.3052 184.313 11.1825C184.585 11.0566 184.822 10.8859 185.024 10.6705C185.23 10.4517 185.391 10.2048 185.507 9.92969C185.623 9.65128 185.681 9.36127 185.681 9.05966C185.681 8.66193 185.584 8.28906 185.392 7.94105C185.203 7.59304 184.941 7.31132 184.607 7.09588C184.275 6.88044 183.897 6.77273 183.473 6.77273ZM192.289 16.1392C191.54 16.1392 190.902 15.9354 190.375 15.5277C189.848 15.1167 189.445 14.5218 189.167 13.7429C188.888 12.9607 188.749 12.0161 188.749 10.9091C188.749 9.80871 188.888 8.86908 189.167 8.0902C189.449 7.308 189.853 6.71141 190.38 6.30043C190.91 5.88613 191.547 5.67898 192.289 5.67898C193.031 5.67898 193.666 5.88613 194.193 6.30043C194.723 6.71141 195.128 7.308 195.406 8.0902C195.688 8.86908 195.829 9.80871 195.829 10.9091C195.829 12.0161 195.69 12.9607 195.411 13.7429C195.133 14.5218 194.73 15.1167 194.203 15.5277C193.676 15.9354 193.038 16.1392 192.289 16.1392ZM192.289 15.0455C193.031 15.0455 193.608 14.6875 194.019 13.9716C194.43 13.2557 194.636 12.2348 194.636 10.9091C194.636 10.0275 194.541 9.27675 194.352 8.65696C194.167 8.03717 193.898 7.56487 193.547 7.24006C193.199 6.91525 192.78 6.75284 192.289 6.75284C191.553 6.75284 190.978 7.11577 190.564 7.84162C190.15 8.56416 189.942 9.58665 189.942 10.9091C189.942 11.7907 190.035 12.5398 190.221 13.1562C190.406 13.7727 190.673 14.2417 191.021 14.5632C191.373 14.8847 191.795 15.0455 192.289 15.0455ZM197.897 16V5.81818H199.13V10.8693H199.249L203.823 5.81818H205.434L201.158 10.4119L205.434 16H203.942L200.403 11.267L199.13 12.6989V16H197.897Z" fill="#636A80"/>
<g clip-path="url(#clip1_1647_32263)">
<path d="M239.875 3.4375H226.125C225.745 3.4375 225.438 3.7453 225.438 4.125V17.875C225.438 18.2547 225.745 18.5625 226.125 18.5625H239.875C240.255 18.5625 240.562 18.2547 240.562 17.875V4.125C240.562 3.7453 240.255 3.4375 239.875 3.4375Z" stroke="#C5C9D6" stroke-width="1.5" stroke-linecap="round" stroke-linejoin="round"/>
<path d="M237.125 2.0625V4.8125" stroke="#C5C9D6" stroke-width="1.5" stroke-linecap="round" stroke-linejoin="round"/>
<path d="M228.875 2.0625V4.8125" stroke="#C5C9D6" stroke-width="1.5" stroke-linecap="round" stroke-linejoin="round"/>
<path d="M225.438 7.5625H240.562" stroke="#C5C9D6" stroke-width="1.5" stroke-linecap="round" stroke-linejoin="round"/>
</g>
<path d="M250.815 13.9119V12.8977L255.29 5.81818H256.026V7.3892H255.528L252.148 12.7386V12.8182H258.173V13.9119H250.815ZM255.608 16V13.6037V13.1314V5.81818H256.781V16H255.608ZM267.295 16H264.153V5.81818H267.434C268.422 5.81818 269.267 6.02202 269.97 6.42969C270.672 6.83404 271.211 7.41572 271.585 8.17472C271.96 8.9304 272.147 9.83523 272.147 10.8892C272.147 11.9498 271.958 12.8629 271.58 13.6286C271.203 14.3909 270.652 14.9775 269.93 15.3885C269.207 15.7962 268.329 16 267.295 16ZM265.386 14.9062H267.215C268.057 14.9062 268.755 14.7438 269.308 14.419C269.862 14.0942 270.275 13.6319 270.546 13.032C270.818 12.4321 270.954 11.7178 270.954 10.8892C270.954 10.0672 270.82 9.35961 270.551 8.76633C270.283 8.16974 269.882 7.71236 269.348 7.39418C268.815 7.07268 268.15 6.91193 267.355 6.91193H265.386V14.9062ZM276.303 16.179C275.82 16.179 275.38 16.0878 274.986 15.9055C274.592 15.7199 274.278 15.4531 274.046 15.1051C273.814 14.7538 273.698 14.3295 273.698 13.8324C273.698 13.3949 273.785 13.0402 273.957 12.7685C274.129 12.4934 274.36 12.2779 274.648 12.1222C274.936 11.9664 275.254 11.8504 275.602 11.7741C275.954 11.6946 276.307 11.6316 276.661 11.5852C277.125 11.5256 277.502 11.4808 277.79 11.451C278.082 11.4179 278.294 11.3632 278.426 11.2869C278.562 11.2107 278.63 11.0781 278.63 10.8892V10.8494C278.63 10.3589 278.496 9.97775 278.227 9.70597C277.962 9.43419 277.56 9.2983 277.019 9.2983C276.459 9.2983 276.02 9.42093 275.702 9.66619C275.384 9.91146 275.16 10.1733 275.031 10.4517L273.917 10.054C274.116 9.58996 274.381 9.22869 274.713 8.97017C275.047 8.70833 275.412 8.52604 275.806 8.4233C276.204 8.31723 276.595 8.2642 276.98 8.2642C277.225 8.2642 277.507 8.29403 277.825 8.35369C278.146 8.41004 278.456 8.5277 278.754 8.70668C279.056 8.88565 279.306 9.15578 279.505 9.51705C279.704 9.87831 279.803 10.3622 279.803 10.9688V16H278.63V14.9659H278.57C278.491 15.1316 278.358 15.3089 278.173 15.4979C277.987 15.6868 277.74 15.8475 277.432 15.9801C277.124 16.1127 276.748 16.179 276.303 16.179ZM276.482 15.125C276.946 15.125 277.338 15.0339 277.656 14.8516C277.977 14.6693 278.219 14.4339 278.382 14.1456C278.547 13.8572 278.63 13.554 278.63 13.2358V12.1619C278.58 12.2216 278.471 12.2763 278.302 12.326C278.136 12.3724 277.944 12.4138 277.725 12.4503C277.51 12.4834 277.299 12.5133 277.094 12.5398C276.892 12.563 276.728 12.5829 276.602 12.5994C276.297 12.6392 276.012 12.7038 275.747 12.7933C275.485 12.8795 275.273 13.0104 275.11 13.1861C274.951 13.3584 274.872 13.5937 274.872 13.892C274.872 14.2997 275.022 14.608 275.324 14.8168C275.629 15.0223 276.015 15.125 276.482 15.125ZM282.427 18.8636C282.228 18.8636 282.051 18.8471 281.895 18.8139C281.739 18.7841 281.632 18.7543 281.572 18.7244L281.87 17.6903C282.155 17.7633 282.407 17.7898 282.626 17.7699C282.845 17.75 283.039 17.6522 283.208 17.4766C283.38 17.3042 283.538 17.0241 283.68 16.6364L283.899 16.0398L281.075 8.36364H282.348L284.456 14.4489H284.535L286.643 8.36364H287.916L284.674 17.1136C284.529 17.508 284.348 17.8345 284.132 18.093C283.917 18.3549 283.667 18.5488 283.382 18.6747C283.1 18.8007 282.782 18.8636 282.427 18.8636ZM294.874 10.0739L293.82 10.3722C293.753 10.1965 293.656 10.0258 293.526 9.86009C293.4 9.69105 293.228 9.55185 293.009 9.44247C292.79 9.3331 292.51 9.27841 292.169 9.27841C291.702 9.27841 291.312 9.38613 291.001 9.60156C290.692 9.81368 290.538 10.0838 290.538 10.4119C290.538 10.7036 290.644 10.9339 290.857 11.103C291.069 11.272 291.4 11.4129 291.851 11.5256L292.984 11.804C293.667 11.9697 294.176 12.2232 294.511 12.5646C294.845 12.9027 295.013 13.3385 295.013 13.8722C295.013 14.3097 294.887 14.7008 294.635 15.0455C294.386 15.3902 294.038 15.6619 293.591 15.8608C293.143 16.0597 292.623 16.1591 292.03 16.1591C291.251 16.1591 290.606 15.9901 290.096 15.652C289.585 15.3139 289.262 14.8201 289.126 14.1705L290.24 13.892C290.346 14.303 290.547 14.6113 290.842 14.8168C291.14 15.0223 291.529 15.125 292.01 15.125C292.557 15.125 292.991 15.009 293.312 14.777C293.637 14.5417 293.8 14.2599 293.8 13.9318C293.8 13.6667 293.707 13.4446 293.521 13.2656C293.336 13.0833 293.051 12.9474 292.666 12.858L291.393 12.5597C290.694 12.3939 290.18 12.1371 289.852 11.7891C289.527 11.4377 289.365 10.9986 289.365 10.4716C289.365 10.0407 289.486 9.65956 289.728 9.32812C289.973 8.99669 290.306 8.73651 290.727 8.54758C291.152 8.35866 291.632 8.2642 292.169 8.2642C292.925 8.2642 293.518 8.42992 293.949 8.76136C294.383 9.0928 294.691 9.5303 294.874 10.0739ZM300.876 16V5.81818H304.316C305.111 5.81818 305.764 5.95407 306.275 6.22585C306.785 6.49432 307.163 6.86387 307.408 7.33452C307.653 7.80516 307.776 8.34044 307.776 8.94034C307.776 9.54025 307.653 10.0722 307.408 10.5362C307.163 11.0002 306.787 11.3648 306.28 11.63C305.773 11.8918 305.125 12.0227 304.336 12.0227H301.552V10.9091H304.296C304.84 10.9091 305.277 10.8295 305.608 10.6705C305.943 10.5114 306.185 10.286 306.334 9.99432C306.487 9.69934 306.563 9.34801 306.563 8.94034C306.563 8.53267 306.487 8.17637 306.334 7.87145C306.182 7.56652 305.938 7.3312 305.604 7.16548C305.269 6.99645 304.826 6.91193 304.276 6.91193H302.108V16H300.876ZM305.668 11.4261L308.174 16H306.742L304.276 11.4261H305.668ZM312.791 16.1591C312.055 16.1591 311.421 15.9967 310.887 15.6719C310.357 15.3438 309.947 14.8864 309.659 14.2997C309.374 13.7098 309.232 13.0237 309.232 12.2415C309.232 11.4593 309.374 10.7699 309.659 10.1733C309.947 9.57339 310.348 9.10606 310.862 8.77131C311.379 8.43324 311.982 8.2642 312.672 8.2642C313.07 8.2642 313.462 8.33049 313.85 8.46307C314.238 8.59564 314.591 8.81108 314.909 9.10938C315.227 9.40436 315.481 9.79545 315.67 10.2827C315.859 10.7699 315.953 11.3698 315.953 12.0824V12.5795H310.067V11.5653H314.76C314.76 11.1345 314.674 10.75 314.501 10.4119C314.332 10.0739 314.09 9.80705 313.776 9.61151C313.464 9.41596 313.096 9.31818 312.672 9.31818C312.205 9.31818 311.8 9.43419 311.459 9.66619C311.121 9.89489 310.861 10.1932 310.678 10.5611C310.496 10.929 310.405 11.3234 310.405 11.7443V12.4205C310.405 12.9972 310.504 13.486 310.703 13.8871C310.905 14.2848 311.185 14.5881 311.543 14.7969C311.901 15.0024 312.317 15.1051 312.791 15.1051C313.099 15.1051 313.378 15.062 313.626 14.9759C313.878 14.8864 314.095 14.7538 314.278 14.5781C314.46 14.3991 314.601 14.1771 314.7 13.9119L315.834 14.2301C315.714 14.6146 315.514 14.9527 315.232 15.2443C314.951 15.5327 314.603 15.758 314.188 15.9205C313.774 16.0795 313.308 16.1591 312.791 16.1591ZM317.738 16V8.36364H318.871V9.55682H318.971C319.13 9.14915 319.387 8.83262 319.741 8.60724C320.096 8.37855 320.522 8.2642 321.019 8.2642C321.523 8.2642 321.942 8.37855 322.277 8.60724C322.615 8.83262 322.879 9.14915 323.067 9.55682H323.147C323.343 9.16241 323.636 8.84919 324.027 8.61719C324.418 8.38187 324.887 8.2642 325.434 8.2642C326.117 8.2642 326.675 8.47798 327.109 8.90554C327.544 9.32978 327.761 9.991 327.761 10.8892V16H326.587V10.8892C326.587 10.3258 326.433 9.92306 326.125 9.68111C325.817 9.43916 325.454 9.31818 325.036 9.31818C324.499 9.31818 324.083 9.48059 323.788 9.8054C323.493 10.1269 323.346 10.5346 323.346 11.0284V16H322.153V10.7699C322.153 10.3357 322.012 9.98603 321.73 9.72088C321.448 9.45241 321.085 9.31818 320.641 9.31818C320.336 9.31818 320.051 9.39938 319.786 9.56179C319.524 9.72419 319.312 9.94957 319.15 10.2379C318.991 10.523 318.911 10.8527 318.911 11.2273V16H317.738ZM332.153 16.179C331.669 16.179 331.23 16.0878 330.836 15.9055C330.441 15.7199 330.128 15.4531 329.896 15.1051C329.664 14.7538 329.548 14.3295 329.548 13.8324C329.548 13.3949 329.634 13.0402 329.806 12.7685C329.979 12.4934 330.209 12.2779 330.498 12.1222C330.786 11.9664 331.104 11.8504 331.452 11.7741C331.803 11.6946 332.156 11.6316 332.511 11.5852C332.975 11.5256 333.351 11.4808 333.64 11.451C333.931 11.4179 334.143 11.3632 334.276 11.2869C334.412 11.2107 334.48 11.0781 334.48 10.8892V10.8494C334.48 10.3589 334.346 9.97775 334.077 9.70597C333.812 9.43419 333.409 9.2983 332.869 9.2983C332.309 9.2983 331.87 9.42093 331.551 9.66619C331.233 9.91146 331.01 10.1733 330.88 10.4517L329.767 10.054C329.966 9.58996 330.231 9.22869 330.562 8.97017C330.897 8.70833 331.261 8.52604 331.656 8.4233C332.054 8.31723 332.445 8.2642 332.829 8.2642C333.074 8.2642 333.356 8.29403 333.674 8.35369C333.996 8.41004 334.306 8.5277 334.604 8.70668C334.906 8.88565 335.156 9.15578 335.355 9.51705C335.554 9.87831 335.653 10.3622 335.653 10.9688V16H334.48V14.9659H334.42C334.341 15.1316 334.208 15.3089 334.022 15.4979C333.837 15.6868 333.59 15.8475 333.282 15.9801C332.973 16.1127 332.597 16.179 332.153 16.179ZM332.332 15.125C332.796 15.125 333.187 15.0339 333.505 14.8516C333.827 14.6693 334.069 14.4339 334.231 14.1456C334.397 13.8572 334.48 13.554 334.48 13.2358V12.1619C334.43 12.2216 334.321 12.2763 334.152 12.326C333.986 12.3724 333.794 12.4138 333.575 12.4503C333.359 12.4834 333.149 12.5133 332.944 12.5398C332.741 12.563 332.577 12.5829 332.451 12.5994C332.146 12.6392 331.861 12.7038 331.596 12.7933C331.334 12.8795 331.122 13.0104 330.96 13.1861C330.801 13.3584 330.721 13.5937 330.721 13.892C330.721 14.2997 330.872 14.608 331.174 14.8168C331.479 15.0223 331.865 15.125 332.332 15.125ZM337.795 16V8.36364H338.968V16H337.795ZM338.391 7.09091C338.162 7.09091 337.965 7.01302 337.8 6.85724C337.637 6.70147 337.556 6.5142 337.556 6.29545C337.556 6.0767 337.637 5.88944 337.8 5.73366C337.965 5.57789 338.162 5.5 338.391 5.5C338.62 5.5 338.815 5.57789 338.978 5.73366C339.144 5.88944 339.226 6.0767 339.226 6.29545C339.226 6.5142 339.144 6.70147 338.978 6.85724C338.815 7.01302 338.62 7.09091 338.391 7.09091ZM342.29 11.4062V16H341.117V8.36364H342.25V9.55682H342.35C342.529 9.16903 342.801 8.85748 343.165 8.62216C343.53 8.38352 344 8.2642 344.577 8.2642C345.094 8.2642 345.547 8.37027 345.934 8.58239C346.322 8.79119 346.624 9.10938 346.839 9.53693C347.055 9.96117 347.162 10.4981 347.162 11.1477V16H345.989V11.2273C345.989 10.6274 345.833 10.16 345.522 9.82528C345.21 9.48722 344.783 9.31818 344.239 9.31818C343.864 9.31818 343.53 9.39938 343.235 9.56179C342.943 9.72419 342.713 9.96117 342.544 10.2727C342.375 10.5843 342.29 10.9621 342.29 11.4062ZM349.306 16V8.36364H350.48V16H349.306ZM349.903 7.09091C349.674 7.09091 349.477 7.01302 349.311 6.85724C349.149 6.70147 349.068 6.5142 349.068 6.29545C349.068 6.0767 349.149 5.88944 349.311 5.73366C349.477 5.57789 349.674 5.5 349.903 5.5C350.132 5.5 350.327 5.57789 350.49 5.73366C350.655 5.88944 350.738 6.0767 350.738 6.29545C350.738 6.5142 350.655 6.70147 350.49 6.85724C350.327 7.01302 350.132 7.09091 349.903 7.09091ZM353.802 11.4062V16H352.629V8.36364H353.762V9.55682H353.862C354.04 9.16903 354.312 8.85748 354.677 8.62216C355.041 8.38352 355.512 8.2642 356.089 8.2642C356.606 8.2642 357.058 8.37027 357.446 8.58239C357.834 8.79119 358.135 9.10938 358.351 9.53693C358.566 9.96117 358.674 10.4981 358.674 11.1477V16H357.501V11.2273C357.501 10.6274 357.345 10.16 357.033 9.82528C356.722 9.48722 356.294 9.31818 355.751 9.31818C355.376 9.31818 355.041 9.39938 354.746 9.56179C354.455 9.72419 354.224 9.96117 354.055 10.2727C353.886 10.5843 353.802 10.9621 353.802 11.4062ZM363.9 19.0227C363.334 19.0227 362.846 18.9498 362.439 18.804C362.031 18.6615 361.691 18.4725 361.42 18.2372C361.151 18.0052 360.937 17.7566 360.778 17.4915L361.713 16.8352C361.819 16.9744 361.953 17.1335 362.116 17.3125C362.278 17.4948 362.5 17.6522 362.782 17.7848C363.067 17.9207 363.44 17.9886 363.9 17.9886C364.517 17.9886 365.026 17.8395 365.427 17.5412C365.828 17.2429 366.028 16.7756 366.028 16.1392V14.5881H365.929C365.843 14.7273 365.72 14.8996 365.561 15.1051C365.405 15.3073 365.18 15.4879 364.885 15.647C364.593 15.8028 364.199 15.8807 363.702 15.8807C363.085 15.8807 362.532 15.7348 362.041 15.4432C361.554 15.1515 361.168 14.7273 360.883 14.1705C360.601 13.6136 360.46 12.9375 360.46 12.142C360.46 11.3598 360.598 10.6787 360.873 10.0987C361.148 9.51539 361.531 9.06463 362.021 8.74645C362.512 8.42495 363.078 8.2642 363.721 8.2642C364.219 8.2642 364.613 8.34706 364.905 8.51278C365.2 8.67519 365.425 8.8608 365.581 9.0696C365.74 9.27509 365.863 9.44413 365.949 9.5767H366.068V8.36364H367.202V16.2188C367.202 16.875 367.052 17.4086 366.754 17.8196C366.459 18.2339 366.061 18.5372 365.561 18.7294C365.064 18.925 364.51 19.0227 363.9 19.0227ZM363.861 14.8267C364.331 14.8267 364.729 14.719 365.054 14.5036C365.379 14.2881 365.626 13.9782 365.795 13.5739C365.964 13.1695 366.048 12.6856 366.048 12.1222C366.048 11.572 365.965 11.0864 365.8 10.6655C365.634 10.2446 365.389 9.91477 365.064 9.67614C364.739 9.4375 364.338 9.31818 363.861 9.31818C363.363 9.31818 362.949 9.44413 362.618 9.69602C362.29 9.94792 362.043 10.286 361.877 10.7102C361.715 11.1345 361.633 11.6051 361.633 12.1222C361.633 12.6525 361.716 13.1214 361.882 13.5291C362.051 13.9335 362.3 14.2517 362.628 14.4837C362.959 14.7124 363.37 14.8267 363.861 14.8267Z" fill="#636A80"/>
<defs>
<clipPath id="clip0_1647_32263">
<rect width="22" height="22" fill="white" transform="translate(104)"/>
</clipPath>
<clipPath id="clip1_1647_32263">
<rect width="22" height="22" fill="white" transform="translate(222)"/>
</clipPath>
</defs>
</svg>
