<svg width="84" height="26" viewBox="0 0 84 26" fill="none" xmlns="http://www.w3.org/2000/svg">
<rect width="84" height="26" rx="13" fill="#E8F1FF"/>
<path d="M13.233 18V7.81818H19.3381V8.91193H14.4659V12.3523H18.8807V13.446H14.4659V18H13.233ZM25.6246 14.8778V10.3636H26.7979V18H25.6246V16.7074H25.5451C25.3661 17.0952 25.0877 17.425 24.7099 17.6967C24.332 17.9652 23.8548 18.0994 23.2781 18.0994C22.8008 18.0994 22.3765 17.995 22.0053 17.7862C21.6341 17.5741 21.3424 17.2559 21.1303 16.8317C20.9182 16.4041 20.8121 15.8655 20.8121 15.2159V10.3636H21.9854V15.1364C21.9854 15.6932 22.1412 16.1373 22.4528 16.4688C22.7676 16.8002 23.1687 16.9659 23.6559 16.9659C23.9476 16.9659 24.2442 16.8913 24.5458 16.7422C24.8507 16.593 25.1059 16.3643 25.3114 16.0561C25.5202 15.7479 25.6246 15.3551 25.6246 14.8778ZM30.1202 7.81818V18H28.9469V7.81818H30.1202ZM33.4425 7.81818V18H32.2692V7.81818H33.4425ZM39.1312 8.91193V7.81818H46.7676V8.91193H43.5659V18H42.3329V8.91193H39.1312ZM48.5114 18V10.3636H49.6847V18H48.5114ZM49.108 9.09091C48.8793 9.09091 48.6821 9.01302 48.5163 8.85724C48.3539 8.70147 48.2727 8.5142 48.2727 8.29545C48.2727 8.0767 48.3539 7.88944 48.5163 7.73366C48.6821 7.57789 48.8793 7.5 49.108 7.5C49.3366 7.5 49.5322 7.57789 49.6946 7.73366C49.8603 7.88944 49.9432 8.0767 49.9432 8.29545C49.9432 8.5142 49.8603 8.70147 49.6946 8.85724C49.5322 9.01302 49.3366 9.09091 49.108 9.09091ZM51.8336 18V10.3636H52.9672V11.5568H53.0666C53.2257 11.1491 53.4825 10.8326 53.8372 10.6072C54.1918 10.3786 54.6177 10.2642 55.1149 10.2642C55.6187 10.2642 56.0379 10.3786 56.3727 10.6072C56.7108 10.8326 56.9743 11.1491 57.1632 11.5568H57.2427C57.4383 11.1624 57.7316 10.8492 58.1227 10.6172C58.5138 10.3819 58.9828 10.2642 59.5297 10.2642C60.2124 10.2642 60.7709 10.478 61.2051 10.9055C61.6393 11.3298 61.8564 11.991 61.8564 12.8892V18H60.6831V12.8892C60.6831 12.3258 60.5289 11.9231 60.2207 11.6811C59.9125 11.4392 59.5495 11.3182 59.1319 11.3182C58.595 11.3182 58.179 11.4806 57.8841 11.8054C57.5891 12.1269 57.4416 12.5346 57.4416 13.0284V18H56.2484V12.7699C56.2484 12.3357 56.1075 11.986 55.8258 11.7209C55.5441 11.4524 55.1812 11.3182 54.737 11.3182C54.4321 11.3182 54.1471 11.3994 53.8819 11.5618C53.6201 11.7242 53.408 11.9496 53.2456 12.2379C53.0865 12.523 53.0069 12.8527 53.0069 13.2273V18H51.8336ZM67.2033 18.1591C66.4675 18.1591 65.8328 17.9967 65.2992 17.6719C64.7689 17.3438 64.3596 16.8864 64.0712 16.2997C63.7862 15.7098 63.6436 15.0237 63.6436 14.2415C63.6436 13.4593 63.7862 12.7699 64.0712 12.1733C64.3596 11.5734 64.7606 11.1061 65.2743 10.7713C65.7914 10.4332 66.3946 10.2642 67.084 10.2642C67.4817 10.2642 67.8745 10.3305 68.2623 10.4631C68.65 10.5956 69.003 10.8111 69.3212 11.1094C69.6394 11.4044 69.8929 11.7955 70.0819 12.2827C70.2708 12.7699 70.3652 13.3698 70.3652 14.0824V14.5795H64.4789V13.5653H69.1721C69.1721 13.1345 69.0859 12.75 68.9135 12.4119C68.7445 12.0739 68.5025 11.8071 68.1877 11.6115C67.8761 11.416 67.5082 11.3182 67.084 11.3182C66.6167 11.3182 66.2123 11.4342 65.8709 11.6662C65.5328 11.8949 65.2727 12.1932 65.0904 12.5611C64.9081 12.929 64.8169 13.3234 64.8169 13.7443V14.4205C64.8169 14.9972 64.9164 15.486 65.1152 15.8871C65.3174 16.2848 65.5975 16.5881 65.9554 16.7969C66.3134 17.0024 66.7293 17.1051 67.2033 17.1051C67.5115 17.1051 67.79 17.062 68.0385 16.9759C68.2904 16.8864 68.5075 16.7538 68.6898 16.5781C68.8721 16.3991 69.013 16.1771 69.1124 15.9119L70.2459 16.2301C70.1266 16.6146 69.9261 16.9527 69.6444 17.2443C69.3626 17.5327 69.0146 17.758 68.6003 17.9205C68.186 18.0795 67.7203 18.1591 67.2033 18.1591Z" fill="#0A65CC"/>
</svg>
