<svg width="90" height="26" viewBox="0 0 90 26" fill="none" xmlns="http://www.w3.org/2000/svg">
<rect width="90" height="26" rx="13" fill="#E8F1FF"/>
<path d="M14.4659 7.81818V18H13.233V7.81818H14.4659ZM17.9522 13.4062V18H16.7789V10.3636H17.9125V11.5568H18.0119C18.1909 11.169 18.4627 10.8575 18.8272 10.6222C19.1918 10.3835 19.6625 10.2642 20.2392 10.2642C20.7562 10.2642 21.2086 10.3703 21.5964 10.5824C21.9842 10.7912 22.2858 11.1094 22.5012 11.5369C22.7167 11.9612 22.8244 12.4981 22.8244 13.1477V18H21.6511V13.2273C21.6511 12.6274 21.4953 12.16 21.1838 11.8253C20.8722 11.4872 20.4447 11.3182 19.9011 11.3182C19.5266 11.3182 19.1918 11.3994 18.8968 11.5618C18.6052 11.7242 18.3748 11.9612 18.2058 12.2727C18.0368 12.5843 17.9522 12.9621 17.9522 13.4062ZM28.2894 10.3636V11.358H24.332V10.3636H28.2894ZM25.4854 8.53409H26.6587V15.8125C26.6587 16.1439 26.7068 16.3925 26.8029 16.5582C26.9023 16.7206 27.0283 16.83 27.1808 16.8864C27.3365 16.9394 27.5006 16.9659 27.6729 16.9659C27.8022 16.9659 27.9083 16.9593 27.9911 16.946C28.074 16.9295 28.1403 16.9162 28.19 16.9062L28.4286 17.9602C28.3491 17.9901 28.238 18.0199 28.0955 18.0497C27.953 18.0829 27.7724 18.0994 27.5536 18.0994C27.2222 18.0994 26.8974 18.0282 26.5792 17.8857C26.2643 17.7431 26.0025 17.526 25.7937 17.2344C25.5882 16.9427 25.4854 16.5748 25.4854 16.1307V8.53409ZM33.174 18.1591C32.4382 18.1591 31.8035 17.9967 31.2699 17.6719C30.7396 17.3438 30.3303 16.8864 30.0419 16.2997C29.7569 15.7098 29.6143 15.0237 29.6143 14.2415C29.6143 13.4593 29.7569 12.7699 30.0419 12.1733C30.3303 11.5734 30.7313 11.1061 31.245 10.7713C31.7621 10.4332 32.3653 10.2642 33.0547 10.2642C33.4524 10.2642 33.8452 10.3305 34.233 10.4631C34.6207 10.5956 34.9737 10.8111 35.2919 11.1094C35.6101 11.4044 35.8636 11.7955 36.0526 12.2827C36.2415 12.7699 36.3359 13.3698 36.3359 14.0824V14.5795H30.4496V13.5653H35.1428C35.1428 13.1345 35.0566 12.75 34.8842 12.4119C34.7152 12.0739 34.4732 11.8071 34.1584 11.6115C33.8468 11.416 33.4789 11.3182 33.0547 11.3182C32.5874 11.3182 32.183 11.4342 31.8416 11.6662C31.5036 11.8949 31.2434 12.1932 31.0611 12.5611C30.8788 12.929 30.7876 13.3234 30.7876 13.7443V14.4205C30.7876 14.9972 30.8871 15.486 31.0859 15.8871C31.2881 16.2848 31.5682 16.5881 31.9261 16.7969C32.2841 17.0024 32.7 17.1051 33.174 17.1051C33.4822 17.1051 33.7607 17.062 34.0092 16.9759C34.2611 16.8864 34.4782 16.7538 34.6605 16.5781C34.8428 16.3991 34.9837 16.1771 35.0831 15.9119L36.2166 16.2301C36.0973 16.6146 35.8968 16.9527 35.6151 17.2443C35.3333 17.5327 34.9853 17.758 34.571 17.9205C34.1567 18.0795 33.6911 18.1591 33.174 18.1591ZM38.1207 18V10.3636H39.2543V11.517H39.3338C39.473 11.1392 39.7249 10.8326 40.0895 10.5973C40.4541 10.362 40.8651 10.2443 41.3224 10.2443C41.4086 10.2443 41.5163 10.246 41.6456 10.2493C41.7749 10.2526 41.8726 10.2576 41.9389 10.2642V11.4574C41.8991 11.4474 41.808 11.4325 41.6655 11.4126C41.5263 11.3894 41.3788 11.3778 41.223 11.3778C40.8518 11.3778 40.5204 11.4557 40.2287 11.6115C39.9403 11.764 39.7116 11.9761 39.5426 12.2479C39.3769 12.5163 39.294 12.8229 39.294 13.1676V18H38.1207ZM44.503 13.4062V18H43.3297V10.3636H44.4632V11.5568H44.5627C44.7417 11.169 45.0134 10.8575 45.378 10.6222C45.7426 10.3835 46.2132 10.2642 46.79 10.2642C47.307 10.2642 47.7594 10.3703 48.1472 10.5824C48.535 10.7912 48.8366 11.1094 49.052 11.5369C49.2675 11.9612 49.3752 12.4981 49.3752 13.1477V18H48.2019V13.2273C48.2019 12.6274 48.0461 12.16 47.7346 11.8253C47.423 11.4872 46.9954 11.3182 46.4519 11.3182C46.0774 11.3182 45.7426 11.3994 45.4476 11.5618C45.156 11.7242 44.9256 11.9612 44.7566 12.2727C44.5875 12.5843 44.503 12.9621 44.503 13.4062ZM56.9283 12.0739L55.8743 12.3722C55.808 12.1965 55.7102 12.0258 55.581 11.8601C55.455 11.6911 55.2827 11.5518 55.0639 11.4425C54.8452 11.3331 54.5651 11.2784 54.2237 11.2784C53.7564 11.2784 53.367 11.3861 53.0554 11.6016C52.7472 11.8137 52.593 12.0838 52.593 12.4119C52.593 12.7036 52.6991 12.9339 52.9112 13.103C53.1233 13.272 53.4548 13.4129 53.9055 13.5256L55.0391 13.804C55.7218 13.9697 56.2306 14.2232 56.5653 14.5646C56.9001 14.9027 57.0675 15.3385 57.0675 15.8722C57.0675 16.3097 56.9415 16.7008 56.6896 17.0455C56.4411 17.3902 56.093 17.6619 55.6456 17.8608C55.1982 18.0597 54.6778 18.1591 54.0845 18.1591C53.3056 18.1591 52.661 17.9901 52.1506 17.652C51.6402 17.3139 51.317 16.8201 51.1811 16.1705L52.2947 15.892C52.4008 16.303 52.6013 16.6113 52.8963 16.8168C53.1946 17.0223 53.584 17.125 54.0646 17.125C54.6115 17.125 55.0457 17.009 55.3672 16.777C55.692 16.5417 55.8544 16.2599 55.8544 15.9318C55.8544 15.6667 55.7616 15.4446 55.576 15.2656C55.3904 15.0833 55.1054 14.9474 54.7209 14.858L53.4482 14.5597C52.7488 14.3939 52.2351 14.1371 51.907 13.7891C51.5821 13.4377 51.4197 12.9986 51.4197 12.4716C51.4197 12.0407 51.5407 11.6596 51.7827 11.3281C52.0279 10.9967 52.361 10.7365 52.782 10.5476C53.2062 10.3587 53.6868 10.2642 54.2237 10.2642C54.9794 10.2642 55.5727 10.4299 56.0036 10.7614C56.4377 11.0928 56.746 11.5303 56.9283 12.0739ZM60.0069 13.4062V18H58.8336V7.81818H60.0069V11.5568H60.1064C60.2853 11.1624 60.5538 10.8492 60.9118 10.6172C61.273 10.3819 61.7536 10.2642 62.3535 10.2642C62.8739 10.2642 63.3296 10.3686 63.7207 10.5774C64.1118 10.7829 64.4151 11.0994 64.6305 11.527C64.8493 11.9512 64.9586 12.4915 64.9586 13.1477V18H63.7853V13.2273C63.7853 12.6207 63.6279 12.1518 63.313 11.8203C63.0015 11.4856 62.569 11.3182 62.0154 11.3182C61.631 11.3182 61.2863 11.3994 60.9814 11.5618C60.6797 11.7242 60.4411 11.9612 60.2654 12.2727C60.0931 12.5843 60.0069 12.9621 60.0069 13.4062ZM67.1051 18V10.3636H68.2784V18H67.1051ZM67.7017 9.09091C67.473 9.09091 67.2758 9.01302 67.1101 8.85724C66.9477 8.70147 66.8665 8.5142 66.8665 8.29545C66.8665 8.0767 66.9477 7.88944 67.1101 7.73366C67.2758 7.57789 67.473 7.5 67.7017 7.5C67.9304 7.5 68.1259 7.57789 68.2884 7.73366C68.4541 7.88944 68.5369 8.0767 68.5369 8.29545C68.5369 8.5142 68.4541 8.70147 68.2884 8.85724C68.1259 9.01302 67.9304 9.09091 67.7017 9.09091ZM70.4274 20.8636V10.3636H71.5609V11.5767H71.7001C71.7863 11.4441 71.9056 11.2751 72.0581 11.0696C72.2138 10.8608 72.4359 10.6752 72.7243 10.5128C73.0159 10.3471 73.4103 10.2642 73.9075 10.2642C74.5505 10.2642 75.1172 10.425 75.6078 10.7464C76.0983 11.0679 76.4811 11.5237 76.7562 12.1136C77.0313 12.7036 77.1689 13.3996 77.1689 14.2017C77.1689 15.0104 77.0313 15.7114 76.7562 16.3047C76.4811 16.8946 76.1 17.352 75.6127 17.6768C75.1255 17.9983 74.5637 18.1591 73.9274 18.1591C73.4368 18.1591 73.0441 18.0779 72.7491 17.9155C72.4541 17.7498 72.2271 17.5625 72.068 17.3537C71.9089 17.1416 71.7863 16.9659 71.7001 16.8267H71.6007V20.8636H70.4274ZM71.5808 14.1818C71.5808 14.7585 71.6653 15.2673 71.8343 15.7081C72.0034 16.1456 72.2503 16.4886 72.5751 16.7372C72.8999 16.9825 73.2976 17.1051 73.7683 17.1051C74.2588 17.1051 74.6681 16.9759 74.9963 16.7173C75.3277 16.4555 75.5763 16.1042 75.742 15.6634C75.911 15.2192 75.9956 14.7254 75.9956 14.1818C75.9956 13.6449 75.9127 13.161 75.747 12.7301C75.5846 12.2959 75.3377 11.9529 75.0062 11.701C74.6781 11.4458 74.2654 11.3182 73.7683 11.3182C73.291 11.3182 72.89 11.4392 72.5652 11.6811C72.2404 11.9197 71.9951 12.2545 71.8294 12.6854C71.6636 13.1129 71.5808 13.6117 71.5808 14.1818Z" fill="#0A65CC"/>
</svg>
