<svg width="40" height="40" viewBox="0 0 40 40" fill="none" xmlns="http://www.w3.org/2000/svg">
<g clip-path="url(#clip0_5201_14051)">
<path opacity="0.2" d="M19.9988 23.75C14.7328 23.7583 9.55833 22.3739 5 19.7373V32.5C5 32.6642 5.03233 32.8267 5.09515 32.9784C5.15797 33.13 5.25004 33.2678 5.36611 33.3839C5.48219 33.5 5.61999 33.592 5.77164 33.6549C5.9233 33.7177 6.08585 33.75 6.25 33.75H33.75C33.9142 33.75 34.0767 33.7177 34.2284 33.6549C34.38 33.592 34.5178 33.5 34.6339 33.3839C34.75 33.2678 34.842 33.13 34.9049 32.9784C34.9677 32.8267 35 32.6642 35 32.5V19.7358C30.4411 22.3734 25.2657 23.7583 19.9988 23.75Z" fill="#0A65CC"/>
<path d="M33.75 11.25H6.25C5.55964 11.25 5 11.8097 5 12.5V32.5C5 33.1904 5.55964 33.75 6.25 33.75H33.75C34.4404 33.75 35 33.1904 35 32.5V12.5C35 11.8097 34.4404 11.25 33.75 11.25Z" stroke="#0A65CC" stroke-width="2" stroke-linecap="round" stroke-linejoin="round"/>
<path d="M26.25 11.25V8.75C26.25 8.08696 25.9866 7.45107 25.5178 6.98223C25.0489 6.51339 24.413 6.25 23.75 6.25H16.25C15.587 6.25 14.9511 6.51339 14.4822 6.98223C14.0134 7.45107 13.75 8.08696 13.75 8.75V11.25" stroke="#0A65CC" stroke-width="2" stroke-linecap="round" stroke-linejoin="round"/>
<path d="M35.0002 19.7358C30.4413 22.3734 25.2659 23.7583 19.999 23.75C14.7329 23.7583 9.55838 22.3739 5 19.7372" stroke="#0A65CC" stroke-width="2" stroke-linecap="round" stroke-linejoin="round"/>
<path d="M18.125 18.75H21.875" stroke="#0A65CC" stroke-width="2" stroke-linecap="round" stroke-linejoin="round"/>
</g>
<defs>
<clipPath id="clip0_5201_14051">
<rect width="40" height="40" fill="white"/>
</clipPath>
</defs>
</svg>
