<svg width="72" height="72" viewBox="0 0 72 72" fill="none" xmlns="http://www.w3.org/2000/svg">
<rect width="72" height="72" rx="4" fill="#E7F0FA"/>
<g clip-path="url(#clip0_5201_14050)">
<path opacity="0.2" d="M35.9988 39.75C30.7328 39.7583 25.5583 38.3739 21 35.7373V48.5C21 48.6642 21.0323 48.8267 21.0951 48.9784C21.158 49.13 21.25 49.2678 21.3661 49.3839C21.4822 49.5 21.62 49.592 21.7716 49.6549C21.9233 49.7177 22.0858 49.75 22.25 49.75H49.75C49.9142 49.75 50.0767 49.7177 50.2284 49.6549C50.38 49.592 50.5178 49.5 50.6339 49.3839C50.75 49.2678 50.842 49.13 50.9049 48.9784C50.9677 48.8267 51 48.6642 51 48.5V35.7358C46.4411 38.3734 41.2657 39.7583 35.9988 39.75Z" fill="#0A65CC"/>
<path d="M49.75 27.25H22.25C21.5596 27.25 21 27.8097 21 28.5V48.5C21 49.1904 21.5596 49.75 22.25 49.75H49.75C50.4404 49.75 51 49.1904 51 48.5V28.5C51 27.8097 50.4404 27.25 49.75 27.25Z" stroke="#0A65CC" stroke-width="2" stroke-linecap="round" stroke-linejoin="round"/>
<path d="M42.25 27.25V24.75C42.25 24.087 41.9866 23.4511 41.5178 22.9822C41.0489 22.5134 40.413 22.25 39.75 22.25H32.25C31.587 22.25 30.9511 22.5134 30.4822 22.9822C30.0134 23.4511 29.75 24.087 29.75 24.75V27.25" stroke="#0A65CC" stroke-width="2" stroke-linecap="round" stroke-linejoin="round"/>
<path d="M51.0002 35.7358C46.4413 38.3734 41.2659 39.7583 35.999 39.75C30.7329 39.7583 25.5584 38.3739 21 35.7372" stroke="#0A65CC" stroke-width="2" stroke-linecap="round" stroke-linejoin="round"/>
<path d="M34.125 34.75H37.875" stroke="#0A65CC" stroke-width="2" stroke-linecap="round" stroke-linejoin="round"/>
</g>
<defs>
<clipPath id="clip0_5201_14050">
<rect width="40" height="40" fill="white" transform="translate(16 16)"/>
</clipPath>
</defs>
</svg>
