<svg width="68" height="68" viewBox="0 0 68 68" fill="none" xmlns="http://www.w3.org/2000/svg">
<rect width="68" height="68" rx="8" fill="#E7F0FA"/>
<path opacity="0.2" d="M43 33.0007L40.2026 25.5411C40.141 25.3768 40.0373 25.2316 39.9018 25.1201C39.7663 25.0086 39.6038 24.9347 39.4307 24.9059L22 22.0007L24.9052 39.4315C24.934 39.6045 25.0079 39.767 25.1194 39.9025C25.2309 40.038 25.3761 40.1418 25.5404 40.2034L33 43.0007L43 33.0007ZM30.0004 32.5C30.0004 32.0056 30.147 31.5222 30.4218 31.1111C30.6965 30.7 31.0869 30.3795 31.5437 30.1903C32.0005 30.0011 32.5032 29.9516 32.9882 30.048C33.4731 30.1445 33.9186 30.3826 34.2682 30.7322C34.6178 31.0819 34.8559 31.5273 34.9524 32.0123C35.0489 32.4972 34.9993 32.9999 34.8101 33.4567C34.6209 33.9135 34.3005 34.304 33.8894 34.5787C33.4782 34.8534 32.9949 35 32.5004 35C32.1721 35 31.847 34.9353 31.5437 34.8097C31.2404 34.6841 30.9648 34.4999 30.7327 34.2678C30.5005 34.0356 30.3164 33.76 30.1907 33.4567C30.0651 33.1534 30.0004 32.8283 30.0004 32.5Z" fill="#0A65CC"/>
<path d="M30 32.5C30 33.8807 31.1193 35 32.5 35C33.8807 35 35 33.8807 35 32.5C35 31.1193 33.8807 30 32.5 30C31.1193 30 30 31.1193 30 32.5Z" stroke="#0A65CC" stroke-width="2" stroke-linecap="round" stroke-linejoin="round"/>
<path d="M21.9978 22.0007L30.7305 30.7322" stroke="#0A65CC" stroke-width="2" stroke-linecap="round" stroke-linejoin="round"/>
<path d="M22 22.0007L24.9051 39.4314C24.934 39.6045 25.0079 39.767 25.1194 39.9025C25.2309 40.038 25.3761 40.1418 25.5404 40.2034L33 43.0007L43 33.0007L40.2026 25.5411C40.141 25.3768 40.0373 25.2316 39.9018 25.1201C39.7663 25.0086 39.6038 24.9347 39.4307 24.9059L22 22.0007Z" stroke="#0A65CC" stroke-width="2" stroke-linecap="round" stroke-linejoin="round"/>
<path d="M33.0001 43.0007L36.293 46.2936C36.3859 46.3865 36.4961 46.4601 36.6175 46.5104C36.7388 46.5607 36.8688 46.5865 37.0001 46.5865C37.1315 46.5865 37.2615 46.5607 37.3828 46.5104C37.5042 46.4601 37.6144 46.3865 37.7073 46.2936L46.293 37.7078C46.4806 37.5203 46.5859 37.2659 46.5859 37.0007C46.5859 36.7355 46.4806 36.4812 46.293 36.2936L43.0001 33.0007" stroke="#0A65CC" stroke-width="2" stroke-linecap="round" stroke-linejoin="round"/>
</svg>
