<svg width="68" height="68" viewBox="0 0 68 68" fill="none" xmlns="http://www.w3.org/2000/svg">
<rect width="68" height="68" rx="8" fill="#E7F0FA"/>
<g clip-path="url(#clip0_1647_32071)">
<path opacity="0.2" d="M44.72 23.3734C44.869 23.3299 45.0261 23.3217 45.1789 23.3495C45.3316 23.3773 45.4758 23.4402 45.6 23.5334C45.7242 23.6265 45.825 23.7473 45.8944 23.8862C45.9639 24.025 46 24.1781 46 24.3334V41.6667C46 41.8219 45.9639 41.9751 45.8944 42.1139C45.825 42.2528 45.7242 42.3736 45.6 42.4667C45.4758 42.5598 45.3316 42.6228 45.1789 42.6506C45.0261 42.6783 44.869 42.6702 44.72 42.6267L32.9993 39.2082V26.7919L44.72 23.3734Z" fill="#0A65CC"/>
<path d="M46 24.3334V41.6667C46 41.8219 45.9639 41.9751 45.8944 42.1139C45.825 42.2528 45.7242 42.3736 45.6 42.4667C45.4758 42.5598 45.3316 42.6228 45.1789 42.6506C45.0261 42.6783 44.869 42.6702 44.72 42.6267L22.72 36.21C22.5123 36.1495 22.3298 36.0231 22.2 35.85C22.0702 35.6769 22 35.4664 22 35.25V30.75C22 30.5337 22.0702 30.3231 22.2 30.15C22.3298 29.9769 22.5123 29.8506 22.72 29.79L44.72 23.3734C44.869 23.3299 45.0261 23.3217 45.1789 23.3495C45.3316 23.3773 45.4758 23.4402 45.6 23.5334C45.7242 23.6265 45.825 23.7473 45.8944 23.8862C45.9639 24.025 46 24.1781 46 24.3334V24.3334Z" stroke="#0A65CC" stroke-width="2" stroke-linecap="round" stroke-linejoin="round"/>
<path d="M27 37.4581V42C27 42.2652 27.1054 42.5196 27.2929 42.7071C27.4804 42.8946 27.7348 43 28 43H32C32.2652 43 32.5196 42.8946 32.7071 42.7071C32.8946 42.5196 33 42.2652 33 42V26.7919" stroke="#0A65CC" stroke-width="2" stroke-linecap="round" stroke-linejoin="round"/>
</g>
<defs>
<clipPath id="clip0_1647_32071">
<rect width="32" height="32" fill="white" transform="matrix(-1 0 0 1 50 18)"/>
</clipPath>
</defs>
</svg>
