<svg width="68" height="68" viewBox="0 0 68 68" fill="none" xmlns="http://www.w3.org/2000/svg">
<rect width="68" height="68" rx="6" fill="#EB524F"/>
<g clip-path="url(#clip0_1647_32221)">
<path d="M29.5257 22.5735C30.7738 22.9623 31.1611 23.9667 31.1611 25.1115C31.1504 26.0187 31.0428 26.9259 30.8276 27.8116C30.365 29.8312 29.7947 31.8292 29.3213 33.8381C28.934 35.4905 28.5789 37.1645 28.5682 38.871C28.5789 39.3354 28.6543 39.7998 28.7834 40.2426C29.0308 41.1282 29.7732 41.193 30.3327 40.653C30.6877 40.3074 31.0105 39.9402 31.301 39.5406C32.6997 37.6721 33.937 35.6849 34.9914 33.6005C36.0135 31.6024 38.3482 27.0879 38.4881 26.8179C39.2197 25.4679 41.2425 25.6947 41.8557 27.0123C42.2 27.7252 42.3937 28.5136 42.426 29.302C42.4798 31.0084 42.6411 35.7713 42.7165 36.4517C42.8563 37.7693 43.6955 38.1905 44.8145 37.4561C45.4923 37.0133 46.1056 36.4517 46.7189 35.9225C47.2891 35.4149 47.5904 35.4689 47.8701 36.1817C48.1175 36.8081 48.01 37.4345 47.8055 38.0285C47.1169 40.0374 45.6214 41.1066 43.631 41.5386C42.9962 41.679 42.3399 41.6898 41.6943 41.5818C40.2634 41.3442 39.3488 40.5126 38.8001 39.2274C38.2729 37.9853 38.1115 34.4537 37.9932 34.0001C37.7995 34.4105 35.5078 39.1518 34.3028 40.9554C33.5497 42.111 32.6351 43.1586 31.5807 44.055C30.5371 44.9299 29.3536 45.4699 27.9657 45.5023C26.2872 45.5455 25.0715 44.7787 24.2322 43.353C23.6943 42.435 23.4684 41.409 23.393 40.3506C23.2854 38.871 23.5221 37.4237 23.8449 35.9765C23.9525 35.5121 24.0278 35.0369 24.1462 34.4429C23.6835 34.6805 23.3823 34.8965 23.038 35.0153C22.6291 35.1557 22.188 35.2961 21.7576 35.2853C20.2298 35.2421 20.0039 33.5465 20.0039 33.2657C20.5203 32.866 21.0691 32.4988 21.5425 32.0668C23.8019 30.0148 25.5018 27.5524 26.7284 24.7659C27.1372 23.8479 27.6429 23.0595 28.5467 22.5735C28.8479 22.4439 29.1169 22.4331 29.5257 22.5735Z" fill="white"/>
</g>
<defs>
<clipPath id="clip0_1647_32221">
<rect width="28" height="28" fill="white" transform="translate(20 20)"/>
</clipPath>
</defs>
</svg>
