<svg width="148" height="28" viewBox="0 0 148 28" fill="none" xmlns="http://www.w3.org/2000/svg">
<path d="M12.9226 4.51321C13.3629 3.62141 14.6345 3.62141 15.0747 4.51321L17.3248 9.07149C17.4994 9.42531 17.8368 9.67066 18.2273 9.72773L23.2608 10.4635C24.2447 10.6073 24.6369 11.8167 23.9246 12.5105L20.2842 16.0562C20.0011 16.3319 19.8719 16.7292 19.9387 17.1187L20.7976 22.1264C20.9658 23.1068 19.9367 23.8543 19.0563 23.3913L14.5572 21.0253C14.2076 20.8414 13.7898 20.8414 13.4402 21.0253L8.94106 23.3913C8.0607 23.8543 7.03164 23.1068 7.19979 22.1264L8.05867 17.1187C8.12546 16.7292 7.99627 16.3319 7.71322 16.0562L4.07285 12.5105C3.36054 11.8167 3.75267 10.6073 4.73657 10.4635L9.77014 9.72773C10.1606 9.67066 10.498 9.42531 10.6726 9.07149L12.9226 4.51321Z" fill="#FFAA00"/>
<path d="M42.9226 4.51321C43.3629 3.62141 44.6345 3.62141 45.0747 4.51321L47.3248 9.07149C47.4994 9.42531 47.8368 9.67066 48.2273 9.72773L53.2608 10.4635C54.2447 10.6073 54.6369 11.8167 53.9246 12.5105L50.2842 16.0562C50.0011 16.3319 49.8719 16.7292 49.9387 17.1187L50.7976 22.1264C50.9658 23.1068 49.9367 23.8543 49.0563 23.3913L44.5572 21.0253C44.2076 20.8414 43.7898 20.8414 43.4402 21.0253L38.9411 23.3913C38.0607 23.8543 37.0316 23.1068 37.1998 22.1264L38.0587 17.1187C38.1255 16.7292 37.9963 16.3319 37.7132 16.0562L34.0728 12.5105C33.3605 11.8167 33.7527 10.6073 34.7366 10.4635L39.7701 9.72773C40.1606 9.67066 40.498 9.42531 40.6726 9.07149L42.9226 4.51321Z" fill="#FFAA00"/>
<path d="M72.9226 4.51321C73.3629 3.62141 74.6345 3.62141 75.0747 4.51321L77.3248 9.07149C77.4994 9.42531 77.8368 9.67066 78.2273 9.72773L83.2608 10.4635C84.2447 10.6073 84.6369 11.8167 83.9246 12.5105L80.2842 16.0562C80.0011 16.3319 79.8719 16.7292 79.9387 17.1187L80.7976 22.1264C80.9658 23.1068 79.9367 23.8543 79.0563 23.3913L74.5572 21.0253C74.2076 20.8414 73.7898 20.8414 73.4402 21.0253L68.9411 23.3913C68.0607 23.8543 67.0316 23.1068 67.1998 22.1264L68.0587 17.1187C68.1255 16.7292 67.9963 16.3319 67.7132 16.0562L64.0728 12.5105C63.3605 11.8167 63.7527 10.6073 64.7366 10.4635L69.7701 9.72773C70.1606 9.67066 70.498 9.42531 70.6726 9.07149L72.9226 4.51321Z" fill="#FFAA00"/>
<path d="M102.923 4.51321C103.363 3.62141 104.635 3.62141 105.075 4.51321L107.325 9.07149C107.499 9.42531 107.837 9.67066 108.227 9.72773L113.261 10.4635C114.245 10.6073 114.637 11.8167 113.925 12.5105L110.284 16.0562C110.001 16.3319 109.872 16.7292 109.939 17.1187L110.798 22.1264C110.966 23.1068 109.937 23.8543 109.056 23.3913L104.557 21.0253C104.208 20.8414 103.79 20.8414 103.44 21.0253L98.9411 23.3913C98.0607 23.8543 97.0316 23.1068 97.1998 22.1264L98.0587 17.1187C98.1255 16.7292 97.9963 16.3319 97.7132 16.0562L94.0728 12.5105C93.3605 11.8167 93.7527 10.6073 94.7366 10.4635L99.7701 9.72773C100.161 9.67066 100.498 9.42531 100.673 9.07149L102.923 4.51321Z" fill="#FFAA00"/>
<path d="M132.923 4.51321C133.363 3.62141 134.635 3.62141 135.075 4.51321L137.325 9.07149C137.499 9.42531 137.837 9.67066 138.227 9.72773L143.261 10.4635C144.245 10.6073 144.637 11.8167 143.925 12.5105L140.284 16.0562C140.001 16.3319 139.872 16.7292 139.939 17.1187L140.798 22.1264C140.966 23.1068 139.937 23.8543 139.056 23.3913L134.557 21.0253C134.208 20.8414 133.79 20.8414 133.44 21.0253L128.941 23.3913C128.061 23.8543 127.032 23.1068 127.2 22.1264L128.059 17.1187C128.125 16.7292 127.996 16.3319 127.713 16.0562L124.073 12.5105C123.361 11.8167 123.753 10.6073 124.737 10.4635L129.77 9.72773C130.161 9.67066 130.498 9.42531 130.673 9.07149L132.923 4.51321Z" fill="#FFAA00"/>
</svg>
