<svg width="130" height="20" viewBox="0 0 130 20" fill="none" xmlns="http://www.w3.org/2000/svg">
<path d="M8.175 3.32083H10.0008V0.140833C9.68584 0.0975 8.6025 0 7.34084 0C4.70833 0 2.905 1.65583 2.905 4.69917V7.5H0V11.055H2.905V20H6.46667V11.0558H9.25417L9.69667 7.50083H6.46584V5.05167C6.46667 4.02417 6.74333 3.32083 8.175 3.32083Z" fill="#767F8C"/>
<g clip-path="url(#clip0_1647_32688)">
<path d="M49.5879 5.19897C49.3574 4.34219 48.6819 3.66684 47.8252 3.43612C46.2602 3.00781 39.9998 3.00781 39.9998 3.00781C39.9998 3.00781 33.7396 3.00781 32.1745 3.4198C31.3344 3.65036 30.6424 4.34234 30.4118 5.19897C30 6.7639 30 10.0094 30 10.0094C30 10.0094 30 13.2713 30.4118 14.8199C30.6425 15.6765 31.3179 16.352 32.1747 16.5827C33.7561 17.011 40 17.011 40 17.011C40 17.011 46.2602 17.011 47.8252 16.5991C48.682 16.3685 49.3574 15.693 49.5881 14.8364C49.9999 13.2713 49.9999 10.0259 49.9999 10.0259C49.9999 10.0259 50.0164 6.7639 49.5879 5.19897Z" fill="#767F8C"/>
<path d="M38.0078 13.0074L43.2137 10.0091L38.0078 7.01074V13.0074Z" fill="#18191C"/>
</g>
<g clip-path="url(#clip1_1647_32688)">
<path d="M89.9804 5.88005C89.9336 4.81738 89.7617 4.0868 89.5156 3.45374C89.2616 2.78176 88.8709 2.18014 88.359 1.68002C87.8589 1.1721 87.2533 0.777435 86.5891 0.527447C85.9524 0.281274 85.2256 0.109427 84.163 0.0625732C83.0923 0.0117516 82.7525 0 80.0371 0C77.3217 0 76.9818 0.0117516 75.9152 0.0586052C74.8525 0.105459 74.1219 0.277459 73.489 0.523479C72.8169 0.777435 72.2153 1.16814 71.7152 1.68002C71.2073 2.18014 70.8127 2.78573 70.5626 3.44992C70.3164 4.0868 70.1446 4.81341 70.0977 5.87609C70.0469 6.9467 70.0352 7.28658 70.0352 10.002C70.0352 12.7173 70.0469 13.0572 70.0938 14.1239C70.1406 15.1865 70.3126 15.9171 70.5588 16.5502C70.8127 17.2221 71.2073 17.8238 71.7152 18.3239C72.2153 18.8318 72.8209 19.2265 73.4851 19.4765C74.1219 19.7226 74.8486 19.8945 75.9114 19.9413C76.9779 19.9883 77.3179 19.9999 80.0333 19.9999C82.7486 19.9999 83.0885 19.9883 84.1552 19.9413C85.2178 19.8945 85.9484 19.7226 86.5813 19.4765C87.9254 18.9568 88.9881 17.8941 89.5078 16.5502C89.7538 15.9133 89.9258 15.1865 89.9726 14.1239C90.0195 13.0572 90.0312 12.7173 90.0312 10.002C90.0312 7.28658 90.0273 6.9467 89.9804 5.88005ZM88.1794 14.0457C88.1364 15.0225 87.9723 15.5499 87.8355 15.9015C87.4995 16.7728 86.808 17.4643 85.9367 17.8004C85.585 17.9372 85.0538 18.1012 84.0808 18.1441C83.026 18.1911 82.7096 18.2027 80.0411 18.2027C77.3725 18.2027 77.0522 18.1911 76.0011 18.1441C75.0244 18.1012 74.4969 17.9372 74.1453 17.8004C73.7117 17.6402 73.317 17.3862 72.9967 17.0541C72.6646 16.7298 72.4106 16.3391 72.2504 15.9055C72.1137 15.5539 71.9496 15.0225 71.9067 14.0497C71.8597 12.9948 71.8481 12.6783 71.8481 10.0097C71.8481 7.34122 71.8597 7.02087 71.9067 5.96995C71.9496 4.99319 72.1137 4.46575 72.2504 4.11412C72.4106 3.68038 72.6646 3.28586 73.0007 2.96536C73.3248 2.63327 73.7155 2.37931 74.1493 2.21921C74.5009 2.08247 75.0323 1.9184 76.0051 1.87537C77.06 1.82851 77.3765 1.81676 80.0449 1.81676C82.7174 1.81676 83.0337 1.82851 84.0848 1.87537C85.0616 1.9184 85.589 2.08247 85.9406 2.21921C86.3742 2.37931 86.7689 2.63327 87.0892 2.96536C87.4213 3.28967 87.6753 3.68038 87.8355 4.11412C87.9723 4.46575 88.1364 4.99701 88.1794 5.96995C88.2262 7.02484 88.238 7.34122 88.238 10.0097C88.238 12.6783 88.2262 12.9908 88.1794 14.0457Z" fill="#767F8C"/>
<path d="M80.0362 4.86426C77.1998 4.86426 74.8984 7.16543 74.8984 10.002C74.8984 12.8385 77.1998 15.1397 80.0362 15.1397C82.8727 15.1397 85.1739 12.8385 85.1739 10.002C85.1739 7.16543 82.8727 4.86426 80.0362 4.86426ZM80.0362 13.3347C78.196 13.3347 76.7034 11.8422 76.7034 10.002C76.7034 8.16172 78.196 6.66927 80.0362 6.66927C81.8764 6.66927 83.3689 8.16172 83.3689 10.002C83.3689 11.8422 81.8764 13.3347 80.0362 13.3347Z" fill="#767F8C"/>
<path d="M86.5787 4.66085C86.5787 5.32321 86.0416 5.86028 85.3791 5.86028C84.7168 5.86028 84.1797 5.32321 84.1797 4.66085C84.1797 3.99834 84.7168 3.46143 85.3791 3.46143C86.0416 3.46143 86.5787 3.99834 86.5787 4.66085Z" fill="#767F8C"/>
</g>
<g clip-path="url(#clip2_1647_32688)">
<path d="M130 3.79875C129.256 4.125 128.464 4.34125 127.637 4.44625C128.487 3.93875 129.136 3.14125 129.441 2.18C128.649 2.6525 127.774 2.98625 126.841 3.1725C126.089 2.37125 125.016 1.875 123.846 1.875C121.576 1.875 119.749 3.7175 119.749 5.97625C119.749 6.30125 119.776 6.61375 119.844 6.91125C116.435 6.745 113.419 5.11125 111.392 2.6225C111.039 3.23625 110.831 3.93875 110.831 4.695C110.831 6.115 111.562 7.37375 112.652 8.1025C111.994 8.09 111.347 7.89875 110.8 7.5975C110.8 7.61 110.8 7.62625 110.8 7.6425C110.8 9.635 112.221 11.29 114.085 11.6712C113.751 11.7625 113.388 11.8062 113.01 11.8062C112.747 11.8062 112.482 11.7913 112.234 11.7362C112.765 13.36 114.273 14.5538 116.065 14.5925C114.67 15.6838 112.899 16.3412 110.981 16.3412C110.645 16.3412 110.322 16.3263 110 16.285C111.816 17.4563 113.969 18.125 116.29 18.125C123.835 18.125 127.96 11.875 127.96 6.4575C127.96 6.27625 127.954 6.10125 127.945 5.9275C128.759 5.35 129.442 4.62875 130 3.79875Z" fill="#767F8C"/>
</g>
<defs>
<clipPath id="clip0_1647_32688">
<rect width="20" height="20" fill="white" transform="translate(30)"/>
</clipPath>
<clipPath id="clip1_1647_32688">
<rect width="20" height="20" fill="white" transform="translate(70)"/>
</clipPath>
<clipPath id="clip2_1647_32688">
<rect width="20" height="20" fill="white" transform="translate(110)"/>
</clipPath>
</defs>
</svg>
